<svg xmlns="http://www.w3.org/2000/svg" viewBox="0 0 640 640">
  <path d="M428.36 25C445.03 8.33 472.12 8.33 488.79 25C505.45 41.67 505.45 68.76 488.79 85.42C472.32 101.89 389.96 184.25 241.71 332.5C389.96 480.75 472.32 563.11 488.79 579.58C505.45 596.25 505.45 623.34 488.79 640.01C472.12 656.67 445.03 656.67 428.36 640.01C400.65 612.3 178.92 390.64 151.2 362.93C143.13 354.9 138.63 343.97 138.72 332.59C138.72 321.48 142.82 310.54 151.2 302.16C206.63 246.73 400.65 52.72 428.36 25Z" fill="currentColor" />
</svg>




 
