<svg version="1.1" xmlns="http://www.w3.org/2000/svg" viewBox="0 0 640 640">
  <path d="M592.46 6.69L594.33 6.87L596.18 7.14L598 7.47L599.79 7.87L601.56 8.35L603.3 8.88L605.01 9.49L606.68 10.16L608.32 10.89L609.93 11.68L611.5 12.54L613.04 13.45L614.53 14.41L615.99 15.44L617.4 16.51L618.77 17.64L620.09 18.82L621.37 20.05L622.6 21.33L623.78 22.65L624.91 24.02L625.99 25.44L627.01 26.89L627.98 28.39L628.89 29.92L629.74 31.49L630.54 33.1L631.27 34.74L631.94 36.42L632.54 38.13L633.08 39.87L633.55 41.63L633.96 43.43L634.29 45.25L634.55 47.09L634.74 48.96L634.85 50.85L634.89 52.76L634.89 588.62L634.85 590.53L634.74 592.41L634.55 594.28L634.29 596.13L633.96 597.95L633.55 599.74L633.08 601.51L632.54 603.25L631.94 604.96L631.27 606.63L630.54 608.27L629.74 609.88L628.89 611.45L627.98 612.99L627.01 614.48L625.99 615.94L624.91 617.35L623.78 618.72L622.6 620.04L621.37 621.32L620.09 622.55L618.77 623.73L617.4 624.86L615.99 625.94L614.53 626.96L613.04 627.93L611.5 628.84L609.93 629.69L608.32 630.49L606.68 631.22L605.01 631.89L603.3 632.49L601.56 633.03L599.79 633.5L598 633.91L596.18 634.24L594.33 634.5L592.46 634.69L590.58 634.8L588.67 634.84L52.81 634.84L50.9 634.8L49.01 634.69L47.14 634.5L45.3 634.24L43.48 633.91L41.68 633.5L39.92 633.03L38.18 632.49L36.47 631.89L34.79 631.22L33.15 630.49L31.54 629.69L29.97 628.84L28.44 627.93L26.94 626.96L25.49 625.94L24.07 624.86L22.7 623.73L21.38 622.55L20.1 621.32L18.87 620.04L17.69 618.72L16.56 617.35L15.49 615.94L14.46 614.48L13.5 612.99L12.59 611.45L11.73 609.88L10.94 608.27L10.21 606.63L9.54 604.96L8.93 603.25L8.4 601.51L7.92 599.74L7.52 597.95L7.19 596.13L6.92 594.28L6.74 592.41L6.62 590.53L6.58 588.62L6.58 52.76L6.62 50.85L6.74 48.96L6.92 47.09L7.19 45.25L7.52 43.43L7.92 41.63L8.4 39.87L8.93 38.13L9.54 36.42L10.21 34.74L10.94 33.1L11.73 31.49L12.59 29.92L13.5 28.39L14.46 26.89L15.49 25.44L16.56 24.02L17.69 22.65L18.87 21.33L20.1 20.05L21.38 18.82L22.7 17.64L24.07 16.51L25.49 15.44L26.94 14.41L28.44 13.45L29.97 12.54L31.54 11.68L33.15 10.89L34.79 10.16L36.47 9.49L38.18 8.88L39.92 8.35L41.68 7.87L43.48 7.47L45.3 7.14L47.14 6.87L49.01 6.69L50.9 6.57L52.81 6.53L588.67 6.53L590.58 6.57L592.46 6.69ZM320.74 502L321.19 230.48L411.84 230.48L411.39 502.45L502.05 502.45L502.5 140.27L140.32 139.82L139.43 502L320.74 502Z" fill="currentColor" />
</svg>
