<svg xmlns="http://www.w3.org/2000/svg" xmlns:xlink="http://www.w3.org/1999/xlink" viewBox="132.565 152.025 376.947 336.125" width="373" height="333"><defs><path d="M396.22 153.1l.94.02.47.02.46.03.46.02 1.38.12.9.1.45.06.45.07.44.07 1.32.24.43.1.43.1.43.1.43.1 1.26.36.42.13 1.23.42.4.16.4.15.8.34.4.17.4.18.4.2.76.38.38.2.38.2.37.22 1.58.97 1.5 1.07 1.45 1.16 1.4 1.26 1.32 1.35 1.27 1.44 1.2 1.53 1.14 1.62 1.08 1.7 1.02 1.78.96 1.87.9 1.95.84 2.03.77 2.1.72 2.2.65 2.26.6 2.33.53 2.4.47 2.47.4 2.55.35 2.6.3 2.68.23 2.75.16 2.8.1 2.87.05 2.93-.02 3-.07 3.04-.14 3.1-.2 3.15-.25 3.2-.32 3.25-.37 3.3-.44 3.35-.5 3.4-.55 3.44-.62 3.5-.67 3.53-.73 3.57-.8 3.6 3.52 1.1 3.47 1.14 3.4 1.17 3.34 1.2 3.26 1.23 3.2 1.27 3.13 1.3 3.05 1.3 3 1.35 2.9 1.38 2.84 1.4 2.75 1.43 2.68 1.45 2.6 1.47 2.52 1.5 2.44 1.52 2.35 1.54 2.27 1.57 2.18 1.58 2.1 1.6 2 1.62 1.9 1.64 1.82 1.66 1.73 1.68 1.64 1.7 1.54 1.7 1.44 1.72 1.35 1.73 1.24 1.75 1.15 1.77 1.04 1.77.93 1.8.84 1.8.72 1.8.62 1.82.5 1.82.4 1.83.28 1.84.17 1.85.06 1.85-.06 1.84-.17 1.84-.28 1.83-.4 1.83-.5 1.82-.62 1.8-.72 1.8-.83 1.8-.93 1.78-1.04 1.77-1.13 1.76-1.24 1.75-1.34 1.73-1.43 1.72-1.54 1.7-1.62 1.7-1.72 1.67-1.82 1.66-1.9 1.64-2 1.62-2.1 1.6-2.17 1.58-2.25 1.57-2.34 1.54-2.42 1.52-2.5 1.5-2.58 1.48-2.66 1.45-2.74 1.42-2.82 1.4-2.9 1.38-2.97 1.34-3.03 1.32-3.1 1.3-3.18 1.26-3.24 1.23-3.3 1.2-3.38 1.17-3.44 1.13-3.5 1.1.8 3.6.74 3.55.68 3.52.6 3.48.56 3.43.5 3.4.44 3.34.38 3.3.32 3.25.26 3.2.2 3.15.14 3.1.08 3.03.02 2.98-.04 2.92-.1 2.87-.16 2.8-.22 2.73-.28 2.68-.35 2.6-.4 2.54-.47 2.48-.52 2.4-.6 2.33-.65 2.25-.7 2.18-.77 2.1-.83 2.02-.9 1.95-.95 1.87-1 1.78-1.08 1.7-1.14 1.62-1.2 1.52-1.26 1.44-1.32 1.35-1.4 1.26-1.45 1.16-1.5 1.07-1.58.97-.37.2-.38.2-.4.2-.38.2-.78.38-.4.18-.8.34-.8.32-.82.3-.42.14-.4.14-.42.13-.42.12-.43.12-.42.1-.43.1-.43.1-.44.1-.44.1-.43.1-.45.08-.44.08-.45.07-1.35.18-.46.05-.92.08-.46.03-.47.03-1.4.06h-.48l-.48.01-1.58-.03-1.6-.08-1.63-.14-1.64-.2-1.68-.25-1.7-.3-1.7-.35-1.73-.4-1.76-.46-1.77-.5-1.8-.56-1.8-.6-1.82-.67-1.85-.7-1.85-.77-1.88-.8-1.9-.86-1.9-.92-1.92-.96-1.93-1-1.94-1.06-1.96-1.1-1.97-1.16-1.97-1.2-2-1.25-2-1.3-2-1.34-2-1.4-2.03-1.43-2.03-1.48-2.04-1.52-2.04-1.56-2.05-1.6-2.06-1.65-2.06-1.7-2.06-1.74-2.07-1.78-2.07-1.82-2.07-1.87-2.08-1.9-2.07 1.92-2.08 1.88-2.07 1.83-2.06 1.8-2.07 1.75-2.06 1.7-2.05 1.67-2.05 1.62-2.05 1.57-2.04 1.53-2.03 1.5-2.02 1.44-2.02 1.4-2 1.35-2 1.3-2 1.26-1.98 1.2-1.97 1.17-1.95 1.1-1.95 1.07-1.93 1.02-1.9.97-1.9.92-1.9.87-1.87.82-1.86.77-1.84.72-1.83.67-1.8.62-1.8.57-1.77.5-1.75.46-1.73.4-1.72.36-1.7.3-1.67.25-1.65.2-1.63.14-1.6.08-1.58.03h-.48l-.47-.01-.48-.01-.94-.04-.46-.03-.47-.04-.92-.08-.45-.05-.46-.05-.45-.06-.45-.07-.44-.07-.45-.08-.44-.08-.43-.08-.44-.1-.86-.2-.43-.1-.43-.12-.84-.24-.4-.13-.42-.14-.82-.28-.4-.16-.4-.15-.4-.17-.4-.16-.4-.18-.4-.18-.38-.18-.4-.2-.38-.2-.38-.2-.37-.2-.37-.22-1.58-.97-1.52-1.07-1.45-1.16-1.4-1.26-1.33-1.35-1.27-1.44-1.2-1.53-1.14-1.6-1.1-1.7-1.02-1.78-.96-1.87-.9-1.95-.84-2.03-.78-2.1-.7-2.2-.65-2.26-.6-2.33-.53-2.4-.47-2.47-.4-2.55-.35-2.6-.28-2.68-.23-2.75-.17-2.8-.1-2.87-.05-2.93v-3l.08-3.04.13-3.1.2-3.15.25-3.2.32-3.25.37-3.3.43-3.35.5-3.4.55-3.44.6-3.5.68-3.53.73-3.57.8-3.6-3.53-1.1-3.46-1.14-3.4-1.17-3.33-1.2-3.27-1.23-3.2-1.26-3.13-1.3-3.06-1.32-2.98-1.35-2.9-1.37-2.83-1.4-2.76-1.43-2.68-1.45-2.6-1.47-2.5-1.5-2.44-1.52-2.35-1.54-2.27-1.57-2.18-1.58-2.1-1.6-2-1.63-1.92-1.64-1.82-1.66-1.73-1.67-1.63-1.7-1.54-1.7-1.45-1.73-1.34-1.73-1.25-1.75-1.14-1.77-1.04-1.77-.94-1.8-.83-1.8-.73-1.8-.6-1.8-.5-1.83-.4-1.83-.3-1.84-.17-1.84-.06-1.85.06-1.85.17-1.84.3-1.83.4-1.83.5-1.82.6-1.8.73-1.8.82-1.8.94-1.78 1.03-1.77 1.14-1.76 1.24-1.74 1.34-1.73 1.44-1.72 1.53-1.7 1.63-1.7 1.72-1.68 1.82-1.65 1.9-1.64 2-1.62 2.08-1.6 2.18-1.58 2.25-1.56 2.35-1.54 2.42-1.52 2.5-1.5 2.6-1.47 2.67-1.45 2.75-1.43 2.82-1.4 2.9-1.37 2.97-1.35 3.04-1.32 3.12-1.3 3.2-1.27 3.25-1.23 3.32-1.2 3.4-1.17 3.45-1.15 3.52-1.1-.8-3.6-.74-3.56-.68-3.52-.62-3.48-.56-3.43-.5-3.4-.44-3.34-.38-3.3-.32-3.24-.26-3.2-.2-3.15-.14-3.1-.08-3.03-.01-2.98.04-2.92.1-2.86.16-2.8.22-2.74.28-2.68.35-2.6.4-2.54.46-2.47.53-2.4.6-2.33.64-2.25.7-2.18.77-2.1.83-2.02.9-1.95.96-1.87 1-1.78 1.08-1.7 1.14-1.6 1.2-1.53 1.26-1.44 1.32-1.35 1.4-1.25 1.44-1.17 1.5-1.07 1.57-.97.76-.42.38-.2.4-.2.78-.38.4-.18.4-.17.4-.17.4-.16.4-.16.82-.3.4-.14 1.26-.4.42-.12.86-.22.43-.1.44-.1.43-.1.44-.1.44-.08.45-.08.45-.07.44-.06.46-.06.45-.06.46-.05.92-.08.46-.03.47-.03.94-.04.95-.02h.47v-.08l1.58.03 1.6.08 1.62.14 1.65.2 1.67.24 1.7.3 1.7.35 1.73.4 1.76.46 1.77.5 1.8.56 1.8.6 1.82.66 1.84.72 1.86.76 1.88.8 1.9.87 1.9.9 1.92.96 1.93 1 1.94 1.06 1.96 1.1 1.96 1.15 1.98 1.2 2 1.24 2 1.3 2 1.34 2.02 1.38 2.02 1.44 2.04 1.47 2.03 1.52 2.05 1.57 2.05 1.6 2.06 1.65 2.06 1.7 2.06 1.74 2.07 1.78 2.07 1.82 2.07 1.86 2.08 1.9 2.07-1.92 2.07-1.87 2.07-1.84 2.07-1.8 2.07-1.75 2.06-1.7 2.05-1.66 2.05-1.62 2.05-1.58 2.04-1.53 2.03-1.5 2.02-1.44 2.02-1.4 2-1.35 2-1.3 2-1.26 1.98-1.2 1.97-1.16 1.95-1.12 1.94-1.06 1.93-1.02 1.92-.97 1.9-.92 1.88-.88 1.88-.82 1.86-.77 1.84-.72 1.83-.67 1.8-.62 1.8-.56 1.78-.52 1.75-.46 1.73-.4 1.72-.35 1.7-.3 1.67-.25 1.65-.2 1.63-.14 1.6-.1 1.58-.02v.07h.4zM227.96 387.48l-.24 1.14-.12.58-.36 1.7-.1.57-.12.57-.33 1.7-.1.56-.1.57-.1.56-.1.57-.1.56-.1.56-.1.56-.2 1.12-.1.56-.1.55-.1.56-.1.55-.08.56-.1.55-.08.55-.1.55-.08.55-.08.54-.07.55-.08.55-.35 2.7-.06.54-.25 2.16-.2 2.14-.2 2.12-.16 2.08-.13 2.06-.1 2.03-.07 2-.05 1.97-.01 1.94.01 1.9.04 1.88.07 1.83.1 1.8.12 1.77.15 1.72.18 1.7.2 1.65.24 1.6.25 1.57.3 1.52.3 1.5.33 1.43.36 1.4.4 1.35.4 1.3.43 1.25.47 1.2.48 1.16.5 1.1.53 1.05.56 1 .58.94.6.88.63.83.65.78.67.7.7.66.72.6.74.54.77.47.17.1.17.1.54.27.18.08.76.32.2.07.2.07.4.14.2.06.2.06.42.12.42.1.66.15.22.04.23.04.22.04.23.04.23.03.24.03.23.03.48.06.48.04.25.02.25.01.25.02.5.02h.26l1.2-.02 1.22-.07 1.26-.12 1.28-.16 1.3-.2 1.34-.26 1.35-.3 1.38-.35 1.4-.4 1.43-.44 1.45-.48 1.47-.53 1.5-.58 1.5-.62 1.54-.66 1.55-.7 1.57-.75 1.6-.8 1.6-.84 1.62-.88 1.64-.93 1.66-.97 1.68-1 1.68-1.06 1.7-1.1 1.7-1.14 1.74-1.18 1.74-1.22 1.76-1.26 1.76-1.3 1.78-1.35 1.8-1.4 1.8-1.42 1.8-1.47 1.82-1.5 1.83-1.55 1.84-1.6 1.84-1.63 1.85-1.67 1.85-1.7-.8-.84-.8-.85-.8-.85-1.6-1.72-.8-.87-.8-.88-.8-.88-1.6-1.78-.8-.9-.8-.9-.8-.9-1.6-1.84-.8-.93-.8-.93-.8-.94-.8-.94-1.58-1.9-.8-.96-1.58-1.94-1.58-1.96-.78-1-.8-1-.78-1-.8-1-.78-1-.78-1.02-.78-1-.78-1.03-.77-1.03-.78-1.03-.78-1.04-.77-1.04-1.54-2.1-2.56-.28-1.27-.14-1.28-.15-1.26-.16-3.8-.48-3.75-.5-2.48-.36-1.24-.2-2.46-.38-3.66-.6-3.63-.63-3.58-.66-1.2-.23-2.36-.46-3.5-.72-3.47-.75-1.14-.25-1.14-.26-1.14-.27-1.13-.26-2.24-.54-.13.57-.12.58zm181.82-.75l-1.13.27-1.14.26-1.14.27-2.3.52-2.3.5-1.16.25-1.17.24-1.18.24-1.17.23-1.2.24-1.18.23-4.8.88-2.42.42-2.44.4-1.23.2-2.46.38-1.24.2-1.24.18-1.25.18-1.25.17-1.25.18-1.26.16-1.26.17-2.54.32-2.55.3-1.28.15-2.57.28-1.52 2.1-.76 1.04-.77 1.03-.76 1.04-2.3 3.06-1.55 2-1.56 2-.78 1-2.34 2.94-.8.96-.78.97-.8.95-.8.96-.78.94-1.58 1.88-3.17 3.7-1.6 1.8-.8.9-1.6 1.77-1.6 1.76-.8.87-1.6 1.72-.8.85-.8.85-.8.84 1.85 1.7 1.85 1.65 1.85 1.62 1.83 1.58 1.83 1.54 1.82 1.5 1.8 1.46 1.8 1.42 1.8 1.38 1.78 1.34 1.77 1.3 1.75 1.25 1.75 1.22 1.73 1.17 1.72 1.13 1.7 1.1 1.7 1.05 1.67 1 1.66.96 1.65.92 1.62.88 1.6.84 1.6.8 1.57.74 1.56.7 1.53.66 1.5.62 1.5.57 1.47.52 1.45.5 1.43.43 1.4.4 1.38.34 1.35.3 1.33.26 1.3.2 1.28.16 1.25.12 1.22.07 1.2.02h.52l.26-.01h.26l.25-.01.25-.02.25-.01.25-.02.48-.04.24-.03.24-.02.24-.03.23-.04.23-.03.7-.12.22-.04.44-.1.2-.05.22-.06.63-.18.2-.06.4-.14.2-.08.2-.07.2-.08.2-.08.18-.1.2-.08.18-.1.18-.1.18-.1.34-.2.76-.48.74-.55.7-.6.7-.66.66-.72.65-.78.62-.83.6-.9.58-.95.55-1 .53-1.05.5-1.1.48-1.15.46-1.2.43-1.26.4-1.3.38-1.34.36-1.4.33-1.43.3-1.5.28-1.52.25-1.57.23-1.6.2-1.65.17-1.68.14-1.73.12-1.77.1-1.8.06-1.83.04-1.87v-1.9l-.02-1.94-.05-1.97-.08-2-.1-2.03-.13-2.06-.17-2.08-.2-2.12-.22-2.14-.26-2.16-.06-.54-.07-.53-.06-.53-.07-.53-.07-.54-.08-.54-.07-.53-.24-1.62-.08-.55-.18-1.08-.08-.55-.1-.55-.1-.54-.18-1.1-.1-.55-.1-.56-.1-.55-.1-.56-.1-.55-.1-.56-.44-2.24-.12-.56-.1-.56-.24-1.14-.12-.56-.24-1.14-.13-.57-.12-.57-.13-.58-.13-.57-.13-.58-2.24.56zm-70.67 9.66l-1 .04-1 .05-2 .08-5.02.15-2.02.04-1 .01-1 .02-3.05.03H322l-1.02.01h-2.03l-4.02-.04-1-.02-1-.01-1-.02-1-.03-1-.02-3.97-.12-1-.04-1-.03-3.93-.16-.98-.05 1 1.27 1 1.26 1 1.24 2 2.46 1 1.2 1 1.2 1 1.2 1 1.2 1 1.17 3.02 3.44 1 1.13 2.02 2.22 1 1.1 1 1.08 1 1.07 1 1.06 1 1.05 1-1.05 1-1.06 1-1.07 1-1.08 1-1.1 1-1.1 1-1.1 1-1.13 1-1.14 2-2.3 1-1.17 1-1.2 1-1.2 1-1.2 1-1.2 1.98-2.46.98-1.24 1-1.26.98-1.27-1 .06-1 .05zm-20.8-137.92h-.87l-3.46.04-.87.02-.86.01-2.6.06-1.72.06-.87.02-.86.03-.86.04-.86.03-.86.04-.86.03-1.72.08-.85.05-.86.04-1.72.1-2.56.15-5.13.36-4.25.35-.48.68-.47.7-.47.68-1.4 2.07-.46.7-.94 1.4-.46.7-.47.7-.46.7-.46.7-.47.72-.46.7-1.84 2.88-.46.73-.45.72-.46.74-.45.73-.46.73-.45.74-.46.74-.9 1.48-.45.75-.46.75-1.35 2.25-.44.76-1.35 2.28-.44.77-.45.76-.44.77-.86 1.5-2.52 4.5-.4.76-.4.75-.42.76-.4.75-.4.76-.4.75-.4.76-.4.76-.4.76-.4.75-.4.76-.4.76-.4.76-1.17 2.28-.38.77-.4.76-1.14 2.28-.37.77-.38.76-.37.76-.37.77-.37.76-.36.76-.37.77-.36.76-.36.77-.35.76-.36.76.36.77.36.76.37.76.36.77 1.1 2.28.37.77.37.76 1.9 3.8.4.76.38.76.4.75.78 1.52.4.76.4.75.8 1.52.4.75.4.76.82 1.5.4.76.82 1.5.4.76 1.68 3 .43.75.42.75.43.74.86 1.5.45.76.44.76.9 1.52.45.75.45.76.9 1.5.45.74.45.75.46.74.9 1.48.46.74.46.73.45.73 1.38 2.2 1.84 2.88.47.7.46.72.46.7.47.7.46.7.47.7.47.7.46.7.47.7.94 1.38.47.7.47.68.47.7.47.68.48.7.47.68.84.06.85.07.84.07 4.25.3.85.05.85.06 3.4.2.85.04.86.05 4.28.2 5.14.18 4.3.1.86.01h.86l.86.01h.86l.87.01.86.01h3.45l.87-.01.86-.01h.87l.86-.02h.87l.86-.01 3.45-.08.87-.03.86-.02 2.58-.1.86-.04.86-.03 3.44-.16.86-.05.86-.04.85-.05.86-.05.86-.06.85-.05.86-.06.85-.05 1.7-.12.85-.07.85-.06.86-.07.85-.07.85-.06.85-.08.85-.07.94-1.36.47-.7.47-.68.47-.7.47-.7.47-.7.47-.7.46-.7.47-.7.46-.7.47-.7.92-1.42.46-.72.47-.7.46-.72.45-.72.46-.73.46-.72.46-.73.45-.73.46-.73.46-.74.9-1.48.46-.74.45-.74.45-.75.45-.74.45-.75.45-.76.45-.75 1.35-2.28.44-.76.45-.76.44-.77.45-.77.43-.75.42-.74.42-.75.43-.75.42-.75.4-.75.42-.76.4-.75.42-.75.4-.76.4-.75.4-.76.4-.75.4-.76.4-.76.4-.75.8-1.52.4-.76.4-.76 1.56-3.04.38-.76.4-.76.38-.77 1.14-2.28.37-.77.38-.76.37-.76.37-.77.37-.76.36-.76.37-.77.36-.76.36-.77.36-.76-.36-.76-.36-.77-.36-.76-.37-.76-.36-.77-1.1-2.28-.38-.76-.37-.76-.38-.77-.76-1.52-.38-.75-.78-1.52-.38-.76-.4-.76-.4-.76-.4-.75-.4-.76-.4-.76-.4-.75-.4-.76-.4-.75-.4-.76-.82-1.5-.4-.76-.4-.75-.42-.75-.4-.75-.84-1.5-.43-.75-.42-.75-.43-.75-.42-.75-.43-.75-.44-.75-.44-.76-.9-1.52-.44-.76-2.25-3.75-.46-.74-.45-.75-.45-.74-.46-.74-.45-.73-.46-.74-.46-.73-.45-.73-.46-.73-.46-.72-.46-.73-.46-.72-.47-.72-.46-.72-.92-1.42-.47-.7-.46-.7-.47-.7-.46-.7-.47-.7-.47-.7-.94-1.4-.46-.7-.47-.7-.48-.7-.47-.7-1.4-2.04-1.7-.14-1.7-.12-.84-.07-1.7-.12-.85-.05-.85-.06-.85-.05-.85-.06-1.7-.1-.85-.04-1.7-.1-3.42-.16-.86-.03-.86-.04-.85-.03-2.58-.1-.86-.02-.86-.03-2.58-.06-.86-.01-.86-.02-3.44-.04h-.86l-.86-.01h-1.73l-.86.01zm78.07 82.77l-.45.87-.46.87-.45.87-.46.88-.92 1.74-.46.88-.47.87-.47.88-.47.87-.48.87-.48.88-.96 1.74-.5.88-.48.87-.5.87-.5.87-.5.87-.5.88-.5.87-.5.88-1.02 1.74-.52.87-.5.87-1.04 1.72-.53.86-.52.86-.53.86-.52.85-1.6 2.55-.53.84-.53.85-1.06 1.68-.54.84 1.55-.24 1.55-.23 3.07-.5 1.53-.25 1.52-.26 3.03-.54 1.5-.28 1.5-.3 2.98-.58 1.48-.3 1.47-.3 1.47-.32 1.46-.3 1.46-.33 2.88-.66 1.44-.34 1.42-.35-.4-1.4-.86-2.84-.44-1.42-.45-1.43-.46-1.43-.94-2.88-.98-2.88-.5-1.44-.5-1.45-1.04-2.9-1.08-2.9-.55-1.45-.56-1.46-.56-1.45-.57-1.46-.6-1.45-.44.87-.45.87zM241.6 342.7l-.55 1.44-.54 1.45-.54 1.44-.52 1.44-.53 1.44-1.02 2.88-.5 1.43-.5 1.44-.96 2.86-.46 1.42-.46 1.43-.9 2.84-.43 1.4-.84 2.82-.4 1.4 2.86.68 2.88.66 1.45.32 1.46.32 1.46.3 1.47.3 1.47.3 2.97.58 1.5.28 3 .54 1.5.26 1.52.26 3.04.5 1.53.24 1.53.23 1.54.24-2.12-3.32-.53-.84-.52-.83-.53-.84-.52-.84-.53-.85-.52-.84-2.08-3.4-.5-.86-.52-.85-.5-.86-.52-.87-1.02-1.72-1.53-2.6-.5-.87-.5-.87-.5-.87-.5-.87-.48-.86-1.44-2.6-1.4-2.6-.46-.87-.46-.86-.46-.87-.45-.87-.46-.87-.9-1.74-.44-.87-.56 1.45-.56 1.44zm-26.9-69.35l-.55.18-.55.17-.55.18-.54.18-.55.18-.55.2-.54.18-.55.18-.54.18-.54.2-.54.18-.54.2-.53.2-.54.18-1.06.38-.54.2-.53.2-.52.2-.53.2-.52.2-.53.2-.52.2-.52.2-.52.2-.5.2-.52.2-1.53.6-.5.2-.5.2-1 .42-.5.2-.5.2-.98.42-2 .86-1.96.88-1.93.9-1.9.9-1.85.9-1.8.92-1.77.93-1.73.94-1.7.95-1.65.96-1.6.97-1.56.97-1.52.98-1.47 1-1.42 1-1.38 1-1.33 1-1.28 1-1.23 1-1.18 1-1.13 1-1.08 1-1.03 1-.98 1-.92 1-.87 1-.8 1-.76 1-.7 1-.65.98-.6.98-.52.98-.47.96-.4.96-.35.95-.28.95-.23.93-.16.92-.1.9-.03.9.03.9.1.9.16.92.23.93.28.94.35.95.4.96.47.97.52.97.6.98.65.98.7 1 .76 1 .8 1 .87 1 .92 1 .98 1 1.03 1 1.08 1 1.13 1 1.18 1 1.23 1 1.28 1 1.33 1 1.38 1 1.42 1 1.47 1 1.52.98 1.56.97 1.6.97 1.65.96 1.7.95 1.73.94 1.77.94 1.8.92 1.85.92 1.9.9 1.93.9 1.96.88 2 .87 2.5 1.05.5.2.5.2.5.2.5.2.52.2.5.2 1.56.6.53.2.52.2.53.2.53.2.53.2.53.2.53.2.54.2 2.7.95.55.18.55.2.54.18.55.2.56.18.55.2.55.18 3.36 1.08.33-1.12.32-1.1.34-1.12.33-1.12.35-1.12.34-1.13.36-1.12.35-1.13.37-1.13.36-1.13.38-1.14.38-1.13.38-1.14.4-1.14.4-1.15.4-1.14.4-1.15.4-1.15 1.26-3.45.43-1.16.44-1.16.44-1.15.44-1.17.45-1.16.46-1.16.92-2.34.47-1.17.96-2.34.48-1.18.5-1.17.5-1.18.5-1.18 1.02-2.36.52-1.2.52-1.18-.53-1.2-1.04-2.38-.5-1.2-.5-1.18-.5-1.2-.5-1.18-.5-1.18-.48-1.18-.48-1.17-.48-1.18-.94-2.34-.92-2.34-.45-1.17-.44-1.17-.88-2.32-.43-1.16-.42-1.16-.42-1.15-.42-1.16-.4-1.15-1.2-3.45-.38-1.14-.4-1.14-.38-1.14-.74-2.28-.72-2.26-.7-2.26-.35-1.12-.33-1.13-.34-1.12-.32-1.12-.56.18-.55.18zm208.6 1.8l-.34 1.12-.33 1.12-.35 1.12-.34 1.13-.36 1.12-.35 1.13-.37 1.13-.36 1.13-1.14 3.4-.4 1.15-.4 1.14-.4 1.14-.4 1.15-.4 1.15-1.26 3.45-.43 1.16-1.32 3.48-.45 1.16-.46 1.17-.46 1.16-.46 1.17-.47 1.17-.96 2.34-.48 1.18-.5 1.17-.5 1.18-.5 1.18-1.02 2.36-.52 1.2-.52 1.18.53 1.2 1.04 2.38.5 1.2.5 1.18.5 1.2.5 1.18.5 1.18.48 1.18.48 1.17.48 1.18.47 1.17.47 1.18.92 2.34.45 1.16.44 1.17.88 2.32.43 1.16.84 2.32.42 1.15.4 1.15 1.2 3.45.38 1.14.4 1.14.38 1.14.74 2.28.72 2.26 1.05 3.4.33 1.12.34 1.12.32 1.12.56-.18.55-.18.55-.17 1.1-.36.54-.18 1.1-.36.54-.2.55-.18.54-.18.54-.2.54-.18.54-.2.53-.18.54-.2 1.06-.38.54-.2.53-.2.52-.2.53-.2.52-.2.53-.2.52-.2 1.04-.4.5-.2.52-.2 1.02-.4.5-.2.5-.2.5-.2.5-.2.5-.2 1-.42.98-.42 2-.86 1.96-.88 1.93-.88 1.9-.9 1.85-.92 1.8-.92 1.77-.93 1.73-.94 1.7-.95 1.65-.96 1.6-.97 1.56-.97 1.52-.98 1.47-.98 1.42-1 1.38-1 1.33-1 1.28-1 1.24-1 1.18-1 1.13-1 1.1-1 1.03-1 .98-1 .92-1 .87-1 .82-1 .76-1 .7-1 .65-.98.6-.98.53-.98.48-.96.4-.96.35-.95.3-.94.23-.94.16-.92.1-.9.04-.9-.04-.9-.1-.9-.17-.92-.22-.93-.3-.94-.34-.95-.4-.96-.47-.97-.53-.97-.6-.98-.64-.98-.7-1-.76-1-.8-1-.87-1-.92-1-.98-1-1.03-1-1.08-1-1.13-1-1.2-1-1.23-1-1.28-1-1.33-1-1.37-1-1.43-1-1.47-1-1.5-.97-1.56-.98-1.6-.97-1.64-.95-1.7-.96-1.73-.94-1.77-.94-1.8-.92-1.85-.92-1.9-.9-1.93-.9-1.96-.88-2-.87-.5-.2-.5-.2-.5-.2-.5-.2-.5-.2-.5-.2-.52-.2-.5-.2-.52-.2-.52-.2-.5-.2-.53-.2-1.04-.4-1.06-.4-.52-.2-.53-.2-.54-.2-.53-.2-.54-.2-.53-.2-.54-.2-1.08-.38-.55-.2-.54-.18-.55-.2-.54-.2-.55-.18-.55-.2-.56-.18-.55-.2-.55-.18-2.8-.9-.56-.17-.33 1.1-.32 1.1zM260.45 262.9l-1.54.25-3.06.5-1.52.26-1.52.27-1.5.27-3 .56-2.98.58-1.48.3-1.47.3-1.47.3-1.46.3-1.46.32-1.44.32-2.88.66-1.42.33.4 1.42.43 1.4.43 1.42.44 1.43.45 1.43.46 1.43.47 1.43.47 1.44.98 2.88.5 1.45.5 1.44 1.04 2.9 1.08 2.9.55 1.46.56 1.45.56 1.46.57 1.45.6 1.46.44-.87.9-1.74.46-.87.45-.87.46-.87.46-.86.92-1.74 1.4-2.6.96-1.74.48-.86.48-.87.5-.87.48-.87.5-.87.5-.87.5-.87.5-.88.5-.87.5-.88 1.02-1.74.52-.87.5-.86.52-.87.52-.86.53-.86.52-.86.53-.85.52-.86 1.6-2.55.53-.84.53-.85 1.06-1.68.54-.83-3.1.46zm116.97 1.2l1.06 1.66.54.84.53.84.52.83.53.84.53.85.52.84.53.85 1.56 2.55.52.86 2.04 3.44.5.87.5.86 1.02 1.74.5.87.5.87.5.87.5.87.48.87.48.86.96 1.74 1.4 2.6.92 1.74.46.86.45.87.46.87.9 1.74.44.87.56-1.45.56-1.44.55-1.44.54-1.45.54-1.44.52-1.44.53-1.44 1.02-2.88.5-1.43.5-1.44.96-2.86.46-1.42.46-1.43.45-1.42.45-1.4.43-1.42.84-2.82.4-1.4-2.86-.68-2.88-.66-1.45-.32-2.92-.62-2.94-.6-1.48-.3-1.5-.3-1.5-.28-3-.54-1.5-.26-1.52-.26-3.04-.5-1.53-.24-1.53-.23-1.54-.23.53.82.53.83zm-133.75-93.7h-.26l-1.26.05-.25.02-.24.02-.25.02-.48.06-.23.03-.24.03-.23.03-.46.08-.22.04-.22.05-.22.04-.44.1-.84.24-.2.07-.2.06-.2.07-.2.08-.2.07-.38.16-.2.1-.72.36-.18.1-.17.1-.76.5-.73.54-.72.6-.7.66-.67.72-.64.78-.63.84-.6.9-.57.94-.55 1-.53 1.05-.5 1.1-.48 1.15-.45 1.2-.43 1.25-.4 1.3-.38 1.34-.35 1.4-.33 1.44-.3 1.48-.27 1.52-.26 1.57-.22 1.6-.2 1.65-.17 1.7-.15 1.72-.1 1.77-.1 1.8-.06 1.84-.03 1.87-.01 1.9.02 1.94.05 1.97.08 2 .1 2.03.14 2.06.16 2.1.2 2.1.22 2.14.25 2.17.2 1.6.08.54.07.53.16 1.08.08.53.16 1.08.08.55.18 1.08.08.55.1.54.1.55.1.55.1.55.2 1.1.1.55.1.55.1.56.1.55.1.56.1.56.1.55.1.56.12.56.1.56.1.57.24 1.12.12.57.12.56.12.57.13.56.4 1.7 1.12-.28 1.12-.27 1.13-.27 1.14-.27 3.43-.78 3.48-.75 3.52-.72 1.18-.23 2.38-.46 2.4-.44 2.4-.42 1.22-.2 4.9-.8 1.24-.2 4.98-.72 2.5-.34 3.8-.48 3.83-.45 1.3-.14 1.28-.14 1.52-2.1.77-1.04.76-1.04 1.54-2.06.77-1.02 1.54-2.02.78-1 .77-1 2.34-2.97.78-.98.8-.97.78-.97.8-.96.78-.96 1.58-1.9.8-.94 2.37-2.8 1.6-1.83 1.6-1.8.8-.9.8-.9 1.6-1.77 2.4-2.6 1.6-1.7 1.6-1.68-1.86-1.7-1.85-1.66-1.84-1.62-1.84-1.58-1.82-1.54-1.82-1.5-1.82-1.46-1.8-1.4-1.8-1.38-1.78-1.34-1.77-1.3-1.76-1.26-1.74-1.2-1.74-1.18-1.72-1.13-1.7-1.1-1.7-1.05-1.68-1-1.66-.97-1.64-.92-1.63-.87-1.6-.84-1.6-.8-1.57-.75-1.55-.7-1.53-.66-1.52-.62-1.5-.57-1.47-.53-1.45-.48-1.42-.44-1.4-.4-1.38-.35-1.35-.3-1.33-.25-1.3-.2-1.28-.17-1.25-.1-1.22-.08-1.2-.02v.08h-.26zm150.95-.36l-1.23.07-1.25.12-1.28.16-1.3.2-1.33.26-1.36.3-1.38.35-1.4.4-1.42.44-1.45.48-1.47.54-1.5.57-1.5.62-1.53.66-1.55.7-1.57.76-1.6.8-1.6.84-1.63.9-1.64.92-1.66.97-1.67 1-1.7 1.06-1.7 1.1-1.72 1.14-1.73 1.18-1.74 1.22-1.76 1.27-1.77 1.3-1.78 1.35-1.8 1.4-1.8 1.43-1.8 1.47-1.82 1.5-1.82 1.54-1.84 1.6-1.84 1.63-1.85 1.67-1.86 1.7.8.84 2.4 2.56.8.86.8.88.8.87.8.88.8.9 2.4 2.7.8.9.8.92 1.6 1.85.8.93.8.94.8.94.8.95 2.37 2.88.8.97.8.98.78.98 1.58 1.98 2.35 3 .78 1 .78 1.02.77 1.02 1.56 2.06 2.32 3.13.77 1.05 2.56.28 3.8.45 1.27.16 1.26.16 1.25.16 1.26.17 1.25.17 1.25.18 1.24.17 1.24.2 1.24.18 2.46.38 3.66.6 3.62.63 2.4.44 1.2.22 1.18.23 1.2.23 1.17.23 2.35.48 1.16.24 1.16.25 2.3.5 1.15.26 1.14.26 2.26.52 1.13.27 1.12.28.12-.58.13-.58.24-1.14.12-.58.24-1.14.1-.57.12-.57.22-1.14.12-.57.1-.56.22-1.14.1-.56.1-.56.1-.57.3-1.68.1-.56.1-.55.27-1.67.1-.55.1-.56.4-2.74.07-.54.08-.55.2-1.62.06-.54.07-.53.24-2.17.22-2.14.2-2.1.16-2.1.13-2.06.1-2.03.07-2 .04-1.97.02-1.94-.02-1.9-.04-1.87-.07-1.84-.1-1.8-.13-1.76-.15-1.73-.17-1.7-.2-1.65-.23-1.6-.26-1.57-.28-1.52-.3-1.48-.33-1.44-.37-1.4-.38-1.35-.4-1.3-.44-1.25-.46-1.2-.48-1.15-.5-1.1-.54-1.05-.56-1-.58-.94-.6-.88-.63-.83-.65-.78-.68-.7-.7-.66-.72-.6-.75-.53-.76-.48-.18-.1-.54-.27-.2-.1-.18-.08-.57-.24-.2-.07-.2-.08-.2-.07-.2-.06-.2-.07-.2-.06-.2-.06-.42-.12-.2-.05-.22-.05-.2-.05-.22-.05-.22-.04-.23-.04-.22-.04-.23-.04-.7-.1-.24-.03-.24-.02-.24-.03-.24-.01-.25-.02h-.25l-.25-.02-.25-.01h-.26l-.26-.01h-.26v-.07h.08V153.1h-.08v16.88l-1.12.02zm-76.82 49.75l-1 1.07-1 1.08-1 1.1-1 1.1-1 1.1-1 1.13-1 1.14-1 1.15-1 1.16-1 1.17-2 2.37-1 1.2-1 1.2-1.98 2.46-.98 1.25-1 1.25-.98 1.27 1-.06 1-.05 1-.04 1-.05 1-.04 1-.03 1-.04 3-.1 1-.02 1-.03 1-.01 2.02-.04 3.05-.03h2.04l1.02-.01 1 .01h1l3 .03 5 .1 3.97.12 1 .04 1 .03 1 .04 2.94.12.98.05-1-1.27-2-2.5-2-2.46-2-2.4-1-1.2-1-1.18-1-1.17-1-1.16-2-2.3-1-1.13-2.02-2.22-1-1.1-1-1.08-1-1.07-1-1.06-1-1.05-1 1.05-1 1.06z" id="a"/><path d="M319.96 284.4c-19.18 0-34.74 15.55-34.74 34.74 0 19.18 15.56 34.74 34.74 34.74 19.2 0 34.74-15.56 34.74-34.74 0-19.2-15.55-34.74-34.74-34.74z" id="b"/></defs><use xlink:href="#a" fill="#61dafb"/><use xlink:href="#a" fill-opacity="0" stroke="#000" stroke-opacity="0"/><use xlink:href="#b" fill="#61dafb"/><use xlink:href="#b" fill-opacity="0" stroke="#000" stroke-opacity="0"/><use xlink:href="#C" fill="#61dafb"/><use xlink:href="#C" fill-opacity="0" stroke="#000" stroke-opacity="0"/></svg>