<svg xmlns="http://www.w3.org/2000/svg" viewBox="0 0 32 32" xml:space="preserve">
  <path vector-effect="non-scaling-stroke" d="m20.0291.03756.0512.01003.04875.01248.04875.01376.05248.01504.09995.03371.04875.02251.0512.02005.09621.04373.04747.02123.09376.05003.09376.05504.13503.09248.12874.10251.08.07253.07755.07627.03627.04245.02123.02624.02005.02752.02123.02496.02251.03125.02123.02379.04245.05621.02123.02997.02123.02752.03627.05749.03755.06496.03499.06379.03371.06752.01621.03627.03253.07627.01621.04373.02005.04128.01504.04373.01749.04128.01504.05003.01749.04875.01376.04875.03499.10752.01621.05504.01749.05877.02123.06379.13375.50123.02251.08501.0288.11627.02752.11627.0512.24.02251.12501.02379.12128.02251.12875.03872.25504.02005.12747.01749.13376.01504.1312.01504.13749.01376.13621.0112.13877.0112.13877.00875.14251.01003.14379.02251.43755.00875.61249-.00747.47499-.01376.32501-.00245.16629-.0112.16629-.00875.17003-.02123.34123-.01504.17504-.01248.17504-.05504.59628-.00501.05504-.00501.05621-.00501.05749-.00875.10997-.00875.10752-.00373.05003-.00747.10251-.00245.04747-.00373.05003v.04747l-.00373.04245-.00128.04629v.08629l-.00747.07872v.03627l-.00128.03872-.00501.0688v.14379l-.00245.04373.00245.02005v.06752l.00128.00747.00373.00501h.00501l.00747.00128h.14122l.02997-.00128h.09504l.07253-.00501.07872-.00373.04245-.00373h.08875l.09877-.00629h.05003l.05003-.00501.05248-.00373.05504-.00501.05877-.00373h.05749l.05504-.00501.05995-.00373.06379-.00747.06379-.00245h.06123l.12628-.00875.06379-.00747.13247-.01003.06379-.00747.29748-.02005.29247-.02123.29002-.01749.56242-.02251.27754-.00501.26879-.00501h.52499l.2562.00501.25002.00501.48371.02251.2337.01749.22879.01621.2225.02123.21994.02123.21375.02624.20628.02752.19999.03125.19871.03499.18623.03627.18623.04128.1762.04373.17002.04245.16628.04747.16127.05003.15252.05248.14879.05504.14378.05749.13375.05877.12746.06379.12372.06496.11627.06752.10496.06997.10752.07499.09621.07499.08747.07627.08245.08128.07755.08501.0288.03627.05749.07125.02624.03253.02379.03627.02251.03627.02123.03499.04245.06379.02123.03627.05376.09877.01749.03499.01376.03253.01248.03499.03499.10123.01995.06997.01376.06997.00747.03499.00373.03755.00501.03499v.03627l.00373.07627v.03755l-.00373.07627-.00373.04373-.00373.04245-.00128.04245-.01376.08501-.00875.04245-.00875.04747-.00501.04245-.01749.07499-.02251.07499-.02496.07627-.02752.07627-.03253.07872-.03627.08128-.03872.07872-.04128.08501-.04747.08128-.0512.08501-.05376.08501-.05504.08629-.12746.17003-.1362.17504-.07627.08501-.07499.09003-.25247.26379-.08875.0912-.18623.17877-.09877.0912-.205.17877-.10752.09248-.21876.18005-.11253.09003-.11755.08629-.36243.26496-.12746.08629-.26004.17003-.13119.08501-.13375.08501-.08128.05248-.08501.05003-.09003.05376-.09003.05504-.09621.05621-.09749.05504-.205.11499-.10624.06379-.10752.05877-.10496.05877-.10752.06379-.21876.12-.11125.05749-.10624.05877-.11125.05877-.21375.11253-.10496.05504-.10752.05248-.10251.05376-.19498.09877-.1825.08875-.09003.04245-.08128.04373-.07872.03499-.07371.03627-.06997.03253-.06379.02752-.05749.02123-.05504.02123-.04373.02251-.04128.0112-.03627.01248-.02624.00747-.02123.00501-.01003-.00501-.00875-.00875-.00875-.01248-.00629-.01749-.00629-.02123-.00501-.02123-.00128-.0288-.00501-.0288v-.03125l.00245-.03627v-.04373l.00245-.03755.00373-.04245.00245-.04245.0112-.09376.00501-.04747.02251-.1488.00875-.0512.02123-.10123.01003-.05003.02123-.09504.01376-.04875.01003-.04629.01504-.04245.0112-.04245.01376-.04245.01504-.03755.02624-.06997.01248-.03125.01504-.02752.01376-.02624.01376-.02005.01504-.02251.01248-.01248.01248-.01003.02123-.00875.02251-.0112.01003-.00747.01504-.00875.01248-.00747.01504-.00501.01621-.00875.03499-.02251.03872-.01749.02005-.0112.02251-.00875.04245-.02624.0688-.03371.04629-.02496.04875-.0288.0512-.02496.07872-.04245.02624-.01504.05248-.02752.02752-.01621.05376-.02752.0288-.01248.02624-.01376.02752-.01376.02752-.01376.0288-.01376.29247-.1488.14122-.07627.1425-.08128.1425-.07627.13748-.07627.1362-.08.26879-.16.12746-.07627.25503-.16.125-.08.12127-.07872.12127-.08.11755-.07872.11499-.08128.11253-.07627.10997-.07872.21375-.15755.10005-.07627.09749-.07755.09621-.07627.09376-.07627.17876-.15125.08501-.07371.15754-.14496.14378-.14251.12874-.13877.05877-.06752.05749-.06496.0512-.06379.04875-.06379.04373-.06251.07627-.12501.0288-.05877.02997-.06379.02624-.05749.01995-.05749.01749-.05877.01248-.05504.00875-.05621.00501-.05504v-.10624l-.00629-.05376-.0112-.05003-.01504-.04629-.01621-.05003-.02251-.04875-.02379-.04747-.03125-.04245-.06752-.08875-.08501-.08501-.10251-.08128-.05504-.03872-.06123-.03755-.12628-.07253-.14495-.07125-.08-.03125-.08501-.03253-.08501-.02997-.09003-.02997-.09003-.0288-.09877-.03125-.10123-.02752-.10496-.02496-.10752-.02251-.11125-.02005-.10005-.02123-.10624-.02251-.11253-.01621-.12244-.01248-.12874-.01749-.13503-.01248-.13876-.01248-.1425-.01003-.14879-.01248-.1537-.01003-.15754-.00875-.32372-.01248-.17002-.00629-.17002-.00373h-.17119l-.35625-.00501-.1762.00128h-.18122l-.5475.00747-.18122.00629-.18378.00747-.1825.00373-.17876.01003-.1825.00629-.17876.01248-.17375.0112-.17748.01248-.17002.0112-.33375.0288-.16244.01621-.15999.01749-.15252.01504-.30004.04373-.13876.02123-.72744.10997-.29748 1.66882-.31252 1.66882 1.44846 1.69122.22122.26624.21994.26251.21375.25621.20746.25621.20244.25504.19999.2512.18996.24747.18751.24373.18495.24128.17994.24128.17503.23371.17002.23499.16628.23371.15999.22752.15626.2288.29748.44747.1425.22005.13876.21621.13247.21376.12746.21248.12372.21003.11999.20747.11371.20245.11125.20501.10624.20245.10379.19755.09504.19755.0912.18997.08875.19253.08501.19253.08.18752.07627.18997.07125.18379.06752.18379.06379.18379.05877.17877.05376.17621.05003.17749.03125.10997.02624.10752.02997.10624.01995.10251.02251.09749.02123.09621.02123.09376.01749.09376.01621.08501.01248.08629.01504.08501.00875.08501.00875.07755.00629.08.00501.07627.00373.07253v.14251l-.00629.13621-.00629.06379-.00875.06496-.0112.06379-.02496.12245-.01749.05749-.02123.06123-.04245.10997-.02496.05621-.02624.0512-.02752.05621-.0288.05376-.06496.10624-.03627.0512-.03755.0512-.04373.0512-.04128.05003-.04373.05003-.06379.07125-.06379.06251-.0688.06379-.07253.05504-.07371.05248-.07627.04875-.08128.04245-.08501.04245-.08501.03627-.09003.0288-.09248.0288-.19498.04245-.10752.01504-.10624.0112h-.33631l-.11999-.00875-.12127-.00875-.12746-.01749-.12874-.02123-.13119-.02005-.14004-.02752-.13876-.03371-.14623-.03371-.29748-.08501-.15626-.04747-.15871-.05248-.165-.05621-.16628-.06251-.17002-.06379-.17503-.0688-.17876-.07371-.18378-.07755-.38249-.17003-.19626-.09248-.19871-.09621-.0688-.03125-.07371-.03627-.07872-.04373-.08501-.04128-.08875-.04747-.09248-.05248-.09621-.05376-.09749-.05621-.10251-.05877-.31999-.19253-.10624-.06752-.11253-.06379-.22122-.13877-.11253-.06752-.11371-.07125-.10624-.07253-.11125-.06752-.21247-.13749-.10624-.0688-.10005-.06496-.09877-.06379-.09621-.06379-.09003-.06379-.08501-.06005-.08501-.05621-.07755-.05248-.07125-.05376-.06379-.04875-.06379-.04245-.05376-.04245-.04747-.03627-.03755-.03627-.03499-.02752-.01995-.02624-.01749-.02005-.00875-.01621.00128-.00875.00501-.0112.0112-.0112v-.00875l.0112-.01376.02251-.01376.04245-.03371.01376-.00875.01376-.0112.01376-.00875.01376-.00875.01504-.01003.01749-.01003.01749-.00875.01376-.0112.03499-.02005.02123-.0112.02005-.00875.01749-.01248.08501-.04245.02251-.01376.02123-.01003.01995-.00875.04747-.02123.04245-.02123.55869-.23499 1.94466 1.14007.19626.11125.19252.10752.18751.10496.18495.10123.17876.09376.1762.0912.34121.17003.16628.08.15754.07253.15754.0688.15498.06496.14879.06005.14378.05749.13994.05003.13503.04747.13375.04245.12874.03872.12244.03371.11999.02997.11627.02624.10997.02005.10624.01749.10251.01621.09877.00501h.18123l.08629-.00501.08245-.00875.07253-.01376.07253-.02123.0688-.02251.06496-.02624.05749-.03253.0512-.03627.05003-.03872.04245-.04629.03755-.04875.03499-.05504.04629-.09376.03499-.10752.02123-.11253.01376-.12875.00373-.13376-.00747-.1488-.01749-.15371-.02379-.16629-.03872-.17003-.04245-.18379-.05621-.19253-.06379-.19755-.07499-.20629-.08128-.21248-.09003-.22251-.09995-.22752-.10752-.23499-.11627-.24245-.12874-.24875-.13503-.2512-.14004-.26251-.14879-.26496-.15754-.26997-.165-.27755-.34878-.56502-.18495-.28747-.19252-.2912-.19754-.29749-.20746-.30005-.43123-.60502-.22378-.30379-.23626-.31125-.2337-.30997-.24372-.31499-.24746-.31253-.25503-.31499-.26004-.31499-.26378-.32-.88871-1.04375-.43625 1.60632-.15754.56876-.16127.56502-.16628.55756-.17002.54752-.17119.54379-.17876.53248-.17876.52502-.18495.51755-.18879.50624-.18751.50123-.19252.49003-.18996.48-.19626.46752-.20127.4575-.19754.4463-.20244.43755-.205.42123-.20372.4112-.21002.40128-.20372.38752-.20874.3712-.20874.36128-.20874.34752-.20874.33248-.21375.31872-.20628.30379-.21002.28747-.20628.27125-.20746.25621-.20746.24128-.205.22379-.20244.20629-.20244.1888-.20127.17003-.19754.15499-.19754.13621-.19626.11755-.18996.09877-.18879.07755-.18751.06123-.04128.01003-.09003.01749-.04747.00373-.0912.00875h-.14623l-.04747-.00373-.0512-.00501-.05003-.00747-.04875-.00875-.09995-.02005-.04875-.01248-.0512-.01376-.04875-.01749-.04875-.01376-.10123-.03872-.14879-.06379-.09376-.04629-.05003-.02624-.1362-.08501-.04373-.02997-.12746-.09621-.12127-.10624-.03872-.03627-.07253-.08128-.03872-.04128-.04245-.05376-.03872-.05621-.03627-.06005-.04128-.06251-.03627-.0688-.03872-.06997-.03755-.07755-.07371-.16128-.07253-.17504-.03371-.09248-.0688-.18997-.06752-.20128-.02997-.10752-.03253-.10496-.05877-.21749-.05504-.22624-.02752-.11499-.05003-.23371-.04747-.23872-.02005-.12-.03872-.23872-.01749-.12128-.0288-.23872-.0112-.11872-.02251-.24128-.01504-.23499-.00373-.11371-.00373-.08501-.00501-.09376v-1.06252l.00747-.2688.00128-.13504.00501-.13621.00245-.13877.0112-.40875.01248-.26752.00501-.12747.00501-.12747.00629-.12373.00501-.12.00747-.11499.01248-.21248.00747-.10005.00501-.09248.00747-.08501.00629-.07755.00875-.07253.00501-.06496.00747-.05504.00875-.04747.00629-.03755.00501-.02752.00747-.01749.00629-.00875.00373.00245.00501-.00245.00629.00373h.00629l.00747.00501.00501.00128.02251.0112.00501.00629.03499.02123.01003.00629.02624.01749.01504.00875.01376.01003.06496.04245.02005.01376.01621.01003.02005.01248.02251.01504.01621.0112.04373.0288.01995.01376.06496.04245.06379.04629.04245.03125.04245.03253.53246.39499-.0512 1.25623-.00501.13749-.00373.14005v.13877l-.00373.27755v.27627l.00747.4112.00875.27371.00501.13376.00501.1312.00875.12875.00875.1312.02379.38496.02251.24245.01248.11872.01003.11755.0288.22624.0288.21621.01749.10251.01504.10005.01749.09749.01621.09248.02251.09504.02005.08501.01749.08501.02123.07755.02123.07755.02123.07125.04245.12875.04245.11755.04747.11125.04128.10496.04875.09749.04875.08875.05003.08128.05248.07627.05003.0688.05504.06251.05621.05749.05995.04629.05749.04245.05877.03253.06379.02752.06496.01621.06379.01248.06379.00373h.07125l.0688-.01003.07371-.01749.07627-.02379.07371-.03125.08128-.03872.08128-.04629.08501-.05003.08501-.06496.09003-.0688.08875-.07499.09504-.08501.09376-.08747.09504-.09877.10123-.10752.10123-.11253.10624-.12.10752-.12629.10624-.13504.11253-.14251.11755-.1488.11755-.15627.12127-.16373.12874-.18624.13375-.19253.13119-.20128.13503-.20747.13119-.21621.13375-.22379.13748-.23371.13503-.24128.13503-.24501.13503-.25504.13375-.26379.1362-.2688.26751-.55254.13247-.28747.13503-.29248.13375-.29877.13503-.30123.13247-.31253.13119-.31253.12874-.32.12746-.32373.12746-.32875.12746-.3312.2562-.68246.12628-.34496.12372-.34997.12244-.34997.12127-.35499.11999-.35499.11755-.36245.11499-.36245.11253-.36128.10997-.36875.11125-.3712.10752-.3712.10624-.37248.20372-.74998.46995-1.74125-1.08848-1.09623-.5525-.555-.08501-.08-.04-.04245-.04128-.03872-.04373-.04245-.03755-.03755-.03872-.04128-.07627-.07499-.03371-.03627-.14122-.1312-.0288-.03125-.03125-.03125-.05877-.05504-.02624-.02752-.02624-.02624-.02379-.02123-.06496-.06379-.01995-.01749-.45747-.41621-3.92942 1.15628-.31498.09749-.31252.09504-.30495.09621-.29748.09376-.29503.09749-.28874.09376-.28628.09504-.27999.09504-.27754.09749-.53747.18624-.26122.09749-.2562.09376-.25503.09749-.25119.09621-.24628.09749-.24244.09749-.24127.10005-.4675.19627-.22996.10005-.22751.10005-.22378.10123-.43753.20373-.42622.21376-.41747.21248-.41001.21749-.20244.10997-.19754.10624-.19871.11627-.41993.20747-.19124.11755-.19124.12-.18378.11253-.17503.11253-.17002.11253-.16244.11125-.15252.10752-.14879.10624-.14623.10624-.13247.10624-.12874.10251-.12244.10752-.11627.10123-.10624.09749-.10251.10123-.09621.09621-.08501.09504-.08501.09376-.07499.09248-.0688.0912-.06251.08875-.05504.08629-.04747.08501-.04245.08501-.03499.08501-.02752.08128-.02123.07627-.01504.07627-.00747.07499v.07371l.00501.07125.01621.07125.02005.06379.0288.06251.03627.06379.04245.06496.04875.06005.05504.05504.06496.05248.0688.05376.07755.0512.08501.04747.06496.03253.06752.03371.07371.03125.07755.03253.07872.02752.08501.02997.09003.02752.08875.02624.09621.02752.09995.02379.10123.02251.21375.04245.11125.02123.11499.02123.11999.02123.12127.01749.12244.01749.12874.01621.12746.01504.26623.02752.1362.01003.28127.02251.14378.00875.14378.00501.14879.00875.14879.00501.15498.00373.30623.00501h.47251l.15999-.00501.16244-.00128.16127-.00373.165-.00747.16628-.00875.0288-.00128.03371-.00373h.0288l.03125-.00128.06123-.00373.05877-.00373h.17876l.02997-.00128.11125-.00128.02496-.00245h.05504l.02251-.00128h.05003l.02123-.00373h.02251l.04128-.00128.02251-.00245.02123.00245h.01749l.01504-.00245h.10752l.02123.00747.02251.00629.01995.01376.02123.01621.02624.01504.02624.02251.0288.02123.03125.02123.03125.02496.03125.02997.03499.03253.13375.13376.03371.03627.10251.11499.03499.04245.06251.08.03125.03755.05877.07499.02624.03872.02496.03627.04747.06752.01995.03371.02123.02997.02752.05504.0112.02624.00875.02123.00629.02123.00128.02123v.01504l-.00245.01376-.00747.00501-.05376.01504h-.01749l-.04128.00373-.06379.01376h-.02752l-.06005.00501-.02997.00501-.03371.00245-.03499.00501h-.03627l-.07371.00501-.07872.00875-.04245.00245-.04373.00629-.13119.00875-.04747.00373-.09504.00875h-.04875l-.05003.00501-.15252.00875h-.05376l-.04875.00128-.05376.00373-.22004.01003-.21247.01376-.21375.00747-.20746.00875-.20628.00501-.40499.00501h-.38995l-.19252-.00501h-.19252l-.18378-.00875-.18495-.00501-.35753-.02251-.17503-.01376-.17002-.01376-.17002-.01621-.32874-.04-.31498-.04128-.14879-.02251-.29876-.05376-.14378-.03125-.13994-.03125-.13375-.03253-.13503-.03499-.25503-.07253-.12244-.04373-.11755-.04128-.11499-.04373-.11371-.04245-.11125-.04747-.10624-.04875-.10123-.04629-.09877-.0512-.09621-.05621-.08501-.04875-.08501-.05376-.08128-.0512-.07371-.05376-.07253-.05376-.07125-.05749-.12746-.11125-.05995-.05621-.05376-.05749-.05003-.06123-.04875-.05877-.08501-.12747-.04-.06496-.03253-.06379-.03125-.06379-.02624-.06379-.02251-.06496-.03627-.13376-.01003-.06752-.0112-.06997-.00629-.07371-.00245-.0688.00245-.07499.00501-.07371.00875-.07371.01003-.07627.01621-.07755.01504-.07755.02251-.08.02496-.07755.02752-.08245.03253-.08501.03627-.08501.03872-.08629.08501-.16875.04629-.08501.15754-.25003.08501-.12128.09376-.12875.09995-.12245.10752-.12875.11253-.12747.24244-.2512.13247-.12875.1362-.12629.14623-.12875.14879-.12747.15498-.12875.16244-.12629.34121-.25621.17748-.12875.19252-.12747.38995-.25504.205-.12875.21247-.12747.21748-.12629.22122-.12875.22996-.12747.2337-.12875.24127-.12747.245-.12747.2562-.12747.25994-.12875.26122-.12747.26996-.12875.27754-.12629.28244-.12875.28746-.12747.29247-.12875.30004-.12629.30378-.12875.31124-.12747.13876-.05749.14879-.06005.165-.06496.35497-.1312.19252-.07253.40371-.14997.21247-.07371.22004-.07872.22751-.07872.22879-.08.2337-.08.23498-.08128.23871-.08.24372-.08128.23871-.08128.48243-.16 1.16219-.37376.21994-.0688.21247-.06496.205-.06379.39123-.11627.17994-.05376.17002-.04875.16127-.04245.14879-.04373.13375-.03499.125-.03125.10496-.02752.09376-.02005.08-.01749.06379-.0112.04629-.00128.33002-.00747-.33502-.32373-.05504-.05003-.06379-.06005-.06752-.06005-.07627-.06379-.08128-.07253-.08501-.07499-.09749-.08128-.09749-.08501-.10624-.08501-.10624-.09003-.11627-.09003-.11371-.09621-.12372-.09749-.2562-.20128-.12746-.10251-.27252-.21248-.13876-.10624-.28127-.21749-.285-.21749-.14996-.10752-.14122-.10496-.14623-.10752-.285-.21376-.14122-.10496-.14004-.10251-.13876-.10005-.1362-.09877-.13375-.09749-.12874-.0912-.12746-.09003-.12372-.08875-.11871-.08501-.11999-.08128-.11125-.07872-.10997-.07125-.32746-.21248-.16628-.10752-.16372-.10251-.32746-.19499-.16372-.09621-.16127-.0912-.32372-.17877-.15999-.08629-.15754-.08501-.15754-.08128-.15498-.07627-.30623-.14379-.14879-.06997-.29503-.12747-.14122-.05749-.14122-.05749-.13876-.05376-.1362-.04875-.12874-.04629-.25503-.08501-.12372-.03627-.11627-.03253-.11627-.02997-.11253-.02624-.10624-.02005-.10251-.01749-.10123-.01376-.09376-.01248-.09248-.00501h-.16628l-.07755.00501-.07125.00875-.06379.01504-.07499.02123-.06997.03125-.06496.04128-.05749.04747-.04747.05376-.04373.05877-.03755.0688-.03253.07499-.02752.08128-.02251.08875-.0112.09376-.00875.10123-.00245.10752.00373.11253.0112.12.01248.12747.02123.13248.02624.13376.03125.14379.04.1488.04128.15371.04629.15627.11871.33504.06379.1712.06997.17621.07755.18379.08501.18752.08501.18997.0912.19253.09877.20128.10379.19872.10624.20875.11253.20747.11999.21376.12244.21621.12874.22005.1362.22123.13876.22624.1425.22752.59752.94497-.26751.60876-.01003.02496-.02251.04747-.01003.02752-.02123.05003-.01248.02123-.0112.02496-.0112.02123-.01003.02624-.00875.02005-.02123.04373-.00747.02123-.02123.04128-.00747.02251-.01003.02123-.02251.05003-.01003.01749-.00629.01504-.02752.05621-.02123.03371-.00373.00875-.00747.00747-.01003.02251-.01621.01376h-.01003l-.03371-.03371-.02496-.02752-.02752-.03755-.03499-.04373-.03872-.0512-.04128-.06005-.04629-.06379-.05003-.0688-.10624-.16128-.05877-.08501-.05877-.0912-.06379-.09621-.0688-.10379-.13503-.21376-.14004-.21877-.21247-.34123-.07371-.12-.0688-.11627-.07253-.11627-.13876-.23371-.07125-.11499-.06251-.11371-.0688-.11253-.12372-.21248-.05877-.10624-.05877-.10123-.05248-.09621-.05376-.09248-.04629-.08629-.08501-.16128-.05621-.10251-.05248-.10496-.05248-.10752-.10251-.21749L4.5739 8.735l-.09504-.22379-.12874-.34123-.04128-.11627-.04-.11253-.04128-.11253-.07371-.22496-.03371-.11627-.06251-.22123-.06123-.21877-.05003-.21376-.02251-.10752-.04128-.20373-.01749-.10005-.02997-.19125-.01376-.09248-.00875-.09003-.00747-.08501-.00373-.08501V5.7973l-.00245-.07627.00245-.07627v-.06997l.0112-.13248.0112-.05877.02251-.10496.01376-.0512.01749-.0512.01621-.05376.01749-.04875.04245-.10251.04245-.09877.05248-.09749.02379-.04245.05749-.09376.03125-.04128.09376-.12875.03253-.04245.06997-.07872.03627-.03627.03627-.03872.03627-.03371.03755-.03627.07872-.06379.03755-.02997.04373-.02997.03755-.02752.08128-.0512.12874-.06496.08501-.03253.08501-.02752.15626-.03253.16244-.02123.17119-.01621.18378-.00128.19124.00629.19999.02123.205.02752.21247.04373.2225.04629.22751.05749.23871.07125.24244.07627.25002.08875.25503.09504.26378.10496.26879.11499.27754.12875.27754.13376.285.14123.29119.1488.29503.15755.29748.16629.30495.17749.30879.18251.31124.19125.31626.20128.31871.20747.31999.21376.32628.22496.32746.2288.33119.23872.33247.24501.33619.24875.33619.26005.34121.26752.34121.27125.34003.27755.34121.28629.34003.29248.34121.29749 1.15472 1.02625 1.58724-.32875.23871-.04373.22879-.04128.1088-.02251.16127-.03125.05003-.00747.09877-.02005.04747-.00875.0912-.01621.08501-.01376.04128-.00629.04-.00747.07499-.01003.03253-.00373.03253-.00747.03125-.00373.05749-.00747.02624-.00245h.14006l.01749-.00501.02251-.00875.01621-.00875.02123-.01248.03371-.03371.01504-.02123.01749-.02123.01376-.02752.01621-.03253.01248-.03499.01621-.03755.01621-.04245.01248-.04629.01248-.05003.01248-.05248.01248-.05877.01504-.05877.0112-.06379.01376-.06752.01003-.07371.01248-.07627.01003-.08629.01248-.08501.01248-.0912.01003-.09376.01248-.09877.01003-.10752.00875-.10624.01003-.11371.01248-.11755.01003-.12501.0112-.12875.01003-.13248.00875-.13877.01003-.14624.0112-.1488.01003-.15371.00875-.16128.01376-.23371.01003-.23499.00875-.22624.01248-.44747v-.63873l-.00373-.20629-.00501-.20501-.01749-.39499-.01003-.18997-.01504-.18752-.01504-.18379-.01749-.18005-.02005-.17376-.02123-.1712-.02251-.16245-.02123-.16128-.02752-.15253-.02624-.1488-.0288-.14379-.03125-.13877-.03253-.1312-.03499-.12875-.03499-.12128-.03627-.11499-.04373-.10997-.04245-.10251-.04245-.10005-.04245-.08875-.04747-.08629-.04629-.07872-.04875-.07253-.04875-.06379-.0512-.05749-.05376-.05248-.05248-.04128-.05877-.03627-.05504-.02752-.06496-.02123-.06251-.02379-.06379-.0112-.06379-.00501-.06379.00373-.06496.01248-.0688.01003-.07371.02251-.07253.02496-.07371.0288-.15498.08629-.07755.0512-.08128.05504-.08128.06379-.08501.06752-.08501.07499-.08501.08128-.08501.08501-.08629.09504-.09376.09749-.0912.10251-.09376.10624-.09621.11627-.09877.12-.09504.12875-.09995.1312-.10251.13621-.09995.14997-.10624.1488-.10752.15371-.10624.16373-.10496.16629-.10752.1712-.10752.17749-.11253.18251-.22495.38496-.11499.20245-1.00614 1.75757-.65992.08501-.02123.00245-.02624.00245h-.31253l-.02123-.00245h-.01621l-.01376-.00245-.04245-.00747h-.02123l-.02251-.00875h-.00875l-.02123-.01376-.00501-.00373-.00245-.00629-.00373-.00373-.00245-.00875V6.6502l.00373-.02496.00747-.03125.0112-.04373.01621-.04629.02005-.0512.02123-.06005.02624-.06379.03253-.0688.02997-.07872.03627-.07872.03755-.08501.04245-.08501.04245-.0912.04373-.09376.04629-.09621.0512-.10123.09995-.20747.10624-.21376.05504-.10496.05504-.11125.17119-.32373.05995-.10752.05621-.10624.05621-.10752.06005-.10496.11125-.20128.05504-.09504.05248-.09376.05376-.09003.05376-.08501.04875-.08501.04629-.07755.04747-.07125.04245-.07125.04373-.06379.09248-.13877.18751-.26997.09248-.12875.18122-.2512.17876-.23371.08875-.11627.26004-.32501.08501-.10251.08629-.09749.08501-.09621.08501-.09248.16628-.17376.08501-.08629.16244-.15755.08-.07125.15754-.14005.15754-.12875.08-.06005.07627-.05749.08501-.07253.14879-.09621.07755-.04245.07499-.04245.07371-.03755.07371-.03499.07627-.03253.0688-.03125.07253-.02624.07371-.02005.0688-.02123.09003-.02251.04747-.00875.04245-.00373.04747-.00501.09376-.00373h.04747l.04875.00245.04875.00501.10251.01376zm-.62621 11.58286-.2562.07499-.21247.07253-.16127.06379-.09749.05504-.01504.04245.24244.26997.36126.37248.38878.38005.31498.29248.14879.11499.03371-.05621.04629-.13376.05749-.20245.06251-.25621.05995-.2912.06005-.33376.03253-.26251v-.18496l-.02752-.12-.05749-.0512-.09504-.00875-.15999.01376-.21247.03125-.24628.05376zm-10.50841-.29248c.35753-.67372 1.23471-1.66754 1.96844-2.22381.03755-.03253.22996-.18251.57874-.45878.05003.03499.44499.31499.49502.34997.26996.19253.50121.37749.51123.42624.01003.03872-.1762.21376-.41374.36245-.24628.16128-.69874.53248-1.00742.82252-.39251.38379-.82247.635-1.48601.88246 0-.00128-.30751.11755-.92369.35499.16628-.3088.25876-.48128.27754-.51627zm-1.15717 5.35525c-.02624-.50006.01376-.55372.5187-.78753.29748-.13504.55752-.23627.58749-.22752.02005.02251.10624.50752.17119 1.10007.2337 1.91 1.43097 3.81007 3.10075 4.89008.91996.61004 2.25717 1.06497 3.23441 1.12129.37875.02123.7012.08501.70877.12747.01504.05248-.09248.32747-.2337.62753-.01749.03755-.10123.22251-.25119.555-.07371-.01003-.65746-.09621-.73117-.10624-3.00327-1.13751-4.9443-2.37378-5.82661-3.71002-.56125-.85622-1.23471-2.75875-1.27845-3.59002zm12.01062-7.95284c-.03755.27755-1.27098.39872-2.01474.19755-.53374-.14496-1.36975-.69505-1.9709-1.29249-.41619-.41376 1.98092-.10752 3.25329.42496.72872.29749.78492.34123.73245.66998zm2.66953 10.72291c.11999.18624.28746.40501.37118.52246.10624.13504.00128.35499-.34878.80876-.84497 1.10753-2.77715 2.5963-2.61588 2.0125.29503-.96001.68242-1.71629 1.21967-2.28504.33247-.35627.69501-.81121.78492-.98124.22623-.44875.31999-.44875.58877-.07755zm1.00369-7.19785c.28127.53248.69992 2.2013.75996 2.99876.03627.38997.01749.72374-.01995.73622-.05248.01248-.34121-.3088-.66749-.69004-.41619-.51254-.61992-.91254-.76241-1.45378-.3587-1.33505.19124-2.57379.69-1.59128z"/>
  <path vector-effect="non-scaling-stroke" d="m19.8776.6856.0492.0096.0468.012.0468.0132.0504.0144.096.0324.0468.0216.0492.0192.0924.042.0456.0204.09.048.09.0528.1296.0888.1236.0984.0768.0696.0744.0732.0348.0408.0204.0252.0192.0264.0204.024.0216.03.0204.0228.0408.054.0204.0288.0204.0264.0348.0552.036.0624.0336.0612.0324.0648.0156.0348.0312.0732.0156.042.0192.0396.0144.042.0168.0396.0144.048.0168.0468.0132.0468.0336.1032.0156.0528.0168.0564.0204.0612.1284.4812.0216.0816.0276.1116.0264.1116.0492.2304.0216.12.0228.1164.0216.1236.0372.2448.0192.1224.0168.1284.0144.126.0144.132.0132.1308.0108.1332.0108.1332.0084.1368.0096.138.0216.42.0084.588-.0072.456-.0132.312-.0024.1596-.0108.1596-.0084.1632-.0204.3276-.0144.168-.012.168-.0528.5724-.0048.0528-.0048.054-.0048.0552-.0084.1056-.0084.1032-.0036.048-.0072.0984-.0024.0456-.0036.048v.0456l-.0036.0408-.0012.0444v.0828l-.0072.0756v.0348l-.0012.0372-.0048.066v.138l-.0024.042.0024.0192v.0648l.0012.0072.0036.0048h.0048l.0072.0012h.1356l.0288-.0012h.0912l.0696-.0048.0756-.0036.0408-.0036h.0852l.0948-.006h.048l.048-.0048.0504-.0036.0528-.0048.0564-.0036h.0552l.0528-.0048.0576-.0036.0612-.0072.0612-.0024h.0588l.1212-.0084.0612-.0072.1272-.0096.0612-.0072.2856-.0192.2808-.0204.2784-.0168.54-.0216.2664-.0048.258-.0048h.504l.246.0048.24.0048.4644.0216.2244.0168.2196.0156.2136.0204.2112.0204.2052.0252.198.0264.192.03.1908.0336.1788.0348.1788.0396.1692.042.1632.0408.1596.0456.1548.048.1464.0504.1428.0528.138.0552.1284.0564.1224.0612.1188.0624.1116.0648.1008.0672.1032.072.0924.072.084.0732.0792.078.0744.0816.0276.0348.0552.0684.0252.0312.0228.0348.0216.0348.0204.0336.0408.0612.0204.0348.0516.0948.0168.0336.0132.0312.012.0336.0336.0972.0192.0672.0132.0672.0072.0336.0036.036.0048.0336v.0348l.0036.0732v.036l-.0036.0732-.0036.042-.0036.0408-.0012.0408-.0132.0816-.0084.0408-.0084.0456-.0048.0408-.0168.072-.0216.072-.024.0732-.0264.0732-.0312.0756-.0348.078-.0372.0756-.0396.0816-.0456.078-.0492.0816-.0516.0816-.0528.0828-.1224.1632-.1308.168-.0732.0816-.072.0864-.2424.2532-.0852.0876-.1788.1716-.0948.0876-.1968.1716-.1032.0888-.21.1728-.108.0864-.1128.0828-.348.2544-.1224.0828-.2496.1632-.126.0816-.1284.0816-.078.0504-.0816.048-.0864.0516-.0864.0528-.0924.054-.0936.0528-.1968.1104-.102.0612-.1032.0564-.1008.0564-.1032.0612-.21.1152-.1068.0552-.102.0564-.1068.0564-.2052.108-.1008.0528-.1032.0504-.0984.0516-.1872.0948-.1752.0852-.0864.0408-.078.042-.0756.0336-.0708.0348-.0672.0312-.0612.0264-.0552.0204-.0528.0204-.042.0216-.0396.0108-.0348.012-.0252.0072-.0204.0048-.0096-.0048-.0084-.0084-.0084-.012-.006-.0168-.006-.0204-.0048-.0204-.0012-.0276-.0048-.0276v-.03l.0024-.0348v-.042l.0024-.036.0036-.0408.0024-.0408.0108-.09.0048-.0456.0216-.1428.0084-.0492.0204-.0972.0096-.048.0204-.0912.0132-.0468.0096-.0444.0144-.0408.0108-.0408.0132-.0408.0144-.036.0252-.0672.012-.03.0144-.0264.0132-.0252.0132-.0192.0144-.0216.012-.012.012-.0096.0204-.0084.0216-.0108.0096-.0072.0144-.0084.012-.0072.0144-.0048.0156-.0084.0336-.0216.0372-.0168.0192-.0108.0216-.0084.0408-.0252.066-.0324.0444-.024.0468-.0276.0492-.024.0756-.0408.0252-.0144.0504-.0264.0264-.0156.0516-.0264.0276-.012.0252-.0132.0264-.0132.0264-.0132.0276-.0132.2808-.1428.1356-.0732.1368-.078.1368-.0732.132-.0732.1308-.0768.258-.1536.1224-.0732.2448-.1536.12-.0768.1164-.0756.1164-.0768.1128-.0756.1104-.078.108-.0732.1056-.0756.2052-.1512.096-.0732.0936-.0744.0924-.0732.09-.0732.1716-.1452.0816-.0708.1512-.1392.138-.1368.1236-.1332.0564-.0648.0552-.0624.0492-.0612.0468-.0612.042-.06.0732-.12.0276-.0564.0288-.0612.0252-.0552.0192-.0552.0168-.0564.012-.0528.0084-.054.0048-.0528v-.102l-.006-.0516-.0108-.048-.0144-.0444-.0156-.048-.0216-.0468-.0228-.0456-.03-.0408-.0648-.0852-.0816-.0816-.0984-.078-.0528-.0372-.0588-.036-.1212-.0696-.1392-.0684-.0768-.03-.0816-.0312-.0816-.0288-.0864-.0288-.0864-.0276-.0948-.03-.0972-.0264-.1008-.024-.1032-.0216-.1068-.0192-.096-.0204-.102-.0216-.108-.0156-.1176-.012-.1236-.0168-.1296-.012-.1332-.012-.1368-.0096-.1428-.012-.1476-.0096-.1512-.0084-.3108-.012-.1632-.006-.1632-.0036H26.27l-.342-.0048-.1692.0012h-.174l-.5256.0072-.174.006-.1764.0072-.1752.0036-.1716.0096-.1752.006-.1716.012-.1668.0108-.1704.012-.1632.0108-.3204.0276-.156.0156-.1536.0168-.1464.0144-.288.042-.1332.0204-.6984.1056-.2856 1.602-.3 1.602 1.3908 1.6236.2124.2556.2112.252.2052.246.1992.246.1944.2448.192.2412.1824.2376.18.234.1776.2316.1728.2316.168.2244.1632.2256.1596.2244.1536.2184.15.2196.2856.4296.1368.2112.1332.2076.1272.2052.1224.204.1188.2016.1152.1992.1092.1944.1068.1968.102.1944.0996.1896.0912.1896.0876.1824.0852.1848.0816.1848.0768.18.0732.1824.0684.1764.0648.1764.0612.1764.0564.1716.0516.1692.048.1704.03.1056.0252.1032.0288.102.0192.0984.0216.0936.0204.0924.0204.09.0168.09.0156.0816.012.0828.0144.0816.0084.0816.0084.0744.006.0768.0048.0732.0036.0696v.1368l-.006.1308-.006.0612-.0084.0624-.0108.0612-.024.1176-.0168.0552-.0204.0588-.0408.1056-.024.054-.0252.0492-.0264.054-.0276.0516-.0624.102-.0348.0492-.036.0492-.042.0492-.0396.048-.042.048-.0612.0684-.0612.06-.066.0612-.0696.0528-.0708.0504-.0732.0468-.078.0408-.0816.0408-.0816.0348-.0864.0276-.0888.0276-.1872.0408-.1032.0144-.102.0108h-.3228l-.1152-.0084-.1164-.0084-.1224-.0168-.1236-.0204-.126-.0192-.1344-.0264-.1332-.0324-.1404-.0324-.2856-.0816-.15-.0456-.1524-.0504-.1584-.054-.1596-.06-.1632-.0612-.168-.066-.1716-.0708-.1764-.0744-.3672-.1632-.1884-.0888-.1908-.0924-.066-.03-.0708-.0348-.0756-.042-.0816-.0396-.0852-.0456-.0888-.0504-.0924-.0516-.0936-.054-.0984-.0564-.3072-.1848-.102-.0648-.108-.0612-.2124-.1332-.108-.0648-.1092-.0684-.102-.0696-.1068-.0648-.204-.132-.102-.066-.096-.0624-.0948-.0612-.0924-.0612-.0864-.0612-.0816-.0576-.0816-.054-.0744-.0504-.0684-.0516-.0612-.0468-.0612-.0408-.0516-.0408-.0456-.0348-.036-.0348-.0336-.0264-.0192-.0252-.0168-.0192-.0084-.0156.0012-.0084.0048-.0108.0108-.0108v-.0084l.0108-.0132.0216-.0132.0408-.0324.0132-.0084.0132-.0108.0132-.0084.0132-.0084.0144-.0096.0168-.0096.0168-.0084.0132-.0108.0336-.0192.0204-.0108.0192-.0084.0168-.012.0816-.0408.0216-.0132.0204-.0096.0192-.0084.0456-.0204.0408-.0204.5364-.2256 1.8672 1.0944.1884.1068.1848.1032.18.1008.1776.0972.1716.09.1692.0876.3276.1632.1596.0768.1512.0696.1512.066.1488.0624.1428.0576.138.0552.1344.048.1296.0456.1284.0408.1236.0372.1176.0324.1152.0288.1116.0252.1056.0192.102.0168.0984.0156.0948.0048h.174l.0828-.0048.0792-.0084.0696-.0132.0696-.0204.066-.0216.0624-.0252.0552-.0312.0492-.0348.048-.0372.0408-.0444.036-.0468.0336-.0528.0444-.09.0336-.1032.0204-.108.0132-.1236.0036-.1284-.0072-.1428-.0168-.1476-.0228-.1596-.0372-.1632-.0408-.1764-.054-.1848-.0612-.1896-.072-.198-.078-.204-.0864-.2136-.096-.2184-.1032-.2256-.1116-.2328-.1236-.2388-.1296-.2412-.1344-.252-.1428-.2544-.1512-.2592-.1584-.2664-.3348-.5424-.1776-.276-.1848-.2796-.1896-.2856-.1992-.288-.414-.5808-.2148-.2916-.2268-.2988-.2244-.2976-.234-.3024-.2376-.3-.2448-.3024-.2496-.3024-.2532-.3072-.8532-1.002-.4188 1.542-.1512.546-.1548.5424-.1596.5352-.1632.5256-.1644.522-.1716.5112-.1716.504-.1776.4968-.1812.486-.18.4812-.1848.4704-.1824.4608-.1884.4488-.1932.4392-.1896.4284-.1944.42-.1968.4044-.1956.3948-.2016.3852-.1956.372-.2004.3564-.2004.3468-.2004.3336-.2004.3192-.2052.306-.198.2916-.2016.276-.198.2604-.1992.246-.1992.2316-.1968.2148-.1944.198-.1944.1812-.1932.1632-.1896.1488-.1896.1308-.1884.1128-.1824.0948-.1812.0744-.18.0588-.0396.0096-.0864.0168-.0456.0036-.0876.0084h-.1404l-.0456-.0036-.0492-.0048-.048-.0072-.0468-.0084-.096-.0192-.0468-.012-.0492-.0132-.0468-.0168-.0468-.0132-.0972-.0372-.1428-.0612-.09-.0444-.048-.0252-.1308-.0816-.042-.0288-.1224-.0924-.1164-.102-.0372-.0348-.0696-.078-.0372-.0396-.0408-.0516-.0372-.054-.0348-.0576-.0396-.06-.0348-.066-.0372-.0672-.036-.0744-.0708-.1548-.0696-.168-.0324-.0888-.066-.1824-.0648-.1932-.0288-.1032-.0312-.1008-.0564-.2088-.0528-.2172-.0264-.1104-.048-.2244-.0456-.2292-.0192-.1152-.0372-.2292-.0168-.1164-.0276-.2292-.0108-.114-.0216-.2316-.0144-.2256-.0036-.1092-.0036-.0816-.0048-.09v-1.02l.0072-.258.0012-.1296.0048-.1308.0024-.1332.0108-.3924.012-.2568.0048-.1224.0048-.1224.006-.1188.0048-.1152.0072-.1104.012-.204.0072-.096.0048-.0888.0072-.0816.006-.0744.0084-.0696.0048-.0624.0072-.0528.0084-.0456.006-.036.0048-.0264.0072-.0168.006-.0084.0036.0024.0048-.0024.006.0036h.006l.0072.0048.0048.0012.0216.0108.0048.006.0336.0204.0096.006.0252.0168.0144.0084.0132.0096.0624.0408.0192.0132.0156.0096.0192.012.0216.0144.0156.0108.042.0276.0192.0132.0624.0408.0612.0444.0408.03.0408.0312.5112.3792-.0492 1.206-.0048.132-.0036.1344v.1332l-.0036.2664v.2652l.0072.3948.0084.2628.0048.1284.0048.126.0084.1236.0084.126.0228.3696.0216.2328.012.114.0096.1128.0276.2172.0276.2076.0168.0984.0144.096.0168.0936.0156.0888.0216.0912.0192.0816.0168.0816.0204.0744.0204.0744.0204.0684.0408.1236.0408.1128.0456.1068.0396.1008.0468.0936.0468.0852.048.078.0504.0732.048.066.0528.06.054.0552.0576.0444.0552.0408.0564.0312.0612.0264.0624.0156.0612.012.0612.0036h.0684l.066-.0096.0708-.0168.0732-.0228.0708-.03.078-.0372.078-.0444.0816-.048.0816-.0624.0864-.066.0852-.072.0912-.0816.09-.084.0912-.0948.0972-.1032.0972-.108.102-.1152.1032-.1212.102-.1296.108-.1368.1128-.1428.1128-.15.1164-.1572.1236-.1788.1284-.1848.126-.1932.1296-.1992.126-.2076.1284-.2148.132-.2244.1296-.2316.1296-.2352.1296-.2448.1284-.2532.1308-.258.2568-.5304.1272-.276.1296-.2808.1284-.2868.1296-.2892.1272-.3.126-.3.1236-.3072.1224-.3108.1224-.3156.1224-.318.246-.6552.1212-.3312.1188-.336.1176-.336.1164-.3408.1152-.3408.1128-.348.1104-.348.108-.3468.1056-.354.1068-.3564.1032-.3564.102-.3576.1956-.72.4512-1.6716-1.0452-1.0524-.5304-.5328-.0816-.0768-.0384-.0408-.0396-.0372-.042-.0408-.036-.036-.0372-.0396-.0732-.072-.0324-.0348-.1356-.126-.0276-.03-.03-.03-.0564-.0528-.0252-.0264-.0252-.0252-.0228-.0204-.0624-.0612-.0192-.0168-.4392-.3996-3.7728 1.11-.3024.0936-.3.0912-.2928.0924-.2856.09-.2832.0936-.2772.09-.2748.0912-.2688.0912-.2664.0936-.516.1788-.2508.0936-.246.09-.2448.0936-.2412.0924-.2364.0936-.2328.0936-.2316.096-.4488.1884-.2208.096-.2184.096-.2148.0972-.42.1956-.4092.2052-.4008.204-.3936.2088-.1944.1056-.1896.102-.1908.1116-.4032.1992-.1836.1128-.1836.1152-.1764.108-.168.108-.1632.108-.156.1068-.1464.1032-.1428.102-.1404.102-.1272.102-.1236.0984-.1176.1032-.1116.0972-.102.0936-.0984.0972-.0924.0924-.0816.0912-.0816.09-.072.0888-.066.0876-.06.0852-.0528.0828-.0456.0816-.0408.0816-.0336.0816-.0264.078-.0204.0732-.0144.0732-.0072.072v.0708l.0048.0684.0156.0684.0192.0612.0276.06.0348.0612.0408.0624.0468.0576.0528.0528.0624.0504.066.0516.0744.0492.0816.0456.0624.0312.0648.0324.0708.03.0744.0312.0756.0264.0816.0288.0864.0264.0852.0252.0924.0264.096.0228.0972.0216.2052.0408.1068.0204.1104.0204.1152.0204.1164.0168.1176.0168.1236.0156.1224.0144.2556.0264.1308.0096.27.0216.138.0084.138.0048.1428.0084.1428.0048.1488.0036.294.0048h.4536l.1536-.0048.156-.0012.1548-.0036.1584-.0072.1596-.0084.0276-.0012.0324-.0036h.0276l.03-.0012.0588-.0036.0564-.0036h.1716l.0288-.0012.1068-.0012.024-.0024h.0528l.0216-.0012h.048l.0204-.0036h.0216l.0396-.0012.0216-.0024.0204.0024h.0168l.0144-.0024h.1032l.0204.0072.0216.006.0192.0132.0204.0156.0252.0144.0252.0216.0276.0204.03.0204.03.024.03.0288.0336.0312.1284.1284.0324.0348.0984.1104.0336.0408.06.0768.03.036.0564.072.0252.0372.024.0348.0456.0648.0192.0324.0204.0288.0264.0528.0108.0252.0084.0204.006.0204.0012.0204v.0144l-.0024.0132-.0072.0048-.0516.0144h-.0168l-.0396.0036-.0612.0132h-.0264l-.0576.0048-.0288.0048-.0324.0024-.0336.0048h-.0348l-.0708.0048-.0756.0084-.0408.0024-.042.006-.126.0084-.0456.0036-.0912.0084h-.0468l-.048.0048L7.976 22h-.0516l-.0468.0012-.0516.0036-.2112.0096-.204.0132-.2052.0072-.1992.0084-.198.0048-.3888.0048h-.3744l-.1848-.0048h-.1848l-.1764-.0084-.1776-.0048-.3432-.0216L4.8104 22l-.1632-.0132-.1632-.0156-.3156-.0384-.3024-.0396-.1428-.0216-.2868-.0516-.138-.03-.1344-.03-.1284-.0312-.1296-.0336-.2448-.0696-.1176-.042-.1128-.0396-.1104-.042-.1092-.0408-.1068-.0456-.102-.0468-.0972-.0444-.0948-.0492-.0924-.054-.0816-.0468-.0816-.0516-.078-.0492-.0708-.0516-.0696-.0516-.0684-.0552-.1224-.1068-.0576-.054-.0516-.0552-.048-.0588-.0468-.0564-.0816-.1224-.0384-.0624-.0312-.0612-.03-.0612-.0252-.0612-.0216-.0624-.0348-.1284-.0096-.0648-.0108-.0672-.006-.0708-.0024-.066.0024-.072.0048-.0708.0084-.0708.0096-.0732.0156-.0744.0144-.0744.0216-.0768.024-.0744.0264-.0792.0312-.0816.0348-.0816.0372-.0828.0816-.162.0444-.0816.1512-.24.0816-.1164.09-.1236.096-.1176.1032-.1236.108-.1224.2328-.2412.1272-.1236.1308-.1212.1404-.1236.1428-.1224.1488-.1236.156-.1212.3276-.246.1704-.1236.1848-.1224.3744-.2448.1968-.1236.204-.1224.2088-.1212.2124-.1236.2208-.1224.2244-.1236.2316-.1224.2352-.1224.246-.1224.2496-.1236.2508-.1224.2592-.1236.2664-.1212.2712-.1236.276-.1224.2808-.1236.288-.1212.2916-.1236.2988-.1224.1332-.0552.1428-.0576.1584-.0624.3408-.126.1848-.0696.3876-.144.204-.0708.2112-.0756.2184-.0756.2196-.0768.2244-.0768.2256-.078.2292-.0768.234-.078.2292-.078.4632-.1536 1.116-.3588.2112-.066.204-.0624.1968-.0612.3756-.1116.1728-.0516.1632-.0468.1548-.0408.1428-.042.1284-.0336.12-.03.1008-.0264.09-.0192.0768-.0168.0612-.0108.0444-.0012.3168-.0072-.3216-.3108-.0528-.048-.0612-.0576-.0648-.0576-.0732-.0612-.078-.0696-.0816-.072-.0936-.078-.0936-.0816-.102-.0816-.102-.0864-.1116-.0864-.1092-.0924-.1188-.0936-.246-.1932-.1224-.0984-.2616-.204-.1332-.102-.27-.2088-.2736-.2088-.144-.1032-.1356-.1008-.1404-.1032-.2736-.2052-.1356-.1008-.1344-.0984-.1332-.096-.1308-.0948-.1284-.0936-.1236-.0876-.1224-.0864-.1188-.0852-.114-.0816-.1152-.078-.1068-.0756-.1056-.0684-.3144-.204-.1596-.1032-.1572-.0984-.3144-.1872-.1572-.0924-.1548-.0876-.3108-.1716-.1536-.0828-.1512-.0816-.1512-.078-.1488-.0732-.294-.138-.1428-.0672-.2832-.1224-.1356-.0552-.1356-.0552L7.736 5.77l-.1308-.0468-.1236-.0444-.2448-.0816-.1188-.0348-.1116-.0312-.1116-.0288-.108-.0252-.102-.0192-.0984-.0168-.0972-.0132-.09-.012-.0888-.0048h-.1596l-.0744.0048-.0684.0084-.0612.0144-.072.0204-.0672.03-.0624.0396-.0552.0456-.0456.0516-.042.0564-.036.066-.0312.072-.0264.078-.0216.0852-.0108.09-.0084.0972-.0024.1032.0036.108.0108.1152.012.1224.0204.1272.0252.1284.03.138.0384.1428.0396.1476.0444.15.114.3216.0612.1644.0672.1692.0744.1764.0816.18.0816.1824.0876.1848.0948.1932.0996.1908.102.2004.108.1992.1152.2052.1176.2076.1236.2112.1308.2124.1332.2172.1368.2184.5736.9072-.2568.5844-.0096.024-.0216.0456-.0096.0264-.0204.048-.012.0204-.0108.024-.0108.0204-.0096.0252-.0084.0192-.0204.042-.0072.0204-.0204.0396-.0072.0216-.0096.0204-.0216.048-.0096.0168-.006.0144-.0264.054-.0204.0324-.0036.0084-.0072.0072-.0096.0216-.0156.0132h-.0096l-.0324-.0324-.024-.0264-.0264-.036-.0336-.042-.0372-.0492-.0396-.0576-.0444-.0612-.048-.066-.102-.1548-.0564-.0816-.0564-.0876-.0612-.0924-.066-.0996-.1296-.2052-.1344-.21-.204-.3276-.0708-.1152-.066-.1116-.0696-.1116-.1332-.2244-.0684-.1104-.06-.1092-.066-.108-.1188-.204-.0564-.102-.0564-.0972-.0504-.0924-.0516-.0888-.0444-.0828-.0816-.1548-.054-.0984-.0504-.1008-.0504-.1032-.0984-.2088-.0444-.1056-.0912-.2148-.1236-.3276-.0396-.1116-.0384-.108-.0396-.108-.0708-.216-.0324-.1116-.06-.2124-.0588-.21-.048-.2052-.0216-.1032-.0396-.1956-.0168-.096-.0288-.1836-.0132-.0888-.0084-.0864-.0072-.0816-.0036-.0816v-.078l-.0024-.0732.0024-.0732v-.0672l.0108-.1272.0108-.0564.0216-.1008.0132-.0492.0168-.0492.0156-.0516.0168-.0468.0408-.0984.0408-.0948.0504-.0936.0228-.0408.0552-.09.03-.0396.09-.1236.0312-.0408.0672-.0756.0348-.0348.0348-.0372.0348-.0324.036-.0348.0756-.0612.036-.0288.042-.0288.036-.0264.078-.0492.1236-.0624.0816-.0312.0816-.0264.15-.0312.156-.0204.1644-.0156L6.176 4.3l.1836.006.192.0204.1968.0264.204.042.2136.0444.2184.0552.2292.0684.2328.0732.24.0852.2448.0912.2532.1008.258.1104.2664.1236.2664.1284.2736.1356.2796.1428.2832.1512.2856.1596.2928.1704.2964.1752.2988.1836.3036.1932.306.1992.3072.2052.3132.216.3144.2196.318.2292.3192.2352.3228.2388.3228.2496.3276.2568.3276.2604.3264.2664.3276.2748.3264.2808.3276.2856 1.1088.9852 1.524-.3156.2292-.042.2196-.0396.1044-.0216.1548-.03.048-.0072.0948-.0192.0456-.0084.0876-.0156.0816-.0132.0396-.006.0384-.0072.072-.0096.0312-.0036.0312-.0072.03-.0036.0552-.0072.0252-.0024h.1344l.0168-.0048.0216-.0084.0156-.0084.0204-.012.0324-.0324.0144-.0204.0168-.0204.0132-.0264.0156-.0312.012-.0336.0156-.036.0156-.0408.012-.0444.012-.048.012-.0504.012-.0564.0144-.0564.0108-.0612.0132-.0648.0096-.0708.012-.0732.0096-.0828.012-.0816.012-.0876.0096-.09.012-.0948.0096-.1032.0084-.102.0096-.1092.012-.1128.0096-.12.0108-.1236.0096-.1272.0084-.1332.0096-.1404.0108-.1428.0096-.1476.0084-.1548.0132-.2244.0096-.2256.0084-.2172.012-.4296v-.6132l-.0036-.198-.0048-.1968-.0168-.3792-.0096-.1824-.0144-.18-.0144-.1764-.0168-.1728-.0192-.1668-.0204-.1644-.0216-.156-.0204-.1548-.0264-.1464-.0252-.1428-.0276-.138-.03-.1332-.0312-.126-.0336-.1236-.0336-.1164-.0348-.1104-.042-.1056-.0408-.0984-.0408-.096-.0408-.0852-.0456-.0828-.0444-.0756-.0468-.0696-.0468-.0612-.0492-.0552-.0516-.0504-.0504-.0396-.0564-.0348-.0528-.0264-.0624-.0204-.06-.0228-.0612-.0108-.0612-.0048-.0612.0036-.0624.012-.066.0096-.0708.0216-.0696.024-.0708.0276-.1488.0828-.0744.0492-.078.0528-.078.0612-.0816.0648-.0816.072-.0816.078-.0816.0816-.0828.0912-.09.0936-.0876.0984-.09.102-.0924.1116-.0948.1152-.0912.1236-.096.126-.0984.1308-.096.144-.102.1428-.1032.1476-.102.1572-.1008.1596-.1032.1644-.1032.1704-.108.1752-.216.3696-.1104.1944-.966 1.6872-.6336.0816-.0204.0024-.0252.0024h-.3l-.0204-.0024h-.0156l-.0132-.0024-.0408-.0072h-.0204l-.0216-.0084h-.0084l-.0204-.0132-.0048-.0036-.0024-.006-.0036-.0036-.0024-.0084v-.0072l.0036-.024.0072-.03.0108-.042.0156-.0444.0192-.0492.0204-.0576.0252-.0612.0312-.066.0288-.0756.0348-.0756.036-.0816.0408-.0816.0408-.0876.042-.09.0444-.0924.0492-.0972.096-.1992.102-.2052.0528-.1008.0528-.1068.1644-.3108.0576-.1032.054-.102.054-.1032.0576-.1008.1068-.1932.0528-.0912.0504-.09.0516-.0864.0516-.0816.0468-.0816.0444-.0744.0456-.0684.0408-.0684.042-.0612.0888-.1332.18-.2592.0888-.1236.174-.2412.1716-.2244.0852-.1116.2496-.312.0816-.0984.0828-.0936.0816-.0924.0816-.0888.1596-.1668.0816-.0828.156-.1512.0768-.0684.1512-.1344.1512-.1236.0768-.0576.0732-.0552.0816-.0696.1428-.0924.0744-.0408.072-.0408.0708-.036.0708-.0336.0732-.0312.066-.03L19.1.73l.0708-.0192.066-.0204.0864-.0216.0456-.0084.0408-.0036.0456-.0048.09-.0036h.0456l.0468.0024.0468.0048.0984.0132.0948.0168Zm-.6012 11.1192-.246.072-.204.0696-.1548.0612-.0936.0528-.0144.0408.2328.2592.3468.3576.3732.3648.3024.2808.1428.1104.0324-.054.0444-.1284.0552-.1944.06-.246.0576-.2796.0576-.3204.0312-.252v-.1776l-.0264-.1152-.0552-.0492-.0912-.0084-.1536.0132-.204.03-.2364.0516-.2568.0612ZM9.1868 11.524c.3432-.6468 1.1856-1.6008 1.89-2.1348.036-.0312.2208-.1752.5556-.4404.048.0336.4272.3024.4752.336.2592.1848.4812.3624.4908.4092.0096.0372-.1692.2052-.3972.348-.2364.1548-.6708.5112-.9672.7896-.3768.3684-.7896.6096-1.4268.8472 0-.0012-.2952.1128-.8868.3408.1596-.2964.2484-.462.2664-.4956Zm-1.1112 5.1408c-.0252-.48.0132-.5316.498-.756.2856-.1296.5352-.2268.564-.2184.0192.0216.102.4872.1644 1.056.2244 1.8336 1.374 3.6576 2.9772 4.6944.8832.5856 2.1672 1.0224 3.1056 1.0764.3636.0204.6732.0816.6804.1224.0144.0504-.0888.3144-.2244.6024-.0168.036-.0972.2136-.2412.5328-.0708-.0096-.6312-.0924-.702-.102-2.8836-1.092-4.7472-2.2788-5.5944-3.5616-.5388-.822-1.1856-2.6484-1.2276-3.4464Zm11.532-7.6344c-.036.2664-1.2204.3828-1.9344.1896-.5124-.1392-1.3152-.6672-1.8924-1.2408-.3996-.3972 1.902-.1032 3.1236.408.6996.2856.7536.3276.7032.6432Zm2.5632 10.2936c.1152.1788.276.3888.3564.5016.102.1296.0012.3408-.3348.7764-.8112 1.0632-2.6664 2.4924-2.5116 1.932.2832-.9216.6552-1.6476 1.1712-2.1936.3192-.342.6672-.7788.7536-.942.2172-.4308.3072-.4308.5652-.0744Zm.9636-6.9096c.27.5112.672 2.1132.7296 2.8788.0348.3744.0168.6948-.0192.7068-.0504.012-.3276-.2964-.6408-.6624-.3996-.492-.5952-.876-.732-1.3956-.3444-1.2816.1836-2.4708.6624-1.5276Z" fill="none"/>
  <path vector-effect="non-scaling-stroke" d="m19.7648 1.1468.0468.0096.0456.0108.0456.0132.048.0132.0936.0324.0456.0204.0468.018.09.0408.0444.0204.0876.0468.0876.0516.126.0864.1188.0948.0756.0672.072.072.0336.0384.0204.024.018.0264.0204.024.0204.0288.0204.0228.0384.0516.0204.0276.0204.0252.0336.054.0348.06.0324.06.0312.0636.0156.0336.03.0708.0144.0408.0192.0384.0144.0408.0168.0384.0132.0468.0168.0456.0132.0456.0324.0996.0144.0504.0156.0552.0204.06.126.4668.0192.0792.0276.108.0252.1092.0492.2232.0192.1164.0228.1128.0204.12.0372.2376.018.1188.0168.1248.0132.1224.0144.1284.012.126.0108.1296.0108.1296.0084.1332.0096.1332.0204.408.0072.57-.006.4428-.012.3036-.0024.1548-.0108.1548-.0084.1584-.0204.318-.0132.1632-.012.162-.0516.5568-.0036.0504-.006.0528-.0036.054-.0084.102-.0084.0996-.0036.0468-.0072.096-.0024.0444-.0024.0456v.0444l-.0036.0408-.0024.0432v.0792l-.006.0744v.0336l-.0012.036-.0048.0636v.1344l-.0024.0396.0024.0192v.0636l.0012.006.0036.0048h.0048l.0072.0012h.132l.0264-.0012h.0888l.0672-.0048.0744-.0036.0396-.0024h.0828l.0912-.0072h.048l.0456-.0036.0492-.0048.0516-.0036.054-.0036h.054l.0504-.0048.0564-.0036.06-.0072.0588-.0024h.0564l.1188-.0084.0588-.006.1236-.0096.06-.0072.2772-.018.2712-.0204.2712-.0168.5232-.0192.2592-.006.2496-.0036h.4908l.2376.0036.2328.006.4512.0192.2184.0168.2124.0156.2076.0192.204.0204.1992.024.1932.0252.1872.03.1836.0324.174.0336.174.0396.1644.0396.1584.0396.1548.0444.1488.0468.1428.048.1392.0516.1332.054.1248.0552.1188.0588.1152.0612.108.0624.0984.0648.0996.0708.09.0696.0828.0708.0768.0756.0708.0792.0264.0336.054.066.0252.0312.0228.0336.0192.0336.0204.0324.0396.06.0204.0336.0492.0924.0168.0324.0132.03.012.0336.0324.0936.0192.0648.012.066.006.0324.0048.0348.0036.0324v.0336l.0036.0708v.036l-.0036.0708-.0024.0408-.0048.0384-.0012.0408-.012.0792-.0084.0396-.0072.0444-.006.0384-.0156.0708-.0204.0696-.024.0708-.0264.072-.0288.072-.0336.0756-.0372.0744-.0384.0792-.0444.0756-.0468.0792-.0504.0792-.0516.0792-.1188.1596-.1272.162-.0708.0804-.0708.0828-.234.246-.0828.0852-.174.1668-.0912.0852-.192.1668-.0996.0864-.204.1668-.1056.0852-.1092.0792-.3372.2472-.1188.0792-.2424.1596-.1224.0792-.1248.0792-.0756.048-.0792.048-.084.0492-.0828.0516-.09.0528-.09.0504-.192.108-.0996.0588-.0996.054-.0984.0552-.0996.06-.204.1116-.1044.054-.0972.0552-.1044.0528-.1992.1056-.0984.0504-.0996.0504-.0948.0504-.1824.0912-.1704.0828-.084.0396-.0756.0408-.0732.0336-.0696.0336-.0636.0288-.06.0264-.054.0192-.0504.0204-.0408.0204-.0384.0108-.0336.012-.0252.0072-.0204.0036-.0084-.0036-.0084-.0084-.0084-.012-.0048-.0168-.0072-.0192-.0036-.0192-.0012-.0264-.0048-.0276v-.03l.0012-.0336v-.0396l.0036-.0348.0036-.0408.0012-.0396.0108-.0876.006-.0444.0192-.138.0084-.0468.0204-.0948.0096-.0468.0204-.0888.012-.0444.0096-.0432.0132-.0408.0108-.0384.0132-.0408.0132-.0348.024-.0648.012-.03.0144-.0252.0132-.024.012-.0192.0144-.0204.0108-.012.012-.0096.0204-.0072.0204-.0108.0096-.0072.0144-.0084.0108-.006.0156-.006.0144-.0072.0324-.0204.036-.0168.0192-.0108.0204-.0072.0396-.0252.0636-.0324.0432-.0228.0456-.0264.048-.0228.0732-.0408.024-.0132.0504-.0252.0252-.0156.0504-.0252.0264-.012.024-.0132.0252-.012.0264-.0144.0264-.012.2724-.138.132-.072.1332-.0756.132-.0708.1284-.0708.1272-.0744.2496-.15.1188-.0708.2388-.1476.1152-.0756.1128-.0732.114-.0756.1092-.072.1068-.0756.1056-.072.102-.0732.1992-.1476.0924-.0696.0924-.072.0888-.072.0876-.0708.1668-.1404.0792-.0684.1464-.1356.1332-.132.12-.1296.0552-.0636.054-.06.0468-.06.0456-.0588.0408-.0588.0708-.1164.0276-.0552.0276-.0588.0252-.054.018-.054.0168-.054.012-.0504.0084-.0528.0036-.0516v-.0996l-.0048-.0492-.0108-.048-.0144-.042-.0156-.0468-.0204-.0456-.0228-.0444-.0288-.0384-.0624-.084-.0792-.0792-.096-.0756-.0516-.036-.0564-.0348-.1188-.0672-.1344-.066-.0732-.03-.0804-.03-.0792-.0276-.0828-.0288-.0852-.0264-.0912-.0288-.0948-.0252-.0984-.024-.0996-.0204-.1032-.0192-.0936-.0204-.0996-.0204-.1044-.0156-.114-.0108-.12-.0156-.126-.0132-.1284-.012-.1332-.0084-.1392-.0108-.1428-.0096-.1464-.0084-.3012-.012-.1596-.006-.1584-.0036h-.1584l-.3324-.0036-.1644.0012h-.168l-.5112.006-.1692.006-.1704.0072-.1704.0036-.1668.0096-.1692.0048-.1668.012-.162.0108-.1656.0108-.1584.0108-.3108.0276-.1512.0144-.15.0156-.1416.0156-.2796.0396-.1284.0204-.6792.1032-.2772 1.554-.2904 1.5552 1.35 1.5756.2064.2484.204.2448.1992.2376.1944.2388.1884.2388.186.234.1776.2304.174.2268.1728.2244.1668.2256.1632.2172.1584.2184.1548.2184.15.2124.1452.2124.2772.4176.1332.2052.1296.2016.1224.1992.12.198.114.1944.1116.1944.1068.1884.1032.1908.0996.1884.096.1848.0888.1836.084.1776.084.1788.0792.1788.0744.1752.0708.1776.066.1704.0636.1716.0588.1704.0552.1668.0504.1644.0456.1656.03.1032.024.0996.0276.0996.0192.0948.0204.09.0204.0912.0204.0864.0156.0876.0144.0804.0132.0792.0132.0792.0072.0792.0084.0732.0072.0732.0036.072.0048.0672v.1332l-.0072.126-.006.06-.0072.06-.0108.06-.0228.114-.0168.054-.0204.0564-.0384.102-.024.0528-.0252.048-.0252.0528-.0264.0504-.0612.0972-.0336.0492-.0348.0468-.0408.048-.0384.0468-.0408.0468-.0588.066-.06.0588-.0636.06-.0672.0504-.0696.0492-.0708.0456-.0756.0384-.0792.0408-.0792.0336-.084.0264-.0864.0276-.1812.0384-.0996.0144-.0996.0096h-.3132l-.1128-.0072-.1128-.0084-.1176-.0156-.12-.0204-.1224-.0192-.1308-.0252-.1296-.0312-.1356-.0312-.2772-.0792-.1452-.0444-.1488-.048-.1536-.0528-.1548-.06-.1584-.0588-.1632-.0636-.1668-.0684-.1704-.072-.3576-.1596-.1824-.0864-.1848-.0888-.0648-.0288-.0684-.0336-.072-.0408-.0804-.0396-.0828-.0444-.0864-.048-.0888-.0492-.0912-.0528-.096-.0552-.2976-.1788-.0996-.0636-.1044-.0588-.2064-.1296-.1044-.0636-.1056-.066-.0996-.0672-.1032-.0636-.198-.1272-.0996-.0648-.0936-.0612-.0912-.0588-.09-.0588-.084-.06-.0792-.0564-.0792-.0516-.0708-.0492-.0684-.0492-.0588-.0456-.0588-.0396-.0504-.0408-.0444-.0336-.0348-.0336-.0324-.0252-.0192-.024-.0156-.0192-.0084-.0144.0012-.0084.0048-.0108.0108-.0108v-.0084l.0108-.012.0192-.0132.0408-.0312.012-.0084.0132-.0108.0132-.0072.0132-.0084.0132-.0096.0156-.0096.0168-.0072.0132-.0108.0324-.0192.0204-.0108.0192-.0084.0156-.0108.0792-.0396.0204-.0132.0204-.0084.0192-.0084.0444-.0204.0384-.0204.5208-.2172 1.812 1.062.1836.1032.1788.0996.1752.0984.1716.0936.1668.0876.1644.0852.318.1584.1548.0744.1464.0672.1464.0648.1452.06.138.0552.1344.054.1308.048.1248.0444.126.0384.12.036.114.0312.1116.0288.108.024.102.0192.0996.0156.096.0144.0912.006h.1692l.0792-.006.0768-.0072.0696-.012.0672-.0204.0624-.0204.0612-.0252.054-.03.048-.0336.0456-.036.0408-.0432.0348-.0456.0324-.0516.0432-.0876.0324-.0996.0204-.1044.012-.12.0036-.126-.0072-.138-.0156-.1428-.0228-.1548-.036-.1584-.0396-.1716-.0528-.1788-.0588-.1848-.0696-.192-.0756-.198-.0852-.2076-.0924-.2112-.0996-.2196-.1092-.2256-.12-.2316-.1248-.234-.1308-.2448-.1392-.2472-.1464-.252-.1536-.258-.3252-.5268-.1728-.2676-.1788-.2712-.1848-.2772-.192-.2796-.402-.564-.2088-.282-.2196-.2904-.2184-.2892-.2268-.2928-.2304-.2916-.2388-.294-.2424-.294-.2448-.2964-.828-.9732-.4068 1.4964-.1464.5304-.15.5256-.1548.5196-.1596.5112-.1584.5052-.1668.4968-.1668.4884-.1728.4824-.1752.4728-.1752.4668-.1788.456-.1776.4476-.1824.4356-.1872.426-.1848.4152-.1884.408-.1908.3936-.1908.3816-.1944.3744-.1896.3612-.1956.3456-.1944.336-.1944.3252-.1944.3096-.1992.2976-.192.282-.1956.2688-.192.252-.1944.2388-.192.2244-.1908.2088-.1884.1932-.1908.174-.1872.1596-.1836.144-.1836.1272-.1824.1092-.1776.0912-.1752.0732-.1752.0564-.0396.0096-.0828.0156-.0444.0048-.0852.0084h-.1356l-.0444-.0048-.0492-.0036-.0456-.0072-.0456-.0072-.0924-.0192-.0456-.012-.048-.012-.0456-.0168-.0456-.0132-.0936-.036-.1392-.06-.0876-.0432-.0456-.024-.1284-.0792-.0396-.0288-.1188-.0888-.1128-.0996-.036-.0336-.0684-.0744-.036-.0396-.0384-.0492-.0372-.0528-.0336-.0552-.0384-.06-.0336-.0624-.0372-.066-.0348-.072-.0684-.15-.0672-.1632-.0312-.0864-.0648-.1776-.0624-.1872-.0276-.0996-.0312-.0984-.0552-.2028-.0504-.21-.0264-.108-.0456-.2184-.0444-.222-.018-.1116-.0372-.222-.0156-.1128-.0276-.222-.0108-.1116-.0192-.2256-.0156-.2172-.0024-.1068-.0036-.0792-.0048-.0876v-.99l.0072-.2496.0012-.1272.0036-.126.0036-.1296.0108-.3804.0108-.2496.0048-.1176.0036-.12.0072-.1152.0036-.1116.0072-.1068.012-.198.0072-.0936.0048-.0864.0072-.0792.0048-.072.0084-.0672.006-.0612.006-.0516.0084-.0444.0048-.0348.006-.0252.006-.0156.006-.0084.0036.0024.0048-.0024.006.0036h.006l.006.0048.006.0012.0204.0108.0048.0048.0324.0204.0096.0048.024.0168.0132.0084.0144.0084.06.0408.0192.012.0144.0096.0192.012.0204.0132.0156.0108.0408.0276.018.012.0612.0408.0588.042.0396.0288.0396.0312.4956.3672-.0468 1.1712-.0048.1284-.0036.1296v.1296l-.0036.258v.258l.0072.3828.0072.2544.006.126.0036.1224.0084.12.0084.1224.0228.3576.0192.2256.0132.1104.0084.1104.0276.21.0264.2028.0168.0948.0132.0936.0156.0912.0168.0864.0204.0876.018.0792.0168.0792.0204.0732.0204.0708.018.0672.0408.12.0384.1092.0444.1032.0396.0984.0444.09.0456.084.0468.0756.0492.0708.0468.0636.0516.0588.0516.0528.0552.0432.054.0408.0552.0288.06.0264.06.0156.0588.0108.06.0036h.066l.0648-.0096.0684-.0156.0708-.0228.0684-.0288.0756-.036.0756-.0432.0792-.0468.0792-.0612.084-.0624.084-.0708.0864-.0792.0876-.0816.0888-.0912.0948-.0996.0936-.1056.0996-.1116.0996-.1188.0996-.1248.1056-.1332.1092-.1392.1092-.1452.1128-.1524.12-.1728.1248-.18.1224-.1884.1248-.192.1236-.2016.1248-.2088.1272-.2184.126-.2244.126-.228.126-.2376.1248-.2448.126-.2508.2496-.516.1236-.2676.1248-.2724.126-.2784.1248-.2808.1236-.2904.1224-.2916.12-.2988.1188-.3012.12-.306.1176-.3096.2388-.6348.1188-.3216.114-.3264.114-.3252.114-.3312.1116-.3312.1092-.3384.1068-.3372.1056-.3372.102-.3432.1032-.3456.0996-.3456.0996-.348.1908-.6984.4368-1.6224-1.014-1.0212-.5148-.5172-.0792-.0756-.0372-.0384-.0384-.036-.0408-.0396-.0348-.0348-.036-.0396-.072-.0696-.0312-.0336-.1308-.1224-.0276-.0288-.0276-.0288-.0552-.0516-.0252-.0252-.024-.024-.0228-.0204-.06-.06-.0192-.0156-.426-.3876-3.6624 1.0764-.2928.0924-.2916.0864-.2832.0912-.2772.0876-.2748.09-.27.0876-.2664.0888-.2604.0888-.2592.09-.5004.174-.2436.0912-.2388.0876-.2376.09-.234.09-.2292.09-.2256.0924-.2256.0924-.4356.1824-.2148.0936-.2112.0924-.2088.0948-.4068.1896-.3972.1992-.39.198-.3816.2028-.1884.102-.1848.1008-.1848.1068-.3912.1944-.1776.1092-.1788.1116-.1716.1044-.162.1056-.1596.1044-.15.1044-.1428.0996-.1392.0996-.1356.0984-.1236.0996-.12.0948-.1152.0996-.1068.0948-.0996.0912-.096.0936-.0888.09-.0792.0888-.0792.0864-.0708.0864-.0624.0852-.06.0828-.0504.0804-.0444.0792-.0396.0792-.0324.0792-.0252.0756-.0204.0708-.0132.072-.0084.0696v.0684l.006.066.0144.066.0192.06.0264.0588.0336.0588.0396.0612.0456.0552.0504.0516.0612.0492.0648.0504.0708.0468.0792.0444.0612.0312.0636.03.0684.03.072.03.0732.0252.0792.0288.084.0252.0828.024.0888.0264.0948.0228.0936.0192.1992.0408.1044.0192.1056.0204.1116.0192.114.0168.114.0156.12.0156.1176.0144.2496.0252.126.0096.2628.0204.1332.0084.1344.0048.1392.0084.1392.0036.144.0048.2844.0036h.4404l.15-.0036.15-.0012.1512-.0048.1536-.006.1548-.0084.0264-.0012.0312-.0036h.0264l.03-.0012.0564-.0036.0552-.0024h.1668l.0276-.0012.1032-.0012.024-.0036h.0516l.0204-.0012h.0468l.0204-.0024h.0204l.0384-.0012.0204-.0024.0204.0024h.0156l.0156-.0024h.0996l.0204.006.0192.0072.0192.012.0204.0144.024.0156.024.0192.0276.0204.0288.0204.0288.0228.03.0288.0324.0288.1248.126.0312.0336.0948.1068.0324.0396.06.0744.0276.0348.0552.0696.024.036.0228.0336.0444.0636.0192.0312.0204.0288.0252.0504.0108.024.0084.0204.0048.0204.0024.0192v.0144l-.0036.012-.006.006-.0504.0132H9.23l-.0396.0036-.0588.012h-.0252l-.0576.006-.0264.0036-.0324.0024-.0324.0048H8.924l-.0684.0048-.0744.0084-.0384.0024-.0408.006-.1224.0072-.0444.0048-.0888.0084h-.0456l-.0456.0036-.1428.0084H8.162l-.0456.0012-.0492.0036-.2052.0096-.198.012-.1992.0072-.1932.0072-.1932.006-.3768.0036H6.338l-.1788-.0036h-.1788l-.1728-.0084-.1716-.0048-.3324-.0204-.1632-.0132-.1584-.012-.1596-.0168-.3048-.036-.294-.0396-.1392-.0204-.2784-.0504-.1332-.0288-.1308-.0288-.1248-.03-.1248-.0336-.2388-.0672-.114-.0408-.1092-.0384-.108-.0408-.1044-.0396-.1044-.0444-.0996-.0456-.0936-.0432-.0912-.0468-.0912-.0528-.0792-.0456-.0792-.0492-.0756-.0492-.0684-.0492-.0672-.0504-.066-.054-.12-.1032-.0552-.0528-.0492-.054-.048-.0564-.0456-.0552-.0792-.1176-.036-.0612-.0312-.0588-.0288-.06-.0252-.0588-.0204-.06-.0336-.126-.0096-.0624-.0108-.0648-.0048-.0684-.0024-.0648.0024-.0708.0036-.0684.0084-.0684.0096-.072.0144-.0708.0156-.0732.0192-.0732.0252-.0732.0252-.0768.03-.0792.0336-.0792.036-.0792.0792-.1584.0432-.0792.1464-.2328.0792-.1128.0876-.12.0936-.114.0996-.12.1044-.1188.2268-.234.1236-.12.126-.1176.1368-.12.138-.1188.1452-.12.1512-.1188.318-.2376.1656-.12.1788-.1188.3636-.2376.1908-.12.198-.1188.2028-.1176.2064-.12.2136-.1188.2184-.12.2244-.1188.2292-.1188.2388-.1188.2412-.12.2448-.1188.2508-.12.2592-.1176.2616-.12.2688-.1188.2724-.12.2796-.1176.2832-.12.2892-.1188.1296-.054.1392-.0552.1536-.06.33-.1224.18-.0672.3768-.1404.198-.0684.204-.0744.2124-.0732.2136-.0744.2172-.0744.2184-.0756.2232-.0756.2268-.0744.2232-.0756.45-.15 1.0812-.348.2064-.0636.198-.0612.1908-.0588.3636-.1092.168-.0492.1596-.0456.1488-.0396.1392-.0408.1248-.0336.1164-.0276.0972-.0264.0876-.018.0744-.0168.0588-.0108.0432-.0012.3084-.006-.312-.3024-.0516-.0468-.0588-.0552-.0636-.0564-.0708-.0588-.0756-.0672-.0792-.0708-.09-.0756-.0924-.0792-.0972-.0792-.1008-.084-.1068-.084-.1068-.0888-.1152-.0924-.2388-.186-.1188-.096-.2544-.198-.1284-.0996-.2628-.2016-.2652-.204-.1404-.0996-.132-.0984-.1356-.0996-.2652-.1992-.132-.0972-.1308-.096-.1284-.0924-.1272-.0924-.1248-.0912-.12-.0852-.1188-.0828-.1152-.084-.1104-.0792-.1116-.0756-.1044-.072-.102-.0672-.3048-.198-.1548-.0996-.1524-.096-.306-.1812-.1524-.0912-.15-.084-.3024-.1668-.1488-.0804-.1464-.0792-.1476-.0756-.144-.0708-.2844-.1344-.1392-.0648-.2748-.1188-.132-.054-.132-.0528-.1284-.0504-.1272-.0456-.12-.0432-.2376-.0792-.1152-.0336-.108-.03-.108-.0276-.1056-.0252-.0996-.018-.0948-.0168-.0948-.0132-.0876-.0108-.0852-.006h-.1548l-.072.006-.0672.0084-.0588.0132-.0708.0204-.0648.0276-.06.0396-.054.0444-.0444.0492-.0408.0552-.0348.0636-.0312.0696-.0252.0756-.0204.084-.0108.0876-.0072.0936-.0036.0996.0048.1056.0108.1116.0108.1188.0204.1236.024.1248.0288.1332.0372.1392.0384.144.0432.1452.1104.312.0588.1584.066.1644.072.1716.0792.1752.0792.1776.0852.1788.0924.1872.096.186.0996.1932.1044.1944.1128.1992.114.2016.12.204.126.2064.1296.2112.1332.2112.5556.8808-.2484.5676-.0096.0228-.0204.0444-.0096.0264-.0204.0456-.012.0204-.0096.0228-.0108.0204-.0084.024-.0084.018-.0204.0408-.0072.0204-.0192.0384-.0072.0204-.0096.0204-.0204.0468-.0096.0168-.006.0132-.0264.0528-.018.0312-.0048.0072-.006.0084-.0096.0204-.0144.0132H7.682l-.0324-.0324-.0228-.0252-.0264-.0348-.0312-.0408-.0372-.0468-.0384-.0564-.0432-.06-.0456-.0648-.0996-.1488-.054-.0792-.0552-.0852-.06-.09-.0636-.0972-.126-.1992-.1308-.2028-.1968-.318-.0696-.1116-.0636-.1092-.0684-.108-.1284-.2172-.066-.108-.06-.1056-.0624-.1044-.1164-.198-.0552-.0996-.054-.0948-.0492-.09-.0504-.0864-.0432-.0792-.0792-.15-.0516-.096-.0492-.0984-.048-.0996-.096-.2028-.0432-.1032-.0888-.2076-.12-.318-.0384-.108-.036-.1044-.0396-.1056-.0684-.21-.0312-.108-.0588-.2052-.0564-.2052-.048-.1992-.0204-.0996-.0384-.1896-.0168-.0924-.0276-.18-.012-.0852-.0084-.084-.0072-.0792-.0036-.0792V6.512l-.0024-.0708.0024-.072v-.0648l.0108-.1236.0108-.054.0204-.0984.0132-.048.0168-.0468.0144-.0504.0156-.0456.0408-.096.0396-.0912.048-.0912.0228-.0396.054-.0876.0276-.0384.0876-.12.0312-.0396.0648-.0732.0336-.0336.0336-.0372.0336-.03.0348-.0336.0744-.06.0348-.0276.0408-.0288.0348-.0252.0756-.0468.12-.0612.0792-.0312.0792-.0252.1452-.03.1524-.0204.1584-.0144.1716-.0012.1788.0048.186.0204.1908.0264.198.0396.2076.0432.2124.054.222.066.2256.0708.2328.084.2376.0876.246.0984.2508.108.258.1188.2592.1248.2652.1308.2712.1392.2748.1464.2772.1548.2844.1656.288.1704.2892.1788.2952.1872.2976.1932.2964.1992.3048.2088.306.2148.3072.222.3096.228.3144.2316.3132.2424.318.2496.318.2532.3168.258.318.2664.3168.2724.3168.2772 1.0776.9564 1.4796-.306.222-.0408.2124-.0396.102-.0204.15-.0288.0468-.0072.0912-.018.0444-.0084.0852-.0156.0792-.0132.0396-.0048.036-.0072.0696-.0096.0312-.0036.03-.0072.0288-.0036.054-.0072.0252-.0024h.1296l.0168-.0036.0204-.0084.0156-.0084.0192-.012.0324-.0312.0132-.0192.0156-.0204.0144-.0264.0144-.0288.012-.0324.0144-.0348.0156-.0408.012-.0432.0108-.0456.012-.0504.012-.0528.0132-.0552.0108-.06.012-.0636.0096-.0684.012-.0708.0096-.0792.012-.0804.0108-.084.0096-.0876.012-.0936.0096-.0996.0084-.0996.0096-.1044.0108-.1104.0084-.1152.0108-.12.0096-.1248.0084-.1284.0096-.1368.0108-.138.0096-.144.0072-.15.012-.2172.0096-.2196.0084-.21.012-.4176V6.272l-.0036-.192-.0048-.1908-.0156-.3684-.0096-.1776-.0144-.1752-.0132-.1704-.0168-.1668-.0192-.1632-.0192-.1584-.0204-.1524-.0204-.1488-.0252-.1428-.0252-.1392-.0264-.1332-.03-.1296-.0288-.1224-.0324-.12-.0336-.1128-.0336-.108-.0408-.102-.0396-.0948-.0396-.0936-.0396-.0828-.0444-.0804-.0432-.0732-.0456-.0672-.0456-.06-.0468-.054-.0504-.048-.0492-.0384-.054-.0348-.0516-.0252-.06-.0204-.06-.0216-.0588-.0108-.0588-.0036-.06.0024-.06.012-.0648.0096-.0684.0204-.0672.024-.0696.0276-.144.0792-.072.048-.0756.0516-.0756.0588-.0792.0636-.0792.0696-.0792.0756-.0792.0792-.0804.0876-.0876.0924-.084.0948-.0876.0984-.09.1092-.0924.1116-.0888.12-.0924.1224-.096.126-.0924.1404-.0996.1392-.0996.1416-.0996.1536-.0984.1548-.0996.1596-.0996.1656-.1044.1704-.21.3588-.108.1884-.9372 1.638-.6156.0792-.0192.0012-.0252.0024h-.2904l-.0204-.0024h-.0144l-.0132-.0012-.0396-.0084h-.0204l-.0192-.0084h-.0084l-.0204-.012-.006-.0036-.0012-.0048-.0036-.0048-.0024-.0084v-.006l.0036-.0228.0072-.03.0108-.0408.0144-.042.0192-.0492.0204-.0552.024-.0588.0288-.0648.0288-.0732.0336-.0732.0348-.0804.0408-.0792.0384-.084.0408-.0876.0432-.0888.048-.0948.0936-.1932.0996-.1992.0504-.0984.0516-.1044.1584-.3012.0564-.0996.0528-.0996.0528-.0996.0552-.0984.1032-.1872.0516-.0888.0492-.0876.0504-.0828.0492-.0792.0468-.0804.042-.0708.0456-.0672.0384-.066.0408-.0588.0852-.1296.1752-.252.0864-.12.1692-.234.1656-.2184.084-.1068.2424-.3036.0792-.0948.0792-.0924.0792-.0888.0804-.0864.1548-.162.0792-.0792.15-.1476.0756-.0672.1476-.1308.1464-.1188.0732-.0552.072-.054.0792-.0672.1392-.0912.0708-.0384.0696-.0408.0696-.0348.0684-.0324.0708-.03.0648-.0288.0672-.024.0684-.0192.0648-.0204.084-.0204.0444-.0072.0384-.0048.0444-.0036.0876-.0048h.0444l.0456.0036.0444.0036.096.0132.0936.0168Zm-.5844 10.7916-.2388.0696-.198.0672-.15.0588-.0912.0516-.0144.0408.2268.252.336.3468.3624.354.2928.2724.1392.1068.0324-.0516.0432-.126.0516-.1884.06-.2376.0552-.2724.0564-.3108.03-.2448v-.1728l-.0264-.1116-.054-.0468-.0876-.0084-.1488.012-.198.03-.2304.0492-.2484.06Zm-9.7932-.2724c.3336-.6288 1.1508-1.554 1.8348-2.0724.0348-.03.2136-.1704.54-.4272.0456.0324.414.294.4596.3264.252.1788.468.3504.4776.396.0084.0372-.1644.1992-.3852.3384-.2304.1512-.6516.4968-.9396.7656-.3648.3588-.7668.5928-1.3836.8232 0-.0012-.2868.1104-.8616.3312.1548-.288.24-.4488.258-.4812Zm-1.0776 4.9884c-.0252-.4656.0132-.5148.4824-.7332.2772-.1248.5196-.2196.5484-.2112.018.0204.0984.4728.1584 1.0236.2184 1.7796 1.3344 3.5508 2.8908 4.5576.8568.5676 2.1036.9912 3.0132 1.044.3528.0204.654.0792.6612.1188.0132.0492-.0864.3048-.2184.5856-.0156.0348-.0936.2064-.234.516-.0684-.0096-.6132-.0888-.6816-.0996-2.7984-1.0584-4.6068-2.2116-5.43-3.456-.522-.7968-1.1508-2.5704-1.1904-3.3456ZM19.502 9.2456c-.0348.2592-1.1844.372-1.878.1836-.4968-.1344-1.2756-.648-1.836-1.2036-.3876-.3864 1.8456-.1008 3.0312.396.678.2772.7308.3168.6828.624Zm2.4876 9.9912c.1116.174.2676.3768.3456.486.0996.126.0012.3312-.324.7536-.7872 1.032-2.5884 2.4192-2.4384 1.8756.2748-.894.636-1.5996 1.1364-2.1288.3096-.3324.648-.756.732-.9156.21-.4164.2976-.4164.5484-.0708Zm.9348-6.7068c.2628.4956.6516 2.0508.708 2.7936.0336.3636.0168.6744-.018.6864-.0492.012-.318-.288-.6228-.6432-.3876-.4764-.5772-.8496-.7104-1.3548-.3336-1.2432.1788-2.3964.6432-1.482Z" fill="none"/>
  <path vector-effect="non-scaling-stroke" d="m19.7648 1.1468.0468.0096.0456.0108.0456.0132.048.0132.0936.0324.0456.0204.0468.018.09.0408.0444.0204.0876.0468.0876.0516.126.0864.1188.0948.0756.0672.072.072.0336.0384.0204.024.018.0264.0204.024.0204.0288.0204.0228.0384.0516.0204.0276.0204.0252.0336.054.0348.06.0324.06.0312.0636.0156.0336.03.0708.0144.0408.0192.0384.0144.0408.0168.0384.0132.0468.0168.0456.0132.0456.0324.0996.0144.0504.0156.0552.0204.06.126.4668.0192.0792.0276.108.0252.1092.0492.2232.0192.1164.0228.1128.0204.12.0372.2376.018.1188.0168.1248.0132.1224.0144.1284.012.126.0108.1296.0108.1296.0084.1332.0096.1332.0204.408.0072.57-.006.4428-.012.3036-.0024.1548-.0108.1548-.0084.1584-.0204.318-.0132.1632-.012.162-.0516.5568-.0036.0504-.006.0528-.0036.054-.0084.102-.0084.0996-.0036.0468-.0072.096-.0024.0444-.0024.0456v.0444l-.0036.0408-.0024.0432v.0792l-.006.0744v.0336l-.0012.036-.0048.0636v.1344l-.0024.0396.0024.0192v.0636l.0012.006.0036.0048h.0048l.0072.0012h.132l.0264-.0012h.0888l.0672-.0048.0744-.0036.0396-.0024h.0828l.0912-.0072h.048l.0456-.0036.0492-.0048.0516-.0036.054-.0036h.054l.0504-.0048.0564-.0036.06-.0072.0588-.0024h.0564l.1188-.0084.0588-.006.1236-.0096.06-.0072.2772-.018.2712-.0204.2712-.0168.5232-.0192.2592-.006.2496-.0036h.4908l.2376.0036.2328.006.4512.0192.2184.0168.2124.0156.2076.0192.204.0204.1992.024.1932.0252.1872.03.1836.0324.174.0336.174.0396.1644.0396.1584.0396.1548.0444.1488.0468.1428.048.1392.0516.1332.054.1248.0552.1188.0588.1152.0612.108.0624.0984.0648.0996.0708.09.0696.0828.0708.0768.0756.0708.0792.0264.0336.054.066.0252.0312.0228.0336.0192.0336.0204.0324.0396.06.0204.0336.0492.0924.0168.0324.0132.03.012.0336.0324.0936.0192.0648.012.066.006.0324.0048.0348.0036.0324v.0336l.0036.0708v.036l-.0036.0708-.0024.0408-.0048.0384-.0012.0408-.012.0792-.0084.0396-.0072.0444-.006.0384-.0156.0708-.0204.0696-.024.0708-.0264.072-.0288.072-.0336.0756-.0372.0744-.0384.0792-.0444.0756-.0468.0792-.0504.0792-.0516.0792-.1188.1596-.1272.162-.0708.0804-.0708.0828-.234.246-.0828.0852-.174.1668-.0912.0852-.192.1668-.0996.0864-.204.1668-.1056.0852-.1092.0792-.3372.2472-.1188.0792-.2424.1596-.1224.0792-.1248.0792-.0756.048-.0792.048-.084.0492-.0828.0516-.09.0528-.09.0504-.192.108-.0996.0588-.0996.054-.0984.0552-.0996.06-.204.1116-.1044.054-.0972.0552-.1044.0528-.1992.1056-.0984.0504-.0996.0504-.0948.0504-.1824.0912-.1704.0828-.084.0396-.0756.0408-.0732.0336-.0696.0336-.0636.0288-.06.0264-.054.0192-.0504.0204-.0408.0204-.0384.0108-.0336.012-.0252.0072-.0204.0036-.0084-.0036-.0084-.0084-.0084-.012-.0048-.0168-.0072-.0192-.0036-.0192-.0012-.0264-.0048-.0276v-.03l.0012-.0336v-.0396l.0036-.0348.0036-.0408.0012-.0396.0108-.0876.006-.0444.0192-.138.0084-.0468.0204-.0948.0096-.0468.0204-.0888.012-.0444.0096-.0432.0132-.0408.0108-.0384.0132-.0408.0132-.0348.024-.0648.012-.03.0144-.0252.0132-.024.012-.0192.0144-.0204.0108-.012.012-.0096.0204-.0072.0204-.0108.0096-.0072.0144-.0084.0108-.006.0156-.006.0144-.0072.0324-.0204.036-.0168.0192-.0108.0204-.0072.0396-.0252.0636-.0324.0432-.0228.0456-.0264.048-.0228.0732-.0408.024-.0132.0504-.0252.0252-.0156.0504-.0252.0264-.012.024-.0132.0252-.012.0264-.0144.0264-.012.2724-.138.132-.072.1332-.0756.132-.0708.1284-.0708.1272-.0744.2496-.15.1188-.0708.2388-.1476.1152-.0756.1128-.0732.114-.0756.1092-.072.1068-.0756.1056-.072.102-.0732.1992-.1476.0924-.0696.0924-.072.0888-.072.0876-.0708.1668-.1404.0792-.0684.1464-.1356.1332-.132.12-.1296.0552-.0636.054-.06.0468-.06.0456-.0588.0408-.0588.0708-.1164.0276-.0552.0276-.0588.0252-.054.018-.054.0168-.054.012-.0504.0084-.0528.0036-.0516v-.0996l-.0048-.0492-.0108-.048-.0144-.042-.0156-.0468-.0204-.0456-.0228-.0444-.0288-.0384-.0624-.084-.0792-.0792-.096-.0756-.0516-.036-.0564-.0348-.1188-.0672-.1344-.066-.0732-.03-.0804-.03-.0792-.0276-.0828-.0288-.0852-.0264-.0912-.0288-.0948-.0252-.0984-.024-.0996-.0204-.1032-.0192-.0936-.0204-.0996-.0204-.1044-.0156-.114-.0108-.12-.0156-.126-.0132-.1284-.012-.1332-.0084-.1392-.0108-.1428-.0096-.1464-.0084-.3012-.012-.1596-.006-.1584-.0036h-.1584l-.3324-.0036-.1644.0012h-.168l-.5112.006-.1692.006-.1704.0072-.1704.0036-.1668.0096-.1692.0048-.1668.012-.162.0108-.1656.0108-.1584.0108-.3108.0276-.1512.0144-.15.0156-.1416.0156-.2796.0396-.1284.0204-.6792.1032-.2772 1.554-.2904 1.5552 1.35 1.5756.2064.2484.204.2448.1992.2376.1944.2388.1884.2388.186.234.1776.2304.174.2268.1728.2244.1668.2256.1632.2172.1584.2184.1548.2184.15.2124.1452.2124.2772.4176.1332.2052.1296.2016.1224.1992.12.198.114.1944.1116.1944.1068.1884.1032.1908.0996.1884.096.1848.0888.1836.084.1776.084.1788.0792.1788.0744.1752.0708.1776.066.1704.0636.1716.0588.1704.0552.1668.0504.1644.0456.1656.03.1032.024.0996.0276.0996.0192.0948.0204.09.0204.0912.0204.0864.0156.0876.0144.0804.0132.0792.0132.0792.0072.0792.0084.0732.0072.0732.0036.072.0048.0672v.1332l-.0072.126-.006.06-.0072.06-.0108.06-.0228.114-.0168.054-.0204.0564-.0384.102-.024.0528-.0252.048-.0252.0528-.0264.0504-.0612.0972-.0336.0492-.0348.0468-.0408.048-.0384.0468-.0408.0468-.0588.066-.06.0588-.0636.06-.0672.0504-.0696.0492-.0708.0456-.0756.0384-.0792.0408-.0792.0336-.084.0264-.0864.0276-.1812.0384-.0996.0144-.0996.0096h-.3132l-.1128-.0072-.1128-.0084-.1176-.0156-.12-.0204-.1224-.0192-.1308-.0252-.1296-.0312-.1356-.0312-.2772-.0792-.1452-.0444-.1488-.048-.1536-.0528-.1548-.06-.1584-.0588-.1632-.0636-.1668-.0684-.1704-.072-.3576-.1596-.1824-.0864-.1848-.0888-.0648-.0288-.0684-.0336-.072-.0408-.0804-.0396-.0828-.0444-.0864-.048-.0888-.0492-.0912-.0528-.096-.0552-.2976-.1788-.0996-.0636-.1044-.0588-.2064-.1296-.1044-.0636-.1056-.066-.0996-.0672-.1032-.0636-.198-.1272-.0996-.0648-.0936-.0612-.0912-.0588-.09-.0588-.084-.06-.0792-.0564-.0792-.0516-.0708-.0492-.0684-.0492-.0588-.0456-.0588-.0396-.0504-.0408-.0444-.0336-.0348-.0336-.0324-.0252-.0192-.024-.0156-.0192-.0084-.0144.0012-.0084.0048-.0108.0108-.0108v-.0084l.0108-.012.0192-.0132.0408-.0312.012-.0084.0132-.0108.0132-.0072.0132-.0084.0132-.0096.0156-.0096.0168-.0072.0132-.0108.0324-.0192.0204-.0108.0192-.0084.0156-.0108.0792-.0396.0204-.0132.0204-.0084.0192-.0084.0444-.0204.0384-.0204.5208-.2172 1.812 1.062.1836.1032.1788.0996.1752.0984.1716.0936.1668.0876.1644.0852.318.1584.1548.0744.1464.0672.1464.0648.1452.06.138.0552.1344.054.1308.048.1248.0444.126.0384.12.036.114.0312.1116.0288.108.024.102.0192.0996.0156.096.0144.0912.006h.1692l.0792-.006.0768-.0072.0696-.012.0672-.0204.0624-.0204.0612-.0252.054-.03.048-.0336.0456-.036.0408-.0432.0348-.0456.0324-.0516.0432-.0876.0324-.0996.0204-.1044.012-.12.0036-.126-.0072-.138-.0156-.1428-.0228-.1548-.036-.1584-.0396-.1716-.0528-.1788-.0588-.1848-.0696-.192-.0756-.198-.0852-.2076-.0924-.2112-.0996-.2196-.1092-.2256-.12-.2316-.1248-.234-.1308-.2448-.1392-.2472-.1464-.252-.1536-.258-.3252-.5268-.1728-.2676-.1788-.2712-.1848-.2772-.192-.2796-.402-.564-.2088-.282-.2196-.2904-.2184-.2892-.2268-.2928-.2304-.2916-.2388-.294-.2424-.294-.2448-.2964-.828-.9732-.4068 1.4964-.1464.5304-.15.5256-.1548.5196-.1596.5112-.1584.5052-.1668.4968-.1668.4884-.1728.4824-.1752.4728-.1752.4668-.1788.456-.1776.4476-.1824.4356-.1872.426-.1848.4152-.1884.408-.1908.3936-.1908.3816-.1944.3744-.1896.3612-.1956.3456-.1944.336-.1944.3252-.1944.3096-.1992.2976-.192.282-.1956.2688-.192.252-.1944.2388-.192.2244-.1908.2088-.1884.1932-.1908.174-.1872.1596-.1836.144-.1836.1272-.1824.1092-.1776.0912-.1752.0732-.1752.0564-.0396.0096-.0828.0156-.0444.0048-.0852.0084h-.1356l-.0444-.0048-.0492-.0036-.0456-.0072-.0456-.0072-.0924-.0192-.0456-.012-.048-.012-.0456-.0168-.0456-.0132-.0936-.036-.1392-.06-.0876-.0432-.0456-.024-.1284-.0792-.0396-.0288-.1188-.0888-.1128-.0996-.036-.0336-.0684-.0744-.036-.0396-.0384-.0492-.0372-.0528-.0336-.0552-.0384-.06-.0336-.0624-.0372-.066-.0348-.072-.0684-.15-.0672-.1632-.0312-.0864-.0648-.1776-.0624-.1872-.0276-.0996-.0312-.0984-.0552-.2028-.0504-.21-.0264-.108-.0456-.2184-.0444-.222-.018-.1116-.0372-.222-.0156-.1128-.0276-.222-.0108-.1116-.0192-.2256-.0156-.2172-.0024-.1068-.0036-.0792-.0048-.0876v-.99l.0072-.2496.0012-.1272.0036-.126.0036-.1296.0108-.3804.0108-.2496.0048-.1176.0036-.12.0072-.1152.0036-.1116.0072-.1068.012-.198.0072-.0936.0048-.0864.0072-.0792.0048-.072.0084-.0672.006-.0612.006-.0516.0084-.0444.0048-.0348.006-.0252.006-.0156.006-.0084.0036.0024.0048-.0024.006.0036h.006l.006.0048.006.0012.0204.0108.0048.0048.0324.0204.0096.0048.024.0168.0132.0084.0144.0084.06.0408.0192.012.0144.0096.0192.012.0204.0132.0156.0108.0408.0276.018.012.0612.0408.0588.042.0396.0288.0396.0312.4956.3672-.0468 1.1712-.0048.1284-.0036.1296v.1296l-.0036.258v.258l.0072.3828.0072.2544.006.126.0036.1224.0084.12.0084.1224.0228.3576.0192.2256.0132.1104.0084.1104.0276.21.0264.2028.0168.0948.0132.0936.0156.0912.0168.0864.0204.0876.018.0792.0168.0792.0204.0732.0204.0708.018.0672.0408.12.0384.1092.0444.1032.0396.0984.0444.09.0456.084.0468.0756.0492.0708.0468.0636.0516.0588.0516.0528.0552.0432.054.0408.0552.0288.06.0264.06.0156.0588.0108.06.0036h.066l.0648-.0096.0684-.0156.0708-.0228.0684-.0288.0756-.036.0756-.0432.0792-.0468.0792-.0612.084-.0624.084-.0708.0864-.0792.0876-.0816.0888-.0912.0948-.0996.0936-.1056.0996-.1116.0996-.1188.0996-.1248.1056-.1332.1092-.1392.1092-.1452.1128-.1524.12-.1728.1248-.18.1224-.1884.1248-.192.1236-.2016.1248-.2088.1272-.2184.126-.2244.126-.228.126-.2376.1248-.2448.126-.2508.2496-.516.1236-.2676.1248-.2724.126-.2784.1248-.2808.1236-.2904.1224-.2916.12-.2988.1188-.3012.12-.306.1176-.3096.2388-.6348.1188-.3216.114-.3264.114-.3252.114-.3312.1116-.3312.1092-.3384.1068-.3372.1056-.3372.102-.3432.1032-.3456.0996-.3456.0996-.348.1908-.6984.4368-1.6224-1.014-1.0212-.5148-.5172-.0792-.0756-.0372-.0384-.0384-.036-.0408-.0396-.0348-.0348-.036-.0396-.072-.0696-.0312-.0336-.1308-.1224-.0276-.0288-.0276-.0288-.0552-.0516-.0252-.0252-.024-.024-.0228-.0204-.06-.06-.0192-.0156-.426-.3876-3.6624 1.0764-.2928.0924-.2916.0864-.2832.0912-.2772.0876-.2748.09-.27.0876-.2664.0888-.2604.0888-.2592.09-.5004.174-.2436.0912-.2388.0876-.2376.09-.234.09-.2292.09-.2256.0924-.2256.0924-.4356.1824-.2148.0936-.2112.0924-.2088.0948-.4068.1896-.3972.1992-.39.198-.3816.2028-.1884.102-.1848.1008-.1848.1068-.3912.1944-.1776.1092-.1788.1116-.1716.1044-.162.1056-.1596.1044-.15.1044-.1428.0996-.1392.0996-.1356.0984-.1236.0996-.12.0948-.1152.0996-.1068.0948-.0996.0912-.096.0936-.0888.09-.0792.0888-.0792.0864-.0708.0864-.0624.0852-.06.0828-.0504.0804-.0444.0792-.0396.0792-.0324.0792-.0252.0756-.0204.0708-.0132.072-.0084.0696v.0684l.006.066.0144.066.0192.06.0264.0588.0336.0588.0396.0612.0456.0552.0504.0516.0612.0492.0648.0504.0708.0468.0792.0444.0612.0312.0636.03.0684.03.072.03.0732.0252.0792.0288.084.0252.0828.024.0888.0264.0948.0228.0936.0192.1992.0408.1044.0192.1056.0204.1116.0192.114.0168.114.0156.12.0156.1176.0144.2496.0252.126.0096.2628.0204.1332.0084.1344.0048.1392.0084.1392.0036.144.0048.2844.0036h.4404l.15-.0036.15-.0012.1512-.0048.1536-.006.1548-.0084.0264-.0012.0312-.0036h.0264l.03-.0012.0564-.0036.0552-.0024h.1668l.0276-.0012.1032-.0012.024-.0036h.0516l.0204-.0012h.0468l.0204-.0024h.0204l.0384-.0012.0204-.0024.0204.0024h.0156l.0156-.0024h.0996l.0204.006.0192.0072.0192.012.0204.0144.024.0156.024.0192.0276.0204.0288.0204.0288.0228.03.0288.0324.0288.1248.126.0312.0336.0948.1068.0324.0396.06.0744.0276.0348.0552.0696.024.036.0228.0336.0444.0636.0192.0312.0204.0288.0252.0504.0108.024.0084.0204.0048.0204.0024.0192v.0144l-.0036.012-.006.006-.0504.0132H9.23l-.0396.0036-.0588.012h-.0252l-.0576.006-.0264.0036-.0324.0024-.0324.0048H8.924l-.0684.0048-.0744.0084-.0384.0024-.0408.006-.1224.0072-.0444.0048-.0888.0084h-.0456l-.0456.0036-.1428.0084H8.162l-.0456.0012-.0492.0036-.2052.0096-.198.012-.1992.0072-.1932.0072-.1932.006-.3768.0036H6.338l-.1788-.0036h-.1788l-.1728-.0084-.1716-.0048-.3324-.0204-.1632-.0132-.1584-.012-.1596-.0168-.3048-.036-.294-.0396-.1392-.0204-.2784-.0504-.1332-.0288-.1308-.0288-.1248-.03-.1248-.0336-.2388-.0672-.114-.0408-.1092-.0384-.108-.0408-.1044-.0396-.1044-.0444-.0996-.0456-.0936-.0432-.0912-.0468-.0912-.0528-.0792-.0456-.0792-.0492-.0756-.0492-.0684-.0492-.0672-.0504-.066-.054-.12-.1032-.0552-.0528-.0492-.054-.048-.0564-.0456-.0552-.0792-.1176-.036-.0612-.0312-.0588-.0288-.06-.0252-.0588-.0204-.06-.0336-.126-.0096-.0624-.0108-.0648-.0048-.0684-.0024-.0648.0024-.0708.0036-.0684.0084-.0684.0096-.072.0144-.0708.0156-.0732.0192-.0732.0252-.0732.0252-.0768.03-.0792.0336-.0792.036-.0792.0792-.1584.0432-.0792.1464-.2328.0792-.1128.0876-.12.0936-.114.0996-.12.1044-.1188.2268-.234.1236-.12.126-.1176.1368-.12.138-.1188.1452-.12.1512-.1188.318-.2376.1656-.12.1788-.1188.3636-.2376.1908-.12.198-.1188.2028-.1176.2064-.12.2136-.1188.2184-.12.2244-.1188.2292-.1188.2388-.1188.2412-.12.2448-.1188.2508-.12.2592-.1176.2616-.12.2688-.1188.2724-.12.2796-.1176.2832-.12.2892-.1188.1296-.054.1392-.0552.1536-.06.33-.1224.18-.0672.3768-.1404.198-.0684.204-.0744.2124-.0732.2136-.0744.2172-.0744.2184-.0756.2232-.0756.2268-.0744.2232-.0756.45-.15 1.0812-.348.2064-.0636.198-.0612.1908-.0588.3636-.1092.168-.0492.1596-.0456.1488-.0396.1392-.0408.1248-.0336.1164-.0276.0972-.0264.0876-.018.0744-.0168.0588-.0108.0432-.0012.3084-.006-.312-.3024-.0516-.0468-.0588-.0552-.0636-.0564-.0708-.0588-.0756-.0672-.0792-.0708-.09-.0756-.0924-.0792-.0972-.0792-.1008-.084-.1068-.084-.1068-.0888-.1152-.0924-.2388-.186-.1188-.096-.2544-.198-.1284-.0996-.2628-.2016-.2652-.204-.1404-.0996-.132-.0984-.1356-.0996-.2652-.1992-.132-.0972-.1308-.096-.1284-.0924-.1272-.0924-.1248-.0912-.12-.0852-.1188-.0828-.1152-.084-.1104-.0792-.1116-.0756-.1044-.072-.102-.0672-.3048-.198-.1548-.0996-.1524-.096-.306-.1812-.1524-.0912-.15-.084-.3024-.1668-.1488-.0804-.1464-.0792-.1476-.0756-.144-.0708-.2844-.1344-.1392-.0648-.2748-.1188-.132-.054-.132-.0528-.1284-.0504-.1272-.0456-.12-.0432-.2376-.0792-.1152-.0336-.108-.03-.108-.0276-.1056-.0252-.0996-.018-.0948-.0168-.0948-.0132-.0876-.0108-.0852-.006h-.1548l-.072.006-.0672.0084-.0588.0132-.0708.0204-.0648.0276-.06.0396-.054.0444-.0444.0492-.0408.0552-.0348.0636-.0312.0696-.0252.0756-.0204.084-.0108.0876-.0072.0936-.0036.0996.0048.1056.0108.1116.0108.1188.0204.1236.024.1248.0288.1332.0372.1392.0384.144.0432.1452.1104.312.0588.1584.066.1644.072.1716.0792.1752.0792.1776.0852.1788.0924.1872.096.186.0996.1932.1044.1944.1128.1992.114.2016.12.204.126.2064.1296.2112.1332.2112.5556.8808-.2484.5676-.0096.0228-.0204.0444-.0096.0264-.0204.0456-.012.0204-.0096.0228-.0108.0204-.0084.024-.0084.018-.0204.0408-.0072.0204-.0192.0384-.0072.0204-.0096.0204-.0204.0468-.0096.0168-.006.0132-.0264.0528-.018.0312-.0048.0072-.006.0084-.0096.0204-.0144.0132H7.682l-.0324-.0324-.0228-.0252-.0264-.0348-.0312-.0408-.0372-.0468-.0384-.0564-.0432-.06-.0456-.0648-.0996-.1488-.054-.0792-.0552-.0852-.06-.09-.0636-.0972-.126-.1992-.1308-.2028-.1968-.318-.0696-.1116-.0636-.1092-.0684-.108-.1284-.2172-.066-.108-.06-.1056-.0624-.1044-.1164-.198-.0552-.0996-.054-.0948-.0492-.09-.0504-.0864-.0432-.0792-.0792-.15-.0516-.096-.0492-.0984-.048-.0996-.096-.2028-.0432-.1032-.0888-.2076-.12-.318-.0384-.108-.036-.1044-.0396-.1056-.0684-.21-.0312-.108-.0588-.2052-.0564-.2052-.048-.1992-.0204-.0996-.0384-.1896-.0168-.0924-.0276-.18-.012-.0852-.0084-.084-.0072-.0792-.0036-.0792V6.512l-.0024-.0708.0024-.072v-.0648l.0108-.1236.0108-.054.0204-.0984.0132-.048.0168-.0468.0144-.0504.0156-.0456.0408-.096.0396-.0912.048-.0912.0228-.0396.054-.0876.0276-.0384.0876-.12.0312-.0396.0648-.0732.0336-.0336.0336-.0372.0336-.03.0348-.0336.0744-.06.0348-.0276.0408-.0288.0348-.0252.0756-.0468.12-.0612.0792-.0312.0792-.0252.1452-.03.1524-.0204.1584-.0144.1716-.0012.1788.0048.186.0204.1908.0264.198.0396.2076.0432.2124.054.222.066.2256.0708.2328.084.2376.0876.246.0984.2508.108.258.1188.2592.1248.2652.1308.2712.1392.2748.1464.2772.1548.2844.1656.288.1704.2892.1788.2952.1872.2976.1932.2964.1992.3048.2088.306.2148.3072.222.3096.228.3144.2316.3132.2424.318.2496.318.2532.3168.258.318.2664.3168.2724.3168.2772 1.0776.9564 1.4796-.306.222-.0408.2124-.0396.102-.0204.15-.0288.0468-.0072.0912-.018.0444-.0084.0852-.0156.0792-.0132.0396-.0048.036-.0072.0696-.0096.0312-.0036.03-.0072.0288-.0036.054-.0072.0252-.0024h.1296l.0168-.0036.0204-.0084.0156-.0084.0192-.012.0324-.0312.0132-.0192.0156-.0204.0144-.0264.0144-.0288.012-.0324.0144-.0348.0156-.0408.012-.0432.0108-.0456.012-.0504.012-.0528.0132-.0552.0108-.06.012-.0636.0096-.0684.012-.0708.0096-.0792.012-.0804.0108-.084.0096-.0876.012-.0936.0096-.0996.0084-.0996.0096-.1044.0108-.1104.0084-.1152.0108-.12.0096-.1248.0084-.1284.0096-.1368.0108-.138.0096-.144.0072-.15.012-.2172.0096-.2196.0084-.21.012-.4176V6.272l-.0036-.192-.0048-.1908-.0156-.3684-.0096-.1776-.0144-.1752-.0132-.1704-.0168-.1668-.0192-.1632-.0192-.1584-.0204-.1524-.0204-.1488-.0252-.1428-.0252-.1392-.0264-.1332-.03-.1296-.0288-.1224-.0324-.12-.0336-.1128-.0336-.108-.0408-.102-.0396-.0948-.0396-.0936-.0396-.0828-.0444-.0804-.0432-.0732-.0456-.0672-.0456-.06-.0468-.054-.0504-.048-.0492-.0384-.054-.0348-.0516-.0252-.06-.0204-.06-.0216-.0588-.0108-.0588-.0036-.06.0024-.06.012-.0648.0096-.0684.0204-.0672.024-.0696.0276-.144.0792-.072.048-.0756.0516-.0756.0588-.0792.0636-.0792.0696-.0792.0756-.0792.0792-.0804.0876-.0876.0924-.084.0948-.0876.0984-.09.1092-.0924.1116-.0888.12-.0924.1224-.096.126-.0924.1404-.0996.1392-.0996.1416-.0996.1536-.0984.1548-.0996.1596-.0996.1656-.1044.1704-.21.3588-.108.1884-.9372 1.638-.6156.0792-.0192.0012-.0252.0024h-.2904l-.0204-.0024h-.0144l-.0132-.0012-.0396-.0084h-.0204l-.0192-.0084h-.0084l-.0204-.012-.006-.0036-.0012-.0048-.0036-.0048-.0024-.0084v-.006l.0036-.0228.0072-.03.0108-.0408.0144-.042.0192-.0492.0204-.0552.024-.0588.0288-.0648.0288-.0732.0336-.0732.0348-.0804.0408-.0792.0384-.084.0408-.0876.0432-.0888.048-.0948.0936-.1932.0996-.1992.0504-.0984.0516-.1044.1584-.3012.0564-.0996.0528-.0996.0528-.0996.0552-.0984.1032-.1872.0516-.0888.0492-.0876.0504-.0828.0492-.0792.0468-.0804.042-.0708.0456-.0672.0384-.066.0408-.0588.0852-.1296.1752-.252.0864-.12.1692-.234.1656-.2184.084-.1068.2424-.3036.0792-.0948.0792-.0924.0792-.0888.0804-.0864.1548-.162.0792-.0792.15-.1476.0756-.0672.1476-.1308.1464-.1188.0732-.0552.072-.054.0792-.0672.1392-.0912.0708-.0384.0696-.0408.0696-.0348.0684-.0324.0708-.03.0648-.0288.0672-.024.0684-.0192.0648-.0204.084-.0204.0444-.0072.0384-.0048.0444-.0036.0876-.0048h.0444l.0456.0036.0444.0036.096.0132.0936.0168Zm-.5844 10.7916-.2388.0696-.198.0672-.15.0588-.0912.0516-.0144.0408.2268.252.336.3468.3624.354.2928.2724.1392.1068.0324-.0516.0432-.126.0516-.1884.06-.2376.0552-.2724.0564-.3108.03-.2448v-.1728l-.0264-.1116-.054-.0468-.0876-.0084-.1488.012-.198.03-.2304.0492-.2484.06Zm-9.7932-.2724c.3336-.6288 1.1508-1.554 1.8348-2.0724.0348-.03.2136-.1704.54-.4272.0456.0324.414.294.4596.3264.252.1788.468.3504.4776.396.0084.0372-.1644.1992-.3852.3384-.2304.1512-.6516.4968-.9396.7656-.3648.3588-.7668.5928-1.3836.8232 0-.0012-.2868.1104-.8616.3312.1548-.288.24-.4488.258-.4812Zm-1.0776 4.9884c-.0252-.4656.0132-.5148.4824-.7332.2772-.1248.5196-.2196.5484-.2112.018.0204.0984.4728.1584 1.0236.2184 1.7796 1.3344 3.5508 2.8908 4.5576.8568.5676 2.1036.9912 3.0132 1.044.3528.0204.654.0792.6612.1188.0132.0492-.0864.3048-.2184.5856-.0156.0348-.0936.2064-.234.516-.0684-.0096-.6132-.0888-.6816-.0996-2.7984-1.0584-4.6068-2.2116-5.43-3.456-.522-.7968-1.1508-2.5704-1.1904-3.3456ZM19.502 9.2456c-.0348.2592-1.1844.372-1.878.1836-.4968-.1344-1.2756-.648-1.836-1.2036-.3876-.3864 1.8456-.1008 3.0312.396.678.2772.7308.3168.6828.624Zm2.4876 9.9912c.1116.174.2676.3768.3456.486.0996.126.0012.3312-.324.7536-.7872 1.032-2.5884 2.4192-2.4384 1.8756.2748-.894.636-1.5996 1.1364-2.1288.3096-.3324.648-.756.732-.9156.21-.4164.2976-.4164.5484-.0708Zm.9348-6.7068c.2628.4956.6516 2.0508.708 2.7936.0336.3636.0168.6744-.018.6864-.0492.012-.318-.288-.6228-.6432-.3876-.4764-.5772-.8496-.7104-1.3548-.3336-1.2432.1788-2.3964.6432-1.482Z" fill="none"/>
</svg>
