<svg xmlns="http://www.w3.org/2000/svg" viewBox="0 0 548.963 548.963">
  <path
    fill="currentColor"
    d="M398.327 30.737c-50.875 0-95.875 31.151-123.452 69.542-27.577-38.391-72.577-69.542-123.453-69.542-43.452 0-85.484 19.04-114.168 51.677-55.221 62.834-43.085 166.366-2.375 233.454 37.014 60.992 93.832 109.188 151.972 149.303 28.091 19.383 57.387 37.902 88.024 53.055 99.891-47.723 210.791-127.301 255.975-231.268 14.211-32.706 20.074-69.187 17.54-104.126-5.802-80.081-55.673-152.095-150.063-152.095zm76.397 231.826c-29.517 67.915-101.28 134.971-198.998 186.739-16.542-9.498-34.248-20.795-54.119-34.504-64.682-44.627-107.394-86.15-134.407-130.674-15.6-25.704-25.049-57.908-25.931-88.342-.612-21.188 2.699-51.047 21.958-72.963 16.996-19.333 42.491-30.881 68.202-30.881 31.046 0 58.452 22.754 73.752 44.045 11.5 16.004 30 43.856 49.707 43.856s38.208-27.852 49.707-43.856c15.294-21.291 42.699-44.045 73.752-44.045 26.77 0 47.24 8.36 62.577 25.557 15.013 16.824 24.4 41.598 26.438 69.756 1.841 25.569-2.644 52.313-12.638 75.312z"
  />
</svg>
