<svg xmlns="http://www.w3.org/2000/svg" viewBox="0 0 640 640"><path d="m592.46 6.69 1.87.18 1.85.27 1.82.33 1.79.4 1.77.48 1.74.53 1.71.61 1.67.67 1.64.73 1.61.79 1.57.86 1.54.91 1.49.96 1.46 1.03 1.41 1.07 1.37 1.13 1.32 1.18 1.28 1.23 1.23 1.28 1.18 1.32 1.13 1.37 1.08 1.42 1.02 1.45.97 1.5.91 1.53.85 1.57.8 1.61.73 1.64.67 1.68.6 1.71.54 1.74.47 1.76.41 1.8.33 1.82.26 1.84.19 1.87.11 1.89.04 1.91v535.86l-.04 1.91-.11 1.88-.19 1.87-.26 1.85-.33 1.82-.41 1.79-.47 1.77-.54 1.74-.6 1.71-.67 1.67-.73 1.64-.8 1.61-.85 1.57-.91 1.54-.97 1.49-1.02 1.46-1.08 1.41-1.13 1.37-1.18 1.32-1.23 1.28-1.28 1.23-1.32 1.18-1.37 1.13-1.41 1.08-1.46 1.02-1.49.97-1.54.91-1.57.85-1.61.8-1.64.73-1.67.67-1.71.6-1.74.54-1.77.47-1.79.41-1.82.33-1.85.26-1.87.19-1.88.11-1.91.04H52.81l-1.91-.04-1.89-.11-1.87-.19-1.84-.26-1.82-.33-1.8-.41-1.76-.47-1.74-.54-1.71-.6-1.68-.67-1.64-.73-1.61-.8-1.57-.85-1.53-.91-1.5-.97-1.45-1.02-1.42-1.08-1.37-1.13-1.32-1.18-1.28-1.23-1.23-1.28-1.18-1.32-1.13-1.37-1.07-1.41-1.03-1.46-.96-1.49-.91-1.54-.86-1.57-.79-1.61-.73-1.64-.67-1.67-.61-1.71-.53-1.74-.48-1.77-.4-1.79-.33-1.82-.27-1.85-.18-1.87-.12-1.88-.04-1.91V52.76l.04-1.91.12-1.89.18-1.87.27-1.84.33-1.82.4-1.8.48-1.76.53-1.74.61-1.71.67-1.68.73-1.64.79-1.61.86-1.57.91-1.53.96-1.5 1.03-1.45 1.07-1.42 1.13-1.37 1.18-1.32 1.23-1.28 1.28-1.23 1.32-1.18 1.37-1.13 1.42-1.07 1.45-1.03 1.5-.96 1.53-.91 1.57-.86 1.61-.79 1.64-.73 1.68-.67 1.71-.61 1.74-.53 1.76-.48 1.8-.4 1.82-.33 1.84-.27 1.87-.18 1.89-.12 1.91-.04h535.86l1.91.04 1.88.12ZM320.74 502l.45-271.52h90.65l-.45 271.97h90.66l.45-362.18-362.18-.45-.89 362.18h181.31Z" fill="currentColor"/></svg>