<?xml version="1.0" encoding="UTF-8" standalone="no"?>
<!DOCTYPE svg PUBLIC "-//W3C//DTD SVG 1.1//EN" "http://www.w3.org/Graphics/SVG/1.1/DTD/svg11.dtd">
<svg version="1.1" xmlns="http://www.w3.org/2000/svg" xmlns:xlink="http://www.w3.org/1999/xlink" preserveAspectRatio="xMidYMid meet" viewBox="0 0 393 393" width="393" height="393"><defs><path d="M244.89 0.26L246.12 0.47L246.74 0.6L247.35 0.73L247.95 0.92L248.58 1.1L249.81 1.52L250.41 1.78L251.04 2.04L252.22 2.57L252.82 2.83L253.97 3.46L255.12 4.14L256.77 5.26L258.34 6.52L259.34 7.41L260.28 8.35L260.73 8.88L260.99 9.19L261.25 9.53L261.51 9.84L261.77 10.21L262.03 10.53L262.56 11.21L262.82 11.57L263.08 11.91L263.53 12.62L264 13.41L264.42 14.19L264.84 15.03L265.05 15.47L265.44 16.42L265.62 16.94L265.88 17.46L266.07 17.99L266.28 18.51L266.46 19.11L266.67 19.72L266.85 20.32L267.27 21.63L267.48 22.31L267.69 23.04L267.95 23.83L269.6 29.98L269.86 31.03L270.23 32.44L270.57 33.88L271.2 36.84L271.46 38.36L271.77 39.85L272.04 41.42L272.51 44.56L272.77 46.13L272.98 47.78L273.16 49.41L273.35 51.08L273.5 52.76L273.66 54.46L273.79 56.16L273.9 57.92L274.03 59.67L274.29 65.06L274.39 72.58L274.31 78.42L274.16 82.42L274.11 84.46L273.97 86.51L273.87 88.6L273.61 92.79L273.42 94.94L273.27 97.08L272.59 104.42L272.53 105.1L272.46 105.78L272.4 106.48L272.3 107.85L272.19 109.16L272.14 109.78L272.06 111.04L272.01 111.62L271.98 112.22L271.98 112.82L271.93 113.34L271.91 113.92L271.91 114.97L271.83 115.94L271.83 116.38L271.8 116.85L271.75 117.69L271.75 118.48L271.75 118.82L271.75 119.47L271.72 119.99L271.75 120.26L271.75 120.47L271.75 120.68L271.75 120.83L271.75 120.96L271.75 121.09L271.77 121.17L271.8 121.23L271.83 121.23L271.88 121.23L271.96 121.25L273.71 121.25L274.05 121.23L274.42 121.23L274.81 121.23L275.23 121.23L276.12 121.17L277.09 121.12L277.61 121.09L278.71 121.09L279.92 120.99L280.55 120.99L281.15 120.94L281.8 120.88L282.48 120.83L283.19 120.78L283.9 120.78L284.58 120.73L285.31 120.68L286.1 120.6L286.88 120.54L287.62 120.54L289.19 120.44L289.97 120.36L291.6 120.23L292.38 120.15L296.05 119.89L299.63 119.63L303.19 119.42L310.11 119.16L313.51 119.08L316.81 119.03L320.08 119.03L323.28 119.03L326.42 119.08L329.48 119.16L335.42 119.42L338.3 119.63L341.11 119.84L343.86 120.1L346.55 120.36L349.17 120.68L351.71 121.02L354.17 121.41L356.61 121.83L358.91 122.27L361.19 122.8L363.36 123.32L365.46 123.84L367.5 124.42L369.46 125.05L371.35 125.68L373.18 126.36L374.93 127.06L376.58 127.8L378.15 128.58L379.67 129.37L381.09 130.21L382.4 131.07L383.71 131.99L384.88 132.9L385.98 133.85L386.98 134.84L387.92 135.89L388.29 136.33L388.99 137.2L389.31 137.62L389.62 138.06L389.88 138.51L390.15 138.92L390.67 139.71L390.93 140.16L391.59 141.39L391.8 141.8L391.98 142.2L392.14 142.64L392.55 143.87L392.82 144.74L392.97 145.6L393.05 146.02L393.1 146.49L393.16 146.91L393.16 147.36L393.21 148.3L393.21 148.77L393.16 149.71L393.13 150.24L393.08 150.76L393.05 151.28L392.9 152.33L392.79 152.85L392.69 153.43L392.61 153.95L392.4 154.87L392.14 155.79L391.82 156.73L391.48 157.67L391.09 158.64L390.64 159.63L390.17 160.6L389.65 161.65L389.07 162.65L388.44 163.69L387.79 164.74L387.11 165.79L385.54 167.88L383.86 170.03L382.92 171.08L382 172.18L378.91 175.42L377.81 176.55L375.51 178.75L374.31 179.87L371.79 182.07L370.48 183.2L367.79 185.4L366.4 186.52L364.96 187.57L360.51 190.84L358.94 191.89L355.74 193.99L354.12 195.03L352.47 196.08L351.47 196.71L350.43 197.34L349.33 197.99L348.23 198.67L347.05 199.35L345.85 200.03L343.33 201.45L342.02 202.23L340.71 202.94L339.4 203.67L338.1 204.46L335.4 205.93L334.04 206.63L332.73 207.37L331.37 208.07L328.75 209.46L327.44 210.14L326.13 210.8L324.87 211.45L322.46 212.65L320.21 213.75L319.11 214.28L318.12 214.8L317.15 215.25L316.23 215.69L315.39 216.08L314.61 216.42L313.9 216.69L313.22 216.95L312.7 217.21L312.17 217.37L311.73 217.52L311.42 217.6L311.15 217.66L311.02 217.6L310.92 217.5L310.81 217.34L310.73 217.13L310.66 216.87L310.6 216.61L310.58 216.27L310.52 215.9L310.52 215.51L310.55 215.06L310.55 214.54L310.58 214.07L310.63 213.54L310.66 213.02L310.79 211.87L310.87 211.29L311.13 209.46L311.23 208.83L311.49 207.6L311.62 206.97L311.89 205.79L312.04 205.22L312.17 204.64L312.36 204.12L312.49 203.6L312.67 203.07L312.86 202.6L313.17 201.76L313.33 201.37L313.51 201.03L313.69 200.72L313.85 200.45L314.03 200.19L314.19 200.03L314.35 199.9L314.61 199.8L314.87 199.67L315 199.56L315.19 199.46L315.34 199.38L315.53 199.3L315.74 199.2L316.15 198.93L316.63 198.73L316.89 198.57L317.15 198.46L317.67 198.15L318.51 197.73L319.09 197.42L319.69 197.08L320.32 196.76L321.29 196.24L321.6 196.05L322.25 195.71L322.6 195.53L323.25 195.19L323.62 195.03L323.93 194.85L324.27 194.69L324.61 194.51L324.95 194.35L328.54 192.52L330.29 191.58L332.05 190.58L333.78 189.64L335.48 188.7L337.15 187.73L340.45 185.77L342.02 184.82L345.16 182.86L346.68 181.86L348.18 180.92L349.67 179.93L351.11 178.96L352.52 177.96L353.91 177.02L355.27 176.05L357.89 174.11L359.12 173.2L360.32 172.23L361.5 171.29L362.65 170.34L364.85 168.51L365.9 167.59L367.84 165.81L369.59 164.06L371.16 162.36L371.9 161.52L372.6 160.73L373.23 159.95L373.83 159.16L374.36 158.38L375.3 156.86L375.67 156.13L376.03 155.34L376.35 154.63L376.61 153.93L376.82 153.22L376.98 152.54L377.08 151.86L377.13 151.18L377.13 149.87L377.05 149.21L376.92 148.59L376.74 148.01L376.53 147.41L376.27 146.81L375.96 146.23L375.59 145.71L374.75 144.61L373.7 143.56L372.45 142.56L371.77 142.09L371.03 141.62L369.46 140.73L367.68 139.87L366.71 139.47L365.67 139.08L364.62 138.72L363.52 138.35L362.39 137.98L361.19 137.62L359.96 137.28L358.65 136.96L357.34 136.7L355.98 136.44L354.75 136.18L353.44 135.91L352.05 135.7L350.53 135.55L348.96 135.34L347.31 135.18L345.61 135.02L343.86 134.89L342.02 134.76L340.14 134.63L338.2 134.53L334.22 134.37L332.13 134.29L330.03 134.24L327.94 134.24L323.56 134.19L321.39 134.21L319.17 134.21L312.44 134.29L310.21 134.37L307.96 134.45L305.71 134.5L303.51 134.63L301.28 134.71L299.08 134.87L296.94 135L294.76 135.15L292.67 135.29L288.56 135.65L286.57 135.84L284.6 136.04L282.72 136.25L279.05 136.78L277.35 137.04L268.4 138.4L264.73 158.9L260.91 179.4L278.71 200.19L281.44 203.46L284.13 206.69L286.75 209.83L289.32 212.97L291.8 216.11L294.24 219.2L296.6 222.24L298.9 225.25L301.18 228.21L303.38 231.17L305.52 234.05L307.62 236.93L309.66 239.81L311.62 242.61L313.54 245.41L317.2 250.91L318.96 253.6L320.66 256.27L322.28 258.89L323.85 261.51L325.37 264.08L326.84 266.64L328.25 269.13L329.61 271.64L330.92 274.13L332.18 276.57L333.36 278.98L334.48 281.33L335.58 283.69L336.63 286.04L337.6 288.35L338.54 290.7L339.4 292.96L340.24 295.21L341.03 297.46L341.76 299.66L342.42 301.83L343.02 304.01L343.41 305.37L343.72 306.68L344.09 307.99L344.35 309.24L344.61 310.45L344.88 311.62L345.14 312.78L345.35 313.93L345.56 314.98L345.71 316.02L345.9 317.07L346 318.12L346.11 319.09L346.19 320.06L346.24 321L346.29 321.89L346.29 323.64L346.21 325.32L346.13 326.1L346.03 326.89L345.9 327.67L345.58 329.19L345.37 329.9L345.11 330.63L344.59 331.99L344.27 332.68L343.96 333.33L343.62 334.01L343.25 334.67L342.47 335.97L342.02 336.6L341.55 337.23L341.03 337.86L340.5 338.46L339.98 339.09L339.19 339.95L338.41 340.74L337.57 341.53L336.68 342.21L335.76 342.83L334.82 343.44L333.83 343.96L332.78 344.48L331.73 344.93L330.63 345.3L329.51 345.64L327.1 346.16L325.79 346.34L324.48 346.47L323.17 346.47L320.34 346.47L318.88 346.37L317.38 346.26L315.81 346.05L314.24 345.79L312.62 345.53L310.89 345.19L309.19 344.8L307.41 344.38L303.74 343.33L301.83 342.76L299.87 342.1L297.85 341.42L295.81 340.63L293.72 339.85L291.57 339.01L289.37 338.12L287.12 337.15L282.4 335.06L280 333.93L277.56 332.75L276.7 332.36L275.81 331.92L274.84 331.39L273.79 330.87L272.69 330.29L271.57 329.64L270.39 328.98L269.18 328.3L267.93 327.57L264 325.21L262.69 324.38L261.3 323.59L258.58 321.89L257.19 321.05L255.8 320.19L254.49 319.3L253.13 318.46L250.51 316.78L249.21 315.92L247.97 315.13L246.77 314.35L245.59 313.56L244.49 312.78L243.45 312.04L242.4 311.34L241.46 310.71L240.57 310.05L239.78 309.45L238.99 308.93L238.34 308.4L237.76 307.96L237.29 307.51L236.87 307.17L236.61 306.86L236.4 306.6L236.3 306.41L236.3 306.41L236.32 306.31L236.38 306.15L236.51 306.02L236.51 305.92L236.66 305.76L236.93 305.58L237.45 305.16L237.61 305.05L237.79 304.92L237.95 304.82L238.13 304.71L238.31 304.58L238.52 304.45L238.73 304.35L238.92 304.21L239.33 303.95L239.6 303.82L239.86 303.72L240.07 303.56L241.12 303.04L241.38 302.88L241.64 302.75L241.9 302.64L242.48 302.38L243 302.12L249.86 299.24L273.76 313.25L276.17 314.61L278.53 315.92L280.83 317.23L283.11 318.46L285.31 319.61L287.48 320.74L291.67 322.83L293.72 323.8L295.65 324.69L297.59 325.55L299.48 326.34L301.31 327.07L303.09 327.78L304.82 328.41L306.47 328.98L308.12 329.51L309.69 329.98L311.21 330.4L312.67 330.76L314.09 331.08L315.45 331.34L316.76 331.55L318.01 331.73L319.22 331.81L320.34 331.81L321.47 331.81L322.52 331.73L323.51 331.63L324.43 331.47L325.32 331.21L326.16 330.95L326.94 330.61L327.65 330.21L328.3 329.77L328.91 329.3L329.43 328.72L329.9 328.12L330.32 327.44L330.9 326.29L331.31 324.98L331.58 323.59L331.73 322.02L331.79 320.37L331.71 318.54L331.5 316.65L331.18 314.61L330.71 312.51L330.19 310.26L329.51 307.91L328.72 305.47L327.81 302.93L326.81 300.31L325.68 297.59L324.45 294.79L323.14 291.91L321.7 288.92L320.13 285.86L318.48 282.77L316.76 279.55L314.92 276.3L312.99 272.98L310.97 269.58L306.68 262.64L304.4 259.1L302.04 255.52L299.61 251.85L297.07 248.18L291.75 240.75L289 237L286.12 233.18L283.24 229.39L280.23 225.51L277.19 221.66L274.05 217.79L270.86 213.91L267.64 209.98L256.72 197.15L251.35 216.9L249.41 223.89L247.43 230.83L245.38 237.69L243.29 244.41L241.19 251.09L238.99 257.64L236.79 264.08L234.52 270.44L232.21 276.67L229.91 282.82L227.55 288.85L225.2 294.74L222.79 300.5L220.33 306.1L217.89 311.6L215.4 316.97L212.89 322.15L210.38 327.2L207.81 332.13L205.3 336.89L202.73 341.45L200.17 345.9L197.6 350.17L195.03 354.25L192.42 358.18L189.88 361.9L187.31 365.43L184.77 368.78L182.2 371.92L179.66 374.88L177.15 377.63L174.66 380.17L172.15 382.47L169.69 384.57L167.25 386.48L164.85 388.16L162.44 389.6L160.08 390.8L157.78 391.77L155.47 392.5L154.95 392.63L153.85 392.84L153.27 392.9L152.15 393L150.37 393L149.76 392.95L149.14 392.9L148.53 392.82L147.93 392.71L146.7 392.45L146.1 392.29L145.47 392.14L144.87 391.93L144.27 391.74L143.04 391.27L141.2 390.49L140.05 389.91L139.45 389.6L137.75 388.55L137.22 388.18L135.65 387L134.16 385.7L133.69 385.25L132.8 384.26L132.33 383.73L131.8 383.08L131.33 382.4L130.89 381.66L130.36 380.88L129.92 380.04L129.45 379.18L128.98 378.23L128.09 376.24L127.19 374.1L126.78 372.97L125.94 370.61L125.1 368.15L124.73 366.84L124.34 365.53L123.61 362.86L122.93 360.09L122.59 358.67L121.98 355.79L121.41 352.86L121.15 351.4L120.68 348.46L120.47 346.97L120.1 344.04L119.97 342.57L119.71 339.61L119.5 336.73L119.47 335.32L119.42 334.27L119.37 333.12L119.37 320.08L119.44 316.78L119.47 315.11L119.52 313.43L119.55 311.73L119.71 306.7L119.84 303.43L119.92 301.86L119.97 300.29L120.05 298.77L120.1 297.3L120.2 295.89L120.36 293.27L120.44 292.04L120.52 290.91L120.6 289.87L120.68 288.9L120.78 288.01L120.86 287.22L120.94 286.54L121.04 285.97L121.12 285.49L121.2 285.15L121.28 284.94L121.36 284.84L121.41 284.87L121.46 284.84L121.54 284.89L121.62 284.89L121.7 284.94L121.78 284.97L122.04 285.1L122.12 285.18L122.53 285.44L122.67 285.52L122.98 285.73L123.16 285.83L123.35 285.97L124.13 286.49L124.39 286.65L124.58 286.78L124.84 286.93L125.1 287.12L125.31 287.25L125.83 287.62L126.1 287.77L126.88 288.3L127.67 288.87L128.19 289.24L128.71 289.66L135.26 294.5L134.63 309.95L134.55 311.62L134.53 313.35L134.53 315.05L134.47 318.46L134.47 321.86L134.55 326.92L134.66 330.27L134.74 331.92L134.79 333.54L134.89 335.11L135 336.73L135.31 341.45L135.57 344.43L135.73 345.9L135.86 347.34L136.2 350.11L136.57 352.78L136.78 354.04L136.96 355.27L137.17 356.48L137.38 357.6L137.64 358.75L137.9 359.8L138.11 360.85L138.37 361.82L138.64 362.76L138.9 363.65L139.42 365.22L139.95 366.66L140.52 368.02L141.05 369.33L141.62 370.51L142.22 371.61L142.85 372.6L143.48 373.55L144.11 374.38L144.79 375.17L145.47 375.85L146.2 376.43L146.91 376.95L147.64 377.34L148.43 377.68L149.21 377.89L150 378.05L150.79 378.1L151.65 378.1L152.51 377.97L153.4 377.76L154.35 377.45L155.26 377.08L156.26 376.61L157.25 376.03L158.3 375.41L159.35 374.62L160.45 373.78L161.55 372.87L162.7 371.82L163.85 370.72L165.03 369.51L166.26 368.21L167.52 366.82L168.83 365.35L170.13 363.78L171.44 362.13L172.83 360.38L174.27 358.54L175.71 356.63L177.2 354.62L178.77 352.34L180.42 349.98L182.05 347.49L183.7 344.96L185.32 342.28L186.97 339.54L188.65 336.66L190.29 333.7L191.97 330.69L193.62 327.54L195.27 324.32L196.95 321.02L200.22 314.22L201.87 310.68L203.52 307.1L205.17 303.43L206.82 299.71L208.44 295.89L210.06 292.04L211.63 288.11L213.2 284.13L214.78 280.1L216.35 276.02L219.49 267.64L221.06 263.4L222.55 259.1L224.07 254.81L225.56 250.44L227.03 246.06L228.47 241.61L229.88 237.16L231.27 232.71L232.63 228.18L233.99 223.63L235.3 219.07L236.61 214.49L239.13 205.27L244.89 183.88L231.53 170.4L224.72 163.59L223.68 162.59L223.21 162.07L222.68 161.6L222.16 161.08L221.69 160.63L221.22 160.11L220.27 159.19L219.85 158.74L218.13 157.12L217.76 156.75L217.39 156.36L216.66 155.68L216.35 155.34L216.03 155.03L215.72 154.77L214.93 153.98L214.67 153.77L209.07 148.66L160.76 162.86L156.89 164.06L153.06 165.21L149.32 166.42L145.65 167.57L142.04 168.75L138.48 169.9L134.97 171.08L131.51 172.25L128.11 173.43L121.51 175.74L118.29 176.94L115.15 178.09L112.01 179.27L108.92 180.48L105.91 181.65L102.92 182.86L99.96 184.09L94.2 186.5L91.38 187.73L88.6 188.96L85.85 190.19L80.46 192.7L75.22 195.32L70.09 197.94L65.06 200.61L62.58 201.97L60.14 203.28L57.71 204.7L52.55 207.26L50.19 208.7L47.84 210.17L45.58 211.55L43.44 212.94L41.34 214.33L39.35 215.69L37.47 217L35.63 218.31L33.85 219.62L32.2 220.93L30.63 222.19L29.11 223.49L27.7 224.75L26.39 225.96L25.14 227.19L23.96 228.36L22.91 229.54L21.86 230.69L20.95 231.82L20.11 232.95L19.32 234.05L18.64 235.09L18.07 236.14L17.54 237.19L17.12 238.23L16.78 239.23L16.52 240.17L16.34 241.12L16.23 242.03L16.23 242.95L16.31 243.81L16.5 244.68L16.76 245.46L17.1 246.25L17.54 247.03L18.07 247.82L18.67 248.55L19.35 249.23L20.13 249.89L21 250.54L21.94 251.17L22.99 251.75L23.77 252.16L24.61 252.56L25.53 252.95L26.47 253.34L27.44 253.68L28.49 254.05L29.59 254.39L30.69 254.7L31.86 255.04L33.09 255.36L34.35 255.62L36.97 256.14L38.33 256.41L39.75 256.67L41.21 256.93L42.7 257.14L44.22 257.35L45.79 257.56L47.36 257.74L50.64 258.08L52.31 258.21L55.77 258.47L57.52 258.58L59.3 258.66L61.14 258.76L62.97 258.81L64.85 258.87L68.62 258.92L74.44 258.92L76.4 258.87L78.39 258.84L80.38 258.79L82.4 258.71L84.44 258.6L84.81 258.58L85.2 258.55L85.56 258.55L85.96 258.53L86.69 258.47L87.42 258.45L87.82 258.45L89.28 258.45L89.62 258.45L89.99 258.42L91.35 258.4L91.67 258.37L92.35 258.37L92.61 258.34L93.24 258.34L93.5 258.32L93.76 258.32L94.28 258.29L94.55 258.26L94.81 258.29L95.02 258.29L95.23 258.26L96.54 258.26L96.8 258.34L97.06 258.45L97.32 258.6L97.58 258.79L97.9 259L98.21 259.26L98.58 259.52L98.97 259.78L99.34 260.1L99.73 260.46L100.15 260.86L101.8 262.51L102.22 262.95L103.47 264.37L103.89 264.89L104.68 265.86L105.04 266.33L105.78 267.25L106.09 267.72L106.41 268.16L106.98 269L107.24 269.42L107.51 269.78L107.85 270.47L107.98 270.78L108.08 271.04L108.16 271.3L108.19 271.57L108.19 271.75L108.13 271.91L108.06 271.98L107.4 272.17L107.19 272.17L106.67 272.22L105.88 272.38L105.54 272.38L104.81 272.46L104.44 272.51L104.02 272.53L103.6 272.59L103.16 272.59L102.24 272.67L101.27 272.77L100.75 272.8L100.23 272.87L98.6 272.98L98.03 273.03L96.85 273.14L96.25 273.14L95.64 273.19L93.76 273.29L93.11 273.29L92.5 273.32L91.85 273.37L89.15 273.5L86.53 273.66L83.92 273.74L81.35 273.84L78.81 273.92L73.83 273.97L69.04 273.97L66.69 273.92L64.33 273.92L62.05 273.82L59.77 273.74L55.4 273.48L53.26 273.29L51.16 273.14L49.07 272.93L45.03 272.46L41.16 271.93L39.33 271.67L35.66 270.99L33.91 270.62L32.18 270.23L30.53 269.84L28.88 269.39L25.74 268.5L24.22 267.98L22.78 267.45L21.36 266.93L19.98 266.41L18.62 265.83L17.31 265.23L16.05 264.65L14.85 264.02L13.67 263.34L12.62 262.74L11.57 262.09L10.58 261.43L9.66 260.78L8.77 260.12L7.91 259.42L6.34 258.06L5.6 257.35L4.95 256.64L4.32 255.91L3.72 255.18L2.67 253.6L2.2 252.82L1.78 252.03L1.41 251.25L1.07 250.46L0.81 249.68L0.37 248.03L0.24 247.19L0.1 246.33L0.03 245.44L0 244.57L0.03 243.65L0.08 242.74L0.18 241.85L0.31 240.91L0.5 239.96L0.71 238.99L0.97 238.03L1.28 237.06L1.62 236.06L2.02 235.01L2.46 233.97L2.93 232.92L3.98 230.83L4.56 229.78L6.49 226.71L7.54 225.22L8.69 223.65L9.92 222.13L11.23 220.56L12.62 218.99L15.6 215.9L17.23 214.33L18.9 212.76L20.68 211.19L22.52 209.62L24.43 208.05L26.42 206.48L30.61 203.33L32.81 201.76L35.16 200.19L39.95 197.05L42.47 195.48L45.09 193.91L47.76 192.34L50.48 190.77L53.31 189.2L56.19 187.62L59.15 186.05L62.16 184.48L65.3 182.91L68.49 181.34L71.71 179.77L75.04 178.2L78.44 176.63L81.9 175.06L85.43 173.49L89.05 171.91L92.71 170.34L96.46 168.77L100.28 167.2L101.98 166.49L103.81 165.76L105.83 164.98L110.2 163.35L112.56 162.46L117.53 160.63L120.15 159.71L122.85 158.74L125.65 157.78L128.45 156.78L131.33 155.81L134.21 154.82L137.14 153.82L140.13 152.83L143.09 151.83L149 149.87L163.27 145.26L166 144.42L168.62 143.64L171.13 142.85L175.92 141.41L178.15 140.76L180.24 140.16L182.2 139.63L184.04 139.11L185.69 138.66L187.21 138.3L188.51 137.96L189.67 137.69L190.64 137.48L191.42 137.35L192 137.33L196.05 137.25L191.94 133.27L191.26 132.64L190.48 131.91L189.64 131.17L188.7 130.39L187.7 129.5L186.66 128.58L185.48 127.59L184.27 126.54L182.96 125.49L181.65 124.39L180.24 123.27L178.83 122.09L177.31 120.88L174.17 118.42L172.6 117.17L169.24 114.55L167.54 113.24L164.09 110.57L160.58 107.9L158.74 106.59L156.99 105.28L155.21 103.97L151.7 101.35L149.97 100.04L148.25 98.79L146.54 97.56L144.87 96.35L143.22 95.15L141.65 94.02L140.08 92.92L138.56 91.82L137.09 90.77L135.63 89.78L134.26 88.84L132.9 87.95L128.87 85.33L126.83 84.02L124.84 82.76L120.81 80.35L118.79 79.18L116.8 78.05L112.82 75.85L110.86 74.8L108.92 73.76L106.98 72.76L105.1 71.82L101.33 70.04L99.49 69.2L95.88 67.63L94.13 66.92L92.4 66.22L90.7 65.56L89.02 64.96L87.45 64.38L84.31 63.34L82.79 62.89L81.35 62.5L79.94 62.13L78.55 61.82L77.24 61.56L75.98 61.35L74.72 61.16L73.57 61.03L72.45 60.95L70.4 60.95L69.46 61.03L68.57 61.14L67.79 61.32L66.87 61.58L66.01 61.95L65.22 62.47L64.51 63.05L63.91 63.7L63.39 64.44L62.92 65.27L62.52 66.19L62.18 67.18L61.92 68.28L61.76 69.44L61.66 70.69L61.63 72L61.69 73.39L61.82 74.86L61.97 76.43L62.24 78.05L62.55 79.7L62.94 81.45L63.41 83.29L63.94 85.2L64.51 87.11L65.95 91.22L66.74 93.31L67.6 95.49L68.55 97.74L69.59 100.04L70.64 102.4L71.77 104.76L73 107.22L74.25 109.68L75.56 112.22L76.95 114.78L78.42 117.4L79.94 120.07L81.51 122.77L83.18 125.49L84.88 128.27L86.64 131.07L93.97 142.67L90.7 150.16L90.57 150.47L90.3 151.05L90.17 151.39L89.91 151.99L89.75 152.25L89.62 152.57L89.49 152.83L89.36 153.14L89.26 153.4L88.99 153.93L88.89 154.19L88.63 154.71L88.55 154.97L88.42 155.24L88.16 155.86L88.03 156.07L87.95 156.26L87.61 156.94L87.34 157.36L87.29 157.46L87.21 157.57L87.08 157.83L86.9 158.01L86.77 158.01L86.35 157.59L86.04 157.25L85.7 156.78L85.28 156.26L84.81 155.63L84.28 154.9L83.71 154.11L83.1 153.25L81.79 151.28L81.09 150.24L80.35 149.11L79.57 147.93L78.73 146.65L77.08 144.03L75.35 141.33L72.74 137.14L71.84 135.68L70.98 134.24L70.09 132.82L68.39 129.94L67.52 128.53L66.74 127.14L65.9 125.75L64.38 123.14L63.65 121.83L62.94 120.6L62.29 119.39L61.63 118.27L61.06 117.22L60.01 115.23L59.33 113.97L58.68 112.66L58.05 111.35L56.79 108.68L56.21 107.32L55.04 104.57L53.46 100.38L52.94 98.97L52.47 97.58L51.95 96.19L51.06 93.42L50.64 92.01L49.85 89.28L49.12 86.59L48.49 83.97L48.23 82.66L47.7 80.14L47.5 78.91L47.13 76.56L46.97 75.43L46.87 74.33L46.76 73.28L46.71 72.24L46.71 71.24L46.68 70.3L46.71 69.36L46.71 68.49L46.87 66.87L47 66.16L47.26 64.85L47.44 64.23L47.65 63.6L47.86 62.94L48.07 62.34L48.59 61.08L49.12 59.88L49.75 58.68L50.06 58.15L50.77 57L51.13 56.48L52.29 54.9L52.71 54.38L53.54 53.41L53.99 52.97L54.43 52.5L54.88 52.08L55.35 51.63L56.32 50.85L56.79 50.48L57.31 50.11L57.78 49.77L58.78 49.14L60.35 48.36L61.4 47.94L62.45 47.6L64.36 47.21L66.37 46.95L68.47 46.76L70.72 46.74L73.08 46.81L75.54 47.08L78.05 47.42L80.67 47.94L83.39 48.52L86.19 49.22L89.13 50.09L92.11 51.03L95.17 52.13L98.32 53.28L101.56 54.59L104.86 56L108.26 57.58L111.67 59.22L115.18 60.95L118.76 62.79L122.38 64.72L126.04 66.77L129.79 68.94L133.58 71.19L137.41 73.55L141.28 76.01L145.21 78.57L149.14 81.19L153.14 83.94L157.17 86.77L161.23 89.7L165.32 92.71L169.45 95.78L173.59 98.97L177.78 102.24L181.97 105.59L186.16 109L190.35 112.51L194.54 116.09L198.73 119.76L212.92 132.38L232.42 128.32L235.35 127.8L238.16 127.27L239.52 127.01L241.48 126.62L242.11 126.54L243.31 126.28L243.89 126.17L245.02 125.99L246.06 125.81L246.59 125.73L247.06 125.65L247.97 125.52L248.39 125.47L248.79 125.39L249.18 125.34L249.89 125.23L250.2 125.2L250.46 125.2L251.93 125.2L252.14 125.15L252.4 125.05L252.61 124.94L252.87 124.79L253.29 124.37L253.47 124.11L253.68 123.84L253.87 123.5L254.05 123.11L254.21 122.69L254.42 122.22L254.6 121.7L254.76 121.12L254.91 120.52L255.07 119.86L255.23 119.16L255.41 118.42L255.54 117.64L255.7 116.8L255.83 115.91L255.99 114.97L256.12 113.92L256.27 112.87L256.41 111.75L256.54 110.6L256.69 109.36L256.82 108.06L256.93 106.75L257.06 105.36L257.19 103.89L257.32 102.37L257.45 100.8L257.58 99.15L257.69 97.45L257.82 95.67L257.95 93.84L258.08 91.93L258.19 89.96L258.34 87.08L258.47 84.2L258.58 81.43L258.74 75.93L258.74 68.07L258.68 65.53L258.63 63.02L258.42 58.18L258.29 55.82L258.11 53.52L257.92 51.27L257.71 49.07L257.45 46.92L257.19 44.82L256.93 42.81L256.67 40.84L256.33 38.96L256.01 37.13L255.65 35.37L255.25 33.67L254.86 32.05L254.44 30.48L254 28.98L253.55 27.57L253.03 26.21L252.5 24.95L251.98 23.72L251.46 22.62L250.88 21.57L250.31 20.61L249.7 19.72L249.1 18.93L248.47 18.22L247.82 17.59L247.16 17.07L246.46 16.63L245.78 16.29L244.99 16.02L244.2 15.74L243.42 15.6L242.63 15.55L241.85 15.58L241.06 15.74L240.2 15.87L239.31 16.13L238.42 16.44L237.5 16.81L235.62 17.86L234.65 18.48L233.65 19.17L232.66 19.95L231.61 20.79L230.56 21.71L229.52 22.7L228.47 23.75L227.42 24.9L226.27 26.1L225.14 27.36L223.99 28.67L222.81 30.11L221.61 31.58L220.43 33.15L219.2 34.77L217.94 36.45L216.71 38.28L215.4 40.11L214.09 42L212.79 44.01L211.48 46.06L210.17 48.15L208.86 50.35L207.47 52.6L204.7 57.31L203.28 59.8L190.92 81.4L182.81 82.45L182.54 82.48L182.23 82.5L181.97 82.5L181.65 82.5L181.39 82.5L181.13 82.5L180.87 82.5L178.77 82.5L178.56 82.5L178.38 82.5L178.12 82.48L177.94 82.48L177.75 82.45L177.23 82.34L176.97 82.34L176.71 82.24L176.6 82.24L176.34 82.08L176.26 82.03L176.23 81.95L176.18 81.9L176.16 81.79L176.16 81.72L176.21 81.4L176.29 81.01L176.44 80.49L176.63 79.91L176.89 79.28L177.15 78.55L177.47 77.76L177.86 76.92L178.22 75.96L178.67 74.99L179.14 73.94L179.66 72.89L180.19 71.77L180.71 70.61L181.29 69.44L181.92 68.21L183.15 65.64L184.46 63.02L185.14 61.71L185.82 60.35L187.91 56.37L188.65 55.06L189.35 53.75L190.03 52.44L190.77 51.13L192.13 48.67L192.81 47.5L193.46 46.34L194.12 45.24L194.77 44.2L195.37 43.15L195.95 42.21L196.53 41.32L197.05 40.45L197.57 39.67L198.73 37.96L201.03 34.64L202.16 33.07L204.41 29.98L206.58 27.1L207.68 25.69L210.87 21.68L211.92 20.42L212.97 19.22L214.02 18.04L215.06 16.91L217.11 14.77L218.15 13.72L220.14 11.78L221.14 10.89L223.08 9.16L225.01 7.59L225.98 6.86L226.92 6.15L227.97 5.26L229.8 4.08L230.75 3.56L231.66 3.04L232.58 2.57L233.47 2.15L234.41 1.75L235.28 1.36L236.17 1.05L237.06 0.79L237.92 0.52L239.02 0.26L239.6 0.16L240.12 0.1L240.7 0.05L241.85 0L242.45 0L243.05 0.03L243.63 0.08L244.89 0.26ZM241.69 142.01L238.42 142.8L235.28 143.72L232.66 144.61L230.67 145.39L229.49 146.07L229.28 146.6L232.27 149.92L236.72 154.5L241.48 159.16L245.36 162.75L247.19 164.16L247.61 163.48L248.18 161.83L248.87 159.35L249.65 156.21L250.38 152.62L251.12 148.51L251.51 145.29L251.51 143.01L251.17 141.54L250.46 140.91L249.31 140.81L247.35 140.97L244.73 141.36L241.69 142.01ZM105.86 145.55C107.9 141.75 109.03 139.64 109.26 139.21C113.66 130.91 124.45 118.71 133.45 111.88C133.92 111.49 136.28 109.63 140.57 106.25C141.18 106.68 146.04 110.11 146.65 110.54C149.97 112.9 152.8 115.18 152.93 115.78C153.06 116.25 150.76 118.4 147.85 120.23C144.82 122.22 139.26 126.78 135.47 130.34C130.65 135.05 125.36 138.14 117.22 141.18C117.22 141.17 113.43 142.63 105.86 145.55ZM110.75 249.13C103.87 238.6 95.57 215.22 95.04 205.01C94.73 198.86 95.23 198.2 101.4 195.32C105.07 193.67 108.26 192.44 108.63 192.55C108.89 192.81 109.94 198.78 110.73 206.06C113.61 229.52 128.32 252.87 148.85 266.15C160.16 273.63 176.6 279.24 188.59 279.92C193.25 280.18 197.23 280.96 197.31 281.49C197.49 282.14 196.19 285.52 194.43 289.21C194.23 289.67 193.2 291.94 191.34 296.02L182.36 294.71C145.46 280.73 121.59 265.53 110.75 249.13ZM233.65 99.05C242.61 102.71 243.29 103.24 242.66 107.3C242.19 110.7 227.03 112.19 217.89 109.7C211.35 107.92 201.06 101.17 193.67 93.84C188.57 88.73 218.02 92.5 233.65 99.05ZM268.24 239.99C271.02 234.49 272.17 234.49 275.47 239.05C276.93 241.35 279 244.02 280.02 245.46C281.33 247.14 280.05 249.83 275.75 255.41C265.36 269.03 241.61 287.3 243.6 280.13C247.22 268.34 251.98 259.05 258.58 252.06C262.66 247.69 267.11 242.08 268.24 239.99ZM279.32 170.16C274.92 153.74 281.67 138.53 287.8 150.6C291.25 157.15 296.39 177.65 297.15 187.44C297.59 192.23 297.36 196.34 296.88 196.5C296.26 196.66 292.69 192.7 288.69 188.02C283.58 181.73 281.07 176.81 279.32 170.16Z" id="cUvZ6H5jy"></path></defs><g><g><g><use xlink:href="#cUvZ6H5jy" opacity="1" fill="#000000" fill-opacity="1"></use><g><use xlink:href="#cUvZ6H5jy" opacity="1" fill-opacity="0" stroke="#000000" stroke-width="1" stroke-opacity="0"></use></g></g></g></g></svg>