<svg xmlns="http://www.w3.org/2000/svg" width="2064" height="304" fill="none"><defs><filter id="a"><feGaussianBlur in="SourceGraphic"/></filter></defs><title>Layer 1</title><g fill="#7b61ff" filter="url(#a)"><path fill-rule="evenodd" d="M2 2h299.832v300H2zm269.168 30.682v238.636H32.665V32.682z" clip-rule="evenodd"/><path d="M550.069 178.409h-32.295c-4.692 29.275-24.29 46.122-51.34 46.122-35.883 0-59.346-27.894-59.346-72.359 0-43.912 22.634-72.359 57.414-72.359 28.154 0 46.648 16.571 51.892 46.398h32.295c-6.348-43.636-41.403-72.083-85.292-72.083-52.72 0-89.156 43.637-89.156 98.044 0 56.065 37.264 98.044 89.985 98.044 43.888 0 79.219-28.17 85.843-71.807"/><path fill-rule="evenodd" d="M698.258 178.409c0-37.284-25.67-71.807-67.626-71.807s-67.626 34.523-67.626 71.807 25.67 71.807 67.626 71.807 67.626-34.523 67.626-71.807m-103.509 0c0-29.551 12.973-49.436 35.883-49.436 23.186 0 36.159 19.885 36.159 49.436 0 29.275-12.973 49.436-36.159 49.436-22.91 0-35.883-20.161-35.883-49.436m220.919 40.046h-.828c-6.624 19.057-22.634 31.761-43.612 31.761-37.539 0-57.965-33.142-57.965-71.807s21.254-71.807 57.965-71.807c20.978 0 36.988 12.429 43.612 31.485h.828V56.89h29.535v190.564h-29.535zm-34.779-89.482c-22.91 0-35.883 19.885-35.883 49.436 0 29.275 12.973 49.436 35.883 49.436 23.186 0 35.883-20.161 35.883-49.436 0-29.551-12.697-49.436-35.883-49.436m212.801 75.673h-30.08c-3.32 11.047-11.04 23.199-28.99 23.199-20.97 0-35.6-14.637-36.98-39.77h98.54c4.14-48.055-22.91-81.473-64.04-81.473s-64.59 33.694-64.59 71.807 24.01 71.807 65.14 71.807c33.68 0 55.21-18.228 61-45.57m-61.55-75.673c20.15 0 32.02 14.361 33.95 36.732h-68.18c1.94-22.371 14.08-36.732 34.23-36.732" clip-rule="evenodd"/><path d="M1112.65 137.811c35.88 8.285 53.82 27.065 53.82 57.169 0 31.761-30.91 55.236-75.08 55.236-50.51 0-77.84-35.351-80.87-69.874h32.29c1.93 24.857 22.08 44.189 48.86 44.189 24.29 0 42.23-10.495 42.23-28.17 0-15.466-11.59-23.752-36.16-29.551l-27.6-6.353c-37.27-8.837-55.76-26.237-55.76-52.75 0-32.037 31.47-53.579 69.83-53.579 48.59 0 73.43 26.514 76.74 59.379h-32.29c-2.49-22.647-21.54-33.694-43.89-33.694-21.81 0-37.54 9.39-37.54 25.685 0 12.98 9.66 19.056 37.81 25.684z"/><path fill-rule="evenodd" d="M1282.57 218.455h.83v28.999h29.54v-138.09h-29.54v28.723h-.83c-6.62-19.056-22.63-31.485-43.61-31.485-36.71 0-57.96 33.142-57.96 71.807s20.42 71.807 57.96 71.807c20.98 0 36.99-12.704 43.61-31.761m-69.83-40.046c0-29.551 13.25-49.436 35.61-49.436 22.35 0 36.16 19.885 36.16 49.436 0 29.275-13.81 49.436-36.16 49.436-22.09 0-35.61-20.161-35.61-49.436" clip-rule="evenodd"/><path d="M1373.1 164.6v82.854h-30.09v-138.09h29.26v27.066h.55c5.8-19.333 20.15-29.828 40.3-29.828 30.37 0 45.27 20.714 45.27 51.094v89.758h-30.09v-80.921c0-25.684-9.1-37.284-27.6-37.284-18.49 0-27.6 12.704-27.6 35.351"/><path fill-rule="evenodd" d="M1581.46 218.455h.83v28.999h29.53V56.89h-29.53v81.197h-.83c-6.63-19.056-22.64-31.485-43.61-31.485-36.72 0-57.97 33.142-57.97 71.807s20.43 71.807 57.97 71.807c20.97 0 36.98-12.704 43.61-31.761m-69.84-40.046c0-29.551 12.98-49.436 35.89-49.436 23.18 0 35.88 19.885 35.88 49.436 0 29.275-12.7 49.436-35.88 49.436-22.91 0-35.89-20.161-35.89-49.436m204.25-71.807c36.71 0 57.97 33.142 57.97 71.807s-20.43 71.807-57.97 71.807c-20.98 0-36.99-12.704-43.61-31.761h-.83v28.999h-29.53V56.89h29.53v81.197h.83c6.62-19.056 22.63-31.485 43.61-31.485m-9.66 22.371c-23.19 0-35.88 19.885-35.88 49.436 0 29.275 12.69 49.436 35.88 49.436 22.91 0 35.88-20.161 35.88-49.436 0-29.551-12.97-49.436-35.88-49.436m218.04 49.436c0-37.284-25.67-71.807-67.62-71.807-41.96 0-67.63 34.523-67.63 71.807s25.67 71.807 67.63 71.807c41.95 0 67.62-34.523 67.62-71.807m-103.51 0c0-29.551 12.98-49.436 35.89-49.436 23.18 0 36.16 19.885 36.16 49.436 0 29.275-12.98 49.436-36.16 49.436-22.91 0-35.89-20.161-35.89-49.436" clip-rule="evenodd"/><path d="m1991.61 193.875-36.71 53.579h-33.95l53-74.292-46.1-63.798h33.95l29.81 43.084 29.81-43.084h33.68l-45.82 63.522 52.72 74.568h-33.68z"/></g></svg>