<svg width="3750" height="1969" xmlns="http://www.w3.org/2000/svg" xmlns:xlink="http://www.w3.org/1999/xlink">
 <defs>
  <filter id="dark-theme-blur-filter">
   <feGaussianBlur stdDeviation="3.5" in="SourceGraphic"/>
  </filter>
  <path d="m93,0.03l0.46,0.06l0.47,0.08l0.24,0.05l0.23,0.05l0.23,0.07l0.24,0.07l0.47,0.16l0.23,0.1l0.24,0.1l0.45,0.2l0.23,0.1l0.44,0.24l0.44,0.26l0.63,0.43l0.6,0.48l0.38,0.34l0.36,0.36l0.17,0.2l0.1,0.12l0.1,0.13l0.1,0.12l0.1,0.14l0.1,0.12l0.2,0.26l0.1,0.14l0.1,0.13l0.17,0.27l0.18,0.3l0.16,0.3l0.16,0.32l0.08,0.17l0.15,0.36l0.07,0.2l0.1,0.2l0.07,0.2l0.08,0.2l0.07,0.23l0.08,0.23l0.07,0.23l0.16,0.5l0.08,0.26l0.08,0.28l0.1,0.3l0.63,2.35l0.1,0.4l0.14,0.54l0.13,0.55l0.24,1.13l0.1,0.58l0.12,0.57l0.1,0.6l0.18,1.2l0.1,0.6l0.08,0.63l0.07,0.62l0.07,0.64l0.06,0.64l0.06,0.65l0.05,0.65l0.04,0.67l0.05,0.67l0.1,2.06l0.04,2.87l-0.03,2.23l-0.06,1.53l-0.02,0.78l-0.05,0.78l-0.04,0.8l-0.1,1.6l-0.07,0.82l-0.06,0.82l-0.26,2.8l-0.02,0.26l-0.03,0.26l-0.02,0.27l-0.04,0.52l-0.04,0.5l-0.02,0.24l-0.03,0.48l-0.02,0.22l-0.01,0.23l0,0.23l-0.02,0.2l-0.01,0.22l0,0.4l-0.03,0.37l0,0.17l-0.01,0.18l-0.02,0.32l0,0.3l0,0.13l0,0.25l-0.01,0.2l0.01,0.1l0,0.08l0,0.08l0,0.06l0,0.05l0,0.05l0.01,0.03l0.01,0.02l0.01,0l0.02,0l0.03,0.01l0.67,0l0.13,-0.01l0.14,0l0.15,0l0.16,0l0.34,-0.02l0.37,-0.02l0.2,-0.01l0.42,0l0.46,-0.04l0.24,0l0.23,-0.02l0.25,-0.02l0.26,-0.02l0.27,-0.02l0.27,0l0.26,-0.02l0.28,-0.02l0.3,-0.03l0.3,-0.02l0.28,0l0.6,-0.04l0.3,-0.03l0.62,-0.05l0.3,-0.03l1.4,-0.1l1.37,-0.1l1.36,-0.08l2.64,-0.1l1.3,-0.03l1.26,-0.02l1.25,0l1.22,0l1.2,0.02l1.17,0.03l2.27,0.1l1.1,0.08l1.07,0.08l1.05,0.1l1.03,0.1l1,0.12l0.97,0.13l0.94,0.15l0.93,0.16l0.88,0.17l0.87,0.2l0.83,0.2l0.8,0.2l0.78,0.22l0.75,0.24l0.72,0.24l0.7,0.26l0.67,0.27l0.63,0.28l0.6,0.3l0.58,0.3l0.54,0.32l0.5,0.33l0.5,0.35l0.45,0.35l0.42,0.36l0.38,0.38l0.36,0.4l0.14,0.17l0.27,0.33l0.12,0.16l0.12,0.17l0.1,0.17l0.1,0.16l0.2,0.3l0.1,0.17l0.25,0.47l0.08,0.16l0.07,0.15l0.06,0.17l0.16,0.47l0.1,0.33l0.06,0.33l0.03,0.16l0.02,0.18l0.02,0.16l0,0.17l0.02,0.36l0,0.18l-0.02,0.36l-0.01,0.2l-0.02,0.2l-0.01,0.2l-0.06,0.4l-0.04,0.2l-0.04,0.22l-0.03,0.2l-0.08,0.35l-0.1,0.35l-0.12,0.36l-0.13,0.36l-0.15,0.37l-0.17,0.38l-0.18,0.37l-0.2,0.4l-0.22,0.38l-0.24,0.4l-0.25,0.4l-0.26,0.4l-0.6,0.8l-0.64,0.82l-0.36,0.4l-0.35,0.42l-1.18,1.24l-0.42,0.43l-0.88,0.84l-0.46,0.43l-0.96,0.84l-0.5,0.43l-1.03,0.84l-0.53,0.43l-0.55,0.4l-1.7,1.25l-0.6,0.4l-1.22,0.8l-0.62,0.4l-0.63,0.4l-0.38,0.24l-0.4,0.24l-0.42,0.25l-0.42,0.26l-0.45,0.26l-0.46,0.26l-0.96,0.54l-0.5,0.3l-0.5,0.27l-0.5,0.28l-0.5,0.3l-1.03,0.56l-0.52,0.27l-0.5,0.28l-0.52,0.27l-1,0.53l-0.5,0.26l-0.5,0.25l-0.48,0.25l-0.92,0.46l-0.86,0.42l-0.42,0.2l-0.38,0.2l-0.37,0.17l-0.35,0.17l-0.32,0.15l-0.3,0.13l-0.27,0.1l-0.26,0.1l-0.2,0.1l-0.2,0.06l-0.17,0.06l-0.12,0.03l-0.1,0.02l-0.05,-0.02l-0.04,-0.04l-0.04,-0.06l-0.03,-0.08l-0.03,-0.1l-0.02,-0.1l-0.01,-0.13l-0.02,-0.14l0,-0.15l0.01,-0.17l0,-0.2l0.01,-0.18l0.02,-0.2l0.01,-0.2l0.05,-0.44l0.03,-0.22l0.1,-0.7l0.04,-0.24l0.1,-0.47l0.05,-0.24l0.1,-0.45l0.06,-0.22l0.05,-0.22l0.07,-0.2l0.05,-0.2l0.07,-0.2l0.07,-0.18l0.12,-0.32l0.06,-0.15l0.07,-0.13l0.07,-0.12l0.06,-0.1l0.07,-0.1l0.06,-0.06l0.06,-0.05l0.1,-0.04l0.1,-0.05l0.05,-0.04l0.07,-0.04l0.06,-0.03l0.07,-0.03l0.08,-0.04l0.16,-0.1l0.18,-0.08l0.1,-0.06l0.1,-0.04l0.2,-0.12l0.32,-0.16l0.22,-0.12l0.23,-0.13l0.24,-0.12l0.37,-0.2l0.12,-0.07l0.25,-0.13l0.13,-0.07l0.25,-0.13l0.14,-0.06l0.12,-0.07l0.13,-0.06l0.13,-0.07l0.13,-0.06l1.37,-0.7l0.67,-0.36l0.67,-0.38l0.66,-0.36l0.65,-0.36l0.64,-0.37l1.26,-0.75l0.6,-0.36l1.2,-0.75l0.58,-0.38l0.57,-0.36l0.57,-0.38l0.55,-0.37l0.54,-0.38l0.53,-0.36l0.52,-0.37l1,-0.74l0.47,-0.35l0.46,-0.37l0.45,-0.36l0.44,-0.36l0.84,-0.7l0.4,-0.35l0.74,-0.68l0.67,-0.67l0.6,-0.65l0.28,-0.32l0.27,-0.3l0.24,-0.3l0.23,-0.3l0.2,-0.3l0.36,-0.58l0.14,-0.28l0.14,-0.3l0.12,-0.27l0.1,-0.27l0.08,-0.27l0.06,-0.26l0.04,-0.26l0.02,-0.26l0,-0.5l-0.03,-0.25l-0.05,-0.24l-0.07,-0.22l-0.08,-0.23l-0.1,-0.23l-0.12,-0.22l-0.14,-0.2l-0.32,-0.42l-0.4,-0.4l-0.48,-0.38l-0.26,-0.18l-0.28,-0.18l-0.6,-0.34l-0.68,-0.33l-0.37,-0.15l-0.4,-0.15l-0.4,-0.14l-0.42,-0.14l-0.43,-0.14l-0.46,-0.14l-0.47,-0.13l-0.5,-0.12l-0.5,-0.1l-0.52,-0.1l-0.47,-0.1l-0.5,-0.1l-0.53,-0.08l-0.58,-0.06l-0.6,-0.08l-0.63,-0.06l-0.65,-0.06l-0.67,-0.05l-0.7,-0.05l-0.72,-0.05l-0.74,-0.04l-1.52,-0.06l-0.8,-0.03l-0.8,-0.02l-0.8,0l-1.67,-0.02l-0.83,0.01l-0.85,0l-2.57,0.03l-0.85,0.03l-0.86,0.03l-0.86,0.02l-0.84,0.05l-0.85,0.03l-0.84,0.06l-0.82,0.05l-0.83,0.06l-0.8,0.05l-1.57,0.14l-0.76,0.07l-0.75,0.08l-0.72,0.08l-1.4,0.2l-0.65,0.1l-3.42,0.52l-1.4,7.83l-1.46,7.83l6.8,7.94l1.04,1.25l1.03,1.23l1,1.2l0.98,1.2l0.95,1.2l0.93,1.18l0.9,1.16l0.88,1.15l0.87,1.13l0.84,1.13l0.82,1.1l0.8,1.1l0.78,1.1l0.75,1.07l0.73,1.07l1.4,2.1l0.67,1.03l0.65,1.02l0.62,1l0.6,1l0.58,0.98l0.56,0.98l0.54,0.95l0.52,0.96l0.5,0.95l0.48,0.93l0.45,0.92l0.43,0.9l0.42,0.9l0.4,0.9l0.37,0.88l0.36,0.9l0.33,0.86l0.32,0.86l0.3,0.86l0.28,0.84l0.25,0.83l0.23,0.83l0.15,0.52l0.12,0.5l0.14,0.5l0.1,0.48l0.1,0.46l0.1,0.45l0.1,0.44l0.08,0.44l0.08,0.4l0.06,0.4l0.07,0.4l0.04,0.4l0.04,0.37l0.03,0.37l0.02,0.36l0.02,0.34l0,0.67l-0.03,0.64l-0.03,0.3l-0.04,0.3l-0.05,0.3l-0.12,0.58l-0.08,0.27l-0.1,0.28l-0.2,0.52l-0.12,0.26l-0.12,0.25l-0.13,0.26l-0.14,0.25l-0.3,0.5l-0.17,0.24l-0.18,0.24l-0.2,0.24l-0.2,0.23l-0.2,0.24l-0.3,0.33l-0.3,0.3l-0.32,0.3l-0.34,0.26l-0.35,0.24l-0.36,0.23l-0.38,0.2l-0.4,0.2l-0.4,0.17l-0.42,0.14l-0.43,0.13l-0.92,0.2l-0.5,0.07l-0.5,0.05l-0.5,0l-1.08,0l-0.56,-0.04l-0.57,-0.04l-0.6,-0.08l-0.6,-0.1l-0.62,-0.1l-0.66,-0.13l-0.65,-0.15l-0.68,-0.16l-1.4,-0.4l-0.73,-0.22l-0.75,-0.25l-0.77,-0.26l-0.78,-0.3l-0.8,-0.3l-0.82,-0.32l-0.84,-0.34l-0.86,-0.37l-1.8,-0.8l-0.92,-0.43l-0.93,-0.45l-0.33,-0.15l-0.34,-0.17l-0.37,-0.2l-0.4,-0.2l-0.42,-0.22l-0.43,-0.25l-0.45,-0.25l-0.46,-0.26l-0.48,-0.28l-1.5,-0.9l-0.5,-0.32l-0.53,-0.3l-1.04,-0.65l-0.53,-0.32l-0.53,-0.33l-0.5,-0.34l-0.52,-0.32l-1,-0.64l-0.5,-0.33l-0.47,-0.3l-0.46,-0.3l-0.45,-0.3l-0.42,-0.3l-0.4,-0.28l-0.4,-0.27l-0.36,-0.24l-0.34,-0.25l-0.3,-0.23l-0.3,-0.2l-0.25,-0.2l-0.22,-0.17l-0.18,-0.17l-0.16,-0.13l-0.1,-0.12l-0.08,-0.1l-0.04,-0.07l0,0l0.01,-0.04l0.02,-0.06l0.05,-0.05l0,-0.04l0.06,-0.06l0.1,-0.07l0.2,-0.16l0.06,-0.04l0.07,-0.05l0.06,-0.04l0.07,-0.04l0.07,-0.05l0.08,-0.05l0.08,-0.04l0.07,-0.05l0.16,-0.1l0.1,-0.05l0.1,-0.04l0.08,-0.06l0.4,-0.2l0.1,-0.06l0.1,-0.05l0.1,-0.04l0.22,-0.1l0.2,-0.1l2.62,-1.1l9.13,5.35l0.92,0.52l0.9,0.5l0.88,0.5l0.87,0.47l0.84,0.44l0.83,0.43l1.6,0.8l0.78,0.37l0.74,0.34l0.74,0.33l0.72,0.3l0.7,0.28l0.68,0.27l0.66,0.24l0.63,0.22l0.63,0.2l0.6,0.18l0.58,0.16l0.56,0.14l0.54,0.12l0.52,0.1l0.5,0.08l0.48,0.07l0.46,0.03l0.43,0l0.43,0l0.4,-0.03l0.38,-0.04l0.35,-0.06l0.34,-0.1l0.32,-0.1l0.3,-0.13l0.27,-0.15l0.25,-0.17l0.23,-0.18l0.2,-0.22l0.18,-0.23l0.16,-0.26l0.22,-0.44l0.16,-0.5l0.1,-0.53l0.06,-0.6l0.02,-0.63l-0.03,-0.7l-0.08,-0.72l-0.12,-0.78l-0.18,-0.8l-0.2,-0.86l-0.26,-0.9l-0.3,-0.93l-0.35,-0.97l-0.38,-1l-0.43,-1.04l-0.47,-1.07l-0.5,-1.1l-0.55,-1.14l-0.6,-1.17l-0.63,-1.18l-0.66,-1.23l-0.7,-1.24l-0.74,-1.27l-0.77,-1.3l-1.64,-2.65l-0.87,-1.35l-0.9,-1.37l-0.93,-1.4l-0.97,-1.4l-2.03,-2.84l-1.05,-1.43l-1.1,-1.46l-1.1,-1.45l-1.15,-1.48l-1.16,-1.47l-1.2,-1.48l-1.22,-1.48l-1.23,-1.5l-4.17,-4.9l-2.05,7.54l-0.74,2.67l-0.76,2.65l-0.78,2.62l-0.8,2.57l-0.8,2.55l-0.84,2.5l-0.84,2.46l-0.87,2.43l-0.88,2.38l-0.88,2.35l-0.9,2.3l-0.9,2.25l-0.92,2.2l-0.94,2.14l-0.93,2.1l-0.95,2.05l-0.96,1.98l-0.96,1.93l-0.98,1.88l-0.96,1.82l-0.98,1.74l-0.98,1.7l-0.98,1.63l-0.98,1.56l-1,1.5l-0.97,1.42l-0.98,1.35l-0.97,1.28l-0.98,1.2l-0.97,1.13l-0.96,1.05l-0.95,0.97l-0.96,0.88l-0.94,0.8l-0.93,0.73l-0.92,0.64l-0.92,0.55l-0.9,0.46l-0.88,0.37l-0.88,0.28l-0.2,0.05l-0.42,0.08l-0.22,0.02l-0.43,0.04l-0.68,0l-0.23,-0.02l-0.24,-0.02l-0.23,-0.03l-0.23,-0.04l-0.47,-0.1l-0.23,-0.06l-0.24,-0.06l-0.23,-0.08l-0.23,-0.07l-0.47,-0.18l-0.7,-0.3l-0.44,-0.22l-0.23,-0.12l-0.65,-0.4l-0.2,-0.14l-0.6,-0.45l-0.57,-0.5l-0.18,-0.17l-0.34,-0.38l-0.18,-0.2l-0.2,-0.25l-0.18,-0.26l-0.17,-0.28l-0.2,-0.3l-0.17,-0.32l-0.18,-0.33l-0.18,-0.36l-0.34,-0.76l-0.34,-0.82l-0.16,-0.43l-0.32,-0.9l-0.32,-0.94l-0.14,-0.5l-0.15,-0.5l-0.28,-1.02l-0.26,-1.06l-0.13,-0.54l-0.23,-1.1l-0.22,-1.12l-0.1,-0.56l-0.18,-1.12l-0.08,-0.57l-0.14,-1.12l-0.05,-0.56l-0.1,-1.13l-0.08,-1.1l-0.01,-0.54l-0.02,-0.4l-0.02,-0.44l0,-4.98l0.03,-1.26l0.01,-0.64l0.02,-0.64l0.01,-0.65l0.06,-1.92l0.05,-1.25l0.03,-0.6l0.02,-0.6l0.03,-0.58l0.02,-0.56l0.04,-0.54l0.06,-1l0.03,-0.47l0.03,-0.43l0.03,-0.4l0.03,-0.37l0.04,-0.34l0.03,-0.3l0.03,-0.26l0.04,-0.22l0.03,-0.18l0.03,-0.13l0.03,-0.08l0.03,-0.04l0.02,0.01l0.02,-0.01l0.03,0.02l0.03,0l0.03,0.02l0.03,0.01l0.1,0.05l0.03,0.03l0.16,0.1l0.05,0.03l0.12,0.08l0.07,0.04l0.07,0.05l0.3,0.2l0.1,0.06l0.07,0.05l0.1,0.06l0.1,0.07l0.08,0.05l0.2,0.14l0.1,0.06l0.3,0.2l0.3,0.22l0.2,0.14l0.2,0.16l2.5,1.85l-0.24,5.9l-0.03,0.64l-0.01,0.66l0,0.65l-0.02,1.3l0,1.3l0.03,1.93l0.04,1.28l0.03,0.63l0.02,0.62l0.04,0.6l0.04,0.62l0.12,1.8l0.1,1.14l0.06,0.56l0.05,0.55l0.13,1.06l0.14,1.02l0.08,0.48l0.07,0.47l0.08,0.46l0.08,0.43l0.1,0.44l0.1,0.4l0.08,0.4l0.1,0.37l0.1,0.36l0.1,0.34l0.2,0.6l0.2,0.55l0.22,0.52l0.2,0.5l0.22,0.45l0.23,0.42l0.24,0.38l0.24,0.36l0.24,0.32l0.26,0.3l0.26,0.26l0.28,0.22l0.27,0.2l0.28,0.15l0.3,0.13l0.3,0.08l0.3,0.06l0.3,0.02l0.33,0l0.33,-0.05l0.34,-0.08l0.36,-0.12l0.35,-0.14l0.38,-0.18l0.38,-0.22l0.4,-0.24l0.4,-0.3l0.42,-0.32l0.42,-0.35l0.44,-0.4l0.44,-0.42l0.45,-0.46l0.47,-0.5l0.48,-0.53l0.5,-0.56l0.5,-0.6l0.5,-0.63l0.53,-0.67l0.55,-0.7l0.55,-0.73l0.57,-0.77l0.6,-0.87l0.63,-0.9l0.62,-0.95l0.63,-0.97l0.62,-1.02l0.63,-1.05l0.64,-1.1l0.63,-1.13l0.64,-1.15l0.63,-1.2l0.63,-1.23l0.64,-1.26l1.25,-2.6l0.63,-1.35l0.63,-1.37l0.63,-1.4l0.63,-1.42l0.62,-1.46l0.62,-1.47l0.6,-1.5l0.6,-1.52l0.6,-1.54l0.6,-1.56l1.2,-3.2l0.6,-1.62l0.57,-1.64l0.58,-1.64l0.57,-1.67l0.56,-1.67l0.55,-1.7l0.54,-1.7l0.53,-1.7l0.52,-1.73l0.52,-1.74l0.5,-1.74l0.5,-1.75l0.96,-3.52l2.2,-8.17l-5.1,-5.15l-2.6,-2.6l-0.4,-0.38l-0.18,-0.2l-0.2,-0.18l-0.2,-0.2l-0.18,-0.17l-0.18,-0.2l-0.36,-0.35l-0.16,-0.17l-0.66,-0.62l-0.14,-0.14l-0.14,-0.15l-0.28,-0.26l-0.12,-0.13l-0.12,-0.12l-0.12,-0.1l-0.3,-0.3l-0.1,-0.08l-2.14,-1.95l-18.45,5.42l-1.48,0.46l-1.46,0.44l-1.43,0.46l-1.4,0.44l-1.38,0.45l-1.36,0.44l-1.34,0.45l-1.32,0.45l-1.3,0.45l-2.52,0.88l-1.23,0.46l-1.2,0.44l-1.2,0.45l-1.18,0.46l-1.15,0.45l-1.14,0.46l-1.13,0.47l-2.2,0.92l-1.08,0.47l-1.06,0.47l-1.05,0.47l-2.06,0.96l-2,1l-1.96,1l-1.92,1.02l-0.95,0.52l-0.93,0.5l-0.93,0.54l-1.97,0.98l-0.9,0.55l-0.9,0.56l-0.86,0.53l-0.82,0.53l-0.8,0.53l-0.76,0.52l-0.72,0.5l-0.7,0.5l-0.68,0.5l-0.63,0.5l-0.6,0.48l-0.58,0.5l-0.54,0.48l-0.5,0.46l-0.48,0.47l-0.45,0.45l-0.4,0.45l-0.4,0.44l-0.35,0.43l-0.32,0.43l-0.3,0.42l-0.26,0.4l-0.22,0.4l-0.2,0.4l-0.16,0.4l-0.13,0.38l-0.1,0.36l-0.07,0.36l-0.04,0.35l0,0.35l0.03,0.33l0.07,0.33l0.1,0.3l0.13,0.3l0.17,0.3l0.2,0.3l0.23,0.28l0.26,0.26l0.3,0.25l0.33,0.25l0.36,0.24l0.4,0.22l0.3,0.16l0.32,0.15l0.35,0.15l0.36,0.15l0.37,0.13l0.4,0.14l0.42,0.13l0.42,0.12l0.45,0.13l0.47,0.12l0.48,0.1l1,0.2l0.52,0.1l0.54,0.1l0.56,0.1l0.57,0.08l0.58,0.08l0.6,0.08l0.6,0.07l1.25,0.13l0.64,0.05l1.32,0.1l0.67,0.04l0.68,0.03l0.7,0.04l0.7,0.02l0.72,0.02l1.44,0.02l2.22,0l0.75,-0.02l0.76,-0.01l0.76,-0.02l0.77,-0.03l0.78,-0.04l0.14,-0.01l0.15,-0.01l0.14,0l0.15,-0.01l0.28,-0.02l0.28,-0.01l0.15,0l0.56,0l0.13,0l0.14,-0.01l0.52,-0.01l0.12,-0.01l0.26,0l0.1,-0.01l0.24,0l0.1,-0.01l0.1,0l0.2,-0.01l0.1,-0.01l0.1,0.01l0.08,0l0.08,-0.01l0.5,0l0.1,0.03l0.1,0.04l0.1,0.06l0.1,0.07l0.12,0.08l0.12,0.1l0.14,0.1l0.15,0.1l0.14,0.12l0.15,0.14l0.16,0.15l0.63,0.63l0.16,0.17l0.48,0.54l0.16,0.2l0.3,0.37l0.14,0.18l0.28,0.35l0.12,0.18l0.12,0.17l0.22,0.32l0.1,0.16l0.1,0.14l0.13,0.26l0.05,0.12l0.04,0.1l0.03,0.1l0.01,0.1l0,0.07l-0.02,0.06l-0.03,0.03l-0.25,0.07l-0.08,0l-0.2,0.02l-0.3,0.06l-0.13,0l-0.28,0.03l-0.14,0.02l-0.16,0.01l-0.16,0.02l-0.17,0l-0.35,0.03l-0.37,0.04l-0.2,0.01l-0.2,0.03l-0.62,0.04l-0.22,0.02l-0.45,0.04l-0.23,0l-0.23,0.02l-0.72,0.04l-0.25,0l-0.23,0.01l-0.25,0.02l-1.03,0.05l-1,0.06l-1,0.03l-0.98,0.04l-0.97,0.03l-1.9,0.02l-1.83,0l-0.9,-0.02l-0.9,0l-0.87,-0.04l-0.87,-0.03l-1.67,-0.1l-0.82,-0.07l-0.8,-0.06l-0.8,-0.08l-1.54,-0.18l-1.48,-0.2l-0.7,-0.1l-1.4,-0.26l-0.67,-0.14l-0.66,-0.15l-0.63,-0.15l-0.63,-0.17l-1.2,-0.34l-0.58,-0.2l-0.55,-0.2l-0.54,-0.2l-0.53,-0.2l-0.52,-0.22l-0.5,-0.23l-0.48,-0.22l-0.46,-0.24l-0.45,-0.26l-0.4,-0.23l-0.4,-0.25l-0.38,-0.25l-0.35,-0.25l-0.34,-0.25l-0.33,-0.27l-0.6,-0.52l-0.28,-0.27l-0.25,-0.27l-0.24,-0.28l-0.23,-0.28l-0.4,-0.6l-0.18,-0.3l-0.16,-0.3l-0.14,-0.3l-0.13,-0.3l-0.1,-0.3l-0.17,-0.63l-0.05,-0.32l-0.05,-0.33l-0.03,-0.34l-0.01,-0.33l0.01,-0.35l0.02,-0.35l0.04,-0.34l0.05,-0.36l0.07,-0.36l0.08,-0.37l0.1,-0.37l0.12,-0.37l0.13,-0.38l0.15,-0.4l0.17,-0.4l0.18,-0.4l0.4,-0.8l0.22,-0.4l0.74,-1.17l0.4,-0.57l0.44,-0.6l0.47,-0.58l0.5,-0.6l0.53,-0.6l1.14,-1.18l0.62,-0.6l0.64,-0.6l0.68,-0.6l0.7,-0.6l0.73,-0.6l0.76,-0.6l1.6,-1.2l0.84,-0.6l0.9,-0.6l1.83,-1.2l0.96,-0.6l1,-0.6l1.02,-0.6l1.04,-0.6l1.08,-0.6l1.1,-0.6l1.13,-0.6l1.15,-0.6l1.2,-0.6l1.22,-0.6l1.23,-0.6l1.27,-0.6l1.3,-0.6l1.32,-0.6l1.35,-0.6l1.38,-0.6l1.4,-0.6l1.43,-0.6l1.46,-0.6l0.65,-0.27l0.7,-0.28l0.77,-0.3l1.67,-0.62l0.9,-0.34l1.9,-0.7l1,-0.35l1.03,-0.37l1.07,-0.37l1.07,-0.38l1.1,-0.37l1.1,-0.38l1.12,-0.38l1.14,-0.38l1.13,-0.38l2.26,-0.75l5.45,-1.76l1.04,-0.32l1,-0.3l0.96,-0.3l1.83,-0.55l0.85,-0.25l0.8,-0.23l0.75,-0.2l0.7,-0.2l0.63,-0.17l0.58,-0.14l0.5,-0.13l0.44,-0.1l0.37,-0.08l0.3,-0.05l0.22,-0.01l1.55,-0.03l-1.57,-1.52l-0.26,-0.24l-0.3,-0.28l-0.32,-0.28l-0.36,-0.3l-0.38,-0.34l-0.4,-0.35l-0.45,-0.38l-0.46,-0.4l-0.5,-0.4l-0.5,-0.42l-0.54,-0.43l-0.54,-0.45l-0.58,-0.46l-1.2,-0.94l-0.6,-0.48l-1.28,-1l-0.65,-0.5l-1.32,-1.02l-1.34,-1.02l-0.7,-0.5l-0.67,-0.5l-0.68,-0.5l-1.34,-1l-0.66,-0.5l-0.66,-0.48l-0.65,-0.47l-0.64,-0.46l-0.63,-0.46l-0.6,-0.43l-0.6,-0.42l-0.58,-0.42l-0.56,-0.4l-0.56,-0.38l-0.52,-0.36l-0.52,-0.34l-1.54,-1l-0.78,-0.5l-0.76,-0.48l-1.54,-0.92l-0.77,-0.45l-0.76,-0.43l-1.52,-0.84l-0.75,-0.4l-0.74,-0.4l-0.74,-0.38l-0.72,-0.36l-1.44,-0.68l-0.7,-0.32l-1.38,-0.6l-0.67,-0.27l-0.66,-0.27l-0.65,-0.25l-0.64,-0.23l-0.6,-0.22l-1.2,-0.4l-0.58,-0.17l-0.55,-0.15l-0.54,-0.14l-0.53,-0.12l-0.5,-0.1l-0.48,-0.08l-0.48,-0.07l-0.44,-0.05l-0.43,-0.03l-0.78,0l-0.36,0.03l-0.34,0.04l-0.3,0.07l-0.35,0.1l-0.33,0.14l-0.3,0.2l-0.27,0.22l-0.23,0.25l-0.2,0.28l-0.18,0.32l-0.15,0.35l-0.13,0.38l-0.1,0.42l-0.06,0.44l-0.04,0.48l-0.01,0.5l0.02,0.53l0.05,0.56l0.06,0.6l0.1,0.62l0.12,0.63l0.15,0.67l0.18,0.7l0.2,0.73l0.22,0.73l0.55,1.57l0.3,0.8l0.33,0.83l0.36,0.86l0.4,0.88l0.4,0.9l0.43,0.9l0.47,0.94l0.48,0.94l0.5,0.97l0.53,0.98l0.56,1l0.58,1.02l0.6,1.03l0.64,1.04l0.65,1.06l0.67,1.07l2.8,4.43l-1.25,2.86l-0.05,0.12l-0.1,0.22l-0.05,0.13l-0.1,0.23l-0.06,0.1l-0.05,0.12l-0.05,0.1l-0.05,0.12l-0.04,0.1l-0.1,0.2l-0.04,0.1l-0.1,0.2l-0.03,0.1l-0.05,0.1l-0.1,0.24l-0.05,0.08l-0.03,0.07l-0.13,0.26l-0.1,0.16l-0.02,0.04l-0.03,0.04l-0.05,0.1l-0.07,0.07l-0.05,0l-0.16,-0.16l-0.12,-0.13l-0.13,-0.18l-0.16,-0.2l-0.18,-0.24l-0.2,-0.28l-0.22,-0.3l-0.23,-0.33l-0.5,-0.75l-0.27,-0.4l-0.28,-0.43l-0.3,-0.45l-0.32,-0.49l-0.63,-1l-0.66,-1.03l-1,-1.6l-0.34,-0.56l-0.33,-0.55l-0.34,-0.54l-0.65,-1.1l-0.33,-0.54l-0.3,-0.53l-0.32,-0.53l-0.58,-1l-0.28,-0.5l-0.27,-0.47l-0.25,-0.46l-0.25,-0.43l-0.22,-0.4l-0.4,-0.76l-0.26,-0.48l-0.25,-0.5l-0.24,-0.5l-0.48,-1.02l-0.22,-0.52l-0.45,-1.05l-0.6,-1.6l-0.2,-0.54l-0.18,-0.53l-0.2,-0.53l-0.34,-1.06l-0.16,-0.54l-0.3,-1.04l-0.28,-1.03l-0.24,-1l-0.1,-0.5l-0.2,-0.96l-0.08,-0.47l-0.14,-0.9l-0.06,-0.43l-0.04,-0.42l-0.04,-0.4l-0.02,-0.4l0,-0.38l-0.01,-0.36l0.01,-0.36l0,-0.33l0.06,-0.62l0.05,-0.27l0.1,-0.5l0.07,-0.24l0.08,-0.24l0.08,-0.25l0.08,-0.23l0.2,-0.48l0.2,-0.46l0.24,-0.46l0.12,-0.2l0.27,-0.44l0.14,-0.2l0.44,-0.6l0.16,-0.2l0.32,-0.37l0.17,-0.17l0.17,-0.18l0.17,-0.16l0.18,-0.17l0.37,-0.3l0.18,-0.14l0.2,-0.14l0.18,-0.13l0.38,-0.24l0.6,-0.3l0.4,-0.16l0.4,-0.13l0.73,-0.15l0.77,-0.1l0.8,-0.07l0.86,-0.01l0.9,0.03l0.94,0.1l0.96,0.13l1,0.2l1.04,0.22l1.07,0.27l1.12,0.33l1.14,0.36l1.17,0.42l1.2,0.44l1.24,0.5l1.26,0.54l1.3,0.6l1.3,0.63l1.34,0.66l1.37,0.7l1.38,0.74l1.4,0.78l1.43,0.83l1.45,0.86l1.46,0.9l1.48,0.94l1.5,0.98l1.5,1l1.53,1.05l1.54,1.08l1.55,1.12l1.56,1.15l1.58,1.17l1.58,1.22l1.6,1.25l1.6,1.28l1.6,1.3l1.6,1.34l1.6,1.37l1.6,1.4l5.42,4.82l7.45,-1.55l1.12,-0.2l1.07,-0.2l0.52,-0.1l0.75,-0.15l0.24,-0.03l0.46,-0.1l0.22,-0.04l0.43,-0.07l0.4,-0.07l0.2,-0.03l0.18,-0.03l0.35,-0.05l0.16,-0.02l0.15,-0.03l0.15,-0.02l0.27,-0.04l0.12,-0.01l0.1,0l0.56,0l0.08,-0.02l0.1,-0.04l0.08,-0.04l0.1,-0.06l0.16,-0.16l0.07,-0.1l0.08,-0.1l0.07,-0.13l0.07,-0.15l0.06,-0.16l0.08,-0.18l0.07,-0.2l0.06,-0.22l0.06,-0.23l0.06,-0.25l0.06,-0.27l0.07,-0.28l0.05,-0.3l0.06,-0.32l0.05,-0.34l0.06,-0.36l0.05,-0.4l0.06,-0.4l0.05,-0.43l0.05,-0.44l0.06,-0.47l0.05,-0.5l0.04,-0.5l0.05,-0.53l0.05,-0.56l0.05,-0.58l0.05,-0.6l0.05,-0.63l0.04,-0.65l0.05,-0.68l0.05,-0.7l0.05,-0.73l0.04,-0.75l0.06,-1.1l0.05,-1.1l0.04,-1.06l0.06,-2.1l0,-3l-0.02,-0.97l-0.02,-0.96l-0.08,-1.85l-0.05,-0.9l-0.07,-0.88l-0.07,-0.86l-0.08,-0.84l-0.1,-0.82l-0.1,-0.8l-0.1,-0.77l-0.1,-0.75l-0.13,-0.72l-0.12,-0.7l-0.14,-0.67l-0.15,-0.65l-0.15,-0.62l-0.16,-0.6l-0.17,-0.57l-0.17,-0.54l-0.2,-0.52l-0.2,-0.48l-0.2,-0.47l-0.2,-0.42l-0.22,-0.4l-0.22,-0.37l-0.23,-0.34l-0.23,-0.3l-0.24,-0.27l-0.25,-0.24l-0.25,-0.2l-0.27,-0.17l-0.26,-0.13l-0.3,-0.1l-0.3,-0.11l-0.3,-0.05l-0.3,-0.02l-0.3,0.01l-0.3,0.06l-0.33,0.05l-0.34,0.1l-0.34,0.12l-0.35,0.14l-0.72,0.4l-0.37,0.24l-0.38,0.26l-0.38,0.3l-0.4,0.32l-0.4,0.35l-0.4,0.38l-0.4,0.4l-0.4,0.44l-0.44,0.46l-0.43,0.48l-0.44,0.5l-0.45,0.55l-0.46,0.56l-0.45,0.6l-0.47,0.62l-0.48,0.64l-0.47,0.7l-0.5,0.7l-0.5,0.72l-0.5,0.77l-0.5,0.78l-0.5,0.8l-0.5,0.84l-0.53,0.86l-1.06,1.8l-0.54,0.95l-4.72,8.25l-3.1,0.4l-0.1,0.01l-0.12,0.01l-0.1,0l-0.12,0l-0.1,0l-0.1,0l-0.1,0l-0.8,0l-0.08,0l-0.07,0l-0.1,-0.01l-0.07,0l-0.07,-0.01l-0.2,-0.04l-0.1,0l-0.1,-0.04l-0.04,0l-0.1,-0.06l-0.03,-0.02l-0.01,-0.03l-0.02,-0.02l-0.01,-0.04l0,-0.03l0.02,-0.12l0.03,-0.15l0.06,-0.2l0.07,-0.22l0.1,-0.24l0.1,-0.28l0.12,-0.3l0.15,-0.32l0.14,-0.37l0.17,-0.37l0.18,-0.4l0.2,-0.4l0.2,-0.43l0.2,-0.44l0.22,-0.45l0.24,-0.47l0.47,-0.98l0.5,-1l0.26,-0.5l0.26,-0.52l0.8,-1.52l0.28,-0.5l0.27,-0.5l0.26,-0.5l0.28,-0.5l0.52,-0.94l0.26,-0.45l0.25,-0.44l0.25,-0.42l0.25,-0.4l0.23,-0.4l0.22,-0.36l0.22,-0.34l0.2,-0.33l0.2,-0.3l0.44,-0.65l0.88,-1.27l0.43,-0.6l0.86,-1.18l0.83,-1.1l0.42,-0.54l1.22,-1.53l0.4,-0.48l0.4,-0.46l0.4,-0.45l0.4,-0.43l0.78,-0.82l0.4,-0.4l0.76,-0.74l0.38,-0.34l0.74,-0.66l0.74,-0.6l0.37,-0.28l0.36,-0.27l0.4,-0.34l0.7,-0.45l0.36,-0.2l0.35,-0.2l0.35,-0.18l0.34,-0.16l0.36,-0.15l0.33,-0.15l0.34,-0.12l0.34,-0.1l0.33,-0.1l0.42,-0.1l0.22,-0.04l0.2,-0.02l0.22,-0.02l0.44,-0.02l0.23,0l0.23,0.01l0.22,0.02l0.02,0.01zm0.4,53.97l-1.16,0.23l-1.25,0.3l-1.2,0.35l-1,0.34l-0.76,0.3l-0.45,0.26l-0.08,0.2l1.14,1.27l1.7,1.75l1.82,1.78l1.48,1.37l0.7,0.54l0.16,-0.26l0.22,-0.63l0.26,-0.95l0.3,-1.2l0.28,-1.37l0.28,-1.57l0.15,-1.23l0,-0.87l-0.13,-0.56l-0.27,-0.24l-0.44,-0.04l-0.75,0.06l-1,0.15l0,0.02zm-48.7,-0.1l-4.34,1.68l1.3,-2.42c1.68,-3.17 5.8,-7.83 9.24,-10.44c0.18,-0.15 1.08,-0.86 2.72,-2.15l2.32,1.64c1.27,0.9 2.35,1.77 2.4,2c0.05,0.18 -0.83,1 -1.94,1.7c-1.16,0.76 -3.28,2.5 -4.73,3.86c-1.84,1.8 -3.86,2.98 -6.97,4.14l0,-0.01zm24.9,58.64c-10.8,-1.44 -21.16,-8 -27.37,-17.4c-2.63,-4.02 -5.8,-12.95 -6,-16.85c-0.12,-2.35 0.07,-2.6 2.43,-3.7c1.4,-0.63 2.62,-1.1 2.76,-1.06c0.1,0.1 0.5,2.38 0.8,5.16c1.1,8.96 6.72,17.88 14.56,22.95c4.32,2.86 10.6,5 15.18,5.26c1.78,0.1 3.3,0.4 3.33,0.6c0.07,0.25 -0.43,1.54 -1.1,2.95l-1.18,2.6l-3.43,-0.5l0.02,-0.01zm4.3,-76.72c-1.95,-1.94 9.3,-0.5 15.27,2c3.42,1.4 3.68,1.6 3.44,3.15c-0.18,1.3 -5.97,1.87 -9.46,0.92c-2.5,-0.68 -6.43,-3.26 -9.25,-6.06l0,-0.01zm24.78,60.43c1.57,-1.66 3.27,-3.8 3.7,-4.6c1.06,-2.1 1.5,-2.1 2.76,-0.36c0.56,0.88 1.35,1.9 1.74,2.45c0.5,0.64 0.01,1.67 -1.63,3.8c-3.97,5.2 -13.04,12.18 -12.28,9.44c1.38,-4.5 3.2,-8.05 5.72,-10.72l-0.01,-0.01zm11.5,-24.45c-1.94,-2.4 -2.9,-4.28 -3.57,-6.82c-1.68,-6.27 0.9,-12.08 3.24,-7.47c1.32,2.5 3.28,10.33 3.57,14.07c0.17,1.83 0.08,3.4 -0.1,3.46c-0.24,0.06 -1.6,-1.45 -3.13,-3.24l-0.01,0z" id="dark-theme-blur-logo"/>
  <linearGradient y2="0%" x2="100%" y1="0%" x1="0%" id="dark-theme-blur-gradient">
   <stop stop-color="#8ab4f8" offset="0%"/>
   <stop stop-color="#c1a8e2" offset="100%"/>
  </linearGradient>
 </defs>
 <g>
  <title>Layer 1</title>
  <rect id="svg_6" height="1969" width="3750" y="0" x="0" fill="#000000"/>
  <g stroke="null" stroke-width="0" id="svg_1" fill="url(#dark-theme-blur-gradient)">
   <use stroke="null" transform="matrix(8.34894 0 0 8.34894 -13095.7 -6551.83)" x="1718.10485" y="827.6284" id="svg_2" filter="url(#dark-theme-blur-filter)" xlink:href="#dark-theme-blur-logo"/>
   <use stroke="null" transform="matrix(8.34894 0 0 8.34894 -13095.7 -6551.83)" x="1718.10485" y="827.6284" id="svg_3" xlink:href="#dark-theme-blur-logo"/>
  </g>
 </g>
</svg>