<svg xmlns="http://www.w3.org/2000/svg" viewBox="0 0 112 32.8">
  <path fill="#F4B960" d="M16.3,1.1c8.4,0,15.3,6.8,15.3,15.3s-6.8,15.3-15.3,15.3S1,24.9,1,16.4S7.8,1.1,16.3,1.1z" />
  <path fill="#E66F32" d="M14.7,1.1c7.6,0,13.8,6.2,13.8,13.8s-6.2,13.8-13.8,13.8S0.9,22.5,0.9,14.9S7.1,1.1,14.7,1.1z" />
  <path fill="#E43C41" d="M16.6,1.1c6.6,0,12,5.4,12,12s-5.4,12-12,12s-12-5.4-12-12S10,1.1,16.6,1.1z" />
  <path fill="#BDD041" d="M17.5,3c6.1,0,11,4.9,11,11s-4.9,11-11,11s-11-4.9-11-11S11.5,3,17.5,3z" />
  <path fill="#6DB54C" d="M16.8,4.7C22.4,4.7,27,9.3,27,14.9s-4.6,10.2-10.2,10.2S6.6,20.5,6.6,14.9S11.1,4.7,16.8,4.7z" />
  <path fill="#AEDAE6" d="M15.1,4.7c4.7,0,8.5,3.8,8.5,8.5s-3.8,8.5-8.5,8.5s-8.5-3.8-8.5-8.5S10.4,4.7,15.1,4.7z" />
  <path fill="#56B8DE" d="M16.5,4.6c4,0,7.2,3.2,7.2,7.2S20.5,19,16.5,19s-7.2-3.2-7.2-7.2S12.5,4.6,16.5,4.6z" />
  <path fill="#00B1D5" d="M17.4,6.5c3.5,0,6.3,2.8,6.3,6.3s-2.8,6.3-6.3,6.3s-6.3-2.8-6.3-6.3S13.9,6.5,17.4,6.5z" />
  <path fill="#221F1F" d="M16.5,8.3c3,0,5.4,2.4,5.4,5.4s-2.4,5.4-5.4,5.4s-5.4-2.4-5.4-5.4S13.5,8.3,16.5,8.3z" />
  <path fill="#FFFFFF" d="M17.7,11.2c0.4-0.9,1.1-1.3,1.7-1.1c0.5,0.2,0.7,1.1,0.3,2s-1.1,1.3-1.7,1.1S17.3,12.1,17.7,11.2z" />
  <path fill="#202020" d="M36.1,12.4c0,0,0-0.1,0.1-0.1h3.4c1.9,0,2.8,0.9,2.8,2.2c0,1-0.5,1.5-1.1,1.8l0,0c0.5,0.2,1.2,0.9,1.2,1.9
    c0,1.7-1.1,2.5-3.1,2.5h-3.3c0,0-0.1,0-0.1-0.1L36.1,12.4z M39.6,15.7c0.8,0,1.3-0.4,1.3-1.1s-0.5-1.1-1.3-1.1h-1.8l0,0v2.1l0,0
    C37.8,15.7,39.6,15.7,39.6,15.7L39.6,15.7z M37.8,19.3h1.9c0.9,0,1.4-0.4,1.4-1.2c0-0.7-0.5-1.2-1.4-1.2h-1.9l0,0v2.2
    C37.7,19.3,37.8,19.3,37.8,19.3z M43.8,20.6C43.8,20.6,43.7,20.6,43.8,20.6l-0.1-5.8c0,0,0-0.1,0.1-0.1H45c0,0,0.1,0,0.1,0.1v0.5
    l0,0c0.3-0.4,0.9-0.8,1.7-0.8c0.5,0,1,0.2,1.3,0.5v0.1l-0.7,0.8c0,0-0.1,0-0.2,0c-0.3-0.1-0.6-0.3-1-0.3c-0.8,0-1.2,0.5-1.2,1.5v3.3
    c0,0,0,0.1-0.1,0.1L43.8,20.6z M48.5,19.1c-0.1-0.4-0.2-0.8-0.2-1.5s0-1.1,0.2-1.5c0.4-1.1,1.3-1.6,2.7-1.6s2.3,0.6,2.7,1.6
    c0.1,0.4,0.2,0.8,0.2,1.5s0,1.1-0.2,1.5c-0.4,1.1-1.3,1.6-2.7,1.6S48.8,20.2,48.5,19.1z M52.4,18.8c0.1-0.3,0.1-0.6,0.1-1.1
    s0-0.8-0.1-1.1c-0.2-0.5-0.6-0.8-1.2-0.8c-0.6,0-1,0.3-1.2,0.8c-0.1,0.3-0.1,0.6-0.1,1.1s0,0.8,0.1,1.1c0.2,0.5,0.6,0.8,1.2,0.8
    C51.7,19.6,52.1,19.2,52.4,18.8z M60.5,20.6C60.5,20.6,60.4,20.6,60.5,20.6l-1.3-4l0,0l-1.4,3.8c0,0,0,0.1-0.1,0.1h-1.1
    c0,0-0.1,0-0.1-0.1l-2-5.7c0,0,0-0.1,0.1-0.1h1.3c0.1,0,0.1,0,0.1,0.1l1.2,4l0,0l1.2-4l0.1-0.1h1c0,0,0.1,0,0.1,0.1l1.3,4H61l1.2-4
    c0.1-0.1,0.1-0.1,0.1-0.1h1.3c0.1,0,0.1,0,0.1,0.1l-2,5.7c-0.1,0-0.1,0.1-0.1,0.1L60.5,20.6z M64,19.8C63.9,19.8,63.9,19.7,64,19.8
    l0.8-0.8c0.1,0,0.1,0,0.2,0c0.4,0.4,1.2,0.7,1.9,0.7c0.8,0,1.2-0.3,1.2-0.7c0-0.3-0.2-0.6-1.1-0.6h-0.7c-1.3-0.1-2-0.7-2-1.7
    c0-1.1,0.9-1.9,2.5-1.9c1,0,1.8,0.3,2.4,0.7c0.1,0,0.1,0.1,0.1,0.1l-0.6,0.7c-0.1,0-0.1,0-0.2,0c-0.4-0.2-1.1-0.5-1.7-0.5
    s-1,0.2-1,0.6c0,0.3,0.2,0.5,1.1,0.6h0.7c1.3,0.1,2,0.8,2,1.7c0,1.2-0.9,2-2.7,2C65.5,20.8,64.6,20.3,64,19.8L64,19.8z M70.6,19.1
    c-0.1-0.4-0.2-0.8-0.2-1.5s0.1-1.1,0.2-1.5c0.4-1.1,1.3-1.6,2.7-1.6s2.3,0.6,2.7,1.6c0.1,0.4,0.2,0.8,0.2,1.8L76.1,18H72
    c-0.1,0-0.1,0-0.1,0c0,0.1,0.1,0.3,0.1,0.4c0.2,0.6,0.7,0.9,1.4,0.9s1.2-0.2,1.5-0.5c0.1,0,0.1,0,0.2,0l0.8,0.6
    c0.1,0,0.1,0.1,0.1,0.1c-0.5,0.6-1.5,1-2.7,1C71.9,20.8,70.9,20.2,70.6,19.1L70.6,19.1z M74.5,16.4c-0.1-0.5-0.6-0.8-1.2-0.8
    s-1.1,0.3-1.3,0.8c-0.1,0.1-0.1,0.3-0.1,0.5H72h2.6c0.1,0,0.1,0,0.1,0C74.5,16.8,74.5,16.6,74.5,16.4L74.5,16.4z M77.1,20.6
    C77,20.6,77,20.6,77.1,20.6L77,14.8l0.1-0.1h1.2c0.1,0,0.1,0,0.1,0.1v0.5h0.1c0.3-0.4,0.9-0.8,1.7-0.8c0.5,0,1,0.2,1.3,0.5
    c0.1,0,0.1,0.1,0.1,0.1l-0.7,0.8c-0.1,0-0.1,0-0.2,0c-0.3-0.1-0.6-0.3-1-0.3c-0.8,0-1.2,0.5-1.2,1.5v3.3l-0.1,0.1L77.1,20.6z
    M81.8,19.7c-0.1,0-0.1-0.1-0.1-0.2l0.8-0.9c0.1,0,0.1,0,0.2,0c0.6,0.4,1.5,0.9,2.5,0.9c1.1,0,1.7-0.5,1.7-1.2c0-0.6-0.4-1-1.6-1.2
    h-0.5c-1.7-0.2-2.7-1-2.7-2.4c0-1.5,1.2-2.6,3.1-2.6c1.1,0,2.2,0.3,2.9,0.8c0.1,0,0.1,0.1,0.1,0.1l-0.6,0.9c-0.1,0-0.1,0-0.2,0
    c-0.7-0.4-1.4-0.6-2.2-0.6c-0.9,0-1.4,0.4-1.4,1.1c0,0.6,0.4,1,1.7,1.1H86c1.7,0.2,2.7,1,2.7,2.5c0,1.5-1.2,2.6-3.4,2.6
    C83.8,20.8,82.6,20.3,81.8,19.7L81.8,19.7z M91.4,20.7c-1.3,0-1.8-0.6-1.8-1.7v-3.2h-0.1h-0.4c-0.1,0-0.1,0-0.1-0.1v-0.8l0.1-0.1
    h0.4c0.1,0,0.1,0,0.1,0v-1.6l0.1-0.1h1.2c0.1,0,0.1,0,0.1,0.1v1.6h0.1H92c0.1,0,0.1,0,0.1,0.1v0.8L92,15.8h-0.9c-0.1,0-0.1,0-0.1,0
    v3.1c0,0.4,0.2,0.5,0.6,0.5H92c0.1,0,0.1,0,0.1,0.1v1L92,20.6L91.4,20.7z M97.1,20.6C97,20.6,97,20.6,97.1,20.6L97,20.1
    c-0.3,0.4-0.9,0.7-1.8,0.7C94,20.8,93,20.3,93,19s1-1.9,2.6-1.9h1.3c0.1,0,0.1,0,0.1,0v-0.3c0-0.7-0.3-1-1.4-1
    c-0.7,0-1.2,0.2-1.5,0.4c-0.1,0-0.1,0-0.2,0l-0.5-0.8c-0.1,0-0.1-0.1,0.1-0.1c0.5-0.3,1.2-0.6,2.3-0.6c2,0,2.7,0.6,2.7,2.1v3.9
    l-0.1,0.1L97.1,20.6z M96.9,18.6v-0.4h-0.1h-1.1c-1,0-1.4,0.2-1.4,0.8c0,0.5,0.4,0.7,1.1,0.7C96.4,19.6,96.9,19.3,96.9,18.6
    L96.9,18.6z M99.5,19.1c-0.1-0.4-0.2-0.8-0.2-1.5s0.1-1.1,0.2-1.5c0.4-1.1,1.4-1.6,2.7-1.6c1,0,1.7,0.3,2.2,0.9
    c0.1,0,0.1,0.1-0.1,0.1l-0.8,0.7c-0.1,0-0.1,0-0.2,0c-0.3-0.3-0.6-0.5-1.2-0.5s-1,0.2-1.2,0.8c-0.1,0.3-0.1,0.6-0.1,1.1
    c0,0.4,0,0.8,0.1,1.1c0.2,0.5,0.6,0.8,1.2,0.8c0.4,0,0.9-0.2,1.2-0.5c0.1,0,0.1,0,0.2,0l0.8,0.7c0.1,0,0.1,0.1,0.1,0.1
    c-0.6,0.6-1.4,0.9-2.2,0.9C100.9,20.8,99.9,20.2,99.5,19.1L99.5,19.1z M109.7,20.6c-0.1,0-0.1,0-0.2-0.1l-1.6-2.5l-0.9,0.9v1.5
    l-0.1,0.1h-1.2c-0.1,0-0.1,0-0.1-0.1v-8.2l0.1-0.1h1.2c0.1,0,0.1,0,0.1,0.1v4.9l2.2-2.4c0-0.1,0.1-0.2,0.2-0.1h1.4
    c0.1,0,0.1,0,0.1,0.1l-2.1,2.2l2.3,3.6c0.1,0,0.1,0.1-0.1,0.1L109.7,20.6z"
  />
</svg>
