<svg xmlns="http://www.w3.org/2000/svg" viewBox="0 0 60 64"><path d="M18.87 38c0 1.54.23 2.94.7 4.2.5 1.24 1.15 2.35 1.98 3.32s1.8 1.8 2.94 2.5c1.1.7 2.3 1.28 3.58 1.73a22.03 22.03 0 0 0 3.95 1.02c1.37.22 2.7.33 4.05.33 1.7 0 3.28-.13 4.78-.4a34.58 34.58 0 0 0 4.4-1.12c1.44-.47 2.83-1.03 4.22-1.67l4.28-2.12v13.56c-1.63.8-3.23 1.47-4.83 2.05l-4.83 1.44c-1.63.4-3.28.7-4.97.88S35.7 64 33.9 64a28.94 28.94 0 0 1-6.95-.83c-2.23-.55-4.32-1.34-6.28-2.38S16.92 58.5 15.3 57c-1.64-1.48-3.03-3.15-4.2-5s-2.07-3.88-2.72-6.06c-.63-2.18-.95-4.5-.95-6.96 0-2.63.36-5.13 1.08-7.52.73-2.4 1.76-4.58 3.12-6.58 1.35-2 3-3.78 4.95-5.33s4.14-2.82 6.58-3.8c-1.33 1.33-2.37 2.9-3.1 4.73-.75 1.82-1.22 3.65-1.43 5.48H41.4c0-2.3-.23-4.3-.7-6.02s-1.22-3.15-2.27-4.28c-1.04-1.14-2.38-2-4.03-2.56-1.65-.57-3.64-.86-5.97-.86a28.4 28.4 0 0 0-8.25 1.23c-2.75.8-5.36 1.95-7.84 3.4-2.48 1.47-4.76 3.2-6.84 5.18-2.08 2-3.83 4.15-5.25 6.48.3-2.7.9-5.3 1.73-7.77S3.9 16 5.23 13.87a30.95 30.95 0 0 1 4.64-5.74c1.77-1.72 3.73-3.2 5.9-4.4S20.24 1.56 22.74.9C25.24.34 27.9 0 30.7 0a27.9 27.9 0 0 1 4.9.44 34.73 34.73 0 0 1 4.77 1.22c3.08 1.06 5.83 2.54 8.25 4.42 2.42 1.9 4.45 4.06 6.1 6.53s2.9 5.2 3.76 8.17 1.3 6.06 1.3 9.27V38h-40.9z" fill="#0078d7"/></svg>