<svg xmlns="http://www.w3.org/2000/svg" height="219" width="223"><path fill="#1ebbee" d="M218.64 114.33c0-16.968-4.387-32.91-12.08-46.76 32.79-74.213-35.136-63.343-38.918-62.603-14.39 2.816-27.705 7.337-39.986 13.068-1.81-.102-3.633-.158-5.47-.158-45.833 0-84.198 31.968-94.017 74.823 24.157-27.1 41.063-38.036 51.187-42.412l-4.754 4.375-1.528 1.477-3.05 2.972-1.76 1.788-2.638 2.713-1.82 1.938-2.402 2.603-1.818 2.03-2.22 2.528-1.8 2.1-2.054 2.454-1.782 2.17-1.873 2.343-1.786 2.266-1.646 2.152-1.837 2.426-1.262 1.723a299.19 299.19 0 0 0-10.438 15.199c-.008.012-.016.024-.023.036l-2.4 3.82-.128.206-2.358 3.868a309.83 309.83 0 0 0-5.481 9.506c-8.687 15.743-12.916 26.742-13.1 27.395-27.432 98.072 58.184 56.657 70.13 50.475 12.864 6.355 27.346 9.932 42.666 9.932 41.94 0 77.623-26.77 90.905-64.156h-50.68c-7.5 12.67-21.936 21.25-38.522 21.25-24.3 0-44-18.412-44-41.125h137.96c.523-4.068.794-8.214.794-12.423zm-18.018-94.916c8.306 5.606 14.968 14.4 3.527 44.06-10.973-17.647-27.482-31.5-47.104-39.1 8.926-4.31 31.03-13.43 43.577-4.96zm-176.52 181.24c-6.765-6.938-7.96-23.836 6.967-54.628 7.534 21.66 22.568 39.81 42 51.33-9.664 5.32-35.32 17.295-48.967 3.298zm55.57-100.28c.77-22.075 19.983-39.75 43.588-39.75s42.817 17.675 43.588 39.75H79.673z"/></svg>