<svg width="260" height="260" xmlns="http://www.w3.org/2000/svg"><path fill="none" d="M-1-1h262v262H-1z"/><rect rx="30" height="260" width="260" fill="#080808"/><path fill="#1bcacd" d="M156.962 17.518l.69.09.705.12.36.075.345.075.344.105.36.105.705.24.345.15.36.15.675.3.345.15.66.36.66.39.944.644.9.72.57.51.54.54.254.3.15.18.15.194.15.18.15.21.15.18.3.39.15.21.15.195.255.405.27.45.24.45.24.48.12.254.224.54.105.3.15.3.105.3.12.3.105.345.12.345.105.344.24.75.12.39.12.42.15.45.945 3.524.15.6.21.81.195.824.36 1.695.15.87.18.854.15.9.27 1.8.15.9.12.944.104.93.105.96.09.959.09.975.075.974.06 1.005.075 1.005.15 3.089.06 4.304-.045 3.344-.09 2.294-.03 1.17-.075 1.17-.06 1.199-.15 2.4-.105 1.229-.09 1.23-.39 4.198-.03.39-.045.39-.03.405-.06.78-.06.75-.03.36-.045.72-.03.33-.015.344v.345l-.03.3-.015.33v.6l-.045.554v.255l-.015.27-.03.48v1.02l-.015.3.015.15v.48l.015.045.015.03h.045l.045.015h1.005l.195-.015h.675l.51-.03.555-.03.3-.015h.63l.69-.06h.359l.345-.03.375-.03.39-.03.405-.03h.404l.39-.03.42-.03.45-.045.45-.03h.42l.9-.06.45-.045.93-.075.449-.045 2.1-.15 2.054-.15 2.04-.12 3.958-.15 1.95-.045 1.889-.03h3.704l1.8.03 1.754.045 3.404.15 1.65.12 1.604.12 1.574.15 1.545.15 1.5.18 1.454.195 1.41.225 1.394.24 1.32.254 1.304.3 1.245.3 1.2.3 1.17.33 1.124.36 1.08.36 1.05.39 1.004.405.945.42.9.45.87.45.81.48.749.494.75.525.675.525.63.54.57.57.539.6.21.254.405.495.18.24.18.255.15.255.15.24.3.45.15.254.374.705.12.24.105.225.09.255.24.705.15.495.09.495.045.24.03.27.03.24v.254l.03.54v.27l-.03.54-.015.3-.03.3-.015.3-.09.6-.06.3-.06.33-.045.3-.12.524-.15.525-.18.54-.195.54-.225.554-.254.57-.27.555-.3.6-.33.57-.36.6-.375.6-.39.6-.9 1.199-.96 1.23-.54.6-.524.63-1.77 1.859-.63.644-1.319 1.26-.69.645-1.44 1.26-.75.644-1.544 1.26-.794.645-.825.6-2.55 1.874-.9.6-1.829 1.2-.93.6-.944.6-.57.359-.6.36-.63.375-.63.39-.674.39-.69.39-1.44.81-.75.449-.75.405-.749.42-.75.45-1.544.84-.78.404-.75.42-.78.405-1.5.795-.749.39-.75.375-.72.375-1.38.69-1.289.63-.63.299-.57.3-.554.255-.525.255-.48.225-.45.195-.405.15-.39.15-.3.15-.3.09-.254.09-.18.044-.15.03-.075-.03-.06-.06-.06-.09-.045-.12-.045-.15-.03-.15-.015-.194-.03-.21v-.225l.015-.255v-.3l.015-.27.03-.3.015-.3.075-.66.045-.33.15-1.05.06-.36.15-.704.075-.36.15-.675.09-.33.075-.33.105-.3.075-.3.105-.3.105-.269.18-.48.09-.225.104-.195.105-.18.09-.15.105-.15.09-.09.09-.075.15-.06.15-.075.075-.06.105-.06.09-.044.105-.045.12-.06.24-.15.27-.12.15-.09.15-.06.3-.18.48-.24.33-.18.344-.195.36-.18.555-.3.18-.105.375-.195.195-.105.375-.195.21-.09.18-.105.195-.09.195-.105.195-.09 2.054-1.05 1.005-.54 1.004-.569.99-.54.975-.54.96-.555 1.889-1.124.9-.54 1.8-1.125.869-.57.855-.54.854-.57.825-.554.81-.57.795-.54.78-.555 1.499-1.11.705-.524.69-.555.674-.54.66-.54 1.26-1.05.6-.524 1.11-1.02 1.004-1.005.9-.974.42-.48.405-.45.36-.45.344-.45.3-.45.54-.87.21-.42.21-.45.18-.404.15-.405.12-.405.09-.39.06-.39.03-.39v-.75l-.045-.374-.075-.36-.105-.33-.12-.345-.15-.345-.18-.33-.21-.3-.48-.63-.6-.6-.72-.569-.39-.27-.42-.27-.899-.51-1.02-.495-.554-.224-.6-.225-.6-.21-.63-.21-.645-.21-.69-.21-.704-.195-.75-.18-.75-.15-.78-.15-.704-.15-.75-.15-.795-.12-.87-.09-.9-.12-.944-.09-.975-.09-1.005-.075-1.05-.075-1.079-.075-1.11-.06-2.279-.09-1.2-.045-1.2-.03h-1.199l-2.504-.03-1.245.015h-1.275l-3.853.045-1.275.045-1.29.045-1.29.03-1.259.075-1.275.045-1.26.09-1.229.075-1.244.09-1.2.075-2.354.21-1.14.105-1.125.12-1.08.12-2.099.3-.975.15-5.128.78-2.1 11.741-2.189 11.742 10.197 11.906 1.56 1.875 1.544 1.844 1.5 1.8 1.47 1.8 1.424 1.799 1.395 1.77 1.35 1.739 1.319 1.724 1.305 1.695 1.26 1.694 1.229 1.65 1.2 1.65 1.17 1.649 1.124 1.604 1.094 1.605 2.1 3.149 1.005 1.544.974 1.53.93 1.5.9 1.5.87 1.469.84 1.47.809 1.424.78 1.44.75 1.424.72 1.395.674 1.38.645 1.349.63 1.35.6 1.349.554 1.32.54 1.35.495 1.289.48 1.29.45 1.29.42 1.259.375 1.244.345 1.245.224.78.18.75.21.75.15.72.15.689.15.675.15.66.12.66.12.6.09.599.105.6.06.6.06.555.045.554.03.54.03.51v1.005l-.045.96-.045.45-.06.45-.075.45-.18.869-.12.405-.15.42-.3.78-.18.39-.18.374-.195.39-.21.375-.45.75-.254.36-.27.36-.3.36-.3.344-.3.36-.45.495-.45.45-.48.45-.51.39-.524.36-.54.344-.57.3-.6.3-.6.255-.63.21-.644.195-1.38.3-.75.105-.75.075H200.87l-.84-.06-.854-.06-.9-.12-.9-.15-.93-.15-.99-.195-.974-.225-1.02-.24-2.099-.6-1.095-.33-1.124-.374-1.155-.39-1.17-.45-1.2-.45-1.229-.48-1.26-.51-1.29-.555-2.698-1.2-1.38-.644-1.395-.675-.494-.225-.51-.255-.555-.3-.6-.3-.63-.33-.645-.374-.674-.375-.69-.39-.72-.42-2.25-1.35-.75-.48-.794-.45-1.56-.974-.794-.48-.795-.495-.75-.51-.78-.48-1.499-.96-.75-.494-.705-.45-.69-.45-.674-.45-.63-.45-.6-.42-.6-.404-.54-.36-.51-.375-.45-.345-.45-.3-.374-.3-.33-.255-.27-.255-.24-.194-.15-.18-.12-.15-.06-.105h0l.015-.06.03-.09.075-.075v-.06l.09-.09.15-.105.3-.24.09-.06.105-.075.09-.06.105-.06.105-.075.12-.075.12-.06.105-.075.24-.15.15-.075.15-.06.12-.09.6-.3.15-.09.15-.075.15-.06.33-.15.3-.15 3.928-1.65 13.691 8.023 1.38.78 1.35.75 1.319.75 1.305.705 1.26.66 1.244.644 2.4 1.2 1.169.555 1.11.51 1.11.494 1.079.45 1.05.42 1.02.405.989.36.945.33.944.3.9.27.87.24.84.21.81.18.78.15.749.12.72.104.69.045H201.513l.6-.045.57-.06.525-.09.51-.15.48-.15.45-.194.404-.225.375-.255.345-.27.3-.33.27-.345.24-.39.33-.66.24-.75.15-.794.09-.9.03-.945-.046-1.05-.12-1.08-.18-1.169-.27-1.2-.3-1.289-.39-1.35-.45-1.394-.524-1.455-.57-1.5-.645-1.559-.704-1.604-.75-1.65-.825-1.71-.9-1.754-.944-1.77-.99-1.844-1.05-1.86-1.11-1.904-1.154-1.95-2.46-3.973-1.304-2.024-1.35-2.055-1.394-2.1-1.455-2.099-3.044-4.258-1.574-2.145-1.65-2.19-1.65-2.173-1.724-2.22-1.74-2.204-1.799-2.22-1.83-2.219-1.844-2.25-6.253-7.347-3.074 11.307-1.11 4.003-1.14 3.974-1.17 3.93-1.199 3.853-1.2 3.824-1.26 3.749-1.259 3.689-1.304 3.644-1.32 3.569-1.32 3.524-1.35 3.449-1.349 3.374-1.38 3.299-1.409 3.209-1.395 3.149-1.424 3.074-1.44 2.969-1.44 2.894-1.469 2.82-1.44 2.729-1.469 2.609-1.47 2.549-1.47 2.444-1.469 2.34-1.5 2.249-1.454 2.13-1.47 2.024-1.454 1.92-1.47 1.799-1.454 1.694-1.44 1.575-1.424 1.454-1.44 1.32-1.41 1.2-1.394 1.094-1.38.96-1.38.825-1.349.69-1.32.554-1.32.42-.299.075-.63.12-.33.03-.645.06h-1.02l-.344-.03-.36-.03-.345-.045-.345-.06-.705-.15-.345-.09-.36-.09-.344-.12-.345-.105-.705-.27-1.05-.45-.66-.33-.344-.18-.975-.6-.3-.209-.9-.675-.855-.75-.27-.255-.51-.57-.27-.3-.3-.374-.27-.39-.254-.42-.3-.45-.255-.48-.27-.495-.27-.54-.51-1.139-.51-1.23-.24-.644-.48-1.35-.479-1.41-.21-.75-.225-.75-.42-1.529-.39-1.59-.195-.81-.345-1.649-.33-1.68-.15-.839-.27-1.68-.12-.854-.21-1.68-.074-.84-.15-1.694-.12-1.65-.015-.81-.03-.599-.03-.66v-7.468l.045-1.89.015-.959.03-.96.015-.974.09-2.88.075-1.874.045-.9.03-.9.045-.87.03-.839.06-.81.09-1.5.045-.704.045-.645.045-.6.045-.554.06-.51.045-.45.045-.39.06-.33.045-.27.045-.195.045-.12.045-.06.03.015.03-.015.045.03h.045l.045.03.045.015.15.075.044.045.24.15.075.045.18.12.105.06.105.075.45.3.15.09.105.075.15.09.15.105.12.075.3.21.15.09.45.3.45.33.3.21.3.24 3.748 2.774-.36 8.847-.045.96-.015.99v.974l-.03 1.95v1.95l.045 2.893.06 1.92.045.944.03.93.06.9.06.93.18 2.699.15 1.71.09.839.075.825.195 1.59.21 1.529.12.72.105.704.12.69.12.645.15.66.15.6.12.6.15.554.15.54.15.51.3.9.3.825.33.78.3.75.33.674.344.63.36.57.36.54.36.48.39.45.39.389.42.33.404.3.42.225.45.195.45.12.45.09.45.03h.495l.494-.075.51-.12.54-.18.525-.21.57-.27.57-.33.6-.36.6-.45.629-.48.63-.524.66-.6.66-.63.674-.69.705-.75.72-.794.75-.84.75-.9.75-.945.794-1.004.825-1.05.824-1.095.855-1.154.9-1.305.945-1.35.93-1.424.944-1.455.93-1.53.945-1.574.96-1.65.944-1.694.96-1.724.944-1.8.945-1.844.96-1.89 1.874-3.899.945-2.024.945-2.054.945-2.1.944-2.13.93-2.189.93-2.204.9-2.25.9-2.279.899-2.309.9-2.34 1.8-4.798.899-2.43.855-2.458.87-2.46.854-2.504.84-2.504.825-2.55.81-2.549.794-2.549.78-2.594.78-2.61.75-2.609.75-2.624 1.439-5.278 3.299-12.252-7.648-7.723-3.899-3.898-.6-.57-.27-.3-.3-.27-.3-.3-.27-.255-.27-.3-.539-.525-.24-.255-.99-.93-.21-.21-.21-.224-.42-.39-.18-.195-.18-.18-.18-.15-.45-.45-.149-.12-3.21-2.924-27.666 8.128-2.22.69-2.189.66-2.144.689-2.1.66-2.069.675-2.04.66-2.009.674-1.98.675-1.949.675-3.778 1.32-1.845.69-1.8.66-1.799.674-1.77.69-1.724.675-1.71.69-1.694.704-3.299 1.38-1.62.704-1.589.705-1.574.705-3.09 1.44-2.999 1.5-2.939 1.499-2.879 1.53-1.425.78-1.394.749-1.395.81-2.954 1.47-1.35.824-1.35.84-1.289.794-1.23.795-1.199.795-1.14.78-1.08.75-1.05.75-1.019.75-.945.749-.9.72-.869.75-.81.72-.75.69-.72.704-.674.675-.6.674-.6.66-.525.645-.48.645-.45.63-.39.6-.33.6-.3.6-.239.599-.195.57-.15.54-.105.54-.06.524v.525l.045.495.105.495.15.45.195.45.255.45.3.45.345.42.39.39.45.374.494.375.54.36.6.33.45.24.48.225.525.225.54.225.554.194.6.21.63.195.63.18.675.195.704.18.72.15 1.5.3.78.15.81.15.839.15.855.12.87.12.9.12.899.105 1.874.195.96.075 1.98.15 1.004.06 1.02.045 1.05.06 1.05.03 1.079.03 2.16.03h3.328l1.125-.03 1.14-.015 1.14-.03 1.154-.045 1.17-.06.21-.015.225-.015h.21l.224-.015.42-.03.42-.015h1.26l.21-.015.78-.015.18-.015h.39l.15-.015h.36l.15-.015h.15l.3-.015.15-.015.149.015h.12l.12-.015h.75l.15.045.15.06.15.09.15.105.18.12.18.15.21.15.224.15.21.18.225.21.24.224.945.945.24.255.72.81.24.3.45.554.21.27.42.525.18.27.18.255.329.48.15.24.15.21.195.39.075.18.06.15.045.15.015.15v.104l-.03.09-.045.045-.375.105h-.12l-.3.03-.45.09h-.195l-.42.045-.21.03-.24.015-.24.03h-.254l-.525.045-.555.06-.3.015-.3.045-.93.06-.33.03-.674.06h-.345l-.345.03-1.08.06h-.375l-.345.015-.374.03-1.545.075-1.5.09-1.5.045-1.469.06-1.454.045-2.85.03h-2.744l-1.35-.03h-1.349l-1.305-.06-1.304-.045-2.504-.15-1.23-.105-1.2-.09-1.2-.12-2.309-.27-2.219-.3-1.05-.15-2.1-.39-1.004-.21-.99-.224-.944-.225-.945-.255-1.8-.51-.87-.3-.824-.3-.81-.3-.794-.3-.78-.33-.75-.344-.72-.33-.69-.36-.674-.39-.6-.345-.6-.375-.57-.375-.525-.375-.51-.375-.494-.405-.9-.78-.42-.404-.375-.405-.36-.42-.345-.42-.6-.9-.27-.45-.24-.45-.21-.45-.194-.449-.15-.45-.255-.945-.075-.48-.075-.494-.045-.51-.015-.495.015-.525.03-.525.06-.51.075-.54.105-.54.12-.554.15-.555.18-.555.195-.57.225-.6.254-.6.27-.6.6-1.199.33-.6 1.11-1.754.6-.855.66-.9.704-.87.75-.899.795-.9 1.71-1.77.929-.899.96-.9 1.02-.9 1.05-.9 1.094-.899 1.14-.9 2.399-1.8 1.26-.899 1.349-.9 2.744-1.8 1.44-.899 1.5-.9 1.529-.9 1.56-.899 1.619-.9 1.65-.9 1.694-.9 1.724-.899 1.8-.9 1.83-.9 1.844-.9 1.904-.899 1.95-.9 1.98-.9 2.024-.9 2.069-.899 2.1-.9 2.144-.9 2.19-.9.974-.404 1.05-.42 1.154-.45 2.504-.93 1.35-.51 2.85-1.049 1.499-.525 1.544-.555 1.605-.555 1.604-.57 1.65-.554 1.65-.57 1.679-.57 1.71-.57 1.694-.57 3.389-1.124 8.173-2.64 1.56-.48 1.499-.45 1.44-.449 2.743-.825 1.275-.375 1.2-.345 1.124-.3 1.05-.3.945-.254.87-.21.75-.195.66-.15.554-.12.45-.075.33-.015 2.324-.045-2.354-2.28-.39-.36-.45-.42-.48-.42-.54-.449-.57-.51-.6-.525-.674-.57-.69-.6-.75-.6-.75-.629-.81-.645-.809-.675-.87-.69-1.8-1.409-.899-.72-1.92-1.5-.974-.75-1.98-1.529-2.009-1.53-1.05-.749-1.004-.75-1.02-.75-2.01-1.5-.99-.749-.989-.72-.975-.704-.96-.69-.944-.69-.9-.645-.9-.63-.87-.63-.84-.6-.839-.57-.78-.539-.78-.51-2.309-1.5-1.17-.75-1.139-.719-2.31-1.38-1.154-.674-1.14-.645-2.279-1.26-1.125-.6-1.11-.6-1.109-.57-1.08-.54-2.16-1.019-1.049-.48-2.07-.9-1.004-.404-.99-.405-.974-.375-.96-.345-.9-.33-1.8-.6-.869-.255-.825-.225-.81-.21-.794-.18-.75-.15-.72-.12-.72-.104-.66-.075-.644-.045h-1.17l-.54.045-.51.06-.45.105-.524.15-.495.21-.45.3-.405.33-.345.374-.3.42-.27.48-.225.525-.195.57-.15.63-.09.66-.06.719-.014.75.03.795.075.84.09.9.15.929.18.945.224 1.004.27 1.05.3 1.095.33 1.094.825 2.355.45 1.2.495 1.244.54 1.29.6 1.32.599 1.349.645 1.35.705 1.409.72 1.41.75 1.454.794 1.47.84 1.5.87 1.529.9 1.544.959 1.56.975 1.59 1.004 1.604 4.2 6.643-1.875 4.289-.075.18-.15.33-.075.195-.15.344-.09.15-.075.18-.075.15-.075.18-.06.15-.15.3-.06.15-.15.3-.045.15-.075.15-.15.36-.075.12-.045.105-.195.39-.15.24-.03.06-.045.06-.075.15-.105.104h-.075l-.24-.24-.18-.194-.194-.27-.24-.3-.27-.36-.3-.42-.33-.45-.345-.495-.75-1.124-.405-.6-.42-.645-.45-.675-.48-.735-.944-1.5-.99-1.544-1.5-2.4-.51-.839-.494-.825-.51-.81-.975-1.649-.494-.81-.45-.794-.48-.795-.87-1.5-.42-.75-.405-.704-.375-.69-.374-.645-.33-.6-.6-1.14-.39-.72-.375-.749-.36-.75-.72-1.53-.33-.78-.674-1.574-.9-2.399-.3-.81-.27-.794-.3-.795-.51-1.59-.24-.81-.45-1.56-.42-1.544-.36-1.5-.15-.749-.3-1.44-.12-.704-.209-1.35-.09-.645-.06-.63-.06-.6-.03-.6v-.57l-.015-.539.015-.54v-.495l.09-.93.075-.404.15-.75.105-.36.12-.36.12-.375.12-.345.3-.72.3-.69.36-.689.18-.3.404-.66.21-.3.66-.9.24-.3.48-.554.255-.255.255-.27.255-.24.27-.255.554-.45.27-.21.3-.21.27-.194.57-.36.9-.45.6-.24.6-.195 1.094-.225 1.155-.15 1.2-.105 1.289-.015 1.35.045 1.41.15 1.439.195 1.5.3 1.559.33 1.604.405 1.68.494 1.71.54 1.754.63 1.8.66 1.859.75 1.89.81 1.949.9 1.95.944 2.009.99 2.054 1.05 2.07 1.109 2.099 1.17 2.144 1.244 2.175 1.29 2.189 1.35 2.22 1.41 2.249 1.469 2.249 1.5 2.294 1.574 2.31 1.62 2.324 1.679 2.34 1.724 2.369 1.755 2.369 1.83 2.4 1.874 2.398 1.92 2.4 1.949 2.399 2.009 2.4 2.054 2.399 2.1 8.127 7.228 11.172-2.325 1.68-.3 1.604-.3.78-.15 1.124-.224.36-.045.69-.15.33-.06.645-.105.6-.105.3-.045.27-.045.524-.075.24-.03.225-.045.225-.03.405-.06.18-.015h.99l.12-.03.15-.06.12-.06.15-.09.24-.24.104-.15.12-.15.105-.195.105-.225.09-.24.12-.27.105-.3.09-.33.09-.344.09-.375.09-.405.105-.42.075-.45.09-.48.075-.51.09-.54.075-.6.09-.599.075-.645.075-.66.09-.704.075-.75.06-.75.075-.795.075-.84.075-.87.075-.899.075-.945.06-.974.075-1.02.075-1.05.075-1.095.06-1.124.09-1.65.075-1.65.06-1.589.09-3.149v-4.499l-.03-1.454-.03-1.44-.12-2.774-.075-1.35-.105-1.32-.105-1.289-.12-1.26-.15-1.229-.15-1.2-.15-1.154-.15-1.125-.195-1.08-.18-1.05-.21-1.004-.225-.975-.225-.93-.24-.9-.255-.854-.255-.81-.3-.78-.3-.72-.3-.704-.3-.63-.33-.6-.329-.555-.345-.51-.345-.45-.36-.404-.375-.36-.374-.3-.405-.255-.39-.195-.45-.15-.45-.165-.45-.075-.45-.03-.45.015-.45.09-.494.075-.51.15-.51.18-.525.21-1.08.6-.554.36-.57.39-.57.45-.6.48-.6.524-.6.57-.6.6-.6.66-.659.69-.645.72-.66.75-.674.824-.69.84-.675.9-.705.93-.72.959-.704 1.05-.75 1.05-.75 1.079-.75 1.155-.75 1.17-.75 1.199-.75 1.26-.794 1.29-1.59 2.698-.81 1.425-7.077 12.371-4.649.6-.15.015-.18.015h-2.204l-.15-.015h-.105l-.105-.015-.3-.06h-.15l-.15-.06h-.06l-.15-.09-.045-.03-.015-.045-.03-.03-.015-.06v-.045l.03-.18.045-.225.09-.3.105-.33.15-.36.15-.42.18-.45.225-.479.21-.555.255-.555.27-.6.3-.6.3-.644.3-.66.33-.675.36-.705.704-1.47.75-1.499.39-.75.39-.78 1.2-2.279.42-.75.404-.75.39-.749.42-.75.78-1.41.39-.674.375-.66.374-.63.375-.6.345-.6.33-.54.33-.509.3-.495.3-.45.66-.974 1.32-1.905.644-.9 1.29-1.77 1.244-1.649.63-.81 1.83-2.294.6-.72.6-.69.6-.674.599-.645 1.17-1.23.6-.6 1.14-1.11.569-.509 1.11-.99 1.11-.9.554-.42.54-.404.6-.51 1.05-.675.54-.3.524-.3.525-.27.51-.24.54-.224.495-.225.51-.18.51-.15.494-.15.63-.15.33-.06.3-.03.33-.03.66-.03h.344l.345.015.33.03.03.015zm.6 80.931l-1.74.345-1.874.45-1.8.525-1.499.51-1.14.45-.675.39-.12.3 1.71 1.904 2.55 2.624 2.728 2.67 2.22 2.054 1.05.81.24-.39.33-.945.39-1.425.45-1.8.419-2.054.42-2.354.225-1.844v-1.305l-.195-.84-.405-.36-.66-.06-1.124.09-1.5.225v.03zm-73.029-.18l-6.508 2.52 1.95-3.63c2.519-4.753 8.697-11.741 13.856-15.655.27-.225 1.62-1.29 4.078-3.224l3.48 2.46c1.904 1.349 3.523 2.654 3.598 2.999.075.27-1.244 1.5-2.909 2.549-1.74 1.14-4.918 3.749-7.093 5.788-2.759 2.7-5.788 4.469-10.452 6.208v-.015zm37.34 87.935c-16.196-2.16-31.731-11.997-41.044-26.093-3.943-6.028-8.697-19.42-8.997-25.267-.18-3.524.105-3.9 3.644-5.549 2.1-.945 3.929-1.65 4.139-1.59.15.15.75 3.57 1.2 7.738 1.649 13.436 10.076 26.813 21.833 34.415 6.478 4.29 15.895 7.498 22.763 7.888 2.67.15 4.949.6 4.994.9.105.375-.645 2.31-1.65 4.424l-1.77 3.898-5.143-.75.03-.014zm6.447-115.047c-2.924-2.909 13.946-.75 22.899 3 5.128 2.099 5.518 2.399 5.158 4.723-.27 1.95-8.952 2.804-14.186 1.38-3.748-1.02-9.642-4.889-13.87-9.088v-.015zm37.16 90.619c2.354-2.49 4.903-5.699 5.548-6.898 1.59-3.15 2.25-3.15 4.139-.54.84 1.32 2.024 2.85 2.609 3.674.75.96.015 2.504-2.444 5.698-5.953 7.798-19.555 18.265-18.415 14.156 2.07-6.748 4.799-12.071 8.578-16.075l-.015-.015zm17.245-36.665c-2.91-3.599-4.35-6.418-5.354-10.227-2.52-9.402 1.35-18.114 4.859-11.201 1.98 3.749 4.918 15.49 5.353 21.099.255 2.744.12 5.098-.15 5.188-.36.09-2.4-2.174-4.693-4.859h-.015z" stroke="null"/></svg>