<svg version="1.0" xmlns="http://www.w3.org/2000/svg" width="933.333" height="933.333" viewBox="0 0 700 700"><path d="M65.7 1.6C39.6 6.3 16.7 25 6.2 50.2-.4 66 0 47.2 0 350c0 302.5-.4 284 6.1 299.6 10 24 29.9 41.2 55.4 48 6.8 1.8 16.8 1.9 288.5 1.9s281.7-.1 288.5-1.9c29.3-7.8 50.6-28.9 59.1-58.6 1.8-6.3 1.9-16.7 2.2-285 .3-306.9.6-287.9-5.9-303.6-9.9-23.7-29.2-40.7-54.9-48C632.7.6 622.5.5 353 .3 115.2.2 72.3.4 65.7 1.6zm361.2 46.5c12.2 2.8 22.8 11.2 28 22.1 1.6 3.5 4.3 11.4 6 17.7 9 32.4 11 67.5 6.6 115.1-.8 8.5-1.5 19-1.5 23.2v7.8h5.8c3.1 0 14-.7 24.2-1.5 21.6-1.7 61.8-1.9 77.5-.5 24 2.2 41.5 6.4 55.1 13 9.8 4.8 15.8 9.9 20.4 17.6 3.3 5.5 3.5 6.4 3.5 14.4 0 7.5-.4 9.3-3.3 15.5-7.7 16.4-26.2 35-51.7 52.2-16.4 11-65.6 37.3-69.8 37.3-1.9 0-2-.5-1.4-7.3.7-8 3.1-17.1 5-18.7.7-.6 9.2-5.3 18.9-10.5 29.8-15.8 48.4-28.4 63.9-43.2 10-9.6 14.1-16.3 14.1-23 0-7.9-7-14.5-19.9-18.6-17.5-5.7-34.4-7.1-75.2-6.4-30.9.5-44.4 1.5-62.6 4.5l-9.9 1.7-5.7 31.5c-4.6 24.9-5.5 31.8-4.6 33 .7.8 6.4 7.6 12.7 15 29.1 34 47 56.5 62.8 79 33.3 47.4 54.3 95.6 54.6 125 0 8.3-.3 10.2-2.6 15.3-3.6 7.6-11.5 15.9-18.1 18.8-6.5 2.8-18 3.6-28.5 1.9-19.5-3.1-51.6-16.2-76.7-31.3-13.7-8.2-40.9-26.3-42.4-28.1-1-1.2-.6-1.9 2.6-3.8 4.3-2.7 15.5-7.8 17.1-7.8.6 0 11.5 6.1 24.4 13.7 56.4 33 85.9 42.7 97.4 32 19.7-18.4-23.6-101.3-100-191-5.5-6.4-10.3-11.7-10.6-11.7-.4 0-2.8 8-5.5 17.7-24.2 89.5-51.6 159.2-83.6 212.8-27.9 46.7-55.8 72.3-76.6 70.2-10.3-1.1-23.4-9.1-28.8-17.7-5.4-8.5-11.9-29.3-15.1-48-2.2-13.2-2.9-45.9-1.5-73.7.6-12.8 1.4-24 1.8-24.8.8-2.2 2.1-1.5 12.5 5.8l8.8 6.2-.6 25.5c-1.4 57.1 5.1 92.7 18.5 101.7 10 6.8 23.6-2.5 44.1-29.9 21.2-28.3 43.2-71.5 63-123.8 9.1-24.1 17.4-48.1 23.6-68.5 6.7-21.8 20.4-71.9 20.4-74.3 0-1.4-29-31-49-50l-5.6-5.2-40.4 11.9c-96.9 28.6-134.1 42.7-185.8 70.6-31.8 17.1-51.6 31-62.2 43.6-17.3 20.6-9.8 33.5 23 39.9 16.7 3.3 30.5 4.1 62.3 3.9l30.8-.3 5 5c5.7 5.5 10.9 12.5 10.9 14.7 0 2-7.1 2.5-45 3.3-32.6.7-48.9-.4-67.5-4.2-24.6-5-44-16-50.6-28.5-3.3-6.1-3.3-17.9 0-26.2 4.9-12.5 20.3-30.7 36.6-43.3 38.2-29.5 95-56.3 179.2-84.4 45.2-15 68.2-21.9 77.2-22.8l6.5-.7-7-6.4c-16.3-15.1-65.7-52.9-90.9-69.6-39.1-26-78.1-42.6-96.6-41.3-10.2.7-13.6 6.1-12.6 20.2 1.4 20.4 13.9 49.1 38.6 88.5 5.5 8.9 10.1 16.7 10.1 17.5 0 1.2-7.6 18.7-9.3 21.4-.5.7-1.3.9-1.9.6-3.1-1.9-31.6-48-40.8-65.9-12.2-23.9-20.8-54.2-19.8-70.2.9-12.9 9.4-26 20.5-31.4 7-3.5 22.7-3.3 37.2.5 47.5 12.3 113.2 53.6 181.9 114.4l16.3 14.4 25.2-5.1c13.9-2.8 27.8-5.3 31-5.7 5-.6 6-1.1 7.2-3.5 6-11.6 9.4-91.3 5.2-120.4-3.2-21.2-7.7-35-13.7-41.3-7.2-7.6-18-4.6-31 8.6-13.2 13.4-25.6 31.9-48 71.4-5.2 9.2-10.2 17-11 17.3-.8.4-5.9.9-11.4 1.2l-9.9.6.6-3.4c.9-4.5 18.8-40.5 27.2-54.4 17-28.5 42-56.6 57.5-64.5 9.3-4.8 15-5.8 22.9-3.9zm-59.5 141.4c19 2.9 46.6 11.5 51.8 16.2 2.6 2.3 2.3 6.9-.5 8.8-4.1 2.7-16.7 4-27 2.8-11.1-1.3-16.2-3.5-28.7-11.8-11.7-7.8-19.2-15.1-17-16.5 2.2-1.4 10.1-1.2 21.4.5zm-92.1 29.7c3.7 2.8 6.7 5.6 6.7 6.3 0 .8-4.2 4.5-9.2 8.3-5.1 3.8-12.8 10.1-17.2 14-4.3 3.9-10.5 8.5-13.8 10.2-6.3 3.4-30.1 13-30.7 12.4-.7-.6 7.1-13.7 12.6-21.2 7.1-9.7 20.3-22.9 31.3-31.5 9.6-7.6 7.5-7.8 20.3 1.5zm212.5 56.1c6.7 7.1 17.2 48.5 17.2 67.6v7.4l-2.6-2.4c-11.4-10.4-21.7-26.7-24.9-39.4-1.7-6.7-2-22.3-.5-27.4 2.3-8 6.6-10.3 10.8-5.8zm-273.5 69.5c.3.4 1.5 7.3 2.6 15.4 1.2 8.1 3.3 18.7 4.7 23.5 9.3 32.3 34.3 63.2 63.9 79 16.6 8.8 31.6 13.4 51.1 15.8 7.1.9 13.3 2 13.7 2.5.8.7-6.5 19.4-8.3 21.3-1.2 1.3-22.2-2.2-35.2-5.9-37.7-10.7-75.7-40.3-93.2-72.4-10.9-20.1-22.1-58-19.9-67.1.9-3.9 2.3-5 10.8-9 8.6-4.1 9.1-4.3 9.8-3.1zm259.2 73.6c3.1 4.2 5.5 8.6 5.5 9.9 0 3.7-9.2 15.9-20.2 26.8-15.4 15.3-33.2 27.9-35.7 25.3-1.4-1.3 5.9-20 11.3-29.3 2.5-4.2 8.4-12.1 13.1-17.6 4.8-5.5 10.5-12.8 12.7-16.3 2.6-3.9 4.8-6.2 5.9-6.2 1.2 0 4 2.8 7.4 7.4z"/><path d="M417.5 266.4c-11.2 2.9-16.5 5.1-16.5 6.8 0 1.4 25.3 26.8 26.8 26.8 2.3 0 8.3-31 6.5-33.8-1.5-2.5-6.7-2.4-16.8.2z"/></svg>