<?xml version="1.0" standalone="no"?>
<!DOCTYPE svg PUBLIC "-//W3C//DTD SVG 20010904//EN"
 "http://www.w3.org/TR/2001/REC-SVG-20010904/DTD/svg10.dtd">
<svg version="1.0" xmlns="http://www.w3.org/2000/svg"
 width="700.000000pt" height="700.000000pt" viewBox="0 0 700.000000 700.000000"
 preserveAspectRatio="xMidYMid meet">
<metadata>
Created by potrace 1.11, written by Peter Selinger 2001-2013
</metadata>
<g transform="translate(0.000000,700.000000) scale(0.100000,-0.100000)"
fill="#000000" stroke="none">
<path d="M657 6984 c-261 -47 -490 -234 -595 -486 -66 -158 -62 30 -62 -2998
0 -3025 -4 -2840 61 -2996 100 -240 299 -412 554 -480 68 -18 168 -19 2885
-19 2717 0 2817 1 2885 19 293 78 506 289 591 586 18 63 19 167 22 2850 3
3069 6 2879 -59 3036 -99 237 -292 407 -549 480 -63 18 -165 19 -2860 21
-2378 1 -2807 -1 -2873 -13z m3612 -465 c122 -28 228 -112 280 -221 16 -35 43
-114 60 -177 90 -324 110 -675 66 -1151 -8 -85 -15 -190 -15 -232 l0 -78 58 0
c31 0 140 7 242 15 216 17 618 19 775 5 240 -22 415 -64 551 -130 98 -48 158
-99 204 -176 33 -55 35 -64 35 -144 0 -75 -4 -93 -33 -155 -77 -164 -262 -350
-517 -522 -164 -110 -656 -373 -698 -373 -19 0 -20 5 -14 73 7 80 31 171 50
187 7 6 92 53 189 105 298 158 484 284 639 432 100 96 141 163 141 230 0 79
-70 145 -199 186 -175 57 -344 71 -752 64 -309 -5 -444 -15 -626 -45 l-99 -17
-57 -315 c-46 -249 -55 -318 -46 -330 7 -8 64 -76 127 -150 291 -340 470 -565
628 -790 333 -474 543 -956 546 -1250 0 -83 -3 -102 -26 -153 -36 -76 -115
-159 -181 -188 -65 -28 -180 -36 -285 -19 -195 31 -516 162 -767 313 -137 82
-409 263 -424 281 -10 12 -6 19 26 38 43 27 155 78 171 78 6 0 115 -61 244
-137 564 -330 859 -427 974 -320 197 184 -236 1013 -1000 1910 -55 64 -103
117 -106 117 -4 0 -28 -80 -55 -177 -242 -895 -516 -1592 -836 -2128 -279
-467 -558 -723 -766 -702 -103 11 -234 91 -288 177 -54 85 -119 293 -151 480
-22 132 -29 459 -15 737 6 128 14 240 18 248 8 22 21 15 125 -58 l88 -62 -6
-255 c-14 -571 51 -927 185 -1017 100 -68 236 25 441 299 212 283 432 715 630
1238 91 241 174 481 236 685 67 218 204 719 204 743 0 14 -290 310 -490 500
l-56 52 -404 -119 c-969 -286 -1341 -427 -1858 -706 -318 -171 -516 -310 -622
-436 -173 -206 -98 -335 230 -399 167 -33 305 -41 623 -39 l308 3 50 -50 c57
-55 109 -125 109 -147 0 -20 -71 -25 -450 -33 -326 -7 -489 4 -675 42 -246 50
-440 160 -506 285 -33 61 -33 179 0 262 49 125 203 307 366 433 382 295 950
563 1792 844 452 150 682 219 772 228 l65 7 -70 64 c-163 151 -657 529 -909
696 -391 260 -781 426 -966 413 -102 -7 -136 -61 -126 -202 14 -204 139 -491
386 -885 55 -89 101 -167 101 -175 0 -12 -76 -187 -93 -214 -5 -7 -13 -9 -19
-6 -31 19 -316 480 -408 659 -122 239 -208 542 -198 702 9 129 94 260 205 314
70 35 227 33 372 -5 475 -123 1132 -536 1819 -1144 l163 -144 252 51 c139 28
278 53 310 57 50 6 60 11 72 35 60 116 94 913 52 1204 -32 212 -77 350 -137
413 -72 76 -180 46 -310 -86 -132 -134 -256 -319 -480 -714 -52 -92 -102 -170
-110 -173 -8 -4 -59 -9 -114 -12 l-99 -6 6 34 c9 45 188 405 272 544 170 285
420 566 575 645 93 48 150 58 229 39z m-595 -1414 c190 -29 466 -115 518 -162
26 -23 23 -69 -5 -88 -41 -27 -167 -40 -270 -28 -111 13 -162 35 -287 118
-117 78 -192 151 -170 165 22 14 101 12 214 -5z m-921 -297 c37 -28 67 -56 67
-63 0 -8 -42 -45 -92 -83 -51 -38 -128 -101 -172 -140 -43 -39 -105 -85 -138
-102 -63 -34 -301 -130 -307 -124 -7 6 71 137 126 212 71 97 203 229 313 315
96 76 75 78 203 -15z m2125 -561 c67 -71 172 -485 172 -676 l0 -74 -26 24
c-114 104 -217 267 -249 394 -17 67 -20 223 -5 274 23 80 66 103 108 58z
m-2735 -695 c3 -4 15 -73 26 -154 12 -81 33 -187 47 -235 93 -323 343 -632
639 -790 166 -88 316 -134 511 -158 71 -9 133 -20 137 -25 8 -7 -65 -194 -83
-213 -12 -13 -222 22 -352 59 -377 107 -757 403 -932 724 -109 201 -221 580
-199 671 9 39 23 50 108 90 86 41 91 43 98 31z m2592 -736 c31 -42 55 -86 55
-99 0 -37 -92 -159 -202 -268 -154 -153 -332 -279 -357 -253 -14 13 59 200
113 293 25 42 84 121 131 176 48 55 105 128 127 163 26 39 48 62 59 62 12 0
40 -28 74 -74z"/>
<path d="M4175 4336 c-112 -29 -165 -51 -165 -68 0 -14 253 -268 268 -268 23
0 83 310 65 338 -15 25 -67 24 -168 -2z"/>
</g>
</svg>
