<svg width="175.43" height="174.86" viewBox="5.143 232.57 175.43 174.86" xmlns="http://www.w3.org/2000/svg"><path d="m180.57 320c0 48.57-38.86 87.43-87.43 87.43s-87.43-38.86-87.43-87.43 38.86-87.43 87.43-87.43c48 0 87.43 38.86 87.43 87.43z" fill="#f4b960"/><path d="M162.86 311.43c0 43.43-35.43 78.86-78.86 78.86S5.14 354.86 5.14 311.43 40.57 232.57 84 232.57s78.86 35.43 78.86 78.86z" fill="#e66f32"/><path d="m163.43 301.14c0 37.72-30.86 68.57-68.57 68.57-37.72 0-68.57-30.85-68.57-68.57 0-37.71 30.85-68.57 68.57-68.57 37.71 0 68.57 30.86 68.57 68.57z" fill="#e43c41"/><path d="m162.86 306.29c0 34.85-28 62.85-62.86 62.85s-62.86-28-62.86-62.85c0-34.86 28.57-62.86 62.86-62.86 34.86 0 62.86 28 62.86 62.86z" fill="#bdd041"/><path d="M154.29 311.43c0 32-26.29 58.28-58.29 58.28s-58.29-26.28-58.29-58.28S63.43 253.14 96 253.14c32 0 58.29 26.29 58.29 58.29z" fill="#6db54c"/><path d="m134.86 301.71c0 26.86-21.72 48.58-48.57 48.58-26.86 0-48.58-21.72-48.58-48.58 0-26.85 21.72-48.57 48.58-48.57 26.85 0 48.57 21.72 48.57 48.57z" fill="#aedae6"/><path d="m135.43 293.71c0 22.86-18.29 41.15-41.14 41.15-22.86 0-41.15-18.29-41.15-41.15 0-22.85 18.29-41.14 41.15-41.14 22.85 0 41.14 18.29 41.14 41.14z" fill="#56b8de"/><path d="m135.43 299.43c0 20-16 36-36 36s-36-16-36-36 16-36 36-36 36 16 36 36z" fill="#00b1d5"/><path d="m125.14 304.57c0 17.14-13.71 30.86-30.85 30.86-17.15 0-30.86-13.72-30.86-30.86s13.71-30.86 30.86-30.86c17.14 0 30.85 13.72 30.85 30.86z" fill="#221f1f"/><path d="m110.86 284c2.85 1.14 4 6.29 1.71 11.43-2.28 5.14-6.28 7.43-9.71 6.28-3.43-1.14-4-6.28-1.72-11.42 2.29-5.15 6.29-7.43 9.72-6.29z" fill="#fff"/></svg>