<?xml version="1.0" encoding="UTF-8" standalone="no"?>
<!DOCTYPE svg PUBLIC "-//W3C//DTD SVG 1.1//EN" "http://www.w3.org/Graphics/SVG/1.1/DTD/svg11.dtd">
<svg version="1.1" xmlns="http://www.w3.org/2000/svg" xmlns:xlink="http://www.w3.org/1999/xlink" preserveAspectRatio="xMidYMid meet" viewBox="0 0 256 256" width="256" height="256"><defs><path d="M160.23 0.31L160.64 0.39L161.03 0.49L161.42 0.6L161.84 0.72L162.64 0.99L163.03 1.17L163.44 1.33L164.21 1.68L164.59 1.85L165.34 2.25L166.09 2.69L167.17 3.43L168.2 4.25L168.84 4.83L169.46 5.44L169.75 5.78L169.92 5.99L170.08 6.21L170.25 6.41L170.43 6.66L170.6 6.85L170.94 7.3L171.11 7.54L171.28 7.76L171.57 8.22L171.87 8.74L172.15 9.25L172.42 9.79L172.55 10.08L172.81 10.69L172.94 11.04L173.1 11.37L173.22 11.72L173.36 12.05L173.48 12.45L173.62 12.84L173.73 13.23L174.01 14.09L174.14 14.53L174.28 15L174.45 15.51L175.52 19.52L175.7 20.2L175.93 21.13L176.15 22.06L176.56 23.98L176.74 24.98L176.93 25.95L177.11 26.98L177.42 29.02L177.58 30.04L177.72 31.11L177.84 32.16L177.96 33.26L178.07 34.35L178.16 35.46L178.25 36.57L178.32 37.71L178.4 38.86L178.58 42.36L178.65 47.26L178.59 51.06L178.48 53.66L178.46 54.99L178.37 56.32L178.3 57.68L178.13 60.41L178.01 61.81L177.91 63.21L177.47 67.98L177.43 68.42L177.39 68.87L177.35 69.33L177.28 70.21L177.21 71.07L177.18 71.47L177.12 72.29L177.1 72.67L177.07 73.07L177.07 73.45L177.04 73.79L177.03 74.16L177.03 74.85L176.97 75.48L176.97 75.77L176.96 76.08L176.92 76.63L176.92 77.13L176.92 77.35L176.92 77.78L176.9 78.13L176.92 78.29L176.92 78.43L176.92 78.57L176.92 78.67L176.92 78.75L176.92 78.83L176.93 78.89L176.96 78.93L176.97 78.93L177 78.93L177.06 78.94L178.19 78.94L178.43 78.93L178.66 78.93L178.91 78.93L179.19 78.93L179.77 78.89L180.4 78.86L180.74 78.83L181.45 78.83L182.24 78.78L182.64 78.78L183.04 78.74L183.46 78.71L183.9 78.67L184.37 78.64L184.83 78.64L185.27 78.6L185.75 78.57L186.26 78.51L186.77 78.49L187.26 78.49L188.27 78.42L188.78 78.36L189.84 78.28L190.35 78.22L192.73 78.06L195.07 77.89L197.39 77.75L201.89 77.57L204.11 77.53L206.26 77.49L208.38 77.49L210.46 77.49L212.51 77.53L214.51 77.57L218.38 77.75L220.25 77.89L222.08 78.02L223.86 78.19L225.62 78.36L227.33 78.57L228.98 78.79L230.58 79.04L232.17 79.32L233.66 79.61L235.15 79.94L236.56 80.29L237.92 80.63L239.25 81.01L240.54 81.41L241.76 81.83L242.95 82.27L244.1 82.73L245.17 83.2L246.19 83.71L247.18 84.23L248.11 84.77L248.95 85.33L249.81 85.93L250.58 86.53L251.28 87.14L251.94 87.79L252.56 88.47L252.79 88.76L253.25 89.33L253.46 89.59L253.65 89.88L253.83 90.17L254 90.45L254.34 90.96L254.51 91.25L254.94 92.04L255.08 92.32L255.19 92.58L255.29 92.86L255.57 93.67L255.73 94.23L255.84 94.79L255.9 95.07L255.93 95.37L255.97 95.65L255.97 95.94L256 96.55L256 96.85L255.97 97.46L255.94 97.81L255.91 98.15L255.9 98.49L255.79 99.17L255.72 99.51L255.65 99.89L255.61 100.23L255.47 100.83L255.29 101.43L255.09 102.04L254.87 102.65L254.61 103.28L254.32 103.93L254.01 104.56L253.68 105.24L253.3 105.89L252.89 106.57L252.46 107.25L252.02 107.94L251 109.3L249.91 110.7L249.3 111.38L248.7 112.1L246.68 114.21L245.97 114.94L244.48 116.37L243.69 117.1L242.05 118.53L241.19 119.27L239.44 120.71L238.54 121.43L237.6 122.12L234.7 124.24L233.68 124.93L231.6 126.29L230.55 126.97L229.48 127.65L228.83 128.07L228.15 128.47L227.43 128.9L226.71 129.34L225.94 129.79L225.16 130.23L223.52 131.15L222.67 131.66L221.81 132.13L220.97 132.6L220.11 133.11L218.36 134.07L217.47 134.53L216.62 135L215.73 135.47L214.02 136.37L213.18 136.81L212.32 137.23L211.5 137.66L209.94 138.45L208.48 139.16L207.76 139.5L207.11 139.85L206.48 140.13L205.89 140.42L205.33 140.68L204.82 140.9L204.36 141.07L203.92 141.24L203.57 141.42L203.24 141.51L202.95 141.61L202.74 141.67L202.57 141.71L202.49 141.67L202.42 141.6L202.35 141.5L202.3 141.36L202.25 141.19L202.21 141.02L202.2 140.79L202.16 140.56L202.16 140.31L202.18 140.02L202.18 139.67L202.2 139.37L202.23 139.03L202.25 138.69L202.34 137.94L202.38 137.56L202.56 136.37L202.63 135.96L202.8 135.15L202.88 134.75L203.05 133.99L203.16 133.6L203.24 133.23L203.36 132.89L203.45 132.55L203.56 132.21L203.68 131.91L203.89 131.35L203.99 131.1L204.11 130.88L204.22 130.67L204.33 130.51L204.45 130.33L204.55 130.23L204.65 130.15L204.82 130.08L205 129.99L205.08 129.93L205.2 129.86L205.3 129.8L205.42 129.76L205.55 129.69L205.83 129.51L206.14 129.37L206.3 129.28L206.48 129.21L206.82 129L207.37 128.73L207.74 128.53L208.13 128.3L208.54 128.1L209.17 127.76L209.38 127.64L209.8 127.42L210.02 127.29L210.45 127.07L210.68 126.97L210.89 126.86L211.11 126.75L211.33 126.64L211.56 126.53L213.9 125.34L215.03 124.73L216.17 124.08L217.31 123.47L218.41 122.86L219.5 122.22L221.65 120.94L222.67 120.33L224.71 119.05L225.71 118.41L226.68 117.78L227.65 117.14L228.59 116.51L229.51 115.86L230.41 115.25L231.29 114.62L233 113.36L233.8 112.75L234.58 112.13L235.35 111.52L236.1 110.91L237.53 109.7L238.21 109.11L239.47 107.95L240.62 106.81L241.65 105.7L242.12 105.16L242.58 104.64L242.99 104.13L243.38 103.62L243.73 103.12L244.34 102.12L244.57 101.65L244.81 101.14L245.02 100.68L245.18 100.22L245.32 99.75L245.42 99.31L245.49 98.86L245.53 98.42L245.53 97.57L245.48 97.14L245.39 96.74L245.27 96.37L245.14 95.97L244.96 95.58L244.77 95.2L244.52 94.86L243.98 94.15L243.3 93.47L242.48 92.82L242.04 92.51L241.55 92.21L240.54 91.63L239.38 91.06L238.74 90.81L238.06 90.55L237.38 90.31L236.66 90.07L235.94 89.84L235.15 89.59L234.34 89.37L233.5 89.17L232.64 88.99L231.75 88.83L230.95 88.66L230.1 88.48L229.2 88.35L228.22 88.25L227.19 88.11L226.11 88.01L225 87.91L223.86 87.83L222.67 87.73L221.44 87.65L220.18 87.58L217.59 87.48L216.23 87.43L214.87 87.4L213.5 87.4L210.65 87.36L209.24 87.37L207.79 87.37L203.41 87.43L201.96 87.48L200.49 87.54L199.03 87.57L197.6 87.65L196.14 87.7L194.71 87.8L193.32 87.89L191.9 87.99L190.54 88.08L187.87 88.31L186.57 88.44L185.29 88.58L184.07 88.7L181.67 89.05L180.56 89.22L174.74 90.1L172.36 103.45L169.86 116.8L181.45 130.33L183.22 132.46L184.98 134.56L186.69 136.61L188.35 138.66L189.97 140.7L191.57 142.71L193.09 144.69L194.59 146.64L196.07 148.57L197.51 150.5L198.91 152.37L200.27 154.25L201.6 156.12L202.88 157.94L204.13 159.77L206.51 163.35L207.65 165.11L208.76 166.84L209.82 168.55L210.84 170.25L211.83 171.93L212.79 173.59L213.7 175.21L214.59 176.85L215.44 178.47L216.27 180.05L217.03 181.63L217.76 183.15L218.47 184.69L219.15 186.23L219.79 187.73L220.4 189.25L220.97 190.72L221.51 192.19L222.02 193.66L222.49 195.09L222.92 196.5L223.32 197.92L223.57 198.8L223.78 199.66L224.02 200.51L224.18 201.33L224.36 202.11L224.53 202.88L224.7 203.63L224.84 204.38L224.97 205.06L225.07 205.75L225.19 206.43L225.26 207.11L225.33 207.73L225.38 208.37L225.42 208.98L225.45 209.56L225.45 210.7L225.4 211.79L225.35 212.3L225.28 212.82L225.19 213.33L224.99 214.31L224.85 214.77L224.68 215.26L224.34 216.14L224.14 216.59L223.93 217L223.71 217.45L223.48 217.88L222.96 218.73L222.67 219.14L222.37 219.55L222.02 219.96L221.69 220.36L221.34 220.76L220.83 221.33L220.32 221.83L219.77 222.34L219.19 222.78L218.6 223.2L217.99 223.59L217.34 223.93L216.66 224.27L215.98 224.56L215.26 224.79L214.52 225.02L212.96 225.36L212.1 225.48L211.25 225.57L210.39 225.57L208.56 225.57L207.6 225.5L206.63 225.43L205.61 225.29L204.58 225.12L203.53 224.96L202.41 224.74L201.3 224.47L200.13 224.2L197.75 223.52L196.5 223.14L195.23 222.72L193.91 222.27L192.58 221.77L191.22 221.26L189.82 220.71L188.39 220.12L186.92 219.5L183.86 218.14L182.29 217.4L180.7 216.63L180.15 216.38L179.56 216.09L178.93 215.74L178.25 215.41L177.54 215.03L176.8 214.61L176.03 214.18L175.25 213.73L174.43 213.26L171.87 211.72L171.02 211.18L170.12 210.67L168.35 209.56L167.45 209.02L166.54 208.45L165.69 207.87L164.8 207.33L163.1 206.23L162.25 205.68L161.45 205.16L160.66 204.65L159.89 204.14L159.17 203.63L158.49 203.15L157.81 202.7L157.19 202.28L156.62 201.85L156.11 201.46L155.6 201.12L155.17 200.78L154.79 200.49L154.49 200.2L154.21 199.98L154.05 199.77L153.91 199.61L153.84 199.48L153.84 199.48L153.85 199.41L153.89 199.32L153.98 199.23L153.98 199.16L154.07 199.05L154.25 198.94L154.59 198.67L154.7 198.6L154.81 198.51L154.92 198.44L155.03 198.37L155.15 198.29L155.29 198.21L155.43 198.14L155.54 198.05L155.82 197.89L155.99 197.8L156.15 197.73L156.29 197.63L156.97 197.29L157.15 197.18L157.32 197.1L157.48 197.03L157.86 196.86L158.2 196.69L162.67 194.81L178.23 203.93L179.8 204.82L181.34 205.68L182.84 206.52L184.32 207.33L185.75 208.08L187.16 208.81L189.89 210.17L191.22 210.81L192.48 211.39L193.74 211.94L194.98 212.46L196.17 212.94L197.32 213.4L198.44 213.8L199.52 214.18L200.59 214.52L201.62 214.83L202.6 215.1L203.56 215.34L204.49 215.55L205.37 215.71L206.22 215.85L207.04 215.98L207.83 216.02L208.56 216.02L209.28 216.02L209.97 215.98L210.63 215.91L211.21 215.8L211.79 215.63L212.34 215.45L212.86 215.24L213.32 214.98L213.73 214.69L214.13 214.38L214.47 214.01L214.77 213.62L215.05 213.18L215.42 212.43L215.7 211.57L215.87 210.67L215.98 209.64L216.01 208.57L215.95 207.38L215.81 206.15L215.62 204.82L215.31 203.46L214.97 201.99L214.52 200.45L214.01 198.87L213.41 197.22L212.76 195.52L212.04 193.74L211.24 191.92L210.38 190.04L209.45 188.1L208.42 186.11L207.34 184.1L206.22 182L205.03 179.88L203.77 177.72L202.45 175.5L199.66 170.98L198.18 168.68L196.64 166.35L195.06 163.97L193.4 161.57L189.95 156.73L188.16 154.3L186.27 151.81L184.4 149.33L182.45 146.81L180.47 144.31L178.43 141.79L176.35 139.27L174.24 136.71L167.13 128.36L163.64 141.21L162.38 145.76L161.09 150.28L159.76 154.74L158.4 159.12L157.03 163.47L155.6 167.73L154.17 171.93L152.69 176.07L151.18 180.12L149.68 184.13L148.14 188.05L146.62 191.89L145.05 195.63L143.44 199.29L141.86 202.86L140.24 206.36L138.6 209.73L136.97 213.02L135.29 216.23L133.66 219.33L131.99 222.3L130.32 225.19L128.65 227.97L126.98 230.63L125.27 233.18L123.62 235.61L121.94 237.91L120.29 240.08L118.63 242.13L116.97 244.06L115.33 245.85L113.71 247.5L112.09 249.01L110.48 250.37L108.9 251.61L107.32 252.7L105.75 253.64L104.23 254.43L102.72 255.05L101.22 255.54L100.89 255.62L100.17 255.76L99.79 255.79L99.06 255.86L97.89 255.86L97.51 255.83L97.1 255.79L96.7 255.73L96.31 255.66L95.51 255.5L95.12 255.4L94.71 255.29L94.32 255.15L93.93 255.04L93.12 254.73L91.93 254.22L91.18 253.85L90.78 253.64L89.69 252.96L89.34 252.72L88.32 251.95L87.35 251.1L87.04 250.81L86.46 250.16L86.15 249.83L85.81 249.4L85.5 248.95L85.21 248.47L84.88 247.97L84.59 247.42L84.28 246.86L83.98 246.24L83.39 244.95L82.81 243.55L82.54 242.81L81.99 241.29L81.45 239.68L81.21 238.82L80.95 237.98L80.48 236.24L80.04 234.43L79.82 233.51L79.42 231.64L79.04 229.73L78.88 228.77L78.57 226.86L78.43 225.89L78.2 223.98L78.11 223.03L77.93 221.1L77.81 219.22L77.78 218.31L77.75 217.63L77.71 216.88L77.71 208.38L77.77 206.23L77.78 205.15L77.82 204.06L77.84 202.95L77.93 199.68L78.03 197.54L78.07 196.52L78.11 195.5L78.16 194.51L78.2 193.55L78.26 192.63L78.36 190.93L78.42 190.13L78.46 189.39L78.52 188.71L78.57 188.09L78.64 187.51L78.68 186.99L78.74 186.55L78.81 186.17L78.86 185.87L78.9 185.65L78.96 185.51L79.01 185.44L79.04 185.46L79.08 185.44L79.13 185.47L79.18 185.47L79.24 185.51L79.28 185.52L79.46 185.61L79.5 185.66L79.78 185.83L79.86 185.88L80.07 186.02L80.19 186.09L80.3 186.17L80.82 186.51L80.98 186.62L81.11 186.7L81.27 186.8L81.45 186.92L81.58 187.01L81.93 187.24L82.09 187.35L82.61 187.69L83.12 188.06L83.46 188.31L83.8 188.57L88.06 191.73L87.65 201.78L87.61 202.88L87.58 204L87.58 205.11L87.55 207.33L87.55 209.54L87.61 212.83L87.68 215.02L87.72 216.09L87.76 217.14L87.83 218.17L87.9 219.22L88.09 222.3L88.27 224.24L88.37 225.19L88.45 226.13L88.68 227.94L88.91 229.67L89.05 230.49L89.17 231.29L89.31 232.07L89.44 232.81L89.62 233.57L89.78 234.25L89.92 234.93L90.09 235.55L90.26 236.17L90.43 236.74L90.77 237.77L91.11 238.71L91.49 239.6L91.82 240.44L92.21 241.22L92.6 241.93L93 242.58L93.42 243.19L93.82 243.74L94.26 244.24L94.71 244.7L95.19 245.07L95.65 245.41L96.12 245.67L96.63 245.89L97.15 246.02L97.66 246.12L98.17 246.15L98.74 246.15L99.29 246.07L99.88 245.93L100.49 245.74L101.08 245.49L101.73 245.18L102.38 244.81L103.06 244.41L103.74 243.89L104.46 243.34L105.17 242.74L105.93 242.06L106.68 241.36L107.44 240.57L108.25 239.71L109.06 238.81L109.91 237.85L110.77 236.84L111.62 235.76L112.52 234.62L113.46 233.43L114.4 232.18L115.37 230.87L116.4 229.38L117.47 227.84L118.52 226.23L119.6 224.57L120.65 222.84L121.72 221.05L122.82 219.18L123.9 217.25L124.98 215.29L126.06 213.25L127.13 211.14L128.22 208.99L130.36 204.57L131.42 202.27L132.5 199.93L133.57 197.54L134.65 195.13L135.71 192.63L136.76 190.13L137.79 187.57L138.81 184.98L139.83 182.35L140.85 179.7L142.9 174.24L143.91 171.48L144.9 168.68L145.88 165.88L146.85 163.04L147.81 160.2L148.75 157.3L149.67 154.4L150.57 151.51L151.45 148.56L152.34 145.59L153.2 142.62L154.05 139.64L155.68 133.64L159.44 119.71L150.73 110.94L146.31 106.5L145.63 105.86L145.31 105.52L144.98 105.21L144.63 104.87L144.33 104.57L144.02 104.24L143.41 103.64L143.14 103.35L142.01 102.3L141.78 102.05L141.53 101.8L141.06 101.36L140.85 101.14L140.64 100.93L140.45 100.76L139.93 100.25L139.77 100.11L136.11 96.78L104.67 106.03L102.15 106.81L99.65 107.57L97.21 108.34L94.83 109.09L92.47 109.87L90.16 110.62L87.87 111.38L85.63 112.14L83.41 112.92L79.11 114.41L77.02 115.19L74.97 115.94L72.93 116.72L70.92 117.49L68.95 118.27L67.01 119.05L65.08 119.85L61.34 121.42L59.5 122.22L57.68 123.02L55.89 123.83L52.39 125.46L48.98 127.17L45.64 128.87L42.36 130.61L40.74 131.49L39.16 132.34L37.57 133.27L34.21 134.93L32.68 135.87L31.15 136.83L29.68 137.73L28.28 138.63L26.92 139.53L25.62 140.42L24.4 141.28L23.21 142.13L22.04 142.98L20.98 143.83L19.95 144.65L18.97 145.51L18.04 146.32L17.19 147.1L16.37 147.91L15.6 148.68L14.92 149.44L14.24 150.19L13.64 150.93L13.09 151.66L12.59 152.37L12.15 153.06L11.77 153.74L11.43 154.42L11.15 155.1L10.93 155.75L10.76 156.36L10.64 156.97L10.58 157.57L10.58 158.16L10.62 158.73L10.75 159.3L10.91 159.81L11.14 160.31L11.43 160.82L11.77 161.34L12.16 161.82L12.6 162.26L13.12 162.68L13.67 163.11L14.29 163.52L14.97 163.9L15.49 164.16L16.03 164.43L16.62 164.68L17.24 164.94L17.87 165.16L18.55 165.4L19.27 165.62L19.98 165.83L20.75 166.05L21.55 166.24L22.36 166.42L24.07 166.76L24.96 166.93L25.88 167.1L26.84 167.27L27.81 167.41L28.79 167.55L29.82 167.68L30.84 167.8L32.97 168.02L34.06 168.1L36.31 168.28L37.46 168.35L38.61 168.39L39.8 168.46L40.99 168.5L42.23 168.53L44.68 168.57L48.46 168.57L49.74 168.53L51.04 168.52L52.33 168.49L53.65 168.43L54.98 168.36L55.21 168.35L55.48 168.32L55.71 168.32L55.96 168.31L56.45 168.28L56.92 168.25L57.18 168.25L58.13 168.25L58.35 168.25L58.59 168.24L59.48 168.23L59.68 168.21L60.12 168.21L60.3 168.2L60.7 168.2L60.87 168.17L61.05 168.17L61.38 168.16L61.56 168.14L61.73 168.16L61.87 168.16L61.99 168.14L62.85 168.14L63.02 168.2L63.2 168.25L63.36 168.36L63.53 168.49L63.74 168.61L63.95 168.79L64.18 168.96L64.43 169.13L64.68 169.33L64.93 169.57L65.21 169.83L66.28 170.9L66.55 171.19L67.37 172.11L67.65 172.45L68.15 173.09L68.4 173.39L68.87 173.99L69.08 174.3L69.28 174.59L69.66 175.13L69.82 175.4L69.99 175.64L70.21 176.08L70.3 176.29L70.37 176.46L70.42 176.63L70.43 176.8L70.43 176.92L70.41 177.03L70.35 177.07L69.92 177.19L69.78 177.19L69.45 177.22L68.94 177.33L68.72 177.33L68.24 177.37L68 177.41L67.73 177.43L67.45 177.47L67.16 177.47L66.57 177.51L65.94 177.58L65.6 177.6L65.25 177.65L64.2 177.72L63.82 177.75L63.06 177.82L62.67 177.82L62.27 177.86L61.05 177.93L60.62 177.93L60.23 177.94L59.8 177.97L58.04 178.05L56.34 178.16L54.63 178.22L52.97 178.29L51.32 178.33L48.08 178.37L44.96 178.37L43.42 178.33L41.88 178.33L40.41 178.26L38.93 178.22L36.07 178.04L34.67 177.93L33.31 177.82L31.95 177.69L29.32 177.37L26.8 177.04L25.61 176.86L23.22 176.43L22.07 176.18L20.95 175.93L19.88 175.67L18.8 175.39L16.76 174.81L15.78 174.46L14.84 174.13L13.92 173.78L13.01 173.44L12.12 173.06L11.27 172.67L10.46 172.3L9.67 171.89L8.9 171.44L8.22 171.05L7.54 170.62L6.89 170.21L6.3 169.78L5.72 169.35L5.15 168.89L4.13 168L3.65 167.55L3.22 167.09L2.82 166.6L2.43 166.13L1.75 165.11L1.43 164.59L1.17 164.08L0.92 163.57L0.71 163.06L0.53 162.54L0.24 161.47L0.16 160.93L0.07 160.37L0.02 159.78L0 159.23L0.02 158.63L0.06 158.04L0.13 157.45L0.21 156.84L0.34 156.22L0.46 155.6L0.64 154.96L0.84 154.34L1.06 153.68L1.32 153L1.61 152.32L1.92 151.63L2.6 150.28L2.97 149.6L4.23 147.6L4.91 146.63L5.66 145.6L6.46 144.62L7.32 143.59L8.22 142.57L10.16 140.56L11.22 139.53L12.31 138.52L13.48 137.49L14.67 136.47L15.91 135.44L17.21 134.43L19.94 132.38L21.36 131.35L22.9 130.33L26.02 128.29L27.66 127.26L29.36 126.24L31.1 125.23L32.87 124.2L34.71 123.18L36.58 122.15L38.51 121.13L40.47 120.11L42.52 119.09L44.6 118.06L46.69 117.04L48.85 116.01L51.07 115L53.33 113.97L55.63 112.95L57.97 111.92L60.37 110.91L62.8 109.88L65.29 108.86L66.4 108.4L67.59 107.92L68.91 107.4L71.75 106.35L73.29 105.77L76.52 104.57L78.22 103.98L79.98 103.35L81.8 102.72L83.63 102.08L85.5 101.44L87.38 100.79L89.29 100.15L91.24 99.5L93.15 98.85L97.01 97.57L106.31 94.58L108.07 94.03L109.77 93.51L111.41 93L114.54 92.07L115.98 91.64L117.34 91.25L118.63 90.91L119.82 90.56L120.89 90.28L121.89 90.03L122.73 89.81L123.48 89.65L124.12 89.51L124.63 89.42L125 89.41L127.64 89.35L124.96 86.76L124.52 86.36L124.01 85.88L123.47 85.4L122.86 84.89L122.21 84.31L121.53 83.71L120.75 83.06L119.97 82.38L119.12 81.7L118.27 80.98L117.34 80.26L116.43 79.49L115.44 78.71L113.39 77.1L112.37 76.28L110.19 74.58L109.08 73.73L106.83 71.99L104.55 70.25L103.35 69.39L102.22 68.55L101.05 67.69L98.77 65.98L97.64 65.14L96.52 64.32L95.41 63.52L94.32 62.73L93.25 61.95L92.22 61.22L91.2 60.5L90.21 59.79L89.26 59.11L88.3 58.46L87.41 57.83L86.53 57.26L83.91 55.56L82.58 54.7L81.27 53.88L78.65 52.32L77.34 51.55L76.05 50.82L73.46 49.39L72.18 48.7L70.92 48.02L69.66 47.37L68.42 46.76L65.97 45.61L64.78 45.05L62.42 44.03L61.29 43.57L60.16 43.11L59.05 42.68L57.96 42.29L56.93 41.92L54.89 41.24L53.9 40.95L52.97 40.69L52.04 40.45L51.14 40.24L50.29 40.08L49.47 39.94L48.66 39.83L47.91 39.73L47.17 39.69L45.84 39.69L45.22 39.73L44.65 39.8L44.14 39.92L43.54 40.09L42.98 40.34L42.46 40.67L42 41.05L41.62 41.48L41.27 41.95L40.97 42.5L40.71 43.1L40.49 43.75L40.31 44.46L40.22 45.21L40.15 46.02L40.13 46.88L40.16 47.78L40.25 48.74L40.35 49.76L40.52 50.82L40.73 51.89L40.98 53.04L41.3 54.23L41.63 55.46L42 56.71L42.95 59.39L43.46 60.76L44.02 62.17L44.64 63.64L45.32 65.14L46 66.66L46.73 68.2L47.52 69.81L48.35 71.4L49.2 73.07L50.1 74.73L51.06 76.44L52.04 78.17L53.07 79.93L54.16 81.7L55.27 83.51L56.41 85.33L61.19 92.89L59.05 97.76L58.97 97.96L58.79 98.34L58.71 98.56L58.54 98.96L58.44 99.13L58.35 99.33L58.26 99.5L58.18 99.71L58.11 99.87L57.94 100.22L57.88 100.39L57.71 100.72L57.65 100.9L57.57 101.07L57.39 101.47L57.31 101.61L57.26 101.73L57.04 102.18L56.87 102.45L56.84 102.52L56.78 102.58L56.7 102.76L56.57 102.87L56.49 102.87L56.22 102.6L56.02 102.38L55.8 102.08L55.52 101.73L55.21 101.32L54.88 100.84L54.51 100.33L54.11 99.78L53.26 98.49L52.79 97.81L52.32 97.08L51.81 96.31L51.26 95.48L50.18 93.77L49.06 92.02L47.36 89.29L46.77 88.33L46.22 87.4L45.64 86.47L44.53 84.6L43.96 83.68L43.46 82.77L42.91 81.87L41.92 80.17L41.45 79.32L40.98 78.51L40.56 77.74L40.13 77L39.76 76.31L39.08 75.02L38.63 74.2L38.21 73.36L37.79 72.5L36.97 70.76L36.6 69.88L35.84 68.09L34.81 65.36L34.48 64.43L34.16 63.53L33.83 62.63L33.24 60.83L32.97 59.9L32.47 58.13L31.98 56.38L31.58 54.67L31.4 53.81L31.07 52.18L30.93 51.38L30.69 49.85L30.58 49.11L30.51 48.39L30.45 47.71L30.42 47.03L30.42 46.38L30.4 45.77L30.42 45.16L30.42 44.6L30.51 43.54L30.6 43.07L30.78 42.23L30.89 41.82L31.03 41.41L31.16 40.98L31.3 40.59L31.64 39.77L31.98 38.98L32.4 38.2L32.59 37.86L33.05 37.11L33.3 36.78L34.05 35.75L34.31 35.41L34.87 34.78L35.16 34.49L35.45 34.18L35.74 33.91L36.04 33.62L36.67 33.11L36.97 32.87L37.32 32.63L37.62 32.41L38.27 32L39.3 31.48L39.98 31.22L40.66 31L41.91 30.74L43.21 30.57L44.58 30.44L46.05 30.43L47.58 30.48L49.18 30.65L50.82 30.87L52.52 31.22L54.3 31.59L56.12 32.05L58.03 32.62L59.97 33.23L61.97 33.94L64.01 34.7L66.12 35.54L68.27 36.46L70.49 37.49L72.71 38.56L74.99 39.69L77.32 40.88L79.68 42.14L82.06 43.47L84.5 44.89L86.97 46.35L89.46 47.88L91.99 49.49L94.54 51.15L97.1 52.86L99.71 54.66L102.33 56.49L104.98 58.4L107.64 60.36L110.33 62.35L113.02 64.43L115.75 66.57L118.48 68.74L121.2 70.96L123.93 73.25L126.65 75.59L129.38 77.97L138.62 86.18L151.32 83.55L153.23 83.2L155.06 82.87L155.93 82.69L157.22 82.44L157.62 82.38L158.41 82.22L158.79 82.15L159.52 82.02L160.2 81.91L160.53 81.86L160.85 81.8L161.45 81.72L161.71 81.69L161.97 81.63L162.22 81.6L162.68 81.54L162.89 81.52L163.07 81.52L164.01 81.52L164.15 81.48L164.33 81.41L164.46 81.34L164.63 81.24L164.9 80.97L165.02 80.8L165.16 80.63L165.27 80.41L165.4 80.15L165.5 79.87L165.63 79.57L165.76 79.23L165.86 78.86L165.96 78.46L166.06 78.04L166.16 77.57L166.28 77.1L166.37 76.59L166.48 76.05L166.56 75.46L166.66 74.85L166.74 74.16L166.84 73.48L166.94 72.75L167.02 72L167.12 71.21L167.2 70.35L167.27 69.5L167.35 68.59L167.45 67.65L167.53 66.65L167.62 65.62L167.7 64.56L167.77 63.45L167.85 62.28L167.94 61.09L168.02 59.86L168.09 58.57L168.2 56.7L168.28 54.82L168.35 53.01L168.45 49.43L168.45 44.32L168.42 42.67L168.38 41.03L168.24 37.87L168.16 36.35L168.04 34.85L167.92 33.38L167.78 31.94L167.62 30.55L167.45 29.18L167.27 27.88L167.1 26.59L166.88 25.37L166.67 24.18L166.44 23.03L166.19 21.92L165.93 20.87L165.65 19.84L165.37 18.87L165.08 17.95L164.73 17.07L164.39 16.25L164.05 15.45L163.71 14.74L163.33 14.05L162.96 13.42L162.57 12.84L162.18 12.33L161.77 11.87L161.34 11.45L160.92 11.12L160.45 10.83L160.01 10.61L159.49 10.44L158.99 10.25L158.48 10.16L157.97 10.12L157.46 10.15L156.94 10.25L156.39 10.33L155.8 10.51L155.22 10.71L154.63 10.94L153.39 11.63L152.77 12.04L152.12 12.48L151.47 12.99L150.79 13.53L150.11 14.13L149.43 14.78L148.75 15.46L148.06 16.22L147.31 17L146.58 17.82L145.83 18.67L145.06 19.6L144.27 20.56L143.51 21.59L142.71 22.64L141.89 23.73L141.09 24.93L140.24 26.12L139.38 27.35L138.53 28.66L137.69 29.99L136.83 31.36L135.97 32.78L135.07 34.24L133.27 37.32L132.35 38.94L124.3 53L119.02 53.68L118.85 53.7L118.64 53.72L118.48 53.72L118.27 53.72L118.1 53.72L117.92 53.72L117.76 53.72L116.4 53.72L116.26 53.72L116.14 53.72L115.97 53.7L115.84 53.7L115.73 53.68L115.39 53.62L115.22 53.62L115.04 53.55L114.97 53.55L114.8 53.44L114.76 53.41L114.74 53.36L114.71 53.33L114.69 53.26L114.69 53.2L114.72 53L114.78 52.75L114.87 52.4L115 52.03L115.16 51.62L115.33 51.14L115.54 50.63L115.8 50.08L116.04 49.45L116.33 48.82L116.63 48.14L116.97 47.46L117.31 46.73L117.66 45.98L118.03 45.21L118.44 44.4L119.24 42.74L120.09 41.03L120.53 40.19L120.97 39.3L122.34 36.71L122.82 35.85L123.27 35L123.72 34.14L124.2 33.3L125.09 31.69L125.53 30.93L125.95 30.18L126.38 29.46L126.81 28.78L127.2 28.1L127.57 27.48L127.95 26.91L128.29 26.34L128.64 25.83L129.38 24.72L130.88 22.56L131.62 21.53L133.07 19.52L134.5 17.65L135.21 16.72L137.29 14.12L137.97 13.3L138.66 12.52L139.34 11.75L140.02 11.01L141.35 9.62L142.03 8.93L143.33 7.67L143.97 7.1L145.23 5.98L146.49 4.95L147.13 4.47L147.74 4.01L148.42 3.43L149.61 2.66L150.23 2.32L150.83 1.98L151.42 1.68L152.01 1.4L152.62 1.14L153.17 0.89L153.75 0.68L154.34 0.52L154.89 0.35L155.61 0.17L155.99 0.1L156.33 0.07L156.71 0.03L157.46 0L157.84 0L158.23 0.02L158.62 0.06L159.44 0.17L160.23 0.31ZM155.22 92.97L153.17 93.57L151.47 94.15L150.18 94.66L149.4 95.1L149.28 95.44L151.22 97.6L154.11 100.58L157.22 103.62L159.74 105.96L160.93 106.88L161.2 106.43L161.57 105.36L162.03 103.74L162.53 101.69L163.01 99.36L163.49 96.69L163.75 94.59L163.75 93.11L163.53 92.15L163.07 91.74L162.31 91.67L161.03 91.78L159.33 92.03L157.36 92.46L155.22 92.97ZM71.14 90.63C74 85.24 81.02 77.29 86.89 72.84C87.19 72.58 88.73 71.38 91.52 69.17C91.92 69.45 95.08 71.69 95.48 71.97C97.64 73.51 99.49 74.99 99.57 75.38C99.65 75.69 98.16 77.09 96.26 78.28C94.29 79.57 90.67 82.54 88.2 84.86C85.06 87.93 81.62 89.94 76.31 91.92C76.31 91.91 73.85 92.86 68.92 94.76C70.25 92.29 70.99 90.91 71.14 90.63ZM61.88 133.47C61.67 129.47 61.99 129.04 66.03 127.17C68.41 126.09 70.49 125.28 70.73 125.35C70.89 125.53 71.58 129.41 72.1 134.15C73.97 149.43 83.55 164.63 96.91 173.27C104.27 178.15 114.97 181.79 122.79 182.24C125.82 182.41 128.4 182.92 128.46 183.26C128.58 183.68 127.72 185.88 126.59 188.28C126.45 188.58 125.78 190.06 124.58 192.72C123.99 192.64 119.32 191.95 118.73 191.87C94.7 182.77 79.17 172.88 72.11 162.19C67.62 155.34 62.23 140.12 61.88 133.47ZM157.98 69.85C157.68 72.07 147.81 73.04 141.86 71.43C137.59 70.27 130.9 65.87 126.09 61.09C122.76 57.78 141.94 60.23 152.12 64.49C157.95 66.87 158.4 67.22 157.98 69.85ZM179.34 155.63C180.3 157.12 181.64 158.87 182.31 159.81C183.16 160.89 182.32 162.65 179.52 166.28C172.76 175.14 157.3 187.05 158.59 182.38C160.95 174.7 164.05 168.65 168.35 164.1C171.01 161.25 173.91 157.61 174.63 156.25C176.44 152.66 177.19 152.66 179.34 155.63ZM187.37 98.05C189.62 102.31 192.97 115.66 193.45 122.04C193.74 125.16 193.59 127.83 193.29 127.93C192.87 128.03 190.56 125.46 187.95 122.41C184.62 118.31 182.99 115.11 181.85 110.78C178.98 100.1 183.38 90.19 187.37 98.05Z" id="bUgnjDvF"></path><path d="M159.29 4.14L159.68 4.22L160.06 4.31L160.44 4.42L160.84 4.53L161.62 4.8L162 4.97L162.39 5.12L163.14 5.46L163.51 5.63L164.24 6.02L164.97 6.45L166.02 7.17L167.01 7.96L167.64 8.52L168.24 9.12L168.52 9.44L168.69 9.64L168.84 9.86L169.01 10.06L169.18 10.3L169.35 10.49L169.67 10.92L169.84 11.15L170.01 11.36L170.29 11.81L170.58 12.31L170.85 12.81L171.11 13.34L171.24 13.62L171.49 14.21L171.61 14.55L171.77 14.87L171.89 15.21L172.03 15.53L172.14 15.92L172.28 16.3L172.39 16.68L172.66 17.51L172.78 17.93L172.91 18.39L173.08 18.89L174.13 22.78L174.29 23.44L174.52 24.34L174.73 25.25L175.14 27.11L175.3 28.08L175.49 29.02L175.66 30.02L175.97 32L176.12 32.99L176.26 34.03L176.37 35.05L176.49 36.12L176.59 37.17L176.68 38.25L176.77 39.33L176.84 40.44L176.92 41.55L177.09 44.95L177.15 49.7L177.1 53.39L177 55.92L176.98 57.21L176.89 58.5L176.82 59.82L176.65 62.47L176.54 63.83L176.44 65.18L176.01 69.82L175.98 70.24L175.93 70.68L175.9 71.13L175.83 71.98L175.76 72.81L175.73 73.2L175.67 74L175.65 74.37L175.63 74.75L175.63 75.12L175.6 75.46L175.58 75.82L175.58 76.48L175.53 77.1L175.53 77.38L175.52 77.68L175.48 78.21L175.48 78.7L175.48 78.91L175.48 79.33L175.46 79.66L175.48 79.82L175.48 79.96L175.48 80.09L175.48 80.19L175.48 80.27L175.48 80.35L175.49 80.4L175.52 80.44L175.53 80.44L175.56 80.44L175.62 80.45L176.72 80.45L176.94 80.44L177.17 80.44L177.41 80.44L177.68 80.44L178.24 80.4L178.86 80.37L179.19 80.35L179.88 80.35L180.64 80.29L181.04 80.29L181.42 80.26L181.83 80.22L182.26 80.19L182.71 80.16L183.16 80.16L183.58 80.12L184.05 80.09L184.55 80.03L185.04 80.01L185.51 80.01L186.5 79.94L186.99 79.89L188.02 79.81L188.52 79.75L190.83 79.6L193.09 79.43L195.35 79.29L199.71 79.13L201.87 79.08L203.95 79.05L206.02 79.05L208.04 79.05L210.02 79.08L211.96 79.13L215.72 79.29L217.54 79.43L219.31 79.56L221.04 79.72L222.74 79.89L224.4 80.09L226.01 80.3L227.57 80.55L229.1 80.82L230.55 81.1L232 81.43L233.37 81.76L234.69 82.09L235.98 82.46L237.22 82.85L238.41 83.25L239.57 83.68L240.68 84.13L241.72 84.59L242.71 85.08L243.67 85.59L244.57 86.11L245.39 86.65L246.22 87.24L246.97 87.82L247.66 88.41L248.3 89.04L248.89 89.7L249.11 89.98L249.56 90.53L249.77 90.79L249.96 91.07L250.12 91.35L250.29 91.62L250.62 92.12L250.79 92.4L251.2 93.17L251.34 93.44L251.45 93.69L251.55 93.97L251.82 94.75L251.98 95.29L252.08 95.84L252.13 96.11L252.17 96.4L252.2 96.67L252.2 96.95L252.23 97.54L252.23 97.84L252.2 98.43L252.18 98.77L252.14 99.09L252.13 99.43L252.03 100.09L251.96 100.42L251.9 100.79L251.85 101.11L251.72 101.7L251.55 102.28L251.35 102.87L251.13 103.47L250.89 104.07L250.61 104.7L250.3 105.32L249.98 105.98L249.61 106.61L249.22 107.27L248.8 107.93L248.37 108.59L247.38 109.92L246.32 111.27L245.73 111.94L245.14 112.63L243.19 114.68L242.5 115.39L241.05 116.78L240.29 117.49L238.69 118.88L237.86 119.6L236.16 120.99L235.28 121.7L234.37 122.36L231.56 124.42L230.57 125.08L228.55 126.41L227.53 127.07L226.49 127.73L225.86 128.13L225.2 128.53L224.5 128.94L223.81 129.37L223.06 129.81L222.31 130.23L220.71 131.13L219.88 131.62L219.05 132.07L218.23 132.53L217.4 133.03L215.7 133.96L214.83 134.41L214.02 134.87L213.15 135.31L211.49 136.19L210.67 136.61L209.84 137.03L209.05 137.45L207.53 138.21L206.11 138.9L205.41 139.23L204.78 139.57L204.17 139.85L203.59 140.13L203.06 140.37L202.56 140.59L202.11 140.75L201.69 140.92L201.35 141.09L201.03 141.18L200.75 141.28L200.54 141.34L200.37 141.37L200.3 141.34L200.23 141.27L200.16 141.17L200.12 141.03L200.06 140.87L200.03 140.71L200.02 140.49L199.98 140.26L199.98 140.01L199.99 139.73L199.99 139.4L200.02 139.11L200.05 138.77L200.06 138.44L200.15 137.71L200.2 137.34L200.36 136.19L200.43 135.8L200.6 135.01L200.68 134.62L200.85 133.88L200.95 133.51L201.03 133.15L201.14 132.81L201.23 132.49L201.34 132.15L201.45 131.86L201.65 131.32L201.75 131.07L201.87 130.86L201.98 130.66L202.08 130.5L202.2 130.33L202.29 130.23L202.39 130.15L202.56 130.09L202.73 130L202.81 129.94L202.93 129.87L203.02 129.82L203.15 129.77L203.27 129.71L203.54 129.54L203.84 129.4L204 129.31L204.17 129.25L204.5 129.04L205.03 128.77L205.39 128.58L205.77 128.36L206.17 128.17L206.78 127.83L206.98 127.72L207.4 127.51L207.61 127.38L208.03 127.17L208.25 127.07L208.45 126.96L208.66 126.86L208.88 126.74L209.1 126.64L211.37 125.49L212.47 124.89L213.58 124.26L214.68 123.67L215.75 123.08L216.81 122.46L218.89 121.21L219.88 120.62L221.87 119.39L222.83 118.76L223.77 118.15L224.72 117.52L225.63 116.92L226.52 116.29L227.4 115.69L228.25 115.08L229.91 113.85L230.68 113.27L231.45 112.67L232.19 112.07L232.92 111.48L234.31 110.31L234.97 109.74L236.19 108.61L237.3 107.51L238.3 106.43L238.76 105.9L239.21 105.4L239.6 104.9L239.98 104.41L240.32 103.92L240.91 102.95L241.14 102.49L241.37 102L241.58 101.55L241.73 101.1L241.87 100.65L241.97 100.23L242.04 99.79L242.07 99.36L242.07 98.53L242.03 98.12L241.94 97.72L241.82 97.37L241.69 96.98L241.52 96.6L241.33 96.23L241.09 95.91L240.57 95.21L239.91 94.55L239.11 93.92L238.68 93.62L238.21 93.33L237.22 92.77L236.1 92.22L235.49 91.97L234.82 91.72L234.16 91.49L233.47 91.25L232.76 91.03L232 90.79L231.21 90.58L230.39 90.38L229.56 90.21L228.7 90.05L227.92 89.88L227.09 89.71L226.22 89.58L225.27 89.49L224.27 89.36L223.22 89.25L222.15 89.15L221.04 89.08L219.88 88.99L218.69 88.91L217.47 88.84L214.96 88.74L213.63 88.69L212.31 88.66L210.99 88.66L208.22 88.63L206.85 88.64L205.45 88.64L201.19 88.69L199.78 88.74L198.36 88.8L196.94 88.83L195.55 88.91L194.14 88.95L192.75 89.05L191.4 89.14L190.02 89.23L188.7 89.32L186.11 89.55L184.85 89.67L183.6 89.8L182.42 89.93L180.09 90.26L179.02 90.43L173.36 91.29L171.05 104.24L168.63 117.2L179.88 130.33L181.6 132.4L183.3 134.44L184.96 136.42L186.58 138.41L188.15 140.4L189.7 142.35L191.18 144.27L192.63 146.16L194.07 148.03L195.46 149.91L196.82 151.72L198.14 153.54L199.43 155.36L200.68 157.13L201.89 158.9L204.2 162.38L205.31 164.09L206.39 165.77L207.41 167.43L208.41 169.08L209.36 170.7L210.29 172.32L211.18 173.89L212.04 175.48L212.87 177.05L213.67 178.59L214.41 180.12L215.11 181.6L215.81 183.09L216.47 184.58L217.09 186.04L217.68 187.52L218.23 188.94L218.76 190.37L219.25 191.79L219.71 193.18L220.13 194.55L220.51 195.93L220.76 196.79L220.96 197.62L221.19 198.45L221.35 199.24L221.52 199.99L221.69 200.75L221.86 201.47L221.99 202.2L222.11 202.87L222.22 203.53L222.33 204.19L222.39 204.85L222.46 205.46L222.52 206.07L222.55 206.67L222.59 207.23L222.59 208.34L222.53 209.39L222.48 209.89L222.42 210.39L222.33 210.89L222.14 211.84L222 212.29L221.83 212.76L221.51 213.61L221.31 214.05L221.1 214.45L220.89 214.89L220.67 215.31L220.16 216.12L219.88 216.53L219.59 216.92L219.25 217.32L218.93 217.71L218.59 218.1L218.1 218.65L217.6 219.14L217.07 219.64L216.51 220.06L215.93 220.47L215.34 220.85L214.71 221.17L214.05 221.51L213.39 221.79L212.69 222.01L211.97 222.24L210.46 222.56L209.63 222.68L208.8 222.76L207.97 222.76L206.19 222.76L205.25 222.7L204.31 222.63L203.33 222.5L202.33 222.33L201.31 222.17L200.22 221.96L199.14 221.7L198.01 221.44L195.7 220.78L194.49 220.41L193.25 220.01L191.97 219.57L190.68 219.07L189.36 218.58L188 218.05L186.61 217.48L185.19 216.88L182.21 215.55L180.69 214.83L179.15 214.09L178.61 213.85L178.04 213.57L177.44 213.23L176.77 212.9L176.08 212.53L175.36 212.13L174.62 211.72L173.86 211.28L173.06 210.82L170.58 209.33L169.75 208.8L168.88 208.31L167.16 207.23L166.29 206.7L165.41 206.15L164.58 205.59L163.72 205.06L162.07 204L161.24 203.46L160.46 202.95L159.7 202.46L158.95 201.97L158.25 201.47L157.59 201L156.93 200.57L156.34 200.16L155.77 199.75L155.28 199.37L154.79 199.04L154.37 198.7L154 198.42L153.71 198.14L153.44 197.93L153.28 197.73L153.15 197.57L153.08 197.45L153.08 197.45L153.09 197.38L153.13 197.29L153.22 197.2L153.22 197.13L153.31 197.03L153.47 196.92L153.81 196.66L153.91 196.59L154.02 196.5L154.13 196.44L154.24 196.37L154.35 196.29L154.48 196.21L154.62 196.15L154.73 196.06L155 195.9L155.17 195.81L155.33 195.74L155.46 195.65L156.12 195.32L156.29 195.21L156.46 195.14L156.62 195.07L156.99 194.9L157.31 194.73L161.65 192.92L176.75 201.77L178.28 202.63L179.77 203.46L181.23 204.28L182.66 205.06L184.05 205.79L185.42 206.5L188.07 207.82L189.36 208.44L190.58 209L191.8 209.54L193.01 210.04L194.16 210.5L195.28 210.95L196.37 211.35L197.41 211.72L198.46 212.04L199.46 212.34L200.41 212.6L201.34 212.84L202.24 213.04L203.09 213.2L203.92 213.33L204.72 213.45L205.48 213.5L206.19 213.5L206.89 213.5L207.55 213.45L208.19 213.39L208.77 213.29L209.33 213.12L209.85 212.95L210.36 212.74L210.81 212.49L211.21 212.21L211.59 211.91L211.93 211.55L212.22 211.17L212.49 210.74L212.85 210.01L213.12 209.18L213.29 208.31L213.39 207.31L213.42 206.26L213.36 205.11L213.23 203.92L213.04 202.63L212.74 201.31L212.41 199.88L211.97 198.39L211.48 196.85L210.9 195.25L210.27 193.6L209.56 191.87L208.79 190.11L207.96 188.28L207.05 186.4L206.05 184.47L205.01 182.52L203.92 180.48L202.76 178.42L201.54 176.32L200.26 174.17L197.55 169.78L196.11 167.55L194.62 165.29L193.08 162.98L191.48 160.65L188.13 155.95L186.39 153.6L184.56 151.18L182.74 148.77L180.85 146.33L178.93 143.9L176.94 141.45L174.92 139L172.88 136.53L165.98 128.42L162.59 140.89L161.37 145.31L160.12 149.69L158.83 154.02L157.5 158.28L156.18 162.49L154.79 166.63L153.4 170.7L151.96 174.72L150.5 178.66L149.04 182.55L147.55 186.35L146.07 190.08L144.55 193.71L142.99 197.26L141.45 200.72L139.88 204.12L138.29 207.4L136.7 210.58L135.08 213.7L133.5 216.71L131.87 219.59L130.25 222.39L128.63 225.1L127.01 227.68L125.35 230.16L123.75 232.51L122.12 234.75L120.52 236.85L118.9 238.84L117.3 240.71L115.71 242.45L114.14 244.06L112.55 245.51L110.99 246.84L109.46 248.04L107.93 249.1L106.41 250.01L104.93 250.77L103.47 251.38L102.01 251.85L101.68 251.93L100.99 252.06L100.62 252.1L99.91 252.17L98.78 252.17L98.41 252.13L98 252.1L97.62 252.04L97.24 251.98L96.47 251.82L96.09 251.72L95.69 251.62L95.31 251.48L94.93 251.37L94.15 251.07L92.99 250.57L92.26 250.21L91.88 250.01L90.81 249.35L90.48 249.11L89.49 248.37L88.55 247.54L88.25 247.26L87.68 246.64L87.38 246.31L87.06 245.9L86.75 245.46L86.47 245L86.15 244.5L85.87 243.98L85.56 243.43L85.27 242.83L84.7 241.58L84.14 240.22L83.88 239.5L83.34 238.02L82.82 236.46L82.59 235.63L82.33 234.81L81.87 233.12L81.45 231.37L81.23 230.47L80.85 228.65L80.48 226.8L80.33 225.87L80.02 224.02L79.89 223.08L79.66 221.23L79.57 220.3L79.41 218.42L79.28 216.61L79.26 215.72L79.23 215.06L79.19 214.33L79.19 206.08L79.25 204L79.26 202.94L79.29 201.89L79.32 200.81L79.41 197.64L79.5 195.56L79.54 194.58L79.57 193.58L79.63 192.62L79.66 191.69L79.72 190.8L79.82 189.15L79.88 188.37L79.92 187.65L79.98 186.99L80.02 186.39L80.09 185.83L80.14 185.32L80.19 184.89L80.26 184.52L80.3 184.23L80.35 184.02L80.4 183.89L80.45 183.82L80.48 183.84L80.52 183.82L80.57 183.85L80.62 183.85L80.67 183.89L80.72 183.9L80.89 183.99L80.93 184.03L81.2 184.2L81.28 184.24L81.48 184.38L81.59 184.45L81.71 184.52L82.21 184.86L82.37 184.96L82.49 185.04L82.65 185.14L82.82 185.25L82.95 185.34L83.29 185.57L83.44 185.67L83.95 186.01L84.44 186.36L84.77 186.6L85.1 186.86L89.23 189.92L88.84 199.68L88.8 200.75L88.77 201.83L88.77 202.91L88.74 205.06L88.74 207.21L88.8 210.4L88.86 212.52L88.91 213.57L88.94 214.59L89.01 215.59L89.08 216.61L89.27 219.59L89.43 221.47L89.54 222.39L89.61 223.31L89.84 225.06L90.06 226.75L90.2 227.54L90.31 228.32L90.44 229.08L90.58 229.8L90.75 230.53L90.9 231.19L91.04 231.85L91.21 232.46L91.38 233.05L91.53 233.61L91.87 234.61L92.19 235.52L92.56 236.38L92.89 237.2L93.26 237.95L93.64 238.65L94.03 239.28L94.44 239.87L94.83 240.4L95.26 240.89L95.69 241.33L96.15 241.69L96.6 242.03L97.06 242.27L97.56 242.49L98.06 242.62L98.55 242.71L99.05 242.74L99.6 242.74L100.14 242.66L100.71 242.53L101.3 242.34L101.87 242.1L102.5 241.8L103.13 241.44L103.79 241.05L104.45 240.54L105.15 240.02L105.85 239.43L106.57 238.77L107.3 238.09L108.04 237.33L108.83 236.5L109.61 235.62L110.44 234.69L111.27 233.7L112.1 232.66L112.98 231.55L113.89 230.39L114.8 229.18L115.74 227.91L116.74 226.47L117.78 224.97L118.8 223.4L119.84 221.8L120.87 220.12L121.91 218.38L122.97 216.56L124.02 214.69L125.07 212.79L126.12 210.81L127.16 208.77L128.21 206.68L130.29 202.38L131.32 200.15L132.36 197.88L133.41 195.56L134.45 193.22L135.48 190.8L136.5 188.37L137.5 185.88L138.49 183.37L139.49 180.82L140.47 178.24L142.46 172.95L143.45 170.27L144.4 167.55L145.35 164.84L146.3 162.08L147.23 159.32L148.14 156.5L149.03 153.69L149.91 150.88L150.76 148.02L151.62 145.14L152.45 142.26L153.28 139.36L154.87 133.54L158.51 120.02L150.06 111.51L145.77 107.2L145.11 106.57L144.8 106.25L144.48 105.95L144.14 105.62L143.85 105.33L143.55 105L142.95 104.42L142.69 104.14L141.6 103.12L141.37 102.88L141.14 102.64L140.68 102.21L140.47 102L140.27 101.8L140.08 101.63L139.58 101.13L139.42 101L135.87 97.77L105.35 106.74L102.91 107.51L100.48 108.23L98.12 108.99L95.81 109.72L93.52 110.47L91.27 111.2L89.05 111.94L86.88 112.68L84.72 113.43L80.55 114.88L78.52 115.64L76.53 116.37L74.55 117.12L72.6 117.87L70.69 118.62L68.81 119.39L66.93 120.16L63.3 121.68L61.51 122.46L59.75 123.23L58.01 124.02L54.62 125.6L51.31 127.26L48.06 128.91L44.88 130.6L43.31 131.45L41.77 132.29L40.23 133.18L36.97 134.8L35.49 135.71L34 136.64L32.57 137.51L31.22 138.39L29.89 139.26L28.64 140.13L27.45 140.96L26.29 141.79L25.16 142.61L24.13 143.44L23.13 144.23L22.17 145.06L21.28 145.85L20.45 146.61L19.65 147.39L18.91 148.14L18.25 148.88L17.59 149.6L17 150.32L16.48 151.03L15.98 151.72L15.56 152.39L15.19 153.05L14.86 153.71L14.59 154.37L14.38 155L14.21 155.59L14.1 156.19L14.03 156.77L14.03 157.34L14.08 157.89L14.2 158.44L14.36 158.94L14.58 159.43L14.86 159.92L15.19 160.43L15.57 160.89L15.99 161.32L16.5 161.73L17.04 162.15L17.63 162.54L18.29 162.91L18.8 163.17L19.33 163.42L19.9 163.67L20.5 163.92L21.11 164.13L21.77 164.37L22.47 164.58L23.16 164.78L23.9 165L24.69 165.19L25.47 165.35L27.13 165.69L28 165.85L28.88 166.02L29.81 166.18L30.76 166.32L31.71 166.45L32.71 166.58L33.69 166.7L35.77 166.91L36.82 166.99L39.01 167.16L40.12 167.23L41.24 167.27L42.4 167.34L43.56 167.37L44.76 167.41L47.13 167.44L50.8 167.44L52.05 167.41L53.3 167.4L54.56 167.36L55.84 167.31L57.13 167.24L57.35 167.23L57.61 167.2L57.83 167.2L58.08 167.19L58.55 167.16L59.01 167.14L59.26 167.14L60.19 167.14L60.4 167.14L60.63 167.13L61.49 167.12L61.69 167.09L62.12 167.09L62.29 167.08L62.68 167.08L62.85 167.06L63.02 167.06L63.34 167.05L63.51 167.03L63.68 167.05L63.81 167.05L63.94 167.03L64.77 167.03L64.94 167.08L65.1 167.14L65.26 167.24L65.43 167.36L65.63 167.49L65.83 167.65L66.06 167.82L66.3 167.99L66.54 168.18L66.79 168.42L67.06 168.66L68.1 169.71L68.36 169.99L69.15 170.88L69.42 171.21L69.92 171.83L70.15 172.12L70.61 172.7L70.81 173L71 173.28L71.37 173.81L71.53 174.07L71.7 174.31L71.91 174.73L72 174.93L72.07 175.1L72.11 175.27L72.13 175.43L72.13 175.55L72.1 175.65L72.05 175.7L71.63 175.81L71.5 175.81L71.17 175.84L70.68 175.94L70.47 175.94L69.99 175.99L69.77 176.02L69.5 176.04L69.23 176.08L68.95 176.08L68.38 176.12L67.76 176.19L67.44 176.21L67.1 176.26L66.08 176.32L65.71 176.36L64.97 176.43L64.59 176.43L64.21 176.46L63.02 176.53L62.6 176.53L62.22 176.54L61.81 176.57L60.1 176.65L58.45 176.75L56.79 176.81L55.18 176.87L53.57 176.92L50.43 176.95L47.4 176.95L45.91 176.92L44.42 176.92L42.98 176.85L41.55 176.81L38.78 176.64L37.42 176.53L36.1 176.43L34.77 176.29L32.23 175.99L29.78 175.66L28.62 175.49L26.3 175.07L25.19 174.83L24.1 174.59L23.06 174.34L22.02 174.06L20.03 173.5L19.08 173.16L18.17 172.84L17.27 172.5L16.4 172.17L15.53 171.8L14.7 171.42L13.92 171.06L13.16 170.67L12.4 170.23L11.74 169.85L11.08 169.44L10.45 169.03L9.88 168.62L9.32 168.2L8.77 167.75L7.77 166.89L7.31 166.45L6.9 166L6.5 165.53L6.12 165.07L5.46 164.09L5.16 163.58L4.9 163.09L4.66 162.59L4.45 162.1L4.28 161.6L4 160.55L3.92 160.03L3.83 159.49L3.79 158.92L3.77 158.38L3.79 157.79L3.82 157.22L3.89 156.65L3.97 156.05L4.09 155.46L4.22 154.85L4.38 154.24L4.59 153.63L4.8 152.99L5.05 152.33L5.33 151.67L5.63 151.01L6.29 149.69L6.65 149.03L7.87 147.09L8.53 146.15L9.26 145.15L10.04 144.2L10.87 143.2L11.74 142.21L13.63 140.26L14.66 139.26L15.71 138.28L16.85 137.28L18 136.29L19.21 135.29L20.47 134.3L23.12 132.32L24.5 131.32L25.99 130.33L29.02 128.35L30.61 127.35L32.26 126.36L33.95 125.38L35.67 124.38L37.45 123.39L39.27 122.39L41.14 121.4L43.05 120.41L45.04 119.42L47.05 118.42L49.09 117.43L51.18 116.43L53.34 115.45L55.52 114.45L57.76 113.46L60.03 112.46L62.36 111.48L64.72 110.48L67.13 109.49L68.21 109.04L69.37 108.58L70.65 108.08L73.4 107.06L74.9 106.5L78.04 105.33L79.69 104.76L81.39 104.14L83.16 103.53L84.94 102.91L86.75 102.29L88.57 101.66L90.43 101.03L92.32 100.41L94.18 99.78L97.93 98.53L106.94 95.63L108.66 95.1L110.31 94.59L111.9 94.1L114.93 93.19L116.33 92.78L117.66 92.4L118.9 92.07L120.06 91.73L121.1 91.45L122.07 91.22L122.88 91L123.61 90.85L124.23 90.71L124.72 90.62L125.08 90.61L127.65 90.56L125.05 88.04L124.62 87.65L124.13 87.19L123.6 86.72L123.01 86.23L122.38 85.67L121.72 85.08L120.97 84.45L120.2 83.79L119.39 83.13L118.55 82.43L117.66 81.73L116.77 80.99L115.81 80.22L113.82 78.67L112.83 77.87L110.71 76.22L109.64 75.39L107.45 73.71L105.24 72.01L104.07 71.18L102.97 70.36L101.84 69.53L99.63 67.87L98.53 67.06L97.44 66.26L96.37 65.49L95.31 64.72L94.27 63.96L93.27 63.25L92.28 62.56L91.32 61.86L90.4 61.2L89.47 60.57L88.6 59.97L87.75 59.41L85.21 57.76L83.92 56.93L82.65 56.13L80.1 54.62L78.83 53.86L77.58 53.16L75.06 51.77L73.82 51.1L72.6 50.44L71.37 49.81L70.17 49.22L67.8 48.1L66.64 47.56L64.35 46.57L63.25 46.12L62.15 45.68L61.08 45.26L60.02 44.88L59.02 44.52L57.04 43.86L56.08 43.58L55.18 43.33L54.28 43.1L53.4 42.89L52.57 42.74L51.78 42.6L50.99 42.49L50.26 42.4L49.55 42.35L48.26 42.35L47.66 42.4L47.1 42.47L46.61 42.58L46.02 42.75L45.48 42.98L44.98 43.31L44.53 43.68L44.16 44.09L43.82 44.55L43.53 45.08L43.27 45.66L43.06 46.29L42.89 46.99L42.8 47.72L42.74 48.5L42.71 49.33L42.75 50.21L42.84 51.14L42.93 52.13L43.1 53.16L43.3 54.2L43.54 55.31L43.85 56.47L44.17 57.67L44.53 58.88L45.45 61.48L45.94 62.8L46.49 64.17L47.09 65.6L47.75 67.06L48.41 68.54L49.12 70.03L49.89 71.59L50.69 73.14L51.52 74.75L52.39 76.37L53.33 78.03L54.28 79.71L55.28 81.41L56.33 83.13L57.41 84.89L58.52 86.65L63.15 93.99L61.08 98.72L61 98.91L60.83 99.28L60.75 99.5L60.58 99.88L60.48 100.05L60.4 100.24L60.31 100.41L60.24 100.61L60.17 100.76L60 101.1L59.94 101.27L59.78 101.59L59.72 101.76L59.64 101.93L59.47 102.32L59.39 102.46L59.34 102.57L59.12 103.01L58.97 103.27L58.93 103.33L58.88 103.4L58.8 103.57L58.68 103.68L58.6 103.68L58.33 103.41L58.14 103.2L57.92 102.91L57.66 102.57L57.35 102.18L57.03 101.71L56.67 101.21L56.29 100.67L55.46 99.43L55.01 98.77L54.55 98.06L54.05 97.31L53.52 96.5L52.47 94.84L51.38 93.15L49.74 90.5L49.16 89.57L48.63 88.66L48.06 87.76L46.99 85.95L46.44 85.05L45.94 84.17L45.42 83.3L44.45 81.65L43.99 80.82L43.54 80.03L43.13 79.28L42.71 78.56L42.35 77.9L41.69 76.65L41.26 75.85L40.85 75.03L40.45 74.2L39.65 72.51L39.29 71.65L38.55 69.92L37.55 67.27L37.23 66.37L36.93 65.5L36.6 64.62L36.03 62.87L35.77 61.97L35.28 60.26L34.81 58.55L34.41 56.89L34.24 56.06L33.92 54.48L33.78 53.71L33.55 52.21L33.45 51.5L33.38 50.8L33.32 50.14L33.29 49.48L33.29 48.85L33.27 48.26L33.29 47.66L33.29 47.12L33.38 46.09L33.47 45.64L33.64 44.82L33.75 44.42L33.89 44.03L34.01 43.61L34.14 43.23L34.48 42.43L34.81 41.67L35.21 40.91L35.4 40.58L35.85 39.85L36.08 39.53L36.81 38.53L37.07 38.2L37.61 37.59L37.89 37.31L38.17 37L38.45 36.75L38.74 36.47L39.36 35.97L39.65 35.74L39.99 35.5L40.28 35.29L40.91 34.9L41.91 34.39L42.57 34.13L43.23 33.92L44.44 33.67L45.71 33.5L47.03 33.38L48.46 33.37L49.95 33.41L51.5 33.58L53.09 33.8L54.74 34.13L56.47 34.49L58.24 34.94L60.09 35.49L61.97 36.08L63.91 36.78L65.89 37.51L67.94 38.33L70.03 39.23L72.18 40.22L74.34 41.26L76.55 42.35L78.81 43.51L81.1 44.73L83.41 46.02L85.78 47.4L88.18 48.82L90.59 50.31L93.05 51.87L95.53 53.48L98 55.14L100.54 56.88L103.09 58.67L105.65 60.52L108.23 62.42L110.85 64.35L113.46 66.37L116.11 68.45L118.76 70.56L121.4 72.71L124.05 74.93L126.69 77.2L129.33 79.51L138.31 87.48L150.64 84.93L152.49 84.59L154.26 84.26L155.11 84.09L156.36 83.85L156.75 83.79L157.51 83.64L157.88 83.57L158.59 83.44L159.25 83.33L159.58 83.29L159.88 83.23L160.46 83.15L160.72 83.12L160.97 83.06L161.21 83.03L161.66 82.97L161.87 82.95L162.03 82.95L162.95 82.95L163.09 82.92L163.26 82.85L163.39 82.78L163.55 82.68L163.82 82.42L163.93 82.26L164.06 82.09L164.18 81.87L164.3 81.63L164.4 81.36L164.52 81.07L164.65 80.73L164.75 80.37L164.84 79.99L164.94 79.57L165.04 79.13L165.15 78.67L165.24 78.17L165.34 77.64L165.42 77.07L165.52 76.48L165.6 75.82L165.7 75.15L165.79 74.45L165.87 73.72L165.97 72.94L166.05 72.11L166.12 71.28L166.2 70.41L166.29 69.49L166.36 68.53L166.45 67.53L166.53 66.49L166.6 65.42L166.68 64.28L166.77 63.13L166.85 61.93L166.91 60.68L167.01 58.87L167.09 57.04L167.16 55.29L167.26 51.81L167.26 46.85L167.23 45.25L167.19 43.66L167.06 40.59L166.98 39.11L166.86 37.65L166.75 36.23L166.61 34.84L166.45 33.48L166.29 32.16L166.12 30.89L165.95 29.65L165.74 28.46L165.53 27.3L165.31 26.19L165.06 25.11L164.82 24.09L164.55 23.09L164.27 22.15L163.99 21.25L163.65 20.4L163.32 19.61L162.99 18.83L162.66 18.14L162.29 17.47L161.93 16.86L161.55 16.3L161.17 15.8L160.78 15.35L160.36 14.95L159.95 14.63L159.5 14.34L159.07 14.13L158.57 13.96L158.07 13.78L157.58 13.69L157.09 13.66L156.59 13.68L156.09 13.78L155.55 13.86L154.98 14.03L154.42 14.23L153.84 14.46L152.64 15.12L152.04 15.52L151.41 15.95L150.78 16.44L150.12 16.97L149.46 17.55L148.8 18.18L148.14 18.84L147.47 19.57L146.74 20.34L146.04 21.13L145.31 21.95L144.56 22.86L143.79 23.79L143.05 24.79L142.28 25.81L141.48 26.86L140.71 28.03L139.88 29.19L139.05 30.37L138.22 31.65L137.4 32.94L136.57 34.27L135.74 35.65L134.87 37.07L133.12 40.06L132.22 41.63L124.41 55.28L119.28 55.94L119.12 55.95L118.91 55.97L118.76 55.97L118.55 55.97L118.39 55.97L118.22 55.97L118.06 55.97L116.74 55.97L116.6 55.97L116.49 55.97L116.32 55.95L116.2 55.95L116.09 55.94L115.76 55.87L115.59 55.87L115.43 55.8L115.36 55.8L115.19 55.7L115.14 55.67L115.13 55.63L115.1 55.59L115.08 55.52L115.08 55.47L115.11 55.28L115.17 55.03L115.26 54.69L115.38 54.34L115.54 53.93L115.71 53.47L115.91 52.98L116.15 52.44L116.39 51.83L116.67 51.22L116.96 50.55L117.3 49.89L117.62 49.19L117.96 48.46L118.32 47.72L118.72 46.93L119.5 45.32L120.33 43.66L120.75 42.84L121.18 41.97L122.5 39.46L122.97 38.63L123.41 37.8L123.85 36.97L124.31 36.15L125.17 34.59L125.6 33.85L126.01 33.12L126.43 32.43L126.84 31.77L127.23 31.1L127.58 30.51L127.96 29.95L128.28 29.4L128.62 28.91L129.33 27.83L130.79 25.73L131.51 24.73L132.92 22.78L134.3 20.96L135 20.07L137.02 17.54L137.68 16.75L138.34 15.98L139 15.24L139.67 14.52L140.96 13.17L141.62 12.51L142.87 11.28L143.5 10.72L144.73 9.63L145.95 8.64L146.56 8.18L147.16 7.73L147.82 7.17L148.98 6.41L149.57 6.09L150.15 5.75L150.73 5.46L151.3 5.19L151.89 4.94L152.43 4.7L152.99 4.5L153.56 4.34L154.1 4.17L154.8 4L155.17 3.94L155.49 3.9L155.86 3.87L156.59 3.83L156.96 3.83L157.34 3.86L157.71 3.89L158.51 4L159.29 4.14ZM154.42 94.07L152.43 94.65L150.78 95.21L149.53 95.7L148.77 96.13L148.65 96.47L150.54 98.57L153.34 101.46L156.36 104.41L158.8 106.68L159.96 107.57L160.23 107.14L160.59 106.09L161.02 104.52L161.52 102.54L161.98 100.27L162.45 97.68L162.7 95.64L162.7 94.2L162.48 93.27L162.03 92.88L161.3 92.81L160.06 92.91L158.41 93.16L156.49 93.57L154.42 94.07ZM72.81 91.8C75.59 86.56 82.4 78.85 88.1 74.53C88.39 74.28 89.88 73.11 92.6 70.97C92.98 71.24 96.05 73.42 96.43 73.69C98.53 75.18 100.33 76.61 100.41 76.99C100.48 77.3 99.04 78.65 97.2 79.81C95.28 81.07 91.77 83.95 89.37 86.19C86.33 89.18 82.98 91.13 77.84 93.05C77.84 93.04 75.45 93.97 70.66 95.81C71.95 93.41 72.66 92.07 72.81 91.8ZM63.83 133.37C63.62 129.49 63.94 129.08 67.85 127.26C70.16 126.22 72.18 125.43 72.42 125.5C72.57 125.67 73.24 129.44 73.74 134.03C75.56 148.86 84.86 163.62 97.83 172.01C104.97 176.74 115.36 180.27 122.94 180.71C125.88 180.88 128.39 181.37 128.45 181.7C128.56 182.11 127.73 184.24 126.63 186.58C126.5 186.87 125.85 188.3 124.68 190.88C124.11 190.8 119.57 190.14 119 190.05C95.68 181.23 80.61 171.62 73.75 161.25C69.4 154.61 64.16 139.83 63.83 133.37ZM157.1 71.63C156.81 73.79 147.23 74.73 141.45 73.16C137.31 72.04 130.82 67.76 126.15 63.13C122.92 59.91 141.53 62.29 151.41 66.43C157.06 68.74 157.5 69.07 157.1 71.63ZM177.83 154.89C178.76 156.34 180.06 158.03 180.71 158.94C181.54 159.99 180.72 161.7 178.01 165.22C171.45 173.82 156.44 185.38 157.69 180.85C159.98 173.4 162.99 167.52 167.16 163.11C169.74 160.34 172.56 156.81 173.26 155.48C175.01 152.01 175.74 152.01 177.83 154.89ZM185.62 99C187.81 103.13 191.05 116.09 191.52 122.28C191.8 125.31 191.66 127.9 191.37 128C190.96 128.1 188.72 125.6 186.18 122.64C182.95 118.67 181.37 115.56 180.26 111.35C177.48 100.99 181.75 91.38 185.62 99Z" id="a3IqxAPUwt"></path></defs><g><g><g><use xlink:href="#bUgnjDvF" opacity="1" fill="#000000" fill-opacity="1"></use><g><use xlink:href="#bUgnjDvF" opacity="1" fill-opacity="0" stroke="#000000" stroke-width="1" stroke-opacity="0"></use></g></g><g><use xlink:href="#a3IqxAPUwt" opacity="1" fill="#000000" fill-opacity="0"></use><g><use xlink:href="#a3IqxAPUwt" opacity="1" fill-opacity="0" stroke="#000000" stroke-width="1" stroke-opacity="0"></use></g></g></g></g></svg>