<?xml version="1.0" encoding="UTF-8" standalone="no"?>
<!DOCTYPE svg PUBLIC "-//W3C//DTD SVG 1.1//EN" "http://www.w3.org/Graphics/SVG/1.1/DTD/svg11.dtd">
<svg version="1.1" xmlns="http://www.w3.org/2000/svg" xmlns:xlink="http://www.w3.org/1999/xlink" preserveAspectRatio="xMidYMid meet" viewBox="0 0 1200 630" width="1200" height="630"><defs><path d="M0 0L1200 0L1200 630L0 630L0 0Z" id="asFWYmKb"></path><path d="M646.23 127.7L647.41 127.9L648.01 128.03L648.58 128.15L649.15 128.33L649.75 128.5L650.93 128.9L651.5 129.15L652.1 129.4L653.23 129.9L653.8 130.15L654.9 130.75L656 131.4L657.58 132.47L659.08 133.67L660.03 134.52L660.92 135.42L661.35 135.92L661.6 136.22L661.85 136.55L662.1 136.85L662.35 137.2L662.6 137.5L663.1 138.15L663.35 138.5L663.6 138.82L664.02 139.5L664.47 140.25L664.87 141L665.27 141.79L665.47 142.22L665.85 143.12L666.02 143.62L666.27 144.12L666.45 144.62L666.65 145.12L666.82 145.69L667.02 146.27L667.2 146.84L667.6 148.09L667.8 148.74L668 149.44L668.25 150.19L669.82 156.06L670.07 157.06L670.42 158.41L670.75 159.79L671.35 162.61L671.6 164.06L671.9 165.49L672.15 166.98L672.6 169.98L672.85 171.48L673.04 173.06L673.22 174.61L673.39 176.21L673.54 177.81L673.69 179.43L673.82 181.05L673.92 182.73L674.04 184.4L674.29 189.55L674.39 196.72L674.32 202.3L674.17 206.12L674.12 208.07L673.99 210.02L673.89 212.02L673.64 216.01L673.47 218.06L673.32 220.11L672.67 227.11L672.62 227.76L672.55 228.41L672.5 229.08L672.4 230.38L672.3 231.63L672.25 232.23L672.17 233.43L672.12 233.98L672.1 234.56L672.1 235.13L672.05 235.63L672.02 236.18L672.02 237.18L671.95 238.11L671.95 238.53L671.92 238.98L671.87 239.78L671.87 240.53L671.87 240.85L671.87 241.48L671.85 241.98L671.87 242.23L671.87 242.43L671.87 242.63L671.87 242.78L671.87 242.9L671.87 243.03L671.9 243.1L671.92 243.15L671.95 243.15L672 243.15L672.07 243.18L673.74 243.18L674.07 243.15L674.42 243.15L674.79 243.15L675.19 243.15L676.04 243.1L676.97 243.05L677.47 243.03L678.52 243.03L679.67 242.93L680.27 242.93L680.84 242.88L681.47 242.83L682.12 242.78L682.79 242.73L683.47 242.73L684.12 242.68L684.82 242.63L685.56 242.55L686.31 242.5L687.01 242.5L688.51 242.4L689.26 242.33L690.81 242.2L691.56 242.13L695.06 241.88L698.48 241.63L701.88 241.43L708.48 241.18L711.73 241.1L714.88 241.05L718 241.05L721.05 241.05L724.05 241.1L726.97 241.18L732.65 241.43L735.39 241.63L738.07 241.83L740.69 242.08L743.27 242.33L745.77 242.63L748.19 242.95L750.54 243.33L752.86 243.73L755.06 244.15L757.24 244.65L759.31 245.15L761.31 245.65L763.26 246.2L765.13 246.8L766.93 247.4L768.68 248.05L770.36 248.73L771.93 249.43L773.43 250.18L774.88 250.93L776.23 251.73L777.48 252.55L778.73 253.42L779.85 254.3L780.9 255.2L781.85 256.15L782.75 257.15L783.1 257.57L783.78 258.4L784.08 258.8L784.38 259.22L784.62 259.65L784.87 260.05L785.37 260.8L785.62 261.22L786.25 262.4L786.45 262.8L786.62 263.17L786.77 263.6L787.17 264.77L787.42 265.59L787.57 266.42L787.65 266.82L787.7 267.27L787.75 267.67L787.75 268.09L787.8 268.99L787.8 269.44L787.75 270.34L787.72 270.84L787.67 271.34L787.65 271.84L787.5 272.84L787.4 273.34L787.3 273.89L787.22 274.39L787.02 275.27L786.77 276.14L786.47 277.04L786.15 277.94L785.77 278.86L785.35 279.81L784.9 280.74L784.4 281.74L783.85 282.69L783.25 283.69L782.63 284.69L781.98 285.69L780.48 287.69L778.88 289.74L777.98 290.73L777.1 291.78L774.15 294.88L773.1 295.96L770.91 298.06L769.76 299.13L767.36 301.23L766.11 302.31L763.53 304.4L762.21 305.48L760.83 306.48L756.59 309.6L755.09 310.6L752.04 312.6L750.49 313.6L748.91 314.6L747.96 315.2L746.97 315.8L745.92 316.42L744.87 317.07L743.74 317.72L742.59 318.37L740.19 319.72L738.94 320.47L737.69 321.15L736.44 321.85L735.19 322.6L732.62 324L731.32 324.67L730.07 325.37L728.77 326.05L726.27 327.37L725.02 328.02L723.77 328.64L722.57 329.27L720.28 330.42L718.13 331.47L717.08 331.97L716.13 332.47L715.2 332.89L714.33 333.32L713.53 333.69L712.78 334.02L712.1 334.27L711.45 334.52L710.95 334.77L710.45 334.92L710.03 335.07L709.73 335.14L709.48 335.19L709.36 335.14L709.26 335.04L709.16 334.89L709.08 334.69L709.01 334.44L708.96 334.19L708.93 333.87L708.88 333.52L708.88 333.14L708.91 332.72L708.91 332.22L708.93 331.77L708.98 331.27L709.01 330.77L709.13 329.67L709.21 329.12L709.46 327.37L709.56 326.77L709.81 325.6L709.93 325L710.18 323.87L710.33 323.32L710.45 322.77L710.63 322.27L710.75 321.77L710.93 321.27L711.1 320.82L711.4 320.02L711.55 319.65L711.73 319.32L711.9 319.02L712.05 318.77L712.23 318.52L712.38 318.37L712.53 318.25L712.78 318.15L713.03 318.02L713.15 317.92L713.33 317.82L713.48 317.75L713.65 317.67L713.85 317.57L714.25 317.32L714.7 317.12L714.95 316.97L715.2 316.87L715.7 316.57L716.5 316.17L717.05 315.87L717.63 315.55L718.23 315.25L719.15 314.75L719.45 314.58L720.08 314.25L720.4 314.08L721.03 313.75L721.38 313.6L721.68 313.43L722 313.28L722.33 313.1L722.65 312.95L726.07 311.2L727.75 310.3L729.42 309.35L731.07 308.45L732.7 307.55L734.3 306.63L737.44 304.75L738.94 303.85L741.94 301.98L743.39 301.03L744.82 300.13L746.24 299.18L747.61 298.26L748.96 297.31L750.29 296.41L751.59 295.48L754.09 293.63L755.26 292.76L756.41 291.83L757.54 290.93L758.64 290.04L760.73 288.29L761.73 287.41L763.58 285.71L765.26 284.04L766.76 282.41L767.46 281.61L768.13 280.86L768.73 280.11L769.31 279.36L769.81 278.61L770.71 277.17L771.06 276.47L771.41 275.72L771.71 275.04L771.96 274.37L772.15 273.69L772.3 273.04L772.4 272.39L772.45 271.74L772.45 270.49L772.38 269.87L772.25 269.27L772.08 268.72L771.88 268.14L771.63 267.57L771.33 267.02L770.98 266.52L770.18 265.47L769.18 264.47L767.98 263.52L767.33 263.07L766.63 262.62L765.13 261.77L763.43 260.95L762.51 260.57L761.51 260.2L760.51 259.85L759.46 259.5L758.39 259.15L757.24 258.8L756.06 258.47L754.81 258.17L753.56 257.92L752.26 257.67L751.09 257.42L749.84 257.17L748.51 256.97L747.07 256.82L745.57 256.62L743.99 256.47L742.37 256.32L740.69 256.2L738.94 256.07L737.14 255.95L735.29 255.85L731.5 255.7L729.5 255.62L727.5 255.57L725.5 255.57L721.33 255.52L719.25 255.55L717.13 255.55L710.7 255.62L708.58 255.7L706.43 255.77L704.28 255.82L702.18 255.95L700.06 256.02L697.96 256.17L695.91 256.3L693.84 256.45L691.84 256.57L687.91 256.92L686.01 257.1L684.14 257.3L682.34 257.5L678.84 258L677.22 258.25L668.67 259.55L665.17 279.11L661.52 298.68L678.52 318.52L681.12 321.65L683.69 324.72L686.19 327.72L688.64 330.72L691.01 333.72L693.34 336.67L695.59 339.57L697.78 342.44L699.96 345.26L702.06 348.09L704.11 350.84L706.11 353.58L708.06 356.33L709.93 359.01L711.75 361.68L715.25 366.93L716.93 369.5L718.55 372.05L720.1 374.55L721.6 377.05L723.05 379.5L724.45 381.95L725.8 384.32L727.1 386.72L728.35 389.1L729.55 391.42L730.67 393.72L731.75 395.97L732.8 398.22L733.8 400.47L734.72 402.66L735.62 404.91L736.44 407.06L737.24 409.21L737.99 411.36L738.69 413.46L739.32 415.53L739.89 417.61L740.27 418.91L740.57 420.16L740.92 421.41L741.17 422.61L741.42 423.76L741.67 424.88L741.92 425.98L742.12 427.08L742.32 428.08L742.47 429.08L742.64 430.08L742.74 431.08L742.84 432L742.92 432.93L742.97 433.83L743.02 434.68L743.02 436.35L742.94 437.95L742.87 438.7L742.77 439.45L742.64 440.2L742.34 441.65L742.14 442.32L741.89 443.02L741.39 444.32L741.09 444.97L740.79 445.6L740.47 446.25L740.12 446.87L739.37 448.12L738.94 448.72L738.49 449.32L737.99 449.92L737.49 450.5L736.99 451.1L736.24 451.92L735.49 452.67L734.7 453.42L733.85 454.07L732.97 454.67L732.07 455.24L731.12 455.74L730.12 456.24L729.12 456.67L728.07 457.02L727 457.34L724.7 457.84L723.45 458.02L722.2 458.14L720.95 458.14L718.25 458.14L716.85 458.04L715.43 457.94L713.93 457.74L712.43 457.49L710.88 457.24L709.23 456.92L707.61 456.54L705.91 456.14L702.41 455.14L700.58 454.59L698.71 453.97L696.79 453.32L694.84 452.57L692.84 451.82L690.79 451.02L688.69 450.17L686.54 449.25L682.04 447.25L679.74 446.17L677.42 445.05L676.59 444.67L675.74 444.25L674.82 443.75L673.82 443.25L672.77 442.7L671.7 442.07L670.57 441.45L669.42 440.8L668.22 440.1L664.47 437.85L663.22 437.05L661.9 436.3L659.3 434.68L657.98 433.88L656.65 433.05L655.4 432.2L654.1 431.4L651.6 429.8L650.35 428.98L649.18 428.23L648.03 427.48L646.91 426.73L645.86 425.98L644.86 425.28L643.86 424.61L642.96 424.01L642.11 423.38L641.36 422.81L640.61 422.31L639.98 421.81L639.43 421.38L638.98 420.96L638.58 420.63L638.33 420.33L638.13 420.08L638.03 419.91L638.03 419.91L638.06 419.81L638.11 419.66L638.23 419.53L638.23 419.43L638.38 419.28L638.63 419.11L639.13 418.71L639.28 418.61L639.46 418.48L639.61 418.38L639.78 418.28L639.96 418.16L640.16 418.03L640.36 417.93L640.53 417.81L640.93 417.56L641.18 417.43L641.43 417.33L641.63 417.18L642.63 416.68L642.88 416.53L643.13 416.41L643.38 416.31L643.93 416.06L644.43 415.81L650.98 413.06L673.79 426.43L676.09 427.73L678.34 428.98L680.54 430.23L682.72 431.4L684.82 432.5L686.89 433.58L690.89 435.58L692.84 436.5L694.69 437.35L696.54 438.18L698.33 438.93L700.08 439.62L701.78 440.3L703.43 440.9L705.01 441.45L706.58 441.95L708.08 442.4L709.53 442.8L710.93 443.15L712.28 443.45L713.58 443.7L714.83 443.9L716.03 444.07L717.18 444.15L718.25 444.15L719.33 444.15L720.33 444.07L721.28 443.97L722.15 443.82L723 443.57L723.8 443.32L724.55 443L725.22 442.62L725.85 442.2L726.42 441.75L726.92 441.2L727.37 440.62L727.77 439.97L728.32 438.88L728.72 437.63L728.97 436.3L729.12 434.8L729.17 433.23L729.1 431.48L728.9 429.68L728.6 427.73L728.15 425.73L727.65 423.58L727 421.33L726.25 419.01L725.37 416.58L724.42 414.09L723.35 411.49L722.18 408.81L720.93 406.06L719.55 403.21L718.05 400.29L716.48 397.34L714.83 394.27L713.08 391.17L711.23 388L709.31 384.75L705.21 378.12L703.03 374.75L700.78 371.33L698.46 367.83L696.04 364.33L690.96 357.23L688.34 353.66L685.59 350.01L682.84 346.39L679.97 342.69L677.07 339.02L674.07 335.32L671.02 331.62L667.95 327.87L657.53 315.62L652.4 334.47L650.55 341.14L648.65 347.76L646.71 354.31L644.71 360.73L642.71 367.1L640.61 373.35L638.51 379.5L636.33 385.57L634.14 391.52L631.94 397.39L629.69 403.14L627.44 408.76L625.14 414.26L622.79 419.61L620.47 424.86L618.09 429.98L615.69 434.93L613.29 439.75L610.85 444.45L608.45 449L606 453.34L603.55 457.59L601.1 461.67L598.65 465.56L596.15 469.31L593.73 472.86L591.28 476.23L588.85 479.43L586.4 482.43L583.98 485.26L581.58 487.88L579.21 490.3L576.81 492.5L574.46 494.5L572.14 496.33L569.84 497.93L567.54 499.3L565.29 500.45L563.09 501.37L560.89 502.07L560.39 502.2L559.34 502.4L558.79 502.45L557.72 502.55L556.02 502.55L555.44 502.5L554.84 502.45L554.27 502.37L553.69 502.27L552.52 502.02L551.94 501.87L551.34 501.72L550.77 501.52L550.19 501.35L549.02 500.9L547.27 500.15L546.17 499.6L545.6 499.3L543.97 498.3L543.47 497.95L541.97 496.83L540.55 495.58L540.1 495.15L539.25 494.2L538.8 493.7L538.3 493.08L537.85 492.43L537.42 491.73L536.92 490.98L536.5 490.18L536.05 489.35L535.6 488.46L534.75 486.56L533.9 484.51L533.5 483.43L532.7 481.18L531.9 478.83L531.55 477.58L531.18 476.33L530.48 473.79L529.83 471.14L529.5 469.79L528.93 467.04L528.38 464.24L528.13 462.84L527.68 460.04L527.48 458.62L527.13 455.82L527 454.42L526.75 451.59L526.55 448.85L526.53 447.5L526.48 446.5L526.43 445.4L526.43 432.95L526.5 429.8L526.53 428.2L526.58 426.6L526.6 424.98L526.75 420.18L526.88 417.06L526.95 415.56L527 414.06L527.08 412.61L527.13 411.21L527.23 409.86L527.38 407.36L527.45 406.19L527.53 405.11L527.6 404.11L527.68 403.19L527.78 402.34L527.85 401.59L527.93 400.94L528.03 400.39L528.1 399.94L528.18 399.62L528.25 399.42L528.33 399.32L528.38 399.34L528.43 399.32L528.5 399.37L528.58 399.37L528.65 399.42L528.73 399.44L528.98 399.57L529.05 399.64L529.45 399.89L529.58 399.97L529.88 400.17L530.05 400.27L530.23 400.39L530.98 400.89L531.23 401.04L531.4 401.17L531.65 401.32L531.9 401.49L532.1 401.62L532.6 401.96L532.85 402.11L533.6 402.61L534.35 403.16L534.85 403.51L535.35 403.91L541.6 408.54L541 423.28L540.92 424.88L540.9 426.53L540.9 428.15L540.85 431.4L540.85 434.65L540.92 439.47L541.02 442.67L541.1 444.25L541.15 445.8L541.25 447.3L541.35 448.85L541.65 453.34L541.9 456.19L542.05 457.59L542.17 458.97L542.5 461.62L542.85 464.16L543.05 465.36L543.22 466.54L543.42 467.69L543.62 468.76L543.87 469.86L544.12 470.86L544.32 471.86L544.57 472.79L544.82 473.69L545.07 474.54L545.57 476.04L546.07 477.41L546.62 478.71L547.12 479.96L547.67 481.08L548.25 482.13L548.85 483.08L549.44 483.98L550.04 484.78L550.69 485.53L551.34 486.18L552.04 486.73L552.72 487.23L553.42 487.61L554.17 487.93L554.92 488.13L555.67 488.28L556.42 488.33L557.24 488.33L558.07 488.21L558.92 488.01L559.82 487.71L560.69 487.36L561.64 486.91L562.59 486.36L563.59 485.76L564.59 485.01L565.64 484.21L566.69 483.33L567.79 482.33L568.89 481.28L570.01 480.13L571.19 478.88L572.39 477.56L573.64 476.16L574.88 474.66L576.13 473.09L577.46 471.41L578.83 469.66L580.21 467.84L581.63 465.91L583.13 463.74L584.71 461.49L586.25 459.12L587.83 456.69L589.38 454.14L590.95 451.52L592.55 448.77L594.13 445.95L595.73 443.07L597.3 440.07L598.87 437L600.47 433.85L603.6 427.35L605.17 423.98L606.75 420.56L608.32 417.06L609.9 413.51L611.44 409.86L612.99 406.19L614.49 402.44L615.99 398.64L617.49 394.79L618.99 390.89L621.99 382.9L623.49 378.85L624.91 374.75L626.36 370.65L627.79 366.48L629.19 362.31L630.56 358.06L631.91 353.81L633.24 349.56L634.54 345.24L635.83 340.89L637.08 336.54L638.33 332.17L640.73 323.37L646.23 302.95L633.49 290.09L626.99 283.59L625.99 282.64L625.54 282.14L625.04 281.69L624.54 281.19L624.09 280.76L623.64 280.26L622.74 279.39L622.34 278.96L620.69 277.42L620.34 277.07L619.99 276.69L619.29 276.04L618.99 275.72L618.69 275.42L618.39 275.17L617.64 274.42L617.39 274.22L612.04 269.34L565.94 282.89L562.24 284.04L558.59 285.14L555.02 286.29L551.52 287.39L548.07 288.51L544.67 289.61L541.32 290.73L538.02 291.86L534.78 292.98L528.48 295.18L525.4 296.33L522.41 297.43L519.41 298.56L516.46 299.71L513.58 300.83L510.74 301.98L507.91 303.15L502.41 305.45L499.71 306.63L497.07 307.8L494.44 308.98L489.29 311.38L484.3 313.88L479.4 316.37L474.6 318.92L472.23 320.22L469.9 321.47L467.58 322.82L462.65 325.27L460.41 326.65L458.16 328.04L456.01 329.37L453.96 330.69L451.96 332.02L450.06 333.32L448.26 334.57L446.51 335.82L444.81 337.07L443.24 338.32L441.74 339.52L440.29 340.76L438.94 341.96L437.69 343.11L436.49 344.29L435.37 345.41L434.37 346.54L433.37 347.64L432.49 348.71L431.69 349.79L430.94 350.84L430.29 351.84L429.74 352.83L429.24 353.83L428.84 354.83L428.52 355.78L428.27 356.68L428.09 357.58L427.99 358.46L427.99 359.33L428.07 360.16L428.24 360.98L428.49 361.73L428.82 362.48L429.24 363.23L429.74 363.98L430.32 364.68L430.97 365.33L431.72 365.95L432.54 366.58L433.44 367.18L434.44 367.73L435.19 368.13L435.99 368.5L436.87 368.88L437.76 369.25L438.69 369.58L439.69 369.93L440.74 370.25L441.79 370.55L442.91 370.88L444.09 371.18L445.29 371.43L447.79 371.93L449.09 372.18L450.43 372.43L451.83 372.68L453.26 372.88L454.71 373.08L456.21 373.28L457.71 373.45L460.83 373.78L462.43 373.9L465.73 374.15L467.4 374.25L469.1 374.33L470.85 374.43L472.6 374.48L474.4 374.53L478 374.58L483.55 374.58L485.42 374.53L487.32 374.5L489.22 374.45L491.14 374.38L493.09 374.28L493.44 374.25L493.82 374.23L494.17 374.23L494.54 374.2L495.24 374.15L495.94 374.13L496.32 374.13L497.72 374.13L498.04 374.13L498.39 374.1L499.69 374.08L499.99 374.05L500.64 374.05L500.89 374.03L501.49 374.03L501.74 374L501.99 374L502.49 373.98L502.74 373.95L502.99 373.98L503.19 373.98L503.39 373.95L504.64 373.95L504.89 374.03L505.14 374.13L505.39 374.28L505.64 374.45L505.94 374.65L506.24 374.9L506.59 375.15L506.96 375.4L507.31 375.7L507.69 376.05L508.09 376.43L509.66 378L510.06 378.42L511.26 379.77L511.66 380.27L512.41 381.2L512.76 381.65L513.46 382.52L513.76 382.97L514.06 383.4L514.61 384.2L514.86 384.6L515.11 384.95L515.43 385.6L515.56 385.9L515.66 386.15L515.73 386.4L515.76 386.65L515.76 386.82L515.71 386.97L515.63 387.05L515.01 387.22L514.81 387.22L514.31 387.27L513.56 387.42L513.23 387.42L512.53 387.5L512.18 387.55L511.78 387.57L511.39 387.62L510.96 387.62L510.09 387.7L509.16 387.8L508.66 387.82L508.16 387.9L506.61 388L506.06 388.05L504.94 388.15L504.36 388.15L503.79 388.2L501.99 388.3L501.36 388.3L500.79 388.32L500.16 388.37L497.59 388.5L495.09 388.65L492.59 388.72L490.14 388.82L487.72 388.9L482.97 388.95L478.4 388.95L476.15 388.9L473.9 388.9L471.73 388.8L469.55 388.72L465.38 388.47L463.33 388.3L461.33 388.15L459.33 387.95L455.48 387.5L451.78 387L450.03 386.75L446.54 386.1L444.86 385.75L443.21 385.37L441.64 385L440.06 384.57L437.07 383.72L435.62 383.22L434.24 382.72L432.89 382.22L431.57 381.72L430.27 381.17L429.02 380.6L427.82 380.05L426.67 379.45L425.54 378.8L424.55 378.22L423.55 377.6L422.6 376.98L421.72 376.35L420.87 375.73L420.05 375.05L418.55 373.75L417.85 373.08L417.22 372.4L416.62 371.7L416.05 371L415.05 369.5L414.6 368.75L414.2 368L413.85 367.25L413.52 366.5L413.27 365.75L412.85 364.18L412.72 363.38L412.6 362.56L412.52 361.71L412.5 360.88L412.52 360.01L412.57 359.13L412.67 358.28L412.8 357.38L412.97 356.48L413.17 355.56L413.42 354.63L413.72 353.71L414.05 352.76L414.42 351.76L414.85 350.76L415.3 349.76L416.3 347.76L416.85 346.76L418.7 343.84L419.7 342.41L420.8 340.91L421.97 339.47L423.22 337.97L424.55 336.47L427.39 333.52L428.94 332.02L430.54 330.52L432.24 329.02L433.99 327.52L435.82 326.02L437.71 324.52L441.71 321.52L443.81 320.02L446.06 318.52L450.63 315.52L453.03 314.03L455.53 312.53L458.08 311.03L460.68 309.53L463.38 308.03L466.13 306.53L468.95 305.03L471.83 303.53L474.82 302.03L477.87 300.53L480.95 299.03L484.12 297.53L487.37 296.03L490.67 294.53L494.04 293.03L497.49 291.53L500.99 290.04L504.56 288.54L508.21 287.04L509.84 286.36L511.59 285.66L513.51 284.91L517.68 283.36L519.93 282.51L524.68 280.76L527.18 279.89L529.75 278.96L532.43 278.04L535.1 277.09L537.85 276.17L540.6 275.22L543.4 274.27L546.25 273.32L549.07 272.37L554.72 270.49L568.34 266.09L570.94 265.3L573.44 264.55L575.83 263.8L580.41 262.42L582.53 261.8L584.53 261.22L586.4 260.72L588.15 260.22L589.73 259.8L591.18 259.45L592.43 259.12L593.53 258.87L594.45 258.67L595.2 258.55L595.75 258.52L599.62 258.45L595.7 254.65L595.05 254.05L594.3 253.35L593.5 252.65L592.6 251.9L591.65 251.05L590.65 250.18L589.53 249.23L588.38 248.23L587.13 247.23L585.88 246.18L584.53 245.1L583.18 243.98L581.73 242.83L578.73 240.48L577.23 239.28L574.03 236.78L572.41 235.53L569.11 232.98L565.76 230.43L564.01 229.18L562.34 227.94L560.64 226.69L557.29 224.19L555.64 222.94L553.99 221.74L552.37 220.56L550.77 219.41L549.19 218.26L547.7 217.19L546.2 216.14L544.75 215.09L543.35 214.09L541.95 213.14L540.65 212.24L539.35 211.39L535.5 208.89L533.55 207.64L531.65 206.44L527.8 204.14L525.88 203.02L523.98 201.95L520.18 199.85L518.31 198.85L516.46 197.85L514.61 196.9L512.81 196L509.21 194.3L507.46 193.5L504.01 192L502.34 191.32L500.69 190.65L499.07 190.03L497.47 189.45L495.97 188.9L492.97 187.9L491.52 187.48L490.14 187.1L488.79 186.75L487.47 186.45L486.22 186.2L485.02 186L483.82 185.83L482.72 185.7L481.65 185.63L479.7 185.63L478.8 185.7L477.95 185.8L477.2 185.98L476.32 186.23L475.5 186.58L474.75 187.08L474.08 187.63L473.5 188.25L473 188.95L472.55 189.75L472.18 190.63L471.85 191.57L471.6 192.62L471.45 193.72L471.35 194.92L471.33 196.17L471.38 197.5L471.5 198.9L471.65 200.4L471.9 201.95L472.2 203.52L472.58 205.19L473.03 206.94L473.53 208.77L474.08 210.59L475.45 214.52L476.2 216.51L477.02 218.59L477.92 220.74L478.92 222.94L479.92 225.19L481 227.44L482.17 229.78L483.37 232.13L484.62 234.56L485.95 237.01L487.34 239.51L488.79 242.05L490.29 244.63L491.89 247.23L493.52 249.88L495.19 252.55L502.19 263.62L499.07 270.77L498.94 271.07L498.69 271.62L498.57 271.94L498.32 272.52L498.17 272.77L498.04 273.07L497.92 273.32L497.79 273.62L497.69 273.87L497.44 274.37L497.34 274.62L497.09 275.12L497.02 275.37L496.89 275.62L496.64 276.22L496.52 276.42L496.44 276.59L496.12 277.24L495.87 277.64L495.82 277.74L495.74 277.84L495.62 278.09L495.44 278.26L495.32 278.26L494.92 277.86L494.62 277.54L494.29 277.09L493.89 276.59L493.44 275.99L492.94 275.29L492.39 274.54L491.82 273.72L490.57 271.84L489.89 270.84L489.19 269.77L488.44 268.64L487.64 267.42L486.07 264.92L484.42 262.35L481.92 258.35L481.07 256.95L480.25 255.57L479.4 254.22L477.77 251.48L476.95 250.13L476.2 248.8L475.4 247.48L473.95 244.98L473.25 243.73L472.58 242.55L471.95 241.4L471.33 240.33L470.78 239.33L469.78 237.43L469.13 236.23L468.5 234.98L467.9 233.73L466.7 231.18L466.15 229.88L465.03 227.26L463.53 223.26L463.03 221.91L462.58 220.59L462.08 219.26L461.23 216.61L460.83 215.27L460.08 212.67L459.38 210.09L458.78 207.59L458.53 206.34L458.03 203.94L457.83 202.77L457.48 200.52L457.33 199.45L457.23 198.4L457.13 197.4L457.08 196.4L457.08 195.45L457.06 194.55L457.08 193.65L457.08 192.82L457.23 191.27L457.36 190.6L457.61 189.35L457.78 188.75L457.98 188.15L458.18 187.53L458.38 186.95L458.88 185.75L459.38 184.6L459.98 183.45L460.28 182.95L460.96 181.85L461.31 181.35L462.4 179.85L462.8 179.35L463.6 178.43L464.03 178.01L464.45 177.56L464.88 177.16L465.33 176.73L466.25 175.98L466.7 175.63L467.2 175.28L467.65 174.96L468.6 174.36L470.1 173.61L471.1 173.21L472.1 172.88L473.93 172.51L475.85 172.26L477.85 172.08L480 172.06L482.25 172.13L484.6 172.38L486.99 172.71L489.49 173.21L492.09 173.76L494.77 174.43L497.57 175.26L500.41 176.16L503.34 177.21L506.34 178.31L509.44 179.55L512.58 180.9L515.83 182.4L519.08 183.98L522.43 185.63L525.85 187.38L529.3 189.23L532.8 191.17L536.38 193.25L540 195.4L543.65 197.65L547.35 200L551.09 202.45L554.84 204.94L558.67 207.57L562.51 210.27L566.39 213.07L570.29 215.94L574.23 218.86L578.18 221.91L582.18 225.04L586.18 228.23L590.18 231.48L594.18 234.83L598.18 238.26L602.17 241.75L615.72 253.8L634.34 249.93L637.13 249.43L639.81 248.93L641.11 248.68L642.98 248.3L643.58 248.23L644.73 247.98L645.28 247.88L646.36 247.7L647.36 247.53L647.86 247.45L648.3 247.38L649.18 247.25L649.58 247.2L649.95 247.13L650.33 247.08L651 246.98L651.3 246.95L651.55 246.95L652.95 246.95L653.15 246.9L653.4 246.8L653.6 246.7L653.85 246.55L654.25 246.15L654.43 245.9L654.63 245.65L654.8 245.33L654.98 244.95L655.13 244.55L655.33 244.1L655.5 243.6L655.65 243.05L655.8 242.48L655.95 241.85L656.1 241.18L656.28 240.48L656.4 239.73L656.55 238.93L656.68 238.08L656.83 237.18L656.95 236.18L657.1 235.18L657.23 234.11L657.35 233.01L657.5 231.83L657.63 230.58L657.73 229.33L657.85 228.01L657.98 226.61L658.1 225.16L658.23 223.66L658.35 222.09L658.45 220.46L658.58 218.76L658.7 217.01L658.83 215.19L658.93 213.32L659.08 210.57L659.2 207.82L659.3 205.17L659.45 199.92L659.45 192.42L659.4 190L659.35 187.6L659.15 182.98L659.03 180.73L658.85 178.53L658.68 176.38L658.48 174.28L658.23 172.23L657.98 170.23L657.73 168.31L657.48 166.43L657.15 164.64L656.85 162.89L656.5 161.21L656.13 159.59L655.75 158.04L655.35 156.54L654.93 155.11L654.5 153.77L654 152.47L653.5 151.27L653 150.09L652.5 149.04L651.95 148.04L651.4 147.12L650.83 146.27L650.25 145.52L649.65 144.84L649.03 144.24L648.4 143.74L647.73 143.32L647.08 142.99L646.33 142.74L645.58 142.47L644.83 142.34L644.08 142.29L643.33 142.32L642.58 142.47L641.76 142.59L640.91 142.84L640.06 143.14L639.18 143.49L637.38 144.49L636.46 145.09L635.51 145.74L634.56 146.49L633.56 147.29L632.56 148.17L631.56 149.12L630.56 150.12L629.56 151.22L628.46 152.37L627.39 153.57L626.29 154.81L625.16 156.19L624.01 157.59L622.89 159.09L621.72 160.64L620.52 162.24L619.34 163.99L618.09 165.74L616.84 167.53L615.59 169.46L614.34 171.41L613.09 173.41L611.84 175.51L610.52 177.66L607.87 182.15L606.52 184.53L594.73 205.14L586.98 206.14L586.73 206.17L586.43 206.19L586.18 206.19L585.88 206.19L585.63 206.19L585.38 206.19L585.13 206.19L583.13 206.19L582.93 206.19L582.76 206.19L582.51 206.17L582.33 206.17L582.16 206.14L581.66 206.04L581.41 206.04L581.16 205.94L581.06 205.94L580.81 205.79L580.73 205.74L580.71 205.67L580.66 205.62L580.63 205.52L580.63 205.44L580.68 205.14L580.76 204.77L580.91 204.27L581.08 203.72L581.33 203.12L581.58 202.42L581.88 201.67L582.26 200.87L582.61 199.95L583.03 199.02L583.48 198.02L583.98 197.02L584.48 195.95L584.98 194.85L585.53 193.72L586.13 192.55L587.3 190.1L588.55 187.6L589.2 186.35L589.85 185.05L591.85 181.25L592.55 180L593.23 178.75L593.88 177.51L594.58 176.26L595.88 173.91L596.53 172.78L597.15 171.68L597.78 170.63L598.4 169.63L598.97 168.63L599.52 167.73L600.07 166.88L600.57 166.06L601.07 165.31L602.17 163.69L604.37 160.51L605.45 159.01L607.6 156.06L609.67 153.32L610.72 151.97L613.77 148.14L614.77 146.94L615.77 145.79L616.77 144.67L617.77 143.59L619.72 141.54L620.72 140.55L622.62 138.7L623.56 137.85L625.41 136.2L627.26 134.7L628.19 134L629.09 133.32L630.09 132.47L631.84 131.35L632.74 130.85L633.61 130.35L634.49 129.9L635.34 129.5L636.23 129.12L637.06 128.75L637.91 128.45L638.76 128.2L639.58 127.95L640.63 127.7L641.18 127.6L641.68 127.55L642.23 127.5L643.33 127.45L643.91 127.45L644.48 127.48L645.03 127.53L646.23 127.7ZM643.18 263L640.06 263.75L637.06 264.62L634.56 265.47L632.66 266.22L631.54 266.87L631.34 267.37L634.19 270.54L638.43 274.92L642.98 279.36L646.68 282.79L648.43 284.14L648.83 283.49L649.38 281.91L650.03 279.54L650.78 276.54L651.48 273.12L652.18 269.19L652.55 266.12L652.55 263.95L652.23 262.55L651.55 261.95L650.45 261.85L648.58 262L646.08 262.37L643.18 263ZM513.53 266.37C515.48 262.74 516.57 260.73 516.78 260.32C520.98 252.4 531.28 240.75 539.87 234.23C540.32 233.86 542.57 232.08 546.67 228.86C547.25 229.27 551.89 232.55 552.47 232.96C555.64 235.21 558.34 237.38 558.47 237.96C558.59 238.41 556.39 240.46 553.62 242.2C550.72 244.1 545.42 248.45 541.8 251.85C537.2 256.35 532.15 259.3 524.38 262.2C524.38 262.19 520.76 263.58 513.53 266.37ZM518.21 365.23C511.64 355.18 503.71 332.87 503.21 323.12C502.91 317.25 503.39 316.62 509.29 313.88C512.78 312.3 515.83 311.13 516.18 311.23C516.43 311.48 517.43 317.17 518.18 324.12C520.93 346.51 534.98 368.8 554.57 381.47C565.36 388.62 581.06 393.97 592.5 394.62C596.95 394.87 600.75 395.62 600.82 396.12C601 396.74 599.75 399.97 598.08 403.49C597.88 403.92 596.9 406.09 595.13 409.99L586.55 408.74C551.34 395.39 528.55 380.89 518.21 365.23ZM635.51 221.99C644.06 225.49 644.71 225.99 644.11 229.86C643.66 233.11 629.19 234.53 620.47 232.16C614.22 230.46 604.4 224.01 597.35 217.01C592.48 212.14 620.59 215.74 635.51 221.99ZM668.52 356.51C671.17 351.26 672.27 351.26 675.42 355.61C676.82 357.81 678.79 360.36 679.77 361.73C681.02 363.33 679.79 365.9 675.69 371.23C665.77 384.22 643.11 401.67 645.01 394.82C648.45 383.57 653 374.7 659.3 368.03C663.2 363.86 667.45 358.51 668.52 356.51ZM679.09 289.86C674.89 274.19 681.34 259.67 687.19 271.19C690.49 277.44 695.39 297.01 696.11 306.35C696.54 310.93 696.31 314.85 695.86 315C695.26 315.15 691.86 311.38 688.04 306.9C683.17 300.91 680.77 296.21 679.09 289.86Z" id="d1vzg3fFpL"></path><linearGradient id="gradientf10uIr31FL" gradientUnits="userSpaceOnUse" x1="412.5" y1="127.45" x2="787.8" y2="127.45"><stop style="stop-color: #8ab4f8;stop-opacity: 1" offset="0%"></stop><stop style="stop-color: #c1a8e2;stop-opacity: 1" offset="100%"></stop></linearGradient></defs><g><g><g><use xlink:href="#asFWYmKb" opacity="1" fill="#000000" fill-opacity="1"></use></g><g><use xlink:href="#d1vzg3fFpL" opacity="1" fill="url(#gradientf10uIr31FL)"></use><g><use xlink:href="#d1vzg3fFpL" opacity="1" fill-opacity="0" stroke="#000000" stroke-width="1" stroke-opacity="0"></use></g></g></g></g></svg>