<svg xmlns="http://www.w3.org/2000/svg" xmlns:xlink="http://www.w3.org/1999/xlink" viewBox="1 1 176 176"><style><![CDATA[.B{clip-path:url(#C)}.C{fill:#3e2723}.D{fill-opacity:.15}.E{fill-opacity:.2}]]></style><defs><circle id="A" cy="96" cx="96" r="88"/><path id="B" d="M8 184h83.77l38.88-38.88V116h-69.3L8 24.48z"/></defs><clipPath id="C"><use xlink:href="#A"/></clipPath><g class="B" transform="translate(-7 -7)"><path d="M21.97 8v108h39.4L96 56h88V8z" fill="#db4437"/><linearGradient id="D" y2="44.354" gradientUnits="userSpaceOnUse" y1="75.021" x2="81.837" x1="29.337"><stop stop-color="#a52714" stop-opacity=".6" offset="0"/><stop stop-color="#a52714" stop-opacity="0" offset=".66"/></linearGradient><path d="M21.97 8v108h39.4L96 56h88V8z" fill="url(#D)"/><path d="M62.3 115.65l-39.83-68.3-.58 1 39.54 67.8z" class="C D"/><use xlink:href="#B" fill="#0f9d58"/><linearGradient id="E" y2="130.33" gradientUnits="userSpaceOnUse" y1="164.5" x2="52.538" x1="110.87"><stop stop-color="#055524" stop-opacity=".4" offset="0"/><stop stop-color="#055524" stop-opacity="0" offset=".33"/></linearGradient><path d="M8 184h83.77l38.88-38.88V116h-69.3L8 24.48z" fill="url(#E)"/><path d="M129.84 117.33l-.83-.48L90.62 184h1.15l38.1-66.64z" fill="#263238" class="D"/><defs><path id="F" d="M8 184h83.77l38.88-38.88V116h-69.3L8 24.48z"/></defs><clipPath id="G"><use xlink:href="#F"/></clipPath><g clip-path="url(#G)"><path d="M96 56l34.65 60-38.88 68H184V56z" fill="#ffcd40"/><linearGradient id="H" y2="114.13" gradientUnits="userSpaceOnUse" y1="49.804" x2="136.55" x1="121.86"><stop stop-color="#ea6100" stop-opacity=".3" offset="0"/><stop stop-color="#ea6100" stop-opacity="0" offset=".66"/></linearGradient><path d="M96 56l34.65 60-38.88 68H184V56z" fill="url(#H)"/></g><path d="M96 56l34.65 60-38.88 68H184V56z" fill="#ffcd40"/><path d="M96 56l34.65 60-38.88 68H184V56z" fill="url(#H)"/><defs><path id="I" d="M96 56l34.65 60-38.88 68H184V56z"/></defs><clipPath id="J"><use xlink:href="#I"/></clipPath><g clip-path="url(#J)"><path d="M21.97 8v108h39.4L96 56h88V8z" fill="#db4437"/><path d="M21.97 8v108h39.4L96 56h88V8z" fill="url(#D)"/></g></g><radialGradient id="K" gradientUnits="userSpaceOnUse" cy="55.948" cx="668.18" gradientTransform="translate(-576)" r="84.078"><stop stop-color="#3e2723" stop-opacity=".2" offset="0"/><stop stop-color="#3e2723" stop-opacity="0" offset="1"/></radialGradient><g transform="translate(-7 -7)"><path d="M96 56v20.95L174.4 56z" fill="url(#K)" class="B"/><g class="B"><defs><path id="L" d="M21.97 8v40.34L61.36 116 96 56h88V8z"/></defs><clipPath id="M"><use xlink:href="#L"/></clipPath><g clip-path="url(#M)"><use xlink:href="#B" fill="#0f9d58"/><path d="M8 184h83.77l38.88-38.88V116h-69.3L8 24.48z" fill="url(#E)"/></g></g></g><radialGradient id="N" gradientUnits="userSpaceOnUse" cy="48.52" cx="597.88" gradientTransform="translate(-576)" r="78.044"><stop stop-color="#3e2723" stop-opacity=".2" offset="0"/><stop stop-color="#3e2723" stop-opacity="0" offset="1"/></radialGradient><path d="M21.97 48.45l57.25 57.24L61.36 116z" transform="translate(-7 -7)" fill="url(#N)" class="B"/><radialGradient id="O" gradientUnits="userSpaceOnUse" cy="96.138" cx="671.84" gradientTransform="translate(-576)" r="87.87"><stop stop-color="#263238" stop-opacity=".2" offset="0"/><stop stop-color="#263238" stop-opacity="0" offset="1"/></radialGradient><g transform="translate(-7 -7)"><path d="M91.83 183.9l20.96-78.2 17.86 10.3z" fill="url(#O)" class="B"/><g class="B"><circle cy="96" cx="96" r="40" fill="#f1f1f1"/><circle cy="96" cx="96" r="32" fill="#4285f4"/><path d="M96 55c-22.1 0-40 17.9-40 40v1c0-22.1 17.9-40 40-40h88v-1H96z" class="C E"/><path fill-opacity=".1" d="M130.6 116c-6.92 11.94-19.8 20-34.6 20-14.8 0-27.7-8.06-34.6-20h-.04L8 24.48v1L61.4 117c6.92 11.94 19.8 20 34.6 20 14.8 0 27.68-8.05 34.6-20h.05v-1h-.06z" fill="#fff"/><path opacity=".1" d="M97 56c-.17 0-.33.02-.5.03C118.36 56.3 136 74.08 136 96s-17.64 39.7-39.5 39.97c.17 0 .33.03.5.03 22.1 0 40-17.9 40-40s-17.9-40-40-40z" class="C"/><path d="M131 117.33c3.4-5.88 5.37-12.68 5.37-19.96a39.87 39.87 0 0 0-1.87-12.09c.95 3.42 1.5 7 1.5 10.73 0 7.28-1.97 14.08-5.37 19.96l.02.04-38.88 68h1.16L131 117.33z" fill="#fff" class="E"/><path d="M96 9c48.43 0 87.72 39.13 88 87.5 0-.17.01-.33.01-.5 0-48.6-39.4-88-88-88S8 47.4 8 96c0 .17.01.33.01.5C8.28 48.13 47.57 9 96 9z" fill="#fff" class="E"/><path d="M96 183c48.43 0 87.72-39.13 88-87.5 0 .17.01.33.01.5 0 48.6-39.4 88-88 88S8 144.6 8 96c0-.17.01-.33.01-.5.27 48.37 39.56 87.5 88 87.5z" class="C D"/></g></g><radialGradient id="P" gradientUnits="userSpaceOnUse" cy="32.014" cx="34.286" gradientTransform="translate(-7 -7)" r="176.75"><stop stop-color="#fff" stop-opacity=".1" offset="0"/><stop stop-color="#fff" stop-opacity="0" offset="1"/></radialGradient><circle cy="89" cx="89" r="88" fill="url(#P)"/></svg>