<svg width="134" height="61" xmlns="http://www.w3.org/2000/svg" xmlns:xlink="http://www.w3.org/1999/xlink">
 <!-- Created with Method Draw - http://github.com/duopixel/Method-Draw/ -->
 <defs>
  <symbol id="svg_3" height="20" width="62">
   <linearGradient y2="100%" x2="0" id="svg_2">
    <stop stop-opacity="0.1" stop-color="#bbb" offset="0"/>
    <stop stop-opacity="0.1" offset="1"/>
   </linearGradient>
   <clipPath id="svg_1">
    <rect fill="#fff" rx="3" height="20" width="62"/>
   </clipPath>
   <g clip-path="url(#svg_1)">
    <path d="m0,0l41,0l0,20l-41,0l0,-20z" fill="#555"/>
    <path d="m41,0l21,0l0,20l-21,0l0,-20z" fill="#007ec6"/>
    <path d="m0,0l62,0l0,20l-62,0l0,-20z" fill="url(#svg_2)"/>
   </g>
   <g font-size="110" font-family="DejaVu Sans,Verdana,Geneva,sans-serif" text-anchor="middle" fill="#fff">
    <text transform="scale(.1)" fill-opacity="0.3" fill="#010101" y="150" x="215">demo</text>
    <text transform="scale(.1)" y="140" x="215">demo</text>
    <text transform="scale(.1)" fill-opacity="0.3" fill="#010101" y="150" x="505">⭐</text>
    <text transform="scale(.1)" y="140" x="505">⭐</text>
   </g>
  </symbol>
 </defs>
 <g>
  <title>background</title>
  <rect fill="#fff" id="canvas_background" height="63" width="136" y="-1" x="-1"/>
  <g display="none" overflow="visible" y="0" x="0" height="100%" width="100%" id="canvasGrid">
   <rect fill="url(#gridpattern)" stroke-width="0" y="1" x="1" height="400" width="113"/>
  </g>
 </g>
 <g>
  <title>Layer 1</title>
  <use x="0.154998" y="7.205002" transform="matrix(2.1505377292633057,0,0,2.1505377292633057,0,0) " xlink:href="#svg_3" id="svg_4"/>
 </g>
</svg>