<svg xmlns="http://www.w3.org/2000/svg" xmlns:xlink="http://www.w3.org/1999/xlink" viewBox="0 0 1024 1024"><defs><radialGradient id="A" cx="-14480.522" cy="-8329.079" fx="-14509.281" r="450.875" gradientTransform="matrix(0.762, 0.034, -0.05, 1.12, 11560.893, 10069.103)" xlink:href="#O"><stop offset=".045" stop-color="#ffea00"/><stop offset=".12" stop-color="#ffde00"/><stop offset=".254" stop-color="#ffbf00"/><stop offset=".429" stop-color="#ff8e00"/><stop offset=".769" stop-color="#ff272d"/><stop offset=".872" stop-color="#e0255a"/><stop offset=".953" stop-color="#cc2477"/><stop offset="1" stop-color="#c42482"/></radialGradient><radialGradient id="B" cx="-7529.669" cy="-7921.608" r="791.229" gradientTransform="translate(9921.963 9899.103) scale(1.225 1.225)" xlink:href="#O"><stop offset="0" stop-color="#00ccda"/><stop offset=".22" stop-color="#0083ff"/><stop offset=".261" stop-color="#007af9"/><stop offset=".33" stop-color="#0060e8"/><stop offset=".333" stop-color="#005fe7"/><stop offset=".438" stop-color="#2639ad"/><stop offset=".522" stop-color="#401e84"/><stop offset=".566" stop-color="#4a1475"/></radialGradient><linearGradient id="C" x1="575.669" y1="731.188" x2="384.231" y2="104.96" xlink:href="#O"><stop offset="0" stop-color="#000f43" stop-opacity=".4"/><stop offset=".485" stop-color="#001962" stop-opacity=".173"/><stop offset="1" stop-color="#002079" stop-opacity="0"/></linearGradient><radialGradient id="D" cx="-8260.94" cy="-6516.556" r="266.886" gradientTransform="matrix(1.219, 0.123, -0.123, 1.219, 10296.265, 9597.23)" xlink:href="#O"><stop offset=".003" stop-color="#ffea00"/><stop offset=".497" stop-color="#ff272d"/><stop offset="1" stop-color="#c42482"/></radialGradient><radialGradient id="E" cx="-8285.087" cy="-6772.468" r="445.678" gradientTransform="matrix(1.219, 0.123, -0.123, 1.219, 10296.265, 9597.23)" xlink:href="#O"><stop offset=".003" stop-color="#ffe900"/><stop offset=".157" stop-color="#ffaf0e"/><stop offset=".316" stop-color="#ff7a1b"/><stop offset=".472" stop-color="#ff4e26"/><stop offset=".621" stop-color="#ff2c2e"/><stop offset=".762" stop-color="#ff1434"/><stop offset=".892" stop-color="#ff0538"/><stop offset="1" stop-color="#ff0039"/></radialGradient><radialGradient id="F" cx="-8222.051" cy="-6359.332" r="408.958" gradientTransform="matrix(1.219, 0.123, -0.123, 1.219, 10296.265, 9597.23)" xlink:href="#O"><stop offset=".003" stop-color="#ff272d"/><stop offset=".497" stop-color="#c42482"/><stop offset=".986" stop-color="#620700"/></radialGradient><radialGradient id="G" cx="750.189" cy="396.041" fx="778.167" fy="382.212" r="782.18" xlink:href="#O"><stop offset=".156" stop-color="#ffea00"/><stop offset=".231" stop-color="#ffde00"/><stop offset=".365" stop-color="#ffbf00"/><stop offset=".541" stop-color="#ff8e00"/><stop offset=".763" stop-color="#ff272d"/><stop offset=".796" stop-color="#f92433"/><stop offset=".841" stop-color="#e91c45"/><stop offset=".893" stop-color="#cf0e62"/><stop offset=".935" stop-color="#b5007f"/></radialGradient><radialGradient id="H" cx="691.339" cy="3.289" r="923.615" xlink:href="#O"><stop offset=".279" stop-color="#ffea00"/><stop offset=".402" stop-color="#fd0"/><stop offset=".63" stop-color="#ffba00"/><stop offset=".856" stop-color="#ff9100"/><stop offset=".933" stop-color="#ff6711"/><stop offset=".994" stop-color="#ff4a1d"/></radialGradient><linearGradient id="I" x1="214.099" y1="356.871" x2="569.651" y2="303.489" xlink:href="#O"><stop offset="0" stop-color="#c42482" stop-opacity=".5"/><stop offset=".474" stop-color="#ff272d" stop-opacity=".5"/><stop offset=".486" stop-color="#ff2c2c" stop-opacity=".513"/><stop offset=".675" stop-color="#ff7a1a" stop-opacity=".72"/><stop offset=".829" stop-color="#ffb20d" stop-opacity=".87"/><stop offset=".942" stop-color="#ffd605" stop-opacity=".964"/><stop offset="1" stop-color="#ffe302"/></linearGradient><linearGradient id="J" x1="178.625" y1="261.874" x2="138.311" y2="117.269" xlink:href="#O"><stop offset="0" stop-color="#891551" stop-opacity=".6"/><stop offset="1" stop-color="#c42482" stop-opacity="0"/></linearGradient><linearGradient id="K" x1="255.486" y1="470.966" x2="338.435" y2="586.729" xlink:href="#O"><stop offset=".005" stop-color="#891551" stop-opacity=".5"/><stop offset=".484" stop-color="#ff272d" stop-opacity=".5"/><stop offset="1" stop-color="#ff272d" stop-opacity="0"/></linearGradient><linearGradient id="L" x1="414.081" y1="673.632" x2="421.626" y2="599.232" xlink:href="#O"><stop offset="0" stop-color="#c42482"/><stop offset=".083" stop-color="#c42482" stop-opacity=".8"/><stop offset=".206" stop-color="#c42482" stop-opacity=".565"/><stop offset=".328" stop-color="#c42482" stop-opacity=".362"/><stop offset=".447" stop-color="#c42482" stop-opacity=".204"/><stop offset=".562" stop-color="#c42482" stop-opacity=".09"/><stop offset=".673" stop-color="#c42482" stop-opacity=".023"/><stop offset=".773" stop-color="#c42482" stop-opacity="0"/></linearGradient><linearGradient id="M" x1="655.531" y1="38.12" x2="961.187" y2="721.615" xlink:href="#O"><stop offset="0" stop-color="#fff14f"/><stop offset=".268" stop-color="#ffee4c"/><stop offset=".452" stop-color="#ffe643"/><stop offset=".612" stop-color="#ffd834"/><stop offset=".757" stop-color="#ffc41e"/><stop offset=".892" stop-color="#ffab02"/><stop offset=".902" stop-color="#ffa900"/><stop offset=".949" stop-color="#ffa000"/><stop offset="1" stop-color="#ff9100"/></linearGradient><linearGradient id="N" x1="715.885" y1="431.21" x2="571.098" y2="819.96" xlink:href="#O"><stop offset="0" stop-color="#ff8e00"/><stop offset=".04" stop-color="#ff8e00" stop-opacity=".858"/><stop offset=".084" stop-color="#ff8e00" stop-opacity=".73"/><stop offset=".13" stop-color="#ff8e00" stop-opacity=".628"/><stop offset=".178" stop-color="#ff8e00" stop-opacity=".557"/><stop offset=".227" stop-color="#ff8e00" stop-opacity=".514"/><stop offset=".282" stop-color="#ff8e00" stop-opacity=".5"/><stop offset=".389" stop-color="#ff8e00" stop-opacity=".478"/><stop offset=".524" stop-color="#ff8e00" stop-opacity=".416"/><stop offset=".676" stop-color="#ff8e00" stop-opacity=".314"/><stop offset=".838" stop-color="#ff8e00" stop-opacity=".172"/><stop offset="1" stop-color="#ff8e00" stop-opacity="0"/></linearGradient><linearGradient id="O" gradientUnits="userSpaceOnUse"/></defs><path d="M805.285 93.558c-23.947 27.884-35.1 90.64-10.818 154.256s61.5 49.8 84.7 114.673c30.623 85.6 16.37 200.59 16.37 200.59s36.814 106.61 62.468-6.633c56.783-212.703-152.72-410.506-152.72-462.885z" fill="url(#A)"/><path d="M513.072 976.638c245.236 0 443.9-199.74 443.9-446.028S758.308 84.583 513.3 84.583 69.65 284.322 69.65 530.6c-.475 246.527 198.423 446.028 443.422 446.028z" fill="url(#B)"/><path d="M845.675 805.636a246.888 246.888 0 0 1-30.123 18.183 704 704 0 0 0 38.3-62.961c9.46-10.47 18.126-20.648 25.188-31.653 3.437-5.407 7.313-12.08 11.416-19.82 24.92-44.9 52.4-117.563 53.18-192.2v-.18l.014-5.515a257.6 257.6 0 0 0-5.712-55.748l.556 4.29-.644-3.314c.366 2.034.66 4 .976 5.983 5.094 43.217 1.466 85.372-16.682 116.45-.286.454-.58.88-.87 1.323 9.4-47.234 12.558-99.387 2.088-151.6 0 0-4.187-25.383-35.376-102.44-17.952-44.353-49.833-80.716-78-107.207-24.7-30.546-47.114-51.045-59.475-64.06-25.82-27.19-36.643-47.57-41.087-60.867-3.853-1.932-53.135-49.807-57.05-51.63-21.51 33.352-89.162 137.675-56.98 235.146 14.584 44.172 51.467 90.017 90.067 115.736 1.695 1.936 22.97 25.042 33.086 77.157C728.992 524.55 723.5 566.564 702 628.692c-25.286 54.505-90.067 108.388-150.724 113.9-129.676 11.78-177.15-65.108-177.15-65.108 46.336 18.525 97.568 14.65 128.724-4.556 31.4-19.425 50.394-33.827 65.8-28.148 15.2 5.653 27.3-10.756 16.442-27.767a78.5 78.5 0 0 0-79.4-34.573c-31.433 5.11-60.226 30.01-101.412 5.894a85.528 85.528 0 0 1-7.729-5.062c-2.715-1.785 8.826 2.717 6.133.688-8.015-4.354-22.2-13.842-25.88-17.217-.613-.562 6.22 2.18 5.606 1.616-38.5-31.712-33.7-53.134-32.5-66.57.97-10.75 7.964-24.523 19.75-30.1 5.693 3.107 9.24 5.48 9.24 5.48l-3.74-7.576c.46-.2.9-.147 1.358-.342 4.664 2.25 14.977 8.1 20.407 11.667 7.072 4.988 9.326 9.436 9.326 9.436s1.862-1.025.485-5.375c-.5-1.784-2.647-7.453-9.652-13.174l.438.05a81.2 81.2 0 0 1 11.867 8.241c1.975-7.18 5.527-14.68 4.746-28.092-.477-9.43-.257-11.873-1.92-15.515-1.488-3.128.834-4.348 3.418-1.1a32.826 32.826 0 0 0-2.208-7.4l.022-.244c3.225-11.236 68.248-40.46 72.98-43.877a67.355 67.355 0 0 0 19.132-20.8c3.617-5.763 6.337-13.848 7-26.112.355-8.844-3.76-14.734-69.507-21.618-17.98-1.77-28.53-14.8-34.526-26.823-1.094-2.6-2.21-4.937-3.325-7.282a58 58 0 0 1-2.558-8.431c10.75-30.873 28.8-56.977 55.367-76.7 1.447-1.318-5.782.338-4.336-.98 1.687-1.538 12.706-5.977 14.787-6.977 2.542-1.2-10.882-6.9-22.732-5.512-12.07 1.36-14.632 2.8-21.073 5.53 2.673-2.66 11.173-6.15 9.18-6.126-13.01 1.995-29.18 9.558-43 18.124a10.731 10.731 0 0 1 .835-4.348c-6.44 2.732-22.26 13.788-26.865 23.142a44.329 44.329 0 0 0 .266-5.4 84.483 84.483 0 0 0-13.195 13.818l-.24.22c-37.358-15.05-70.233-16.024-98.053-9.276-6.086-6.112-9.06-1.644-22.907-32.07-.94-1.832.722 1.81 0 0-2.278-5.9 1.39 7.872 0 0-23.284 18.372-53.92 39.193-68.626 53.9-.182.586 17.156-4.9 0 0-6.008 1.716-5.6 5.28-6.513 37.5-.22 2.443-.025 5.18-.223 7.378-11.748 14.968-19.75 27.643-22.775 34.21-15.193 26.18-31.926 66.992-48.146 131.55a334.364 334.364 0 0 1 25.784-50.401C96.712 434.632 83.673 488.443 81.066 571.3a483.614 483.614 0 0 1 12.533-50.66 473.038 473.038 0 0 0 34.74 201.061c9.33 22.82 24.76 57.455 51.03 95.4 82.533 86.84 198.945 140.9 327.852 140.9 134.572.001 255.415-58.878 338.455-152.375z" fill="url(#C)"/><path d="M746.1 868.708c162.87-18.86 234.97-186.7 142.38-190-83.633-2.673-219.527 198.9-142.38 190z" fill="url(#D)"/><path d="M900.207 644.424c112.056-65.214 82.84-206.08 82.84-206.08s-43.246 50.238-72.625 130.32c-29.02 79.3-77.584 115.148-10.214 75.76z" fill="url(#E)"/><path d="M544.474 952.062c156.227 49.85 290.5-73.22 207.733-114.32-75.25-37.066-281.883 90.748-207.733 114.32z" fill="url(#F)"/><path d="M911.85 704.234c3.8-5.363 8.94-22.535 13.48-30.21C952.91 629.5 953.106 594 953.106 593.187c16.66-83.22 15.148-117.2 4.9-180.043-8.25-50.6-44.322-123.092-75.57-158-32.2-35.965-9.514-24.247-40.692-50.518-27.327-30.293-53.823-60.29-68.253-72.355C669.215 45.094 671.57 26.577 673.58 23.42l-1.472 1.643C670.872 20.14 670 16 670 16s-57 57-69 152c-7.834 62.02 15.383 126.676 49 168a381.367 381.367 0 0 0 59 58v-.026c25.4 36.477 39.38 81.49 39.38 129.91 0 121.244-98.34 219.53-219.652 219.53a220.455 220.455 0 0 1-49.134-5.519c-57.236-10.908-90.288-39.78-106.772-59.382-9.447-11.234-13.464-19.423-13.464-19.423 51.283 18.37 107.986 14.528 142.468-4.518 34.75-19.265 55.774-33.546 72.837-27.915 16.82 5.606 30.21-10.667 18.2-27.536-11.77-16.845-42.4-40.97-87.878-34.286-34.79 5.067-66.657 29.76-112.24 5.845a96.313 96.313 0 0 1-8.554-5.02c-3.005-1.77 9.768 2.695 6.787.682-8.87-4.318-24.573-13.728-28.643-17.074-.68-.557 6.883 2.16 6.2 1.6-42.62-31.45-37.3-52.693-35.96-66.018 1.073-10.66 8.814-24.32 21.86-29.86 6.3 3.08 10.226 5.433 10.226 5.433l-4.14-7.513c.51-.194.994-.145 1.5-.34 5.162 2.232 16.576 8.03 22.586 11.57 7.827 4.947 10.322 9.358 10.322 9.358s2.06-1.016.536-5.33c-.557-1.77-2.93-7.39-10.682-13.065l.485.05a90.851 90.851 0 0 1 13.134 8.173c2.186-7.12 6.118-14.557 5.253-27.86-.528-9.352-.284-11.775-2.124-15.386-1.647-3.1.924-4.312 3.782-1.088a30.038 30.038 0 0 0-2.444-7.343l.025-.242c3.57-11.143 75.535-40.125 80.773-43.513a70.31 70.31 0 0 0 21.175-20.63c4-5.715 7.014-13.733 7.748-25.895.246-5.48-1.44-9.817-20.5-13.965-11.44-2.5-29.136-4.913-56.433-7.474-19.9-1.756-31.577-14.676-38.212-26.6-1.21-2.57-2.445-4.9-3.68-7.222a53.108 53.108 0 0 1-2.831-8.36 158.47 158.47 0 0 1 61.279-76.063c1.6-1.308-6.4.335-4.8-.972 1.868-1.525 14.063-5.927 16.367-6.92 2.813-1.186-12.044-6.84-25.16-5.466-13.357 1.35-16.194 2.776-23.323 5.486 2.96-2.64 12.366-6.1 10.16-6.075-14.4 1.978-32.3 9.48-47.6 17.973a9.676 9.676 0 0 1 .924-4.312c-7.13 2.71-24.637 13.674-29.734 22.95a39.488 39.488 0 0 0 .294-5.354 88.678 88.678 0 0 0-14.6 13.7l-.267.218c-41.347-14.925-77.732-15.89-108.522-9.2-6.736-6.06-17.566-15.226-32.892-45.4-1.04-1.817-1.6 3.755-2.4 1.96-5.955-13.813-9.553-36.444-8.962-52.046 0 0-12.318 5.614-22.513 29.06-1.893 4.215-3.107 6.54-4.32 8.865-.558.678 1.265-7.7.974-7.244-1.772 3-6.356 7.192-8.37 12.618-1.384 4.02-3.325 6.273-4.564 11.288l-.29.46c-.1-1.478.367-6.08.027-5.137a236.1 236.1 0 0 0-12.308 29.841c-5.49 18.046-11.88 42.6-12.892 74.565-.244 2.423-.027 5.136-.247 7.317-13 14.844-21.858 27.413-25.207 33.928-16.807 25.97-35.327 66.445-53.28 130.468a319.143 319.143 0 0 1 28.538-49.989C52.316 418.253 37.885 471.618 35 553.8a438.522 438.522 0 0 1 13.872-50.24c-2.578 54.8 3.805 122.74 38.45 199.393 20.57 45.087 67.92 136.65 183.62 208.1l-.01.007s39.36 29.3 107.017 51.26l15.234 5.333c-1.622-.655-3.19-1.344-4.715-2.052a484.883 484.883 0 0 0 138.8 20.4c175.18.15 226.846-70.2 226.846-70.2l-.513.377q3.708-3.49 7.143-7.257c-27.64 26.1-90.715 27.832-114.3 25.95 40.223-11.813 66.69-21.806 118.175-41.52q9.037-3.35 18.482-7.64l2.052-.936 3.747-1.744a349.205 349.205 0 0 0 70.262-43.987c51.7-41.3 62.95-81.557 68.83-108.1-.82 2.544-3.375 8.475-5.17 12.316-13.315 28.482-42.84 45.96-74.908 60.948a688.993 688.993 0 0 0 42.388-62.434c10.467-10.383 13.733-26.625 21.55-37.54z" fill="url(#G)"/><path d="M848.92 802.982c21.08-23.24 40-49.824 54.35-79.968 36.9-77.582 93.952-206.58 49.018-341.306C916.775 275.225 868.016 217 806.107 160.122 705.563 67.756 677.482 26.52 677.482 2c0 0-116.09 129.41-65.742 264.38S765.2 396.405 833.42 537.255C913.694 703 768.47 883.87 648.375 934.493c7.353-1.633 266.97-60.383 280.614-208.882-.31 2.73-6.16 43.803-80.068 77.37z" fill="url(#H)"/><path d="M512.592 321.373c.393-8.77-4.156-14.66-76.682-21.463-29.84-2.755-41.265-30.334-44.748-41.94-10.6 27.565-14.99 56.5-12.636 91.477 1.6 22.92 17.01 47.52 24.37 61.965 0 0 1.636-2.126 2.39-2.912 13.86-14.43 71.936-36.42 77.392-39.54 6.014-3.8 28.903-20.523 29.913-47.585z" fill="url(#I)"/><path d="M193.314 158.47c-1.04-1.818-1.6 3.754-2.4 1.96-5.955-13.813-9.578-36.2-8.72-52.022 0 0-12.318 5.614-22.513 29.06-1.893 4.215-3.107 6.54-4.32 8.865-.558.678 1.265-7.7.974-7.244-1.77 3-6.355 7.192-8.346 12.375-1.65 4.24-3.35 6.515-4.613 11.772-.39 1.43.392-6.323.052-5.38-23.71 45.825-28.237 115.114-25.738 112.184 50.478-53.9 108.325-66.683 108.325-66.683-6.155-4.534-19.528-17.625-32.7-44.89z" fill="url(#J)"/><path d="M384.844 722.1c-69.724-29.77-148.992-71.755-146-167.138 4.075-125.62 117.145-100.79 117.145-100.79-4.267 1.04-15.675 9.162-19.718 17.82-4.273 10.827-12.07 35.276 11.55 60.9 37.09 40.192-76.2 95.356 98.663 199.567 4.4 2.4-40.99-1.43-61.64-10.358z" fill="url(#K)"/><path d="M360.074 659.5c49.442 17.207 107.04 14.19 141.523-4.858 23.085-12.85 52.7-33.434 70.922-28.353-15.777-6.236-27.726-9.15-42.1-9.862-2.448 0-5.382-.052-8.048-.32a136.228 136.228 0 0 0-15.757.863c-8.9.818-18.766 6.433-27.735 5.532-.485-.05 8.7-3.774 7.953-3.605-4.752.99-9.915 1.205-15.37 1.88-3.467.386-6.45.82-9.89.963-102.982 8.733-190.017-55.813-190.017-55.813-7.408 24.95 33.166 74.3 88.52 93.572z" fill="url(#L)"/><path d="M848.738 803.646C952.9 701.376 1005.6 577.06 983.32 437.627c0 0 8.9 71.5-24.848 144.628 16.213-71.393 18.1-160.114-24.975-251.988C876.005 207.636 781.45 143.11 745.35 116.19c-54.695-40.79-77.368-82.32-77.777-90.89-16.34 33.477-65.766 148.2-5.3 247 56.64 92.564 145.865 120.04 208.328 204.947 115.075 156.42-21.854 326.4-21.854 326.4z" fill="url(#M)"/><path d="M833.814 537.55C797.412 462.35 751.978 429.55 709 394c5 7 6.232 9.473 9 14 37.827 40.316 93.607 138.656 53.1 262.107-76.23 232.375-381.143 122.95-413.1 92.212 12.932 134.49 238.036 198.845 384.6 111.63C826 795 893.468 660.788 833.814 537.55z" fill="url(#N)"/></svg>