<?xml version="1.0" encoding="UTF-8" standalone="no"?>
<!DOCTYPE svg PUBLIC "-//W3C//DTD SVG 1.1//EN" "http://www.w3.org/Graphics/SVG/1.1/DTD/svg11.dtd">
<svg version="1.1" xmlns="http://www.w3.org/2000/svg" xmlns:xlink="http://www.w3.org/1999/xlink" preserveAspectRatio="xMidYMid meet" viewBox="132.5645563606128 152.02529991685475 376.94690580829075 336.1249554578929" width="372.95" height="332.12"><defs><path d="M396.22 153.1L396.69 153.11L397.16 153.12L397.63 153.14L398.09 153.17L398.55 153.19L399.01 153.23L399.47 153.27L399.93 153.31L400.38 153.36L400.83 153.41L401.28 153.47L401.73 153.54L402.17 153.61L402.61 153.69L403.05 153.77L403.49 153.85L403.92 153.95L404.35 154.04L404.78 154.15L405.21 154.25L405.63 154.37L406.05 154.49L406.47 154.61L406.89 154.74L407.3 154.88L407.71 155.02L408.12 155.16L408.52 155.32L408.92 155.47L409.32 155.64L409.72 155.81L410.11 155.98L410.5 156.16L410.89 156.35L411.27 156.54L411.65 156.73L412.03 156.94L412.41 157.14L412.78 157.36L414.36 158.33L415.87 159.4L417.32 160.56L418.72 161.82L420.04 163.17L421.31 164.61L422.52 166.14L423.66 167.76L424.74 169.46L425.76 171.24L426.72 173.11L427.62 175.06L428.46 177.09L429.23 179.2L429.95 181.39L430.6 183.65L431.19 185.98L431.72 188.39L432.19 190.86L432.6 193.41L432.95 196.02L433.24 198.7L433.47 201.45L433.63 204.25L433.74 207.12L433.79 210.05L433.77 213.04L433.7 216.08L433.56 219.18L433.37 222.33L433.12 225.54L432.8 228.79L432.43 232.1L431.99 235.45L431.5 238.85L430.95 242.29L430.33 245.78L429.66 249.31L428.93 252.88L428.14 256.49L431.66 257.59L435.13 258.73L438.52 259.9L441.86 261.1L445.12 262.33L448.32 263.6L451.45 264.89L454.5 266.2L457.49 267.55L460.39 268.93L463.23 270.32L465.98 271.75L468.66 273.2L471.26 274.67L473.78 276.17L476.22 277.69L478.57 279.23L480.84 280.8L483.02 282.38L485.11 283.99L487.12 285.61L489.03 287.25L490.85 288.91L492.58 290.59L494.22 292.28L495.76 293.99L497.2 295.71L498.55 297.44L499.79 299.19L500.94 300.96L501.98 302.73L502.91 304.52L503.75 306.31L504.47 308.12L505.09 309.94L505.6 311.76L506 313.59L506.28 315.43L506.45 317.28L506.51 319.13L506.45 320.97L506.28 322.81L506 324.64L505.6 326.47L505.1 328.29L504.48 330.1L503.76 331.9L502.93 333.7L502 335.48L500.96 337.25L499.83 339.01L498.59 340.76L497.25 342.49L495.82 344.21L494.28 345.92L492.66 347.61L490.94 349.28L489.12 350.94L487.22 352.58L485.23 354.2L483.14 355.8L480.97 357.38L478.72 358.95L476.38 360.49L473.96 362.01L471.45 363.5L468.87 364.98L466.21 366.43L463.47 367.85L460.65 369.25L457.76 370.63L454.79 371.97L451.76 373.29L448.65 374.58L445.47 375.84L442.23 377.07L438.92 378.28L435.54 379.45L432.1 380.58L428.59 381.69L429.39 385.29L430.13 388.84L430.81 392.36L431.42 395.84L431.98 399.27L432.48 402.66L432.92 406L433.3 409.3L433.62 412.55L433.88 415.74L434.08 418.89L434.22 421.98L434.3 425.01L434.32 427.99L434.28 430.91L434.18 433.78L434.02 436.58L433.8 439.31L433.52 441.99L433.17 444.59L432.77 447.13L432.3 449.61L431.78 452.01L431.19 454.34L430.54 456.59L429.84 458.77L429.07 460.88L428.24 462.9L427.34 464.85L426.39 466.72L425.38 468.5L424.3 470.2L423.16 471.82L421.96 473.34L420.7 474.78L419.38 476.13L417.99 477.39L416.54 478.55L415.04 479.62L413.46 480.59L413.09 480.8L412.71 481.01L412.32 481.21L411.94 481.41L411.55 481.6L411.16 481.79L410.76 481.97L410.36 482.14L409.96 482.31L409.56 482.47L409.16 482.63L408.75 482.78L408.34 482.93L407.92 483.07L407.51 483.21L407.09 483.34L406.67 483.46L406.24 483.58L405.82 483.69L405.39 483.8L404.96 483.9L404.52 484L404.08 484.09L403.65 484.18L403.2 484.26L402.76 484.34L402.31 484.41L401.86 484.47L401.41 484.53L400.96 484.59L400.5 484.64L400.04 484.68L399.58 484.72L399.12 484.75L398.65 484.78L398.18 484.8L397.71 484.82L397.24 484.84L396.76 484.84L396.28 484.85L394.7 484.82L393.1 484.74L391.47 484.6L389.83 484.41L388.15 484.16L386.46 483.86L384.75 483.51L383.02 483.11L381.26 482.65L379.49 482.14L377.7 481.58L375.89 480.97L374.07 480.3L372.22 479.59L370.37 478.82L368.49 478.01L366.6 477.15L364.7 476.23L362.78 475.27L360.85 474.26L358.91 473.2L356.95 472.1L354.98 470.94L353.01 469.74L351.02 468.49L349.02 467.2L347.01 465.86L345 464.47L342.97 463.04L340.94 461.56L338.9 460.04L336.86 458.48L334.81 456.87L332.75 455.22L330.69 453.52L328.63 451.78L326.56 450L324.49 448.18L322.42 446.31L320.34 444.4L318.27 446.32L316.19 448.2L314.12 450.03L312.06 451.83L309.99 453.58L307.93 455.28L305.88 456.95L303.83 458.57L301.78 460.14L299.74 461.67L297.71 463.16L295.69 464.6L293.67 466L291.66 467.35L289.67 468.65L287.68 469.91L285.7 471.12L283.73 472.29L281.78 473.4L279.83 474.47L277.9 475.49L275.99 476.46L274.08 477.38L272.19 478.25L270.32 479.07L268.46 479.84L266.62 480.56L264.79 481.23L262.98 481.85L261.19 482.42L259.42 482.93L257.67 483.39L255.94 483.8L254.22 484.16L252.53 484.46L250.86 484.71L249.21 484.9L247.58 485.04L245.98 485.12L244.4 485.15L243.92 485.15L243.45 485.14L242.97 485.13L242.5 485.11L242.03 485.09L241.57 485.06L241.1 485.02L240.64 484.98L240.18 484.94L239.73 484.89L239.27 484.84L238.82 484.78L238.37 484.71L237.93 484.64L237.48 484.56L237.04 484.48L236.61 484.4L236.17 484.31L235.74 484.21L235.31 484.11L234.88 484L234.45 483.88L234.03 483.76L233.61 483.64L233.2 483.51L232.78 483.37L232.37 483.23L231.96 483.09L231.56 482.93L231.15 482.78L230.76 482.61L230.36 482.45L229.97 482.27L229.57 482.09L229.19 481.91L228.8 481.71L228.42 481.52L228.04 481.32L227.67 481.11L227.3 480.89L225.72 479.92L224.2 478.85L222.75 477.69L221.36 476.43L220.03 475.08L218.76 473.64L217.56 472.11L216.42 470.5L215.33 468.79L214.31 467.01L213.35 465.14L212.46 463.19L211.62 461.16L210.84 459.05L210.13 456.86L209.48 454.6L208.88 452.27L208.35 449.86L207.88 447.39L207.47 444.84L207.12 442.23L206.84 439.55L206.61 436.8L206.44 434L206.34 431.13L206.29 428.2L206.3 425.21L206.38 422.17L206.51 419.07L206.71 415.92L206.96 412.71L207.28 409.46L207.65 406.15L208.08 402.8L208.58 399.4L209.13 395.96L209.74 392.47L210.42 388.94L211.15 385.37L211.94 381.77L208.41 380.66L204.95 379.52L201.55 378.35L198.22 377.15L194.95 375.92L191.76 374.66L188.63 373.37L185.57 372.05L182.59 370.7L179.68 369.33L176.85 367.93L174.09 366.5L171.41 365.05L168.81 363.58L166.3 362.08L163.86 360.56L161.51 359.02L159.24 357.45L157.06 355.87L154.96 354.27L152.96 352.64L151.04 351L149.22 349.34L147.49 347.67L145.86 345.97L144.32 344.27L142.87 342.54L141.53 340.81L140.28 339.06L139.14 337.29L138.1 335.52L137.16 333.73L136.33 331.94L135.6 330.13L134.99 328.32L134.48 326.49L134.08 324.66L133.79 322.82L133.62 320.98L133.56 319.13L133.62 317.28L133.79 315.44L134.08 313.61L134.47 311.78L134.98 309.96L135.59 308.15L136.32 306.35L137.14 304.56L138.08 302.78L139.11 301.01L140.25 299.25L141.49 297.51L142.83 295.78L144.27 294.06L145.8 292.36L147.43 290.67L149.15 288.99L150.97 287.34L152.87 285.7L154.87 284.08L156.95 282.48L159.13 280.9L161.38 279.34L163.73 277.8L166.15 276.28L168.66 274.78L171.25 273.31L173.92 271.86L176.67 270.43L179.49 269.03L182.39 267.66L185.36 266.31L188.4 264.99L191.52 263.7L194.71 262.43L197.96 261.2L201.28 259.99L204.67 258.82L208.12 257.67L211.64 256.56L210.84 252.97L210.1 249.41L209.42 245.89L208.8 242.41L208.24 238.98L207.75 235.59L207.31 232.25L206.93 228.95L206.61 225.71L206.35 222.51L206.14 219.36L206 216.27L205.92 213.24L205.91 210.26L205.95 207.34L206.05 204.48L206.21 201.68L206.43 198.94L206.71 196.26L207.06 193.66L207.46 191.12L207.92 188.65L208.45 186.24L209.04 183.91L209.68 181.66L210.39 179.48L211.16 177.37L211.99 175.35L212.88 173.4L213.84 171.53L214.85 169.75L215.93 168.05L217.07 166.44L218.27 164.91L219.53 163.47L220.85 162.12L222.24 160.87L223.68 159.7L225.19 158.63L226.76 157.66L227.14 157.45L227.52 157.24L227.9 157.04L228.29 156.84L228.68 156.65L229.07 156.46L229.47 156.28L229.86 156.11L230.26 155.94L230.67 155.78L231.07 155.62L231.48 155.47L231.89 155.32L232.3 155.18L232.72 155.05L233.14 154.92L233.56 154.79L233.98 154.67L234.41 154.56L234.84 154.45L235.27 154.35L235.71 154.25L236.14 154.16L236.58 154.07L237.02 153.99L237.47 153.91L237.92 153.84L238.36 153.78L238.82 153.72L239.27 153.66L239.73 153.61L240.19 153.57L240.65 153.53L241.11 153.5L241.58 153.47L242.05 153.45L242.52 153.43L242.99 153.42L243.47 153.41L243.94 153.41L243.94 153.33L245.52 153.36L247.13 153.44L248.75 153.58L250.4 153.77L252.07 154.01L253.77 154.31L255.48 154.66L257.21 155.07L258.97 155.53L260.74 156.04L262.53 156.6L264.34 157.21L266.16 157.87L268 158.59L269.86 159.35L271.74 160.16L273.63 161.03L275.53 161.94L277.45 162.9L279.38 163.91L281.32 164.97L283.28 166.08L285.24 167.23L287.22 168.44L289.21 169.68L291.21 170.98L293.21 172.32L295.23 173.7L297.25 175.14L299.29 176.61L301.32 178.13L303.37 179.7L305.42 181.31L307.48 182.96L309.54 184.66L311.6 186.4L313.67 188.18L315.74 190L317.81 191.86L319.89 193.77L321.96 191.85L324.03 189.98L326.1 188.14L328.17 186.35L330.24 184.6L332.3 182.89L334.35 181.23L336.4 179.61L338.45 178.03L340.49 176.5L342.52 175.01L344.54 173.57L346.56 172.18L348.56 170.83L350.56 169.52L352.55 168.26L354.53 167.05L356.5 165.89L358.45 164.77L360.39 163.71L362.32 162.69L364.24 161.72L366.15 160.8L368.03 159.92L369.91 159.1L371.77 158.33L373.61 157.61L375.44 156.94L377.24 156.32L379.03 155.76L380.81 155.24L382.56 154.78L384.29 154.37L386.01 154.02L387.7 153.72L389.37 153.47L391.02 153.28L392.65 153.14L394.25 153.05L395.83 153.03L395.83 153.1L396.22 153.1ZM227.96 387.48L227.84 388.05L227.72 388.62L227.6 389.2L227.48 389.77L227.36 390.34L227.24 390.91L227.13 391.48L227.01 392.05L226.9 392.62L226.79 393.19L226.68 393.76L226.57 394.32L226.47 394.89L226.36 395.45L226.26 396.02L226.16 396.58L226.05 397.14L225.96 397.7L225.86 398.26L225.76 398.82L225.67 399.38L225.57 399.93L225.48 400.49L225.39 401.04L225.31 401.6L225.22 402.15L225.14 402.7L225.05 403.25L224.97 403.8L224.89 404.34L224.82 404.89L224.74 405.44L224.67 405.98L224.6 406.52L224.53 407.06L224.46 407.6L224.39 408.14L224.33 408.68L224.08 410.84L223.87 412.98L223.68 415.1L223.52 417.18L223.39 419.24L223.29 421.27L223.22 423.27L223.17 425.24L223.16 427.18L223.17 429.08L223.21 430.96L223.28 432.79L223.38 434.59L223.5 436.36L223.65 438.08L223.83 439.77L224.03 441.42L224.27 443.02L224.52 444.59L224.81 446.11L225.12 447.6L225.45 449.03L225.81 450.42L226.2 451.77L226.61 453.06L227.04 454.31L227.51 455.51L227.99 456.67L228.5 457.76L229.03 458.81L229.59 459.81L230.17 460.75L230.78 461.63L231.41 462.46L232.06 463.24L232.73 463.95L233.43 464.61L234.15 465.21L234.89 465.75L235.66 466.22L235.83 466.32L236 466.41L236.18 466.5L236.36 466.59L236.54 466.68L236.72 466.76L236.91 466.84L237.1 466.92L237.29 467L237.48 467.08L237.68 467.15L237.87 467.22L238.07 467.29L238.27 467.36L238.48 467.42L238.68 467.48L238.89 467.54L239.1 467.6L239.31 467.65L239.52 467.7L239.74 467.75L239.96 467.8L240.18 467.85L240.4 467.89L240.63 467.93L240.85 467.97L241.08 468.01L241.31 468.04L241.55 468.07L241.78 468.1L242.02 468.13L242.26 468.16L242.5 468.18L242.74 468.2L242.99 468.22L243.24 468.23L243.49 468.25L243.74 468.26L243.99 468.27L244.25 468.27L245.45 468.25L246.67 468.18L247.93 468.06L249.21 467.9L250.51 467.69L251.85 467.43L253.2 467.13L254.58 466.78L255.98 466.38L257.41 465.94L258.86 465.46L260.33 464.93L261.82 464.35L263.33 463.73L264.87 463.07L266.42 462.36L267.99 461.61L269.58 460.81L271.19 459.97L272.81 459.09L274.45 458.16L276.11 457.19L277.79 456.18L279.47 455.12L281.18 454.02L282.89 452.88L284.63 451.7L286.37 450.48L288.13 449.22L289.89 447.91L291.67 446.56L293.46 445.17L295.26 443.75L297.07 442.28L298.89 440.77L300.72 439.22L302.56 437.63L304.4 436L306.25 434.33L308.1 432.62L307.3 431.78L306.5 430.93L305.69 430.08L304.89 429.22L304.09 428.36L303.29 427.49L302.48 426.61L301.68 425.73L300.88 424.84L300.08 423.95L299.28 423.05L298.49 422.14L297.69 421.23L296.89 420.31L296.09 419.39L295.3 418.46L294.5 417.53L293.71 416.59L292.91 415.65L292.12 414.7L291.33 413.75L290.54 412.79L289.75 411.82L288.96 410.85L288.17 409.87L287.38 408.89L286.6 407.9L285.81 406.91L285.03 405.91L284.24 404.91L283.46 403.91L282.68 402.89L281.9 401.88L281.12 400.85L280.35 399.82L279.57 398.79L278.79 397.75L278.02 396.71L277.25 395.66L276.48 394.61L275.2 394.47L273.92 394.33L272.65 394.19L271.37 394.04L270.11 393.88L268.84 393.72L267.58 393.56L266.32 393.4L265.07 393.23L263.82 393.06L262.57 392.89L261.33 392.71L260.09 392.53L258.85 392.34L257.62 392.15L256.39 391.96L255.17 391.76L253.95 391.56L252.73 391.36L251.52 391.15L250.31 390.94L249.1 390.73L247.91 390.51L246.71 390.29L245.52 390.07L244.33 389.84L243.15 389.61L241.97 389.38L240.8 389.14L239.63 388.9L238.47 388.66L237.31 388.41L236.15 388.16L235 387.91L233.86 387.66L232.72 387.4L231.58 387.13L230.45 386.87L229.33 386.6L228.21 386.33L228.08 386.9L227.96 387.48ZM409.78 386.73L408.65 387L407.51 387.26L406.37 387.53L405.22 387.79L404.07 388.05L402.92 388.3L401.76 388.55L400.6 388.8L399.43 389.04L398.25 389.28L397.08 389.51L395.89 389.75L394.71 389.98L393.51 390.2L392.32 390.42L391.12 390.64L389.91 390.86L388.7 391.07L387.49 391.28L386.27 391.48L385.05 391.68L383.82 391.88L382.59 392.07L381.36 392.26L380.12 392.45L378.88 392.63L377.63 392.81L376.38 392.98L375.13 393.16L373.87 393.32L372.61 393.49L371.34 393.65L370.07 393.81L368.8 393.96L367.52 394.11L366.24 394.26L364.96 394.4L363.67 394.54L362.91 395.59L362.15 396.64L361.39 397.68L360.62 398.71L359.86 399.75L359.09 400.77L358.32 401.79L357.55 402.81L356.77 403.82L356 404.82L355.22 405.82L354.44 406.82L353.66 407.81L352.88 408.79L352.1 409.77L351.32 410.75L350.53 411.71L349.75 412.68L348.96 413.63L348.17 414.59L347.39 415.53L346.6 416.47L345.81 417.41L345.01 418.34L344.22 419.26L343.43 420.18L342.64 421.1L341.84 422.01L341.05 422.91L340.25 423.81L339.45 424.7L338.66 425.58L337.86 426.46L337.06 427.34L336.27 428.21L335.47 429.07L334.67 429.93L333.87 430.78L333.08 431.63L332.28 432.47L334.13 434.17L335.98 435.82L337.83 437.44L339.66 439.02L341.49 440.56L343.31 442.06L345.12 443.52L346.92 444.94L348.72 446.32L350.5 447.66L352.27 448.96L354.02 450.21L355.77 451.43L357.5 452.6L359.22 453.73L360.93 454.82L362.62 455.87L364.29 456.88L365.95 457.84L367.6 458.76L369.22 459.64L370.83 460.48L372.42 461.27L373.99 462.01L375.55 462.72L377.08 463.38L378.59 464L380.08 464.57L381.55 465.09L383 465.58L384.43 466.01L385.83 466.41L387.21 466.75L388.56 467.05L389.89 467.31L391.19 467.52L392.47 467.68L393.72 467.8L394.94 467.87L396.13 467.89L396.39 467.89L396.65 467.89L396.91 467.88L397.17 467.88L397.42 467.87L397.67 467.85L397.92 467.84L398.17 467.82L398.41 467.8L398.65 467.78L398.89 467.75L399.13 467.73L399.37 467.7L399.6 467.66L399.83 467.63L400.06 467.59L400.29 467.55L400.52 467.51L400.74 467.47L400.96 467.42L401.18 467.37L401.39 467.32L401.61 467.26L401.82 467.2L402.03 467.14L402.24 467.08L402.44 467.02L402.64 466.95L402.84 466.88L403.04 466.8L403.23 466.73L403.43 466.65L403.62 466.57L403.8 466.48L403.99 466.4L404.17 466.31L404.35 466.21L404.53 466.12L404.7 466.02L404.87 465.92L405.63 465.44L406.37 464.89L407.08 464.29L407.78 463.63L408.44 462.91L409.09 462.13L409.71 461.3L410.31 460.41L410.89 459.46L411.44 458.46L411.97 457.41L412.47 456.31L412.95 455.16L413.41 453.96L413.84 452.7L414.24 451.4L414.62 450.06L414.98 448.66L415.31 447.23L415.61 445.74L415.89 444.22L416.14 442.65L416.37 441.04L416.57 439.39L416.74 437.71L416.88 435.98L417 434.21L417.09 432.41L417.15 430.58L417.19 428.71L417.2 426.8L417.18 424.86L417.13 422.89L417.05 420.89L416.94 418.86L416.81 416.8L416.64 414.72L416.45 412.6L416.23 410.46L415.97 408.3L415.91 407.76L415.84 407.23L415.78 406.7L415.71 406.17L415.64 405.63L415.56 405.09L415.49 404.56L415.41 404.02L415.33 403.48L415.25 402.94L415.17 402.39L415.08 401.85L414.99 401.31L414.91 400.76L414.82 400.21L414.72 399.67L414.63 399.12L414.54 398.57L414.44 398.02L414.34 397.46L414.24 396.91L414.14 396.35L414.03 395.8L413.93 395.24L413.82 394.68L413.71 394.12L413.6 393.56L413.49 393L413.37 392.44L413.26 391.88L413.14 391.31L413.02 390.74L412.9 390.18L412.78 389.61L412.66 389.04L412.53 388.47L412.41 387.9L412.28 387.32L412.15 386.75L412.02 386.17L410.9 386.45L409.78 386.73ZM339.11 396.39L338.12 396.43L337.13 396.48L336.13 396.52L335.13 396.56L334.13 396.59L333.13 396.62L332.12 396.65L331.12 396.68L330.11 396.71L329.1 396.73L328.09 396.75L327.08 396.76L326.07 396.78L325.05 396.79L324.04 396.8L323.02 396.81L322 396.81L320.98 396.82L319.96 396.82L318.95 396.82L317.94 396.81L316.94 396.8L315.93 396.79L314.93 396.78L313.92 396.76L312.92 396.75L311.92 396.73L310.92 396.7L309.92 396.68L308.93 396.65L307.93 396.62L306.94 396.59L305.95 396.56L304.96 396.52L303.97 396.49L302.98 396.45L302 396.41L301.02 396.37L300.04 396.33L299.06 396.28L300.06 397.55L301.06 398.81L302.06 400.05L303.06 401.28L304.06 402.51L305.07 403.72L306.07 404.92L307.08 406.11L308.08 407.3L309.09 408.47L310.1 409.62L311.11 410.77L312.11 411.91L313.12 413.04L314.13 414.15L315.14 415.26L316.15 416.35L317.16 417.43L318.17 418.5L319.18 419.56L320.19 420.61L321.19 419.56L322.19 418.5L323.19 417.43L324.19 416.35L325.19 415.26L326.2 414.15L327.2 413.04L328.2 411.91L329.2 410.77L330.2 409.62L331.2 408.47L332.2 407.3L333.19 406.11L334.19 404.92L335.18 403.72L336.17 402.51L337.16 401.28L338.15 400.05L339.13 398.81L340.12 397.55L341.1 396.28L340.11 396.34L339.11 396.39ZM318.31 258.47L317.44 258.47L316.57 258.48L315.71 258.49L314.84 258.5L313.98 258.51L313.11 258.53L312.25 258.54L311.39 258.56L310.52 258.58L309.66 258.6L308.8 258.63L307.94 258.66L307.07 258.68L306.21 258.71L305.35 258.75L304.49 258.78L303.63 258.82L302.77 258.85L301.91 258.89L301.05 258.93L300.2 258.98L299.34 259.02L298.48 259.07L297.62 259.12L296.77 259.17L295.91 259.22L295.06 259.27L294.2 259.33L293.35 259.39L292.49 259.45L291.64 259.51L290.78 259.57L289.93 259.63L289.08 259.7L288.23 259.77L287.38 259.84L286.53 259.91L285.68 259.98L285.2 260.66L284.73 261.35L284.26 262.03L283.79 262.72L283.32 263.41L282.85 264.1L282.39 264.79L281.92 265.49L281.45 266.19L280.99 266.89L280.52 267.6L280.06 268.31L279.6 269.01L279.13 269.73L278.67 270.44L278.21 271.16L277.75 271.88L277.29 272.6L276.83 273.32L276.37 274.05L275.92 274.77L275.46 275.51L275.01 276.24L274.55 276.97L274.1 277.71L273.64 278.45L273.19 279.19L272.74 279.93L272.29 280.68L271.83 281.43L271.38 282.18L270.93 282.93L270.48 283.68L270.04 284.44L269.59 285.2L269.14 285.96L268.69 286.72L268.25 287.49L267.8 288.25L267.36 289.02L266.93 289.77L266.5 290.52L266.08 291.27L265.66 292.02L265.24 292.77L264.82 293.52L264.4 294.27L263.98 295.02L263.57 295.78L263.16 296.53L262.74 297.29L262.33 298.04L261.93 298.8L261.52 299.55L261.12 300.31L260.71 301.07L260.31 301.83L259.91 302.58L259.51 303.34L259.12 304.1L258.72 304.86L258.33 305.62L257.94 306.38L257.55 307.14L257.17 307.91L256.78 308.67L256.4 309.43L256.02 310.19L255.64 310.95L255.27 311.72L254.89 312.48L254.52 313.24L254.15 314.01L253.78 314.77L253.42 315.53L253.05 316.3L252.69 317.06L252.33 317.83L251.98 318.59L251.62 319.35L251.98 320.12L252.34 320.88L252.71 321.64L253.07 322.41L253.44 323.17L253.81 323.93L254.18 324.69L254.55 325.46L254.92 326.22L255.3 326.98L255.68 327.74L256.06 328.5L256.44 329.26L256.82 330.02L257.21 330.78L257.59 331.54L257.98 332.29L258.37 333.05L258.76 333.81L259.16 334.57L259.55 335.32L259.95 336.08L260.35 336.84L260.75 337.59L261.15 338.35L261.56 339.1L261.97 339.85L262.38 340.61L262.79 341.36L263.2 342.11L263.61 342.87L264.03 343.62L264.45 344.37L264.87 345.12L265.29 345.87L265.72 346.62L266.14 347.37L266.57 348.11L267 348.86L267.43 349.61L267.88 350.37L268.32 351.13L268.77 351.89L269.22 352.65L269.67 353.4L270.12 354.16L270.57 354.91L271.02 355.66L271.47 356.4L271.92 357.15L272.38 357.89L272.83 358.63L273.28 359.37L273.74 360.11L274.2 360.84L274.65 361.57L275.11 362.3L275.57 363.03L276.03 363.76L276.49 364.48L276.95 365.2L277.41 365.92L277.87 366.64L278.34 367.35L278.8 368.07L279.26 368.78L279.73 369.49L280.19 370.19L280.66 370.9L281.13 371.6L281.59 372.3L282.06 373L282.53 373.69L283 374.38L283.47 375.08L283.94 375.76L284.41 376.45L284.88 377.13L285.36 377.82L285.83 378.5L286.67 378.56L287.52 378.63L288.36 378.7L289.21 378.76L290.06 378.82L290.91 378.88L291.76 378.94L292.61 379L293.46 379.05L294.31 379.11L295.16 379.16L296.01 379.21L296.86 379.26L297.72 379.31L298.57 379.35L299.43 379.4L300.28 379.44L301.14 379.48L301.99 379.52L302.85 379.56L303.71 379.6L304.56 379.63L305.42 379.66L306.28 379.69L307.14 379.72L308 379.75L308.85 379.78L309.71 379.8L310.57 379.82L311.43 379.84L312.29 379.86L313.15 379.88L314.01 379.89L314.87 379.91L315.73 379.92L316.59 379.92L317.46 379.93L318.32 379.94L319.18 379.94L320.04 379.94L320.9 379.94L321.77 379.94L322.64 379.93L323.5 379.92L324.37 379.92L325.23 379.9L326.1 379.89L326.96 379.88L327.83 379.86L328.69 379.84L329.55 379.82L330.41 379.8L331.28 379.77L332.14 379.75L333 379.72L333.86 379.69L334.72 379.66L335.58 379.62L336.44 379.59L337.3 379.55L338.16 379.51L339.02 379.47L339.88 379.43L340.74 379.38L341.6 379.34L342.45 379.29L343.31 379.24L344.17 379.18L345.02 379.13L345.88 379.07L346.73 379.02L347.58 378.96L348.44 378.9L349.29 378.83L350.14 378.77L351 378.7L351.85 378.63L352.7 378.57L353.55 378.49L354.4 378.42L354.87 377.74L355.34 377.06L355.81 376.37L356.28 375.69L356.75 375L357.22 374.3L357.69 373.61L358.16 372.91L358.62 372.21L359.09 371.51L359.55 370.81L360.02 370.1L360.48 369.39L360.94 368.68L361.4 367.96L361.87 367.25L362.33 366.53L362.78 365.81L363.24 365.08L363.7 364.36L364.16 363.63L364.61 362.9L365.07 362.17L365.53 361.43L365.98 360.69L366.43 359.95L366.89 359.21L367.34 358.47L367.79 357.72L368.24 356.98L368.69 356.23L369.14 355.47L369.59 354.72L370.04 353.96L370.49 353.2L370.94 352.44L371.38 351.68L371.83 350.92L372.27 350.15L372.72 349.38L373.15 348.63L373.57 347.89L373.99 347.14L374.42 346.39L374.84 345.64L375.25 344.89L375.67 344.13L376.08 343.38L376.5 342.63L376.91 341.87L377.32 341.12L377.73 340.36L378.13 339.61L378.54 338.85L378.94 338.09L379.34 337.34L379.74 336.58L380.14 335.82L380.53 335.06L380.93 334.3L381.32 333.54L381.71 332.78L382.1 332.02L382.49 331.26L382.87 330.5L383.26 329.74L383.64 328.97L384.02 328.21L384.4 327.45L384.78 326.69L385.15 325.92L385.53 325.16L385.9 324.4L386.27 323.63L386.64 322.87L387 322.11L387.37 321.34L387.73 320.58L388.09 319.81L388.45 319.05L388.09 318.29L387.73 317.52L387.37 316.76L387 316L386.64 315.23L386.27 314.47L385.9 313.71L385.53 312.95L385.15 312.19L384.78 311.43L384.4 310.66L384.02 309.9L383.64 309.14L383.26 308.39L382.87 307.63L382.48 306.87L382.1 306.11L381.71 305.35L381.31 304.59L380.92 303.84L380.52 303.08L380.13 302.32L379.73 301.57L379.33 300.81L378.92 300.06L378.52 299.3L378.11 298.55L377.7 297.8L377.29 297.04L376.88 296.29L376.46 295.54L376.05 294.79L375.63 294.04L375.21 293.29L374.78 292.54L374.36 291.79L373.93 291.04L373.51 290.29L373.08 289.54L372.64 288.79L372.2 288.03L371.75 287.27L371.3 286.51L370.86 285.75L370.41 285L369.96 284.25L369.51 283.5L369.06 282.75L368.61 282L368.15 281.26L367.7 280.51L367.25 279.77L366.79 279.03L366.34 278.3L365.88 277.56L365.42 276.83L364.97 276.1L364.51 275.37L364.05 274.65L363.59 273.92L363.13 273.2L362.66 272.48L362.2 271.76L361.74 271.05L361.28 270.34L360.81 269.63L360.35 268.92L359.88 268.21L359.42 267.51L358.95 266.8L358.48 266.11L358.01 265.41L357.54 264.71L357.08 264.02L356.61 263.33L356.13 262.64L355.66 261.95L355.19 261.27L354.72 260.59L354.25 259.91L353.4 259.84L352.56 259.77L351.71 259.71L350.86 259.65L350.02 259.58L349.17 259.52L348.32 259.46L347.47 259.41L346.62 259.35L345.77 259.3L344.92 259.24L344.07 259.19L343.21 259.14L342.36 259.1L341.51 259.05L340.65 259L339.8 258.96L338.94 258.92L338.08 258.88L337.23 258.84L336.37 258.81L335.51 258.77L334.66 258.74L333.8 258.71L332.94 258.68L332.08 258.65L331.22 258.63L330.36 258.6L329.5 258.58L328.64 258.56L327.78 258.54L326.92 258.53L326.06 258.51L325.2 258.5L324.34 258.49L323.48 258.48L322.62 258.47L321.76 258.47L320.9 258.46L320.04 258.46L319.17 258.46L318.31 258.47ZM396.38 341.24L395.93 342.11L395.47 342.98L395.02 343.85L394.56 344.73L394.1 345.6L393.64 346.47L393.18 347.35L392.71 348.22L392.24 349.1L391.77 349.97L391.29 350.84L390.81 351.72L390.33 352.59L389.85 353.46L389.36 354.34L388.88 355.21L388.38 356.08L387.89 356.95L387.39 357.82L386.89 358.7L386.39 359.57L385.88 360.45L385.37 361.32L384.86 362.19L384.34 363.06L383.83 363.93L383.31 364.79L382.79 365.65L382.26 366.51L381.74 367.37L381.21 368.23L380.69 369.08L380.16 369.93L379.63 370.78L379.1 371.63L378.57 372.47L378.04 373.32L377.51 374.16L376.98 375L376.44 375.84L377.99 375.6L379.54 375.37L381.08 375.12L382.61 374.87L384.14 374.62L385.66 374.36L387.18 374.09L388.69 373.82L390.2 373.54L391.7 373.25L393.19 372.96L394.68 372.67L396.16 372.36L397.63 372.06L399.1 371.74L400.56 371.43L402.02 371.1L403.46 370.77L404.9 370.44L406.34 370.1L407.76 369.75L407.35 368.34L406.92 366.92L406.49 365.5L406.05 364.08L405.6 362.65L405.14 361.22L404.67 359.78L404.2 358.34L403.71 356.9L403.22 355.46L402.72 354.02L402.22 352.57L401.7 351.12L401.18 349.67L400.64 348.22L400.1 346.77L399.55 345.32L398.99 343.86L398.43 342.41L397.86 340.95L397.27 339.5L396.83 340.37L396.38 341.24ZM241.61 342.69L241.06 344.13L240.52 345.58L239.98 347.02L239.46 348.46L238.93 349.9L238.42 351.34L237.91 352.78L237.41 354.21L236.92 355.65L236.44 357.08L235.96 358.51L235.5 359.93L235.04 361.36L234.59 362.78L234.14 364.2L233.71 365.61L233.29 367.02L232.87 368.43L232.46 369.83L233.89 370.17L235.32 370.51L236.76 370.84L238.2 371.17L239.65 371.49L241.11 371.81L242.57 372.11L244.04 372.42L245.51 372.71L246.99 373L248.48 373.29L249.97 373.57L251.47 373.84L252.97 374.11L254.47 374.37L255.99 374.63L257.51 374.88L259.03 375.13L260.56 375.37L262.09 375.6L263.63 375.84L263.1 375.01L262.57 374.18L262.04 373.35L261.51 372.52L260.98 371.68L260.46 370.85L259.93 370.01L259.41 369.17L258.88 368.32L258.36 367.48L257.84 366.63L257.32 365.78L256.8 364.93L256.28 364.08L255.77 363.22L255.25 362.37L254.74 361.51L254.22 360.64L253.71 359.78L253.2 358.92L252.69 358.05L252.18 357.18L251.67 356.31L251.17 355.44L250.68 354.57L250.18 353.7L249.69 352.83L249.21 351.97L248.73 351.1L248.25 350.23L247.77 349.36L247.3 348.49L246.83 347.62L246.36 346.75L245.9 345.88L245.44 345.02L244.98 344.15L244.53 343.28L244.07 342.41L243.62 341.54L243.17 340.67L242.73 339.8L242.17 341.25L241.61 342.69ZM214.71 273.34L214.16 273.52L213.61 273.69L213.06 273.87L212.52 274.05L211.97 274.23L211.42 274.42L210.88 274.6L210.33 274.78L209.79 274.96L209.25 275.15L208.71 275.33L208.17 275.52L207.64 275.71L207.1 275.89L206.57 276.08L206.04 276.27L205.5 276.46L204.97 276.65L204.45 276.84L203.92 277.03L203.4 277.23L202.87 277.42L202.35 277.62L201.83 277.81L201.31 278.01L200.8 278.21L200.28 278.41L199.77 278.61L199.26 278.81L198.75 279.01L198.25 279.21L197.74 279.41L197.24 279.62L196.74 279.83L196.24 280.03L195.74 280.24L195.25 280.45L194.76 280.66L192.76 281.52L190.8 282.4L188.87 283.29L186.98 284.19L185.13 285.1L183.32 286.02L181.55 286.95L179.82 287.89L178.13 288.84L176.48 289.8L174.88 290.77L173.32 291.74L171.8 292.72L170.33 293.71L168.91 294.7L167.53 295.69L166.2 296.69L164.92 297.69L163.69 298.69L162.51 299.69L161.38 300.7L160.3 301.7L159.27 302.71L158.29 303.71L157.37 304.72L156.5 305.72L155.69 306.72L154.93 307.71L154.23 308.7L153.58 309.68L152.99 310.66L152.47 311.64L152 312.6L151.59 313.56L151.24 314.51L150.96 315.46L150.73 316.39L150.57 317.31L150.47 318.22L150.44 319.13L150.47 320.03L150.57 320.94L150.73 321.86L150.96 322.79L151.24 323.73L151.59 324.68L152 325.64L152.47 326.61L152.99 327.58L153.58 328.56L154.23 329.54L154.93 330.53L155.69 331.52L156.5 332.52L157.37 333.51L158.29 334.52L159.27 335.52L160.3 336.52L161.38 337.53L162.51 338.53L163.69 339.53L164.92 340.53L166.2 341.53L167.53 342.53L168.91 343.52L170.33 344.51L171.8 345.5L173.32 346.48L174.88 347.45L176.48 348.42L178.13 349.38L179.82 350.33L181.55 351.27L183.32 352.21L185.13 353.13L186.98 354.05L188.87 354.95L190.8 355.84L192.76 356.72L194.76 357.59L195.26 357.8L195.76 358.01L196.26 358.22L196.76 358.43L197.26 358.64L197.77 358.84L198.28 359.05L198.79 359.25L199.3 359.46L199.82 359.66L200.33 359.86L200.85 360.06L201.37 360.26L201.89 360.46L202.42 360.66L202.94 360.86L203.47 361.05L204 361.25L204.53 361.44L205.06 361.64L205.59 361.83L206.13 362.03L206.67 362.22L207.21 362.41L207.75 362.6L208.29 362.79L208.83 362.98L209.38 363.16L209.93 363.35L210.47 363.53L211.02 363.72L211.58 363.9L212.13 364.09L212.68 364.27L213.24 364.45L213.8 364.63L214.36 364.81L214.92 364.99L215.48 365.17L216.04 365.35L216.37 364.23L216.69 363.12L217.03 362L217.36 360.88L217.71 359.76L218.05 358.63L218.41 357.51L218.76 356.38L219.13 355.25L219.49 354.12L219.87 352.98L220.25 351.85L220.63 350.71L221.02 349.57L221.41 348.42L221.81 347.28L222.21 346.13L222.62 344.98L223.04 343.83L223.46 342.68L223.88 341.53L224.31 340.37L224.75 339.21L225.19 338.06L225.63 336.89L226.08 335.73L226.54 334.57L227 333.4L227.46 332.23L227.93 331.06L228.41 329.89L228.89 328.72L229.37 327.54L229.87 326.37L230.36 325.19L230.86 324.01L231.37 322.83L231.88 321.65L232.4 320.46L232.92 319.28L232.39 318.09L231.87 316.9L231.35 315.71L230.84 314.52L230.33 313.34L229.83 312.15L229.33 310.97L228.84 309.79L228.36 308.61L227.88 307.44L227.4 306.26L226.93 305.09L226.46 303.92L226 302.75L225.54 301.58L225.09 300.41L224.65 299.24L224.21 298.08L223.77 296.92L223.34 295.76L222.92 294.6L222.5 293.45L222.08 292.29L221.67 291.14L221.27 289.99L220.87 288.84L220.47 287.69L220.09 286.55L219.7 285.41L219.32 284.27L218.95 283.13L218.58 281.99L218.22 280.86L217.86 279.73L217.51 278.6L217.16 277.47L216.81 276.35L216.48 275.22L216.14 274.1L215.82 272.98L215.26 273.16L214.71 273.34ZM423.31 275.13L422.97 276.25L422.64 277.37L422.29 278.49L421.95 279.62L421.59 280.74L421.24 281.87L420.87 283L420.51 284.13L420.13 285.27L419.75 286.41L419.37 287.54L418.98 288.69L418.59 289.83L418.19 290.97L417.79 292.12L417.38 293.27L416.96 294.42L416.54 295.57L416.12 296.72L415.69 297.88L415.25 299.04L414.81 300.2L414.37 301.36L413.92 302.52L413.46 303.69L413 304.85L412.54 306.02L412.07 307.19L411.59 308.36L411.11 309.53L410.63 310.71L410.13 311.88L409.64 313.06L409.14 314.24L408.63 315.42L408.12 316.6L407.6 317.79L407.08 318.97L407.61 320.16L408.13 321.35L408.65 322.54L409.16 323.73L409.67 324.91L410.17 326.1L410.67 327.28L411.16 328.46L411.64 329.64L412.12 330.81L412.6 331.99L413.07 333.16L413.54 334.34L414 335.51L414.46 336.68L414.91 337.84L415.35 339.01L415.79 340.17L416.23 341.33L416.66 342.49L417.08 343.65L417.5 344.81L417.92 345.96L418.33 347.11L418.73 348.26L419.13 349.41L419.53 350.56L419.91 351.7L420.3 352.84L420.68 353.98L421.05 355.12L421.42 356.26L421.78 357.39L422.14 358.52L422.49 359.65L422.84 360.78L423.19 361.91L423.52 363.03L423.86 364.15L424.18 365.27L424.74 365.09L425.29 364.91L425.84 364.74L426.39 364.56L426.94 364.38L427.48 364.2L428.03 364.02L428.58 363.84L429.12 363.65L429.67 363.47L430.21 363.29L430.75 363.1L431.29 362.92L431.83 362.73L432.36 362.55L432.9 362.36L433.43 362.17L433.96 361.98L434.5 361.79L435.03 361.6L435.55 361.41L436.08 361.22L436.6 361.02L437.13 360.83L437.65 360.64L438.17 360.44L438.69 360.24L439.2 360.04L439.72 359.85L440.23 359.65L440.74 359.45L441.25 359.24L441.75 359.04L442.26 358.84L442.76 358.63L443.26 358.43L443.76 358.22L444.26 358.01L444.75 357.8L445.24 357.59L447.24 356.73L449.2 355.85L451.13 354.97L453.02 354.07L454.87 353.15L456.68 352.23L458.45 351.3L460.18 350.36L461.87 349.41L463.52 348.45L465.12 347.48L466.68 346.51L468.2 345.53L469.67 344.55L471.09 343.56L472.47 342.56L473.8 341.57L475.08 340.56L476.32 339.56L477.5 338.56L478.63 337.55L479.72 336.55L480.75 335.54L481.73 334.54L482.65 333.53L483.52 332.53L484.34 331.54L485.1 330.54L485.8 329.55L486.45 328.57L487.04 327.59L487.57 326.61L488.05 325.65L488.46 324.69L488.81 323.74L489.1 322.8L489.33 321.86L489.49 320.94L489.6 320.03L489.64 319.13L489.6 318.22L489.51 317.31L489.34 316.39L489.12 315.46L488.83 314.52L488.49 313.57L488.08 312.61L487.61 311.64L487.08 310.67L486.49 309.69L485.85 308.71L485.15 307.72L484.39 306.73L483.58 305.74L482.71 304.74L481.79 303.74L480.81 302.73L479.78 301.73L478.7 300.73L477.57 299.72L476.38 298.72L475.15 297.72L473.87 296.72L472.54 295.72L471.17 294.73L469.74 293.74L468.27 292.75L466.76 291.78L465.2 290.8L463.59 289.83L461.95 288.88L460.26 287.92L458.53 286.98L456.76 286.04L454.95 285.12L453.1 284.2L451.21 283.3L449.28 282.41L447.32 281.53L445.32 280.66L444.81 280.45L444.31 280.24L443.8 280.03L443.3 279.82L442.79 279.62L442.28 279.41L441.76 279.2L441.25 279L440.73 278.8L440.21 278.59L439.7 278.39L439.17 278.19L438.65 277.99L438.13 277.79L437.6 277.59L437.07 277.39L436.55 277.2L436.02 277L435.48 276.81L434.95 276.61L434.41 276.42L433.88 276.23L433.34 276.03L432.8 275.84L432.26 275.65L431.71 275.46L431.17 275.28L430.62 275.09L430.08 274.9L429.53 274.72L428.98 274.53L428.42 274.35L427.87 274.16L427.32 273.98L426.76 273.8L426.2 273.62L425.64 273.44L425.08 273.26L424.52 273.08L423.96 272.91L423.63 274.02L423.31 275.13ZM260.46 262.88L258.92 263.13L257.39 263.38L255.86 263.63L254.34 263.89L252.82 264.16L251.31 264.43L249.8 264.71L248.3 264.99L246.81 265.28L245.32 265.57L243.84 265.87L242.37 266.17L240.9 266.48L239.44 266.79L237.98 267.11L236.54 267.43L235.1 267.76L233.66 268.09L232.24 268.42L232.65 269.84L233.08 271.25L233.51 272.67L233.95 274.1L234.4 275.53L234.86 276.96L235.33 278.39L235.8 279.83L236.29 281.27L236.78 282.71L237.28 284.16L237.78 285.6L238.3 287.05L238.82 288.5L239.36 289.95L239.9 291.4L240.45 292.86L241.01 294.31L241.57 295.77L242.14 297.22L242.73 298.68L243.17 297.81L243.62 296.94L244.07 296.07L244.53 295.2L244.98 294.33L245.44 293.46L245.9 292.6L246.36 291.73L246.82 290.86L247.29 289.99L247.76 289.12L248.23 288.25L248.71 287.38L249.19 286.51L249.67 285.65L250.15 284.78L250.64 283.91L251.12 283.04L251.62 282.17L252.11 281.3L252.61 280.43L253.11 279.55L253.61 278.68L254.12 277.8L254.63 276.93L255.14 276.06L255.66 275.19L256.17 274.33L256.69 273.46L257.21 272.6L257.74 271.74L258.26 270.88L258.79 270.03L259.31 269.17L259.84 268.32L260.37 267.47L260.9 266.62L261.43 265.78L261.96 264.93L262.49 264.09L263.02 263.25L263.56 262.42L262.01 262.65L260.46 262.88ZM377.43 264.07L377.96 264.9L378.49 265.73L379.03 266.57L379.56 267.41L380.08 268.24L380.61 269.08L381.14 269.93L381.66 270.77L382.19 271.62L382.71 272.47L383.23 273.32L383.75 274.17L384.27 275.03L384.78 275.89L385.29 276.75L385.8 277.61L386.31 278.47L386.81 279.34L387.31 280.2L387.82 281.07L388.33 281.94L388.83 282.81L389.32 283.68L389.82 284.55L390.31 285.42L390.79 286.29L391.27 287.15L391.75 288.02L392.23 288.89L392.7 289.76L393.17 290.63L393.64 291.5L394.1 292.37L394.56 293.24L395.02 294.1L395.47 294.97L395.93 295.84L396.38 296.71L396.83 297.58L397.27 298.45L397.83 297L398.39 295.56L398.94 294.12L399.48 292.67L400.02 291.23L400.54 289.79L401.07 288.35L401.58 286.91L402.09 285.47L402.59 284.04L403.08 282.6L403.56 281.17L404.04 279.74L404.5 278.32L404.96 276.89L405.41 275.47L405.86 274.06L406.29 272.64L406.71 271.23L407.13 269.82L407.54 268.42L406.11 268.08L404.68 267.74L403.24 267.41L401.8 267.08L400.35 266.76L398.89 266.45L397.43 266.14L395.96 265.84L394.49 265.54L393.01 265.25L391.52 264.96L390.03 264.68L388.53 264.41L387.03 264.14L385.53 263.88L384.01 263.62L382.49 263.37L380.97 263.12L379.44 262.88L377.91 262.65L376.37 262.42L376.9 263.24L377.43 264.07ZM243.68 170.36L243.42 170.36L243.17 170.37L242.91 170.38L242.66 170.39L242.41 170.4L242.16 170.41L241.91 170.43L241.67 170.45L241.42 170.47L241.18 170.5L240.94 170.53L240.71 170.56L240.47 170.59L240.24 170.62L240.01 170.66L239.78 170.7L239.56 170.74L239.34 170.79L239.12 170.83L238.9 170.88L238.68 170.93L238.47 170.99L238.26 171.05L238.05 171.11L237.84 171.17L237.64 171.24L237.43 171.3L237.23 171.37L237.04 171.45L236.84 171.52L236.65 171.6L236.46 171.68L236.27 171.77L236.09 171.86L235.91 171.95L235.73 172.04L235.55 172.13L235.37 172.23L235.2 172.33L234.44 172.82L233.71 173.36L232.99 173.96L232.3 174.62L231.63 175.34L230.99 176.12L230.36 176.96L229.76 177.85L229.19 178.79L228.64 179.79L228.11 180.84L227.6 181.94L227.12 183.09L226.67 184.3L226.24 185.55L225.83 186.85L225.45 188.19L225.1 189.59L224.77 191.03L224.46 192.51L224.19 194.03L223.93 195.6L223.71 197.21L223.51 198.86L223.34 200.55L223.19 202.27L223.08 204.04L222.98 205.84L222.92 207.68L222.89 209.55L222.88 211.45L222.9 213.39L222.95 215.36L223.03 217.36L223.13 219.39L223.27 221.45L223.43 223.54L223.63 225.65L223.85 227.79L224.1 229.96L224.17 230.49L224.24 231.02L224.31 231.55L224.39 232.09L224.46 232.62L224.54 233.16L224.62 233.7L224.7 234.23L224.78 234.77L224.86 235.31L224.94 235.86L225.03 236.4L225.12 236.94L225.2 237.49L225.29 238.03L225.38 238.58L225.48 239.13L225.57 239.68L225.67 240.23L225.77 240.78L225.86 241.33L225.97 241.88L226.07 242.44L226.17 242.99L226.28 243.55L226.38 244.11L226.49 244.66L226.6 245.22L226.72 245.78L226.83 246.34L226.94 246.91L227.06 247.47L227.18 248.03L227.3 248.6L227.42 249.16L227.54 249.73L227.67 250.29L227.8 250.86L227.93 251.43L228.06 252L229.18 251.72L230.3 251.45L231.43 251.18L232.57 250.91L233.71 250.65L234.85 250.39L236 250.13L237.16 249.88L238.32 249.63L239.48 249.38L240.65 249.14L241.82 248.9L243 248.66L244.18 248.43L245.37 248.2L246.56 247.97L247.76 247.75L248.96 247.53L250.16 247.32L251.37 247.11L252.59 246.9L253.81 246.7L255.03 246.5L256.25 246.3L257.48 246.1L258.72 245.91L259.96 245.73L261.2 245.55L262.45 245.37L263.7 245.19L264.95 245.02L266.21 244.85L267.47 244.69L268.74 244.53L270 244.37L271.28 244.22L272.55 244.07L273.83 243.92L275.12 243.78L276.4 243.64L277.16 242.59L277.92 241.54L278.69 240.5L279.45 239.46L280.22 238.43L280.99 237.4L281.76 236.38L282.53 235.37L283.3 234.36L284.08 233.35L284.85 232.35L285.63 231.36L286.41 230.37L287.19 229.38L287.97 228.4L288.76 227.43L289.54 226.46L290.33 225.5L291.11 224.54L291.9 223.59L292.69 222.64L293.48 221.7L294.27 220.77L295.06 219.84L295.85 218.91L296.65 217.99L297.44 217.08L298.24 216.17L299.03 215.27L299.83 214.37L300.62 213.48L301.42 212.59L302.21 211.71L303.01 210.84L303.81 209.97L304.61 209.1L305.4 208.25L306.2 207.39L307 206.55L307.8 205.71L305.94 204.01L304.09 202.35L302.25 200.73L300.41 199.15L298.59 197.61L296.77 196.11L294.95 194.65L293.15 193.24L291.36 191.86L289.58 190.52L287.81 189.22L286.05 187.96L284.31 186.75L282.57 185.57L280.85 184.44L279.15 183.35L277.46 182.3L275.78 181.3L274.12 180.33L272.48 179.41L270.85 178.54L269.24 177.7L267.65 176.91L266.08 176.16L264.53 175.46L263 174.8L261.48 174.18L259.99 173.61L258.52 173.08L257.07 172.6L255.65 172.16L254.25 171.77L252.87 171.42L251.52 171.12L250.19 170.87L248.89 170.66L247.61 170.49L246.36 170.38L245.14 170.3L243.94 170.28L243.94 170.36L243.68 170.36ZM394.63 170L393.4 170.07L392.15 170.19L390.87 170.35L389.56 170.56L388.23 170.82L386.87 171.12L385.49 171.47L384.09 171.87L382.67 172.31L381.22 172.79L379.75 173.33L378.25 173.9L376.74 174.52L375.21 175.18L373.66 175.89L372.09 176.65L370.5 177.44L368.89 178.28L367.26 179.17L365.62 180.09L363.96 181.06L362.29 182.07L360.6 183.13L358.9 184.23L357.18 185.37L355.45 186.55L353.71 187.77L351.95 189.04L350.18 190.34L348.4 191.69L346.61 193.08L344.81 194.51L343 195.98L341.18 197.49L339.36 199.03L337.52 200.62L335.68 202.25L333.83 203.92L331.97 205.63L332.78 206.47L333.58 207.32L334.38 208.17L335.19 209.03L335.99 209.89L336.79 210.77L337.59 211.64L338.39 212.52L339.19 213.41L339.99 214.31L340.79 215.21L341.59 216.11L342.39 217.02L343.19 217.94L343.98 218.86L344.78 219.79L345.57 220.72L346.37 221.66L347.16 222.6L347.96 223.55L348.75 224.51L349.54 225.47L350.33 226.43L351.12 227.4L351.91 228.38L352.69 229.36L353.48 230.35L354.27 231.34L355.05 232.34L355.83 233.34L356.62 234.35L357.4 235.36L358.18 236.38L358.95 237.4L359.73 238.43L360.51 239.46L361.28 240.5L362.05 241.54L362.83 242.59L363.6 243.64L364.88 243.78L366.16 243.92L367.43 244.07L368.7 244.22L369.97 244.37L371.24 244.53L372.5 244.69L373.75 244.85L375.01 245.02L376.26 245.19L377.51 245.37L378.75 245.54L379.99 245.73L381.23 245.91L382.46 246.1L383.69 246.29L384.91 246.49L386.13 246.69L387.35 246.89L388.56 247.1L389.77 247.31L390.97 247.52L392.17 247.74L393.37 247.96L394.56 248.18L395.74 248.41L396.93 248.64L398.1 248.87L399.28 249.11L400.45 249.35L401.61 249.59L402.77 249.84L403.92 250.09L405.07 250.34L406.22 250.6L407.36 250.86L408.49 251.12L409.62 251.38L410.75 251.65L411.87 251.93L411.99 251.35L412.12 250.77L412.24 250.2L412.36 249.63L412.48 249.05L412.6 248.48L412.72 247.91L412.83 247.34L412.95 246.77L413.06 246.2L413.17 245.63L413.29 245.06L413.39 244.5L413.5 243.93L413.61 243.36L413.71 242.8L413.82 242.24L413.92 241.67L414.02 241.11L414.12 240.55L414.22 239.99L414.31 239.43L414.41 238.88L414.5 238.32L414.59 237.76L414.68 237.21L414.77 236.66L414.86 236.1L414.94 235.55L415.02 235L415.1 234.45L415.18 233.91L415.26 233.36L415.33 232.82L415.41 232.27L415.48 231.73L415.55 231.19L415.62 230.65L415.68 230.11L415.75 229.58L415.99 227.41L416.21 225.27L416.4 223.16L416.56 221.07L416.69 219.01L416.79 216.98L416.86 214.98L416.9 213.01L416.92 211.07L416.9 209.17L416.86 207.3L416.79 205.46L416.7 203.66L416.57 201.9L416.42 200.17L416.25 198.48L416.04 196.83L415.81 195.23L415.55 193.66L415.27 192.14L414.96 190.66L414.63 189.22L414.26 187.83L413.88 186.48L413.47 185.19L413.03 183.94L412.57 182.74L412.09 181.59L411.58 180.49L411.04 179.44L410.48 178.44L409.9 177.5L409.3 176.62L408.67 175.79L408.02 175.01L407.34 174.3L406.65 173.64L405.93 173.04L405.18 172.51L404.42 172.03L404.24 171.93L404.06 171.84L403.88 171.75L403.7 171.66L403.51 171.57L403.33 171.49L403.14 171.41L402.95 171.33L402.76 171.25L402.56 171.18L402.37 171.1L402.17 171.03L401.97 170.97L401.77 170.9L401.56 170.84L401.36 170.78L401.15 170.72L400.94 170.66L400.73 170.61L400.51 170.56L400.3 170.51L400.08 170.46L399.86 170.42L399.63 170.38L399.41 170.34L399.18 170.3L398.95 170.27L398.72 170.24L398.49 170.21L398.25 170.18L398.01 170.16L397.77 170.13L397.53 170.12L397.28 170.1L397.03 170.09L396.78 170.07L396.53 170.06L396.27 170.06L396.01 170.05L395.75 170.05L395.75 169.98L395.83 169.98L395.83 153.1L395.75 153.1L395.75 169.98L394.63 170ZM317.81 219.75L316.81 220.82L315.81 221.9L314.81 222.99L313.8 224.1L312.8 225.21L311.8 226.34L310.8 227.48L309.8 228.63L308.8 229.79L307.8 230.96L306.81 232.14L305.81 233.33L304.82 234.53L303.83 235.74L302.84 236.97L301.85 238.2L300.87 239.45L299.88 240.7L298.9 241.97L299.89 241.91L300.89 241.86L301.88 241.82L302.87 241.77L303.87 241.73L304.87 241.7L305.87 241.66L306.87 241.63L307.88 241.6L308.88 241.57L309.89 241.55L310.9 241.52L311.91 241.51L312.92 241.49L313.93 241.47L314.95 241.46L315.96 241.45L316.98 241.44L318 241.44L319.02 241.44L320.04 241.43L321.05 241.44L322.06 241.44L323.06 241.45L324.07 241.46L325.07 241.47L326.08 241.49L327.08 241.51L328.08 241.53L329.08 241.55L330.08 241.57L331.07 241.6L332.07 241.63L333.06 241.66L334.05 241.69L335.04 241.73L336.03 241.76L337.02 241.8L338 241.84L338.98 241.88L339.96 241.92L340.94 241.97L339.94 240.7L338.94 239.45L337.94 238.2L336.94 236.97L335.94 235.74L334.93 234.53L333.93 233.33L332.92 232.14L331.92 230.96L330.91 229.79L329.9 228.63L328.89 227.48L327.89 226.34L326.88 225.21L325.87 224.1L324.86 222.99L323.85 221.9L322.84 220.82L321.83 219.75L320.82 218.69L319.81 217.64L318.81 218.69L317.81 219.75Z" id="biV5il4mL"></path><path d="M319.96 284.39C300.78 284.39 285.22 299.94 285.22 319.13C285.22 338.31 300.78 353.87 319.96 353.87C339.15 353.87 354.7 338.31 354.7 319.13C354.7 299.94 339.15 284.39 319.96 284.39Z" id="b4PJZ22RM"></path><path d="" id="b4zBKnzxcI"></path></defs><g><g><use xlink:href="#biV5il4mL" opacity="1" fill="#61dafb" fill-opacity="1"></use><g><use xlink:href="#biV5il4mL" opacity="1" fill-opacity="0" stroke="#000000" stroke-width="1" stroke-opacity="0"></use></g></g><g><use xlink:href="#b4PJZ22RM" opacity="1" fill="#61dafb" fill-opacity="1"></use><g><use xlink:href="#b4PJZ22RM" opacity="1" fill-opacity="0" stroke="#000000" stroke-width="1" stroke-opacity="0"></use></g></g><g><use xlink:href="#b4zBKnzxcI" opacity="1" fill="#61dafb" fill-opacity="1"></use><g><use xlink:href="#b4zBKnzxcI" opacity="1" fill-opacity="0" stroke="#000000" stroke-width="1" stroke-opacity="0"></use></g></g></g></svg>