<svg xmlns="http://www.w3.org/2000/svg" width="251" height="249" viewBox="0 0 66.166 65.804"><defs><linearGradient id="A" x1="351.969" y1="243.302" x2="351.969" y2="180.652" gradientUnits="userSpaceOnUse"><stop offset="0" stop-color="#bdbdbd"/><stop offset="1" stop-color="#fff"/></linearGradient><radialGradient id="B" cx="413.061" cy="136.818" fx="413.061" fy="136.818" r="82.125" gradientTransform="matrix(0.38143305,0,0,0.38143298,194.54473,155.58044)" gradientUnits="userSpaceOnUse"><stop offset="0" stop-color="#06c2e7"/><stop offset=".25" stop-color="#0db8ec"/><stop offset=".5" stop-color="#12aef1"/><stop offset=".75" stop-color="#1f86f9"/><stop offset="1" stop-color="#107ddd"/></radialGradient><filter id="C" x="-.021" width="1.042" y="-.022" height="1.045" color-interpolation-filters="sRGB"><feGaussianBlur stdDeviation=".958"/></filter><filter id="D" x="-.048" width="1.096" y="-.048" height="1.096" color-interpolation-filters="sRGB"><feGaussianBlur stdDeviation="3.564"/></filter></defs><g transform="translate(-318.886 -180.595)"><path transform="matrix(.338646 0 0 .326095 212.11606 166.11668)" d="M502.083 148.5a89.11 89.11 0 0 1-89.108 89.108 89.11 89.11 0 0 1-89.108-89.108c0-49.213 39.895-89.108 89.108-89.108a89.11 89.11 0 0 1 89.108 89.108z" opacity=".53" paint-order="markers stroke fill" filter="url(#D)"/><path d="M383.294 211.977a31.325 31.325 0 0 1-62.65 0 31.325 31.325 0 0 1 62.65 0z" fill="url(#A)" stroke="#cdcdcd" stroke-width=".093" stroke-linejoin="round" paint-order="markers stroke fill"/><path d="M380.84 211.977a28.871 28.871 0 0 1-57.741 0 28.871 28.871 0 0 1 57.741 0z" fill="url(#B)" paint-order="markers stroke fill"/><path d="M351.97 184.612a.42.42 0 0 0-.421.421v4.855a.42.42 0 1 0 .842 0v-4.855a.42.42 0 0 0-.421-.421zm-2.754.174c-.028-.003-.057-.003-.086 0a.42.42 0 0 0-.375.462l.212 2.03a.42.42 0 1 0 .837-.087l-.212-2.03a.42.42 0 0 0-.377-.375zm5.527.002a.42.42 0 0 0-.377.375l-.214 2.03a.42.42 0 0 0 .837.088l.214-2.03a.42.42 0 0 0-.375-.463c-.03-.003-.058-.003-.085-.001zm-8.355.408a.43.43 0 0 0-.085.009.42.42 0 0 0-.325.499l1.006 4.75a.42.42 0 0 0 .824-.174l-1.006-4.75a.42.42 0 0 0-.414-.334zm11.184.004a.42.42 0 0 0-.414.334l-1.01 4.75a.42.42 0 0 0 .823.175l1.01-4.75a.42.42 0 0 0-.324-.499c-.03-.006-.057-.01-.085-.01zm-13.883.757c-.055-.005-.11.001-.166.02a.42.42 0 0 0-.27.53l.63 1.942a.42.42 0 0 0 .801-.26l-.63-1.942a.42.42 0 0 0-.364-.29zm16.568.001a.42.42 0 0 0-.364.29l-.63 1.942a.42.42 0 0 0 .801.26l.63-1.942a.42.42 0 0 0-.27-.53c-.055-.018-.112-.024-.166-.02zm-19.237.976a.42.42 0 0 0-.377.592l1.972 4.437a.42.42 0 1 0 .769-.342l-1.972-4.437a.42.42 0 0 0-.392-.25zm21.937.015a.42.42 0 0 0-.393.25l-1.978 4.434a.42.42 0 0 0 .769.343l1.978-4.434a.42.42 0 0 0-.213-.556c-.053-.024-.11-.036-.163-.037zm-24.415 1.296c-.08-.006-.164.012-.24.056a.42.42 0 0 0-.154.575l1.02 1.77a.42.42 0 0 0 .729-.421l-1.02-1.77a.42.42 0 0 0-.335-.21zm26.86 0a.42.42 0 0 0-.335.21l-1.02 1.77a.42.42 0 1 0 .729.421l1.02-1.77a.42.42 0 0 0-.394-.631zm-29.265 1.5a.42.42 0 0 0-.326.668l2.85 3.93a.42.42 0 0 0 .682-.494l-2.85-3.93a.42.42 0 0 0-.355-.174zm31.7.02a.42.42 0 0 0-.355.173l-2.856 3.926a.42.42 0 0 0 .681.495l2.856-3.926a.42.42 0 0 0-.326-.669zm-33.852 1.782a.42.42 0 0 0-.335.702l1.366 1.518a.42.42 0 1 0 .626-.563l-1.366-1.518a.42.42 0 0 0-.291-.139zm35.976.003a.42.42 0 0 0-.291.139l-1.366 1.518a.42.42 0 1 0 .626.563l1.367-1.518a.42.42 0 0 0-.335-.702zm-38.037 1.977a.42.42 0 0 0-.259.734l3.608 3.248a.42.42 0 1 0 .563-.626l-3.61-3.248a.42.42 0 0 0-.304-.108zm40.108.014a.42.42 0 0 0-.304.108l-3.61 3.246a.42.42 0 1 0 .563.626l3.61-3.246a.42.42 0 0 0-.259-.734zm-41.822 2.2a.42.42 0 0 0-.262.762l1.652 1.2a.42.42 0 1 0 .495-.681l-1.652-1.2a.42.42 0 0 0-.233-.081zm43.535.015a.42.42 0 0 0-.233.08l-1.653 1.2a.42.42 0 1 0 .494.681l1.653-1.2a.42.42 0 0 0-.262-.762zm-45.137 2.336a.42.42 0 0 0-.181.785l4.205 2.428a.42.42 0 0 0 .421-.729l-4.205-2.428a.42.42 0 0 0-.24-.056zm46.727 0c-.08-.006-.164.012-.24.056l-4.205 2.428a.42.42 0 1 0 .421.729l4.205-2.428a.42.42 0 0 0-.181-.785zm-47.94 2.506a.42.42 0 0 0-.18.805l1.865.832a.42.42 0 1 0 .343-.769l-1.865-.832a.42.42 0 0 0-.163-.037zm49.158.017a.42.42 0 0 0-.164.037l-1.866.83a.42.42 0 0 0 .342.769l1.866-.83a.42.42 0 0 0-.179-.806zm-50.237 2.602a.42.42 0 0 0-.364.289.42.42 0 0 0 .27.531l4.616 1.504a.42.42 0 0 0 .261-.8l-4.616-1.504a.42.42 0 0 0-.166-.019zm51.315.018c-.055-.005-.11.001-.166.02l-4.617 1.5a.42.42 0 1 0 .26.801l4.617-1.5a.42.42 0 0 0 .27-.53.42.42 0 0 0-.364-.29zm-51.987 2.732a.42.42 0 0 0-.414.334.42.42 0 0 0 .324.499l1.998.425a.42.42 0 1 0 .175-.823l-1.998-.425c-.03-.006-.057-.01-.085-.01zm52.655.004a.52.52 0 0 0-.085.009l-1.998.424a.42.42 0 0 0 .175.823l1.998-.424a.42.42 0 0 0 .324-.499.42.42 0 0 0-.414-.334zm-53.164 2.762a.42.42 0 0 0-.377.375.42.42 0 0 0 .374.463l4.828.5a.42.42 0 0 0 .088-.837l-4.828-.5a.43.43 0 0 0-.085 0zm53.676.036c-.028-.003-.057-.003-.086 0l-4.83.504a.42.42 0 0 0 .087.837l4.83-.504a.42.42 0 0 0 .375-.462.42.42 0 0 0-.377-.375zm-53.758 2.795a.42.42 0 1 0 0 .842h2.042a.42.42 0 1 0 0-.842zm51.793 0a.42.42 0 1 0 0 .842h2.042a.42.42 0 1 0 0-.842zm-46.803 2.295c-.028-.003-.056-.003-.085 0l-4.83.504a.42.42 0 1 0 .087.837l4.83-.504a.42.42 0 0 0 .375-.462.42.42 0 0 0-.377-.375zm43.853.03a.42.42 0 0 0-.377.375.42.42 0 0 0 .374.463l4.828.5a.42.42 0 1 0 .088-.837l-4.828-.5c-.03-.003-.058-.003-.086 0zm-46.26 2.844a.43.43 0 0 0-.085.009l-1.998.424a.42.42 0 0 0 .175.823l1.998-.424a.42.42 0 0 0 .324-.499.42.42 0 0 0-.414-.334zm48.67.004a.42.42 0 0 0-.414.334.42.42 0 0 0 .324.499l1.998.425a.42.42 0 0 0 .175-.823l-1.998-.425c-.028-.006-.057-.01-.085-.01zm-45.305 1.658c-.055-.005-.11.001-.166.02l-4.617 1.5a.42.42 0 1 0 .26.801l4.617-1.5a.42.42 0 0 0 .27-.53.42.42 0 0 0-.364-.29zm41.937.015a.42.42 0 0 0-.364.289.42.42 0 0 0 .27.531l4.616 1.504a.42.42 0 0 0 .261-.8l-4.616-1.504a.42.42 0 0 0-.166-.019zm-43.7 3.273a.42.42 0 0 0-.163.036l-1.866.83a.42.42 0 0 0 .342.769l1.866-.83a.42.42 0 0 0 .213-.556.42.42 0 0 0-.392-.25zm45.46.016a.42.42 0 0 0-.18.806l1.865.832a.42.42 0 0 0 .343-.769l-1.865-.832a.42.42 0 0 0-.163-.037zm-41.826.912c-.08-.006-.164.012-.24.056l-4.205 2.428a.42.42 0 0 0 .421.729l4.205-2.427a.42.42 0 0 0-.181-.785zm38.2 0a.42.42 0 0 0-.181.785l4.205 2.427a.42.42 0 1 0 .421-.729l-4.205-2.428a.42.42 0 0 0-.24-.056zm-39.25 3.562a.42.42 0 0 0-.233.081l-1.653 1.2a.42.42 0 0 0 .494.681l1.653-1.2a.42.42 0 0 0-.262-.762zm40.288.014a.42.42 0 0 0-.262.762l1.652 1.2a.42.42 0 0 0 .495-.681l-1.652-1.2a.42.42 0 0 0-.233-.081zm-36.544.145a.42.42 0 0 0-.304.108l-3.61 3.246a.42.42 0 1 0 .563.626l3.61-3.246a.42.42 0 0 0-.259-.734zm32.8.012a.42.42 0 0 0-.26.734l3.608 3.248a.42.42 0 1 0 .563-.626l-3.61-3.248a.42.42 0 0 0-.304-.108zm-29.375 3.084a.42.42 0 0 0-.355.173l-2.856 3.926a.42.42 0 0 0 .681.495l2.856-3.926a.42.42 0 0 0-.325-.669zm25.936.018a.42.42 0 0 0-.327.668l2.85 3.93a.42.42 0 0 0 .681-.494l-2.85-3.93a.42.42 0 0 0-.355-.174zm-29.623.606a.42.42 0 0 0-.291.139l-1.366 1.518a.42.42 0 1 0 .625.563l1.367-1.518a.42.42 0 0 0-.335-.703zm33.33.002c-.107-.006-.217.03-.304.108a.42.42 0 0 0-.031.594l1.366 1.518a.42.42 0 1 0 .626-.563l-1.366-1.518a.42.42 0 0 0-.291-.139zm-25.655 1.684a.42.42 0 0 0-.392.25l-1.978 4.434a.42.42 0 1 0 .769.343l1.978-4.434a.42.42 0 0 0-.376-.593zm17.956.012a.42.42 0 0 0-.377.592l1.972 4.437a.42.42 0 0 0 .769-.342l-1.972-4.437a.42.42 0 0 0-.392-.25zM339.5 233.1a.42.42 0 0 0-.335.21l-1.02 1.77a.42.42 0 1 0 .729.421l1.02-1.77a.42.42 0 0 0-.394-.631zm24.934 0c-.08-.006-.164.012-.24.056a.42.42 0 0 0-.154.575l1.02 1.77a.42.42 0 0 0 .729-.421l-1.02-1.77a.42.42 0 0 0-.335-.21zm-17.054.063a.42.42 0 0 0-.414.334l-1.01 4.75a.42.42 0 1 0 .823.175l1.01-4.75a.42.42 0 0 0-.324-.499c-.03-.006-.057-.01-.085-.01zm9.16.003c-.028 0-.056.003-.085.01a.42.42 0 0 0-.325.499l1.006 4.75a.42.42 0 0 0 .824-.174l-1.006-4.75a.42.42 0 0 0-.414-.334zm-4.572.48a.42.42 0 0 0-.421.421v4.855a.42.42 0 1 0 .842 0v-4.855a.42.42 0 0 0-.421-.421zm-7.727 1.57a.42.42 0 0 0-.364.29l-.63 1.942a.42.42 0 0 0 .801.26l.63-1.942a.42.42 0 0 0-.436-.55zm15.45.001a.41.41 0 0 0-.166.019.42.42 0 0 0-.27.53l.63 1.942a.42.42 0 1 0 .801-.26l-.63-1.942a.42.42 0 0 0-.364-.29zm-10.365 1.082a.42.42 0 0 0-.377.375l-.213 2.03a.42.42 0 1 0 .837.088l.213-2.03a.42.42 0 0 0-.375-.463.43.43 0 0 0-.085 0zm5.267.002c-.028-.003-.057-.003-.086 0a.42.42 0 0 0-.375.462l.212 2.03a.42.42 0 1 0 .837-.088l-.212-2.03a.42.42 0 0 0-.377-.375z" fill="#f4f2f3" paint-order="markers stroke fill"/><path transform="matrix(.351543 0 0 .351543 206.79018 159.77261)" d="M469.096 100.607l-65.5 38.06-41.42 65.207 60.594-44.88z" opacity=".41" paint-order="markers stroke fill" filter="url(#C)"/><path d="M355.27 215.433l-6.6-6.913 23.416-15.752z" fill="#ff5150" paint-order="markers stroke fill"/><path d="M355.27 215.433l-6.6-6.913-16.815 22.665z" fill="#f1f1f1" paint-order="markers stroke fill"/><path d="M331.853 231.185l23.416-15.752 16.815-22.665z" opacity=".243"/></g></svg>