<?xml version="1.0" standalone="no"?>
<!DOCTYPE svg PUBLIC "-//W3C//DTD SVG 20010904//EN"
 "http://www.w3.org/TR/2001/REC-SVG-20010904/DTD/svg10.dtd">
<svg version="1.0" xmlns="http://www.w3.org/2000/svg"
 width="700.000000pt" height="700.000000pt" viewBox="0 0 700.000000 700.000000"
 preserveAspectRatio="xMidYMid meet">
<metadata>
Created by potrace 1.11, written by Peter Selinger 2001-2013
</metadata>
<g transform="translate(0.000000,700.000000) scale(0.100000,-0.100000)"
fill="#000000" stroke="none">
<path d="M4230 6990 c-45 -12 -154 -71 -210 -113 -74 -55 -210 -193 -293 -297
-172 -215 -311 -439 -470 -760 -94 -189 -125 -265 -114 -277 13 -12 140 -6
242 11 14 2 52 58 128 192 271 473 393 656 534 804 166 175 286 219 377 140
47 -42 108 -176 132 -295 8 -38 33 -190 39 -235 45 -358 4 -1199 -66 -1354
-12 -26 -25 -30 -114 -41 -40 -5 -358 -65 -430 -81 -11 -3 -31 -7 -44 -10 -13
-3 -50 -11 -82 -18 -56 -14 -57 -13 -86 13 -16 14 -62 55 -103 91 -41 36 -82
72 -90 81 -44 46 -430 360 -595 484 -507 380 -955 638 -1333 766 -63 21 -151
47 -195 56 -100 21 -283 23 -348 5 -98 -29 -206 -145 -251 -270 -21 -58 -28
-188 -14 -257 3 -16 9 -46 12 -65 22 -145 115 -411 204 -585 112 -221 455
-773 486 -782 11 -4 12 -2 84 159 l48 106 -60 94 c-241 371 -410 702 -480 938
-26 88 -33 140 -33 235 0 96 21 140 78 168 128 63 468 -45 907 -288 168 -94
491 -312 701 -475 25 -19 58 -44 73 -55 85 -60 443 -347 517 -413 115 -103
118 -108 64 -111 -68 -3 -89 -8 -355 -87 -154 -46 -840 -270 -890 -291 -8 -3
-19 -7 -25 -9 -73 -20 -496 -186 -623 -245 -35 -16 -66 -29 -68 -29 -3 0 -105
-49 -227 -109 -642 -314 -1029 -608 -1186 -903 -108 -202 -91 -353 55 -487
130 -119 395 -217 669 -247 33 -3 68 -8 79 -10 115 -21 676 -22 881 0 140 15
165 19 170 25 9 15 -57 106 -125 173 l-69 68 -158 -7 c-701 -30 -1154 42
-1257 201 -71 109 5 258 226 442 243 203 714 469 1158 654 69 29 150 62 180
75 183 77 713 258 995 340 88 25 241 70 340 100 277 81 457 134 487 141 25 5
52 -19 339 -305 l313 -310 -13 -53 c-45 -177 -158 -587 -198 -713 -14 -44 -26
-87 -28 -95 -6 -29 -74 -238 -128 -396 -133 -388 -277 -747 -409 -1024 -33
-69 -69 -145 -81 -170 -12 -25 -30 -57 -40 -73 -10 -15 -15 -27 -11 -27 3 0 2
-6 -4 -12 -5 -7 -27 -44 -47 -83 -167 -308 -392 -611 -546 -737 -213 -174
-360 -50 -423 357 -18 113 -19 124 -32 305 -7 92 -7 364 -1 659 l2 94 -118 85
c-65 47 -119 83 -121 81 -33 -33 -50 -893 -21 -1074 2 -16 7 -52 11 -80 5 -39
28 -152 48 -230 2 -5 6 -23 10 -40 15 -56 63 -190 92 -250 67 -141 243 -255
393 -255 198 1 475 238 741 635 353 528 710 1355 975 2265 28 95 57 199 131
470 2 8 9 36 16 63 6 26 15 47 19 47 4 0 40 -39 80 -87 41 -49 82 -97 92 -108
10 -11 71 -85 135 -165 64 -80 120 -149 125 -155 45 -55 224 -300 303 -415
492 -718 700 -1252 550 -1409 -62 -65 -188 -66 -381 -5 -194 62 -377 154 -820
414 l-209 122 -68 -28 c-91 -36 -168 -81 -168 -98 0 -38 499 -358 747 -478
331 -161 572 -235 771 -236 138 0 226 32 308 113 140 139 162 280 88 579 -110
441 -374 915 -853 1531 -105 135 -369 454 -462 560 -15 17 -58 67 -96 111
l-70 82 13 63 c7 35 16 80 19 99 3 19 16 94 30 165 27 147 31 166 45 250 5 33
13 74 16 90 4 17 7 37 8 47 0 12 14 18 51 23 27 4 59 9 70 10 10 2 60 9 110
15 49 6 101 13 115 15 129 19 855 28 1025 13 257 -24 444 -85 519 -169 38 -41
57 -95 50 -137 -27 -146 -251 -352 -647 -596 -59 -36 -109 -66 -111 -66 -2 0
-32 -16 -66 -35 -34 -19 -115 -63 -181 -96 -66 -34 -124 -69 -129 -78 -18 -35
-47 -169 -49 -233 l-2 -68 40 15 c113 40 549 271 730 388 345 222 596 474 671
674 105 280 -77 502 -497 607 -87 22 -144 33 -208 42 -91 12 -106 14 -290 29
-33 3 -154 6 -270 6 -200 0 -301 -3 -480 -17 -133 -10 -145 -11 -271 -19
l-121 -7 3 43 c5 93 15 251 19 286 36 342 38 739 4 990 -35 267 -106 522 -172
626 -100 155 -305 247 -457 207z m240 -2515 c27 -32 -39 -395 -71 -395 -6 0
-80 68 -165 152 -112 112 -150 156 -143 165 13 15 111 48 219 72 105 24 144
25 160 6z"/>
<path d="M3451 5362 c-18 -13 -8 -29 66 -94 126 -112 288 -206 395 -229 129
-27 362 -8 396 33 14 17 17 48 9 74 -15 42 -293 151 -457 179 -19 3 -42 8 -50
10 -8 2 -33 7 -55 10 -23 3 -52 8 -65 11 -50 10 -225 15 -239 6z"/>
<path d="M2387 5015 c-156 -127 -307 -287 -393 -415 -39 -58 -106 -181 -101
-186 3 -3 30 6 142 51 11 4 25 9 32 11 6 1 63 27 125 57 92 44 135 73 228 154
63 54 157 129 208 167 50 37 92 72 92 77 0 15 -33 44 -146 126 l-72 52 -115
-94z"/>
<path d="M5001 4364 c-32 -40 -45 -99 -45 -204 -1 -107 6 -152 35 -242 40
-121 108 -227 229 -355 55 -59 64 -65 70 -48 8 22 5 151 -5 203 -3 17 -8 48
-10 67 -15 113 -97 415 -138 505 -45 100 -95 127 -136 74z"/>
<path d="M1860 3541 c-94 -38 -146 -70 -159 -98 -48 -105 89 -573 247 -842
153 -263 438 -523 737 -674 200 -101 352 -147 637 -191 l86 -13 47 105 c25 58
49 118 52 132 5 30 -6 35 -112 46 -44 4 -164 22 -205 29 -112 21 -303 90 -420
152 -130 68 -234 147 -355 268 -187 186 -314 392 -391 636 -31 100 -40 145
-75 387 -6 45 -14 84 -18 86 -3 2 -35 -8 -71 -23z"/>
<path d="M4818 2783 c-8 -10 -40 -54 -71 -98 -31 -44 -86 -114 -122 -155 -80
-90 -163 -213 -200 -295 -34 -76 -85 -218 -85 -239 0 -42 94 7 245 129 204
164 405 396 405 467 0 45 -121 208 -154 208 -2 0 -10 -8 -18 -17z"/>
</g>
</svg>
