<svg xmlns="http://www.w3.org/2000/svg" viewBox="0 0 112 32.8"><path fill="#F4B960" d="M16.3 1.1c8.4 0 15.3 6.8 15.3 15.3s-6.8 15.3-15.3 15.3S1 24.9 1 16.4 7.8 1.1 16.3 1.1z"/><path fill="#E66F32" d="M14.7 1.1c7.6 0 13.8 6.2 13.8 13.8s-6.2 13.8-13.8 13.8S.9 22.5.9 14.9 7.1 1.1 14.7 1.1z"/><path fill="#E43C41" d="M16.6 1.1c6.6 0 12 5.4 12 12s-5.4 12-12 12-12-5.4-12-12 5.4-12 12-12z"/><path fill="#BDD041" d="M17.5 3c6.1 0 11 4.9 11 11s-4.9 11-11 11-11-4.9-11-11 5-11 11-11z"/><path fill="#6DB54C" d="M16.8 4.7C22.4 4.7 27 9.3 27 14.9s-4.6 10.2-10.2 10.2S6.6 20.5 6.6 14.9 11.1 4.7 16.8 4.7z"/><path fill="#AEDAE6" d="M15.1 4.7c4.7 0 8.5 3.8 8.5 8.5s-3.8 8.5-8.5 8.5-8.5-3.8-8.5-8.5 3.8-8.5 8.5-8.5z"/><path fill="#56B8DE" d="M16.5 4.6c4 0 7.2 3.2 7.2 7.2S20.5 19 16.5 19s-7.2-3.2-7.2-7.2 3.2-7.2 7.2-7.2z"/><path fill="#00B1D5" d="M17.4 6.5c3.5 0 6.3 2.8 6.3 6.3s-2.8 6.3-6.3 6.3-6.3-2.8-6.3-6.3 2.8-6.3 6.3-6.3z"/><path fill="#221F1F" d="M16.5 8.3c3 0 5.4 2.4 5.4 5.4s-2.4 5.4-5.4 5.4-5.4-2.4-5.4-5.4 2.4-5.4 5.4-5.4z"/><path fill="#FFF" d="M17.7 11.2c.4-.9 1.1-1.3 1.7-1.1.5.2.7 1.1.3 2s-1.1 1.3-1.7 1.1-.7-1.1-.3-2z"/><path fill="#202020" d="M36.1 12.4s0-.1.1-.1h3.4c1.9 0 2.8.9 2.8 2.2 0 1-.5 1.5-1.1 1.8.5.2 1.2.9 1.2 1.9 0 1.7-1.1 2.5-3.1 2.5h-3.3s-.1 0-.1-.1l.1-8.2zm3.5 3.3c.8 0 1.3-.4 1.3-1.1s-.5-1.1-1.3-1.1h-1.8v2.1c0 .1 1.8.1 1.8.1zm-1.8 3.6h1.9c.9 0 1.4-.4 1.4-1.2 0-.7-.5-1.2-1.4-1.2h-1.9v2.2c-.1.2 0 .2 0 .2zm6 1.3s-.1 0 0 0l-.1-5.8s0-.1.1-.1H45s.1 0 .1.1v.5c.3-.4.9-.8 1.7-.8.5 0 1 .2 1.3.5v.1l-.7.8h-.2c-.3-.1-.6-.3-1-.3-.8 0-1.2.5-1.2 1.5v3.3s0 .1-.1.1l-1.1.1zm4.7-1.5c-.1-.4-.2-.8-.2-1.5s0-1.1.2-1.5c.4-1.1 1.3-1.6 2.7-1.6s2.3.6 2.7 1.6c.1.4.2.8.2 1.5s0 1.1-.2 1.5c-.4 1.1-1.3 1.6-2.7 1.6s-2.4-.5-2.7-1.6zm3.9-.3c.1-.3.1-.6.1-1.1s0-.8-.1-1.1c-.2-.5-.6-.8-1.2-.8s-1 .3-1.2.8c-.1.3-.1.6-.1 1.1s0 .8.1 1.1c.2.5.6.8 1.2.8.5 0 .9-.4 1.2-.8zm8.1 1.8s-.1 0 0 0l-1.3-4-1.4 3.8s0 .1-.1.1h-1.1s-.1 0-.1-.1l-2-5.7s0-.1.1-.1h1.3c.1 0 .1 0 .1.1l1.2 4 1.2-4 .1-.1h1s.1 0 .1.1l1.3 4h.1l1.2-4 .1-.1h1.3c.1 0 .1 0 .1.1l-2 5.7c-.1 0-.1.1-.1.1l-1.1.1zm3.5-.8c-.1 0-.1-.1 0 0l.8-.8h.2c.4.4 1.2.7 1.9.7.8 0 1.2-.3 1.2-.7 0-.3-.2-.6-1.1-.6h-.7c-1.3-.1-2-.7-2-1.7 0-1.1.9-1.9 2.5-1.9 1 0 1.8.3 2.4.7.1 0 .1.1.1.1l-.6.7h-.2c-.4-.2-1.1-.5-1.7-.5s-1 .2-1 .6c0 .3.2.5 1.1.6h.7c1.3.1 2 .8 2 1.7 0 1.2-.9 2-2.7 2-1.4.1-2.3-.4-2.9-.9zm6.6-.7c-.1-.4-.2-.8-.2-1.5s.1-1.1.2-1.5c.4-1.1 1.3-1.6 2.7-1.6s2.3.6 2.7 1.6c.1.4.2.8.2 1.8l-.1.1H71.9c0 .1.1.3.1.4.2.6.7.9 1.4.9s1.2-.2 1.5-.5h.2l.8.6c.1 0 .1.1.1.1-.5.6-1.5 1-2.7 1-1.4.3-2.4-.3-2.7-1.4zm3.9-2.7c-.1-.5-.6-.8-1.2-.8s-1.1.3-1.3.8c-.1.1-.1.3-.1.5H74.7c-.2-.1-.2-.3-.2-.5zm2.6 4.2c-.1 0-.1 0 0 0l-.1-5.8.1-.1h1.2c.1 0 .1 0 .1.1v.5h.1c.3-.4.9-.8 1.7-.8.5 0 1 .2 1.3.5.1 0 .1.1.1.1l-.7.8h-.2c-.3-.1-.6-.3-1-.3-.8 0-1.2.5-1.2 1.5v3.3l-.1.1-1.3.1zm4.7-.9c-.1 0-.1-.1-.1-.2l.8-.9h.2c.6.4 1.5.9 2.5.9 1.1 0 1.7-.5 1.7-1.2 0-.6-.4-1-1.6-1.2h-.5c-1.7-.2-2.7-1-2.7-2.4 0-1.5 1.2-2.6 3.1-2.6 1.1 0 2.2.3 2.9.8.1 0 .1.1.1.1l-.6.9h-.2c-.7-.4-1.4-.6-2.2-.6-.9 0-1.4.4-1.4 1.1 0 .6.4 1 1.7 1.1h.5c1.7.2 2.7 1 2.7 2.5s-1.2 2.6-3.4 2.6c-1.5.2-2.7-.3-3.5-.9zm9.6 1c-1.3 0-1.8-.6-1.8-1.7v-3.2h-.5c-.1 0-.1 0-.1-.1v-.8l.1-.1h.5v-1.6l.1-.1h1.2c.1 0 .1 0 .1.1v1.6h1c.1 0 .1 0 .1.1v.8l-.1.1h-1v3.1c0 .4.2.5.6.5h.4c.1 0 .1 0 .1.1v1l-.1.1-.6.1zm5.7-.1c-.1 0-.1 0 0 0l-.1-.5c-.3.4-.9.7-1.8.7-1.2 0-2.2-.5-2.2-1.8s1-1.9 2.6-1.9H97v-.3c0-.7-.3-1-1.4-1-.7 0-1.2.2-1.5.4h-.2l-.5-.8c-.1 0-.1-.1.1-.1.5-.3 1.2-.6 2.3-.6 2 0 2.7.6 2.7 2.1v3.9l-.1.1-1.3-.2zm-.2-2v-.4H95.7c-1 0-1.4.2-1.4.8 0 .5.4.7 1.1.7 1-.1 1.5-.4 1.5-1.1zm2.6.5c-.1-.4-.2-.8-.2-1.5s.1-1.1.2-1.5c.4-1.1 1.4-1.6 2.7-1.6 1 0 1.7.3 2.2.9.1 0 .1.1-.1.1l-.8.7h-.2c-.3-.3-.6-.5-1.2-.5s-1 .2-1.2.8c-.1.3-.1.6-.1 1.1 0 .4 0 .8.1 1.1.2.5.6.8 1.2.8.4 0 .9-.2 1.2-.5h.2l.8.7c.1 0 .1.1.1.1-.6.6-1.4.9-2.2.9-1.3.1-2.3-.5-2.7-1.6zm10.2 1.5c-.1 0-.1 0-.2-.1l-1.6-2.5-.9.9v1.5l-.1.1h-1.2c-.1 0-.1 0-.1-.1v-8.2l.1-.1h1.2c.1 0 .1 0 .1.1v4.9l2.2-2.4c0-.1.1-.2.2-.1h1.4c.1 0 .1 0 .1.1l-2.1 2.2 2.3 3.6c.1 0 .1.1-.1.1h-1.3z"/></svg>